<svg width="90" height="68" viewBox="0 0 90 68" fill="none" xmlns="http://www.w3.org/2000/svg">
<path opacity="0.4" d="M26.7188 8.9375H39.375V23H5.625C2.51895 23 0 20.4863 0 17.375V6.125C0 3.01367 2.51895 0.5 5.625 0.5H12.9375C15.4969 5.50977 20.707 8.9375 26.7188 8.9375ZM84.375 23H50.625V8.9375H63.2812C69.293 8.9375 74.4961 5.50977 77.0625 0.5H84.375C87.4863 0.5 90 3.01367 90 6.125V17.375C90 20.4863 87.4863 23 84.375 23ZM5.625 28.625H39.375V68H14.0625C9.40254 68 5.625 64.2207 5.625 59.5625V28.625ZM50.625 68V28.625H84.375V59.5625C84.375 64.2207 80.5957 68 75.9375 68H50.625Z" fill="#56B3D9"/>
</svg>
