<svg width="68" height="90" viewBox="0 0 68 90" fill="none" xmlns="http://www.w3.org/2000/svg">
<path d="M38.2363 7.81348C41.084 2.97246 46.2871 0 51.8945 0H52.2812C60.8242 0 67.75 6.92578 67.75 15.4688C67.75 24.0117 60.8242 30.9375 52.2812 30.9375H39.625V45H28.375V30.9375H15.7188C7.17578 30.9375 0.25 24.0117 0.25 15.4688C0.25 6.92578 7.17578 0 15.7188 0H16.1055C21.7129 0 26.916 2.97246 29.7637 7.81348L34 15.0223L38.2363 7.81348ZM22.4863 12.0902C21.1504 9.82793 18.7246 8.4375 16.1055 8.4375H15.7188C11.834 8.4375 8.6875 11.5857 8.6875 15.4688C8.6875 19.3535 11.834 22.5 15.7188 22.5H28.6035L22.4863 12.0902ZM39.3965 22.5H52.2812C56.166 22.5 59.3125 19.3535 59.3125 15.4688C59.3125 11.5857 56.166 8.4375 52.2812 8.4375H51.8945C49.2754 8.4375 46.8496 9.82793 45.5137 12.0902L39.3965 22.5ZM28.375 90V50.625H39.625V90H28.375Z" fill="#8346FC"/>
</svg>
