<svg xmlns="http://www.w3.org/2000/svg" xmlns:xlink="http://www.w3.org/1999/xlink" xmlns:svgjs="http://svgjs.com/svgjs" version="1.1" width="512" height="512" x="0" y="0" viewBox="0 0 64 64" style="enable-background:new 0 0 512 512" xml:space="preserve" class=""><g><path xmlns="http://www.w3.org/2000/svg" d="m37.65 23a7.009 7.009 0 0 0 -.071-.989.836.836 0 0 1 .445-.841l.524-.289a.845.845 0 0 0 .331-1.181l-1.45-2.4a.927.927 0 0 0 -1.235-.316l-.53.292a.959.959 0 0 1 -1.029-.084 7.685 7.685 0 0 0 -1.692-.939.89.89 0 0 1 -.589-.81v-.579a.885.885 0 0 0 -.9-.864h-2.9a.885.885 0 0 0 -.9.864v.579a.89.89 0 0 1 -.589.81 7.685 7.685 0 0 0 -1.692.939.959.959 0 0 1 -1.029.084l-.53-.292a.927.927 0 0 0 -1.235.316l-1.45 2.4a.845.845 0 0 0 .331 1.181l.524.289a.836.836 0 0 1 .445.841 6.924 6.924 0 0 0 0 1.978.836.836 0 0 1 -.445.841l-.524.289a.845.845 0 0 0 -.331 1.181l1.45 2.4a.927.927 0 0 0 1.235.316l.53-.292a.959.959 0 0 1 1.029.084 7.685 7.685 0 0 0 1.692.939.89.89 0 0 1 .589.81v.579a.885.885 0 0 0 .9.864h2.9a.885.885 0 0 0 .9-.864v-.579a.89.89 0 0 1 .589-.81 7.685 7.685 0 0 0 1.692-.939.959.959 0 0 1 1.029-.084l.53.292a.927.927 0 0 0 1.235-.316l1.45-2.4a.845.845 0 0 0 -.331-1.181l-.524-.289a.836.836 0 0 1 -.445-.841 7.009 7.009 0 0 0 .071-.989z" fill="#7083a6" data-original="#7083a6"/><circle xmlns="http://www.w3.org/2000/svg" cx="30" cy="23" fill="#e4ecf2" r="3.6" data-original="#e4ecf2"/><path xmlns="http://www.w3.org/2000/svg" d="m42 39a2 2 0 0 0 -2 2v-2a2 2 0 0 0 -4 0v-2a2 2 0 0 0 -4 0v-9a2 2 0 1 0 -4 0v19l-2.19-2.479a2.7 2.7 0 0 0 -3.933.609 2.659 2.659 0 0 0 -.443 1.5 2.711 2.711 0 0 0 .651 1.759l4.863 7.257a7.908 7.908 0 0 0 2.438 1.676v5.678h10.614v-6.354a8.14 8.14 0 0 0 3.982-7.188l.018-8.458a2 2 0 0 0 -2-2z" fill="#ffdbac" data-original="#ffdbac"/><path xmlns="http://www.w3.org/2000/svg" d="m42 39a1.905 1.905 0 0 0 -.263.027 1.987 1.987 0 0 1 .263.973l-.017 8.459a8.14 8.14 0 0 1 -3.983 7.187v7.354h2v-6.354a8.14 8.14 0 0 0 3.982-7.188l.018-8.458a2 2 0 0 0 -2-2z" fill="#dcb889" data-original="#dcb889"/><circle xmlns="http://www.w3.org/2000/svg" cx="58" cy="6" fill="#8346fc" r="4" data-original="#7cb2f8" class=""/><circle xmlns="http://www.w3.org/2000/svg" cx="6" cy="37" fill="#8346fc" r="4" data-original="#7cb2f8" class=""/><circle xmlns="http://www.w3.org/2000/svg" cx="55" cy="33" fill="#fd4755" r="3" data-original="#d98285" class=""/><circle xmlns="http://www.w3.org/2000/svg" cx="11" cy="5" fill="#fd4755" r="3" data-original="#d98285" class=""/><path xmlns="http://www.w3.org/2000/svg" d="m38 36a2.98 2.98 0 0 0 -1.116.22 2.951 2.951 0 0 0 -3.884-2.037v-6.183a3 3 0 1 0 -6 0v16.358l-.441-.5a1.011 1.011 0 0 0 -.121-.115 3.7 3.7 0 0 0 -5.154 5.244l4.833 7.213a1.048 1.048 0 0 0 .124.151 9.14 9.14 0 0 0 2.145 1.595v5.054h2v-5.682a1 1 0 0 0 -.605-.919 6.891 6.891 0 0 1 -2.058-1.399l-4.807-7.173a.866.866 0 0 0 -.073-.1 1.716 1.716 0 0 1 -.409-1.106 1.69 1.69 0 0 1 2.689-1.373l2.129 2.409a1 1 0 0 0 1.748-.657v-19a1 1 0 0 1 2 0v15h2v-6a1 1 0 0 1 2 0v6h2v-4a1 1 0 0 1 2 0v4h2v-2a1 1 0 1 1 2 0l-.018 8.461a7.138 7.138 0 0 1 -3.48 6.321 1 1 0 0 0 -.5.867v6.351h2v-5.8a9.162 9.162 0 0 0 3.981-7.742l.017-8.458a2.989 2.989 0 0 0 -4.114-2.783 3 3 0 0 0 -2.886-2.217z" fill="#000000" data-original="#000000" class=""/><path xmlns="http://www.w3.org/2000/svg" d="m34.125 24.79a4.455 4.455 0 0 0 .375-1.79 4.5 4.5 0 1 0 -8.624 1.79 5.239 5.239 0 0 1 1.664-1.4 2.4 2.4 0 0 1 -.04-.39 2.5 2.5 0 1 1 4.961.391 5.247 5.247 0 0 1 1.664 1.399z" fill="#000000" data-original="#000000" class=""/><path xmlns="http://www.w3.org/2000/svg" d="m24.29 16.108a1.936 1.936 0 0 0 -2.573.675l-1.451 2.4a1.817 1.817 0 0 0 -.2 1.422 1.85 1.85 0 0 0 .906 1.15l.445.246a7.813 7.813 0 0 0 0 2l-.445.246a1.85 1.85 0 0 0 -.906 1.15 1.816 1.816 0 0 0 .2 1.423l1.449 2.4a1.936 1.936 0 0 0 2.574.676l.461-.262v-1.634c0-.128.029-.247.038-.373a1.891 1.891 0 0 0 -.935.222l-.471.259-1.319-2.184.395-.218a1.843 1.843 0 0 0 .953-1.86 5.934 5.934 0 0 1 -.06-.846 5.818 5.818 0 0 1 .062-.847 1.846 1.846 0 0 0 -.953-1.859l-.4-.218 1.319-2.184.471.259a1.967 1.967 0 0 0 2.1-.152 6.715 6.715 0 0 1 1.472-.818 1.883 1.883 0 0 0 1.219-1.738v-.443h2.707v.443a1.883 1.883 0 0 0 1.217 1.738 6.737 6.737 0 0 1 1.48.819 1.964 1.964 0 0 0 2.1.153l.47-.259 1.32 2.184-.4.218a1.845 1.845 0 0 0 -.953 1.86 5.934 5.934 0 0 1 .061.846 5.818 5.818 0 0 1 -.062.847 1.848 1.848 0 0 0 .953 1.859l.4.218-1.32 2.184-.47-.259a1.893 1.893 0 0 0 -.936-.222c.009.126.038.245.038.373v1.638l.461.254a1.936 1.936 0 0 0 2.573-.675l1.451-2.4a1.821 1.821 0 0 0 .2-1.422 1.855 1.855 0 0 0 -.907-1.15l-.437-.247a7.813 7.813 0 0 0 0-2l.445-.246a1.855 1.855 0 0 0 .907-1.15 1.82 1.82 0 0 0 -.2-1.423l-1.449-2.4a1.934 1.934 0 0 0 -2.574-.676l-.485.276a8.815 8.815 0 0 0 -1.872-1.045v-.475a1.887 1.887 0 0 0 -1.909-1.861h-2.9a1.886 1.886 0 0 0 -1.9 1.864v.476a7.1 7.1 0 0 0 -1.83 1.06z" fill="#000000" data-original="#000000" class=""/><path xmlns="http://www.w3.org/2000/svg" d="m58 1a5 5 0 1 0 5 5 5.006 5.006 0 0 0 -5-5zm0 8a3 3 0 1 1 3-3 3 3 0 0 1 -3 3z" fill="#000000" data-original="#000000" class=""/><path xmlns="http://www.w3.org/2000/svg" d="m6 42a5 5 0 1 0 -5-5 5.006 5.006 0 0 0 5 5zm0-8a3 3 0 1 1 -3 3 3 3 0 0 1 3-3z" fill="#000000" data-original="#000000" class=""/><path xmlns="http://www.w3.org/2000/svg" d="m55 29a4 4 0 1 0 4 4 4 4 0 0 0 -4-4zm0 6a2 2 0 1 1 2-2 2 2 0 0 1 -2 2z" fill="#000000" data-original="#000000" class=""/><path xmlns="http://www.w3.org/2000/svg" d="m11 1a4 4 0 1 0 4 4 4 4 0 0 0 -4-4zm0 6a2 2 0 1 1 2-2 2 2 0 0 1 -2 2z" fill="#000000" data-original="#000000" class=""/><path xmlns="http://www.w3.org/2000/svg" d="m11.469 30h8.062v2h-8.062z" transform="matrix(.868 -.496 .496 .868 -13.338 11.775)" fill="#000000" data-original="#000000" class=""/><path xmlns="http://www.w3.org/2000/svg" d="m18.75 6.797h2v7.906h-2z" transform="matrix(.569 -.822 .822 .569 -.33 20.869)" fill="#000000" data-original="#000000" class=""/><path xmlns="http://www.w3.org/2000/svg" d="m39.981 12.5h13.038v2h-13.038z" transform="matrix(.844 -.537 .537 .844 .024 27.082)" fill="#000000" data-original="#000000" class=""/><path xmlns="http://www.w3.org/2000/svg" d="m45 23.589h2v8.322h-2z" transform="matrix(.541 -.841 .841 .541 -2.218 51.438)" fill="#000000" data-original="#000000" class=""/></g></svg>