<svg xmlns="http://www.w3.org/2000/svg" xmlns:xlink="http://www.w3.org/1999/xlink" xmlns:svgjs="http://svgjs.com/svgjs" version="1.1" width="512" height="512" x="0" y="0" viewBox="0 0 512 512" style="enable-background:new 0 0 512 512" xml:space="preserve" class=""><g><g xmlns="http://www.w3.org/2000/svg" clip-rule="evenodd" fill-rule="evenodd"><g><g><path d="m153.025 146.084 11.801 35.244c30.758 32.985 53.168 60.93 67.227 85.614 44.94 78.908-18.991 159.053-104.611 157.61-85.619 1.443-149.551-78.702-104.611-157.61 14.059-24.685 36.469-52.63 67.227-85.614l11.841-35.205-28.821-28.82c-7.035-7.035-7.035-18.547 0-25.581 5.984-5.984 15.455-6.995 22.575-2.425 2.645 1.697 5.682 1.968 8.584.767 2.902-1.202 4.858-3.541 5.528-6.611 1.772-8.12 9.043-14.249 17.676-14.25 8.477 0 15.87 5.975 17.677 14.25.67 3.07 2.626 5.409 5.528 6.611 2.903 1.203 5.94.931 8.583-.767 6.994-4.489 16.471-3.68 22.575 2.424v.001c7.035 7.035 7.035 18.547 0 25.581z" fill="#ffd064" data-original="#ffe177" class=""/><path d="m153.025 146.084 11.801 35.244c30.758 32.985 53.168 60.93 67.227 85.614 44.94 78.908-18.991 159.053-104.611 157.61v-355.35c8.477 0 15.87 5.975 17.677 14.25.67 3.07 2.626 5.409 5.528 6.611 2.903 1.203 5.94.931 8.583-.767 6.994-4.489 16.471-3.68 22.575 2.424v.001c7.035 7.035 7.035 18.547 0 25.581z" fill="#ffd064" data-original="#ffd064" class=""/><path d="m88.177 181.328h78.531c9.682 0 17.603-7.922 17.603-17.602 0-9.683-7.921-17.603-17.603-17.603h-78.531c-9.683 0-17.603 7.92-17.603 17.602 0 9.683 7.921 17.603 17.603 17.603z" fill="#837683" data-original="#837683" class=""/><path d="m127.443 181.328h39.265c9.683 0 17.603-7.922 17.603-17.602 0-9.682-7.92-17.603-17.603-17.603h-39.265z" fill="#685e68" data-original="#685e68"/></g><g><path d="m226.93 420.402h23.576c5.508 0 10 4.492 10 10v63.598c0 5.508-4.492 10-10 10h-23.576c-5.508 0-10-4.492-10-10v-63.598c0-5.507 4.492-10 10-10z" fill="#fd4755" data-original="#fe646f" class=""/><path d="m238.718 420.402h11.788c5.508 0 10 4.492 10 10v63.598c0 5.508-4.492 10-10 10h-11.788z" fill="#fd4755" data-original="#fd4755" class=""/><path d="m307.842 346.884h23.576c5.508 0 10 4.492 10 10v137.116c0 5.508-4.492 10-10 10h-23.576c-5.508 0-10-4.492-10-10v-137.116c.001-5.508 4.493-10 10-10z" fill="#ffd064" data-original="#ffe177" class=""/><path d="m319.63 346.884h11.788c5.508 0 10 4.492 10 10v137.116c0 5.508-4.492 10-10 10h-11.788z" fill="#ffd064" data-original="#ffd064" class=""/><path d="m388.755 376.603h23.577c5.508 0 10 4.492 10 10v107.398c0 5.508-4.492 10-10 10-7.859 0-15.718 0-23.577 0-5.508 0-10-4.492-10-10 0-37.779 0-69.619 0-107.398 0-5.508 4.493-10 10-10z" fill="#00e499" data-original="#6cf5c2" class=""/><path d="m400.544 376.603h11.788c5.508 0 10 4.492 10 10v107.398c0 5.508-4.492 10-10 10h-11.788z" fill="#00e499" data-original="#00e499" class=""/><path d="m469.667 289.724h23.576c5.508 0 10 4.492 10 10v194.276c0 5.508-4.492 10-10 10h-23.576c-5.508 0-10-4.492-10-10v-194.276c0-5.508 4.492-10 10-10z" fill="#8346fc" data-original="#8ac9fe" class=""/><path d="m481.455 289.724h11.788c5.508 0 10 4.492 10 10v194.276c0 5.508-4.492 10-10 10h-11.788z" fill="#8346fc" data-original="#60b7ff" class=""/></g><g><ellipse cx="238.717" cy="328.823" fill="#fd4755" rx="22.581" ry="22.581" transform="matrix(.999 -.055 .055 .999 -17.819 13.704)" data-original="#fd4755" class=""/><ellipse cx="319.63" cy="258.351" fill="#ffd064" rx="22.581" ry="22.581" transform="matrix(.707 -.707 .707 .707 -89.064 301.682)" data-original="#ffd064" class=""/><ellipse cx="400.543" cy="298.261" fill="#00e499" rx="22.581" ry="22.581" transform="matrix(.707 -.707 .707 .707 -93.586 370.586)" data-original="#00e499" class=""/><ellipse cx="481.455" cy="213.825" fill="#8346fc" rx="22.581" ry="22.581" transform="matrix(.999 -.055 .055 .999 -11.088 26.952)" data-original="#60b7ff" class=""/></g><g><path d="m378.766 23.414c10.315 2.026 19.899 6.086 28.322 11.741l15.104-6.708 13.003 13.002-6.706 15.099c5.657 8.425 9.716 18.012 11.743 28.329l15.408 5.931v18.388l-15.412 5.933c-2.026 10.315-6.086 19.899-11.741 28.322l6.708 15.104-13.002 13.003-15.099-6.706c-8.425 5.657-18.012 9.716-28.329 11.742l-5.931 15.409h-18.388l-5.933-15.413c-10.315-2.026-19.898-6.086-28.322-11.74l-15.104 6.708-13.003-13.002 6.706-15.1c-5.657-8.424-9.716-18.012-11.742-28.329l-15.409-5.931v-18.389l15.411-5.932c2.026-10.316 6.085-19.901 11.741-28.324l-6.707-15.102 13.002-13.003 15.104 6.708c8.424-5.655 18.008-9.715 28.323-11.741l5.933-15.413h18.388zm-15.126 35.97c-22.432 0-40.617 18.185-40.617 40.617s18.185 40.617 40.617 40.617 40.616-18.185 40.616-40.617-18.185-40.617-40.616-40.617z" fill="#eceff1" data-original="#eceff1" class=""/><path d="m378.766 23.414c10.315 2.026 19.899 6.086 28.322 11.741l15.104-6.708 13.003 13.002-6.706 15.099c5.657 8.425 9.716 18.012 11.743 28.329l15.408 5.931v18.388l-15.412 5.933c-2.026 10.315-6.086 19.899-11.741 28.322l6.708 15.104-13.002 13.003-15.099-6.706c-8.425 5.657-18.012 9.716-28.329 11.742l-5.931 15.409h-9.194v-51.383c22.432 0 40.616-18.185 40.616-40.617s-18.185-40.617-40.616-40.617v-51.385h9.194z" fill="#d1d1d6" data-original="#d1d1d6" class=""/></g></g><path d="m279.608 103.706 10.285 3.953c2.548.991 4.435 3.227 4.954 5.925 1.793 9.12 5.331 17.668 10.568 25.41 1.51 2.284 1.793 5.194.66 7.709l-4.482 10.077 5.237 5.237 10.096-4.482c2.5-1.113 5.425-.859 7.69.67 7.737 5.199 16.277 8.742 25.382 10.535 2.736.528 4.954 2.406 5.944 4.973l3.963 10.289h7.407l3.963-10.285c.991-2.566 3.208-4.444 5.897-4.977 9.152-1.788 17.692-5.331 25.429-10.53 2.265-1.533 5.19-1.788 7.69-.67l10.096 4.477 5.237-5.237-4.482-10.082c-1.132-2.515-.849-5.426.66-7.709 5.19-7.742 8.728-16.291 10.568-25.406.519-2.694 2.359-4.935 4.954-5.921l10.285-3.958v-7.407l-10.285-3.958c-2.548-.986-4.435-3.222-4.954-5.926-1.793-9.115-5.378-17.663-10.568-25.405-1.509-2.283-1.793-5.194-.66-7.709l4.482-10.077-5.237-5.237-10.096 4.477c-2.5 1.118-5.426.868-7.69-.665-7.737-5.199-16.324-8.742-25.429-10.535-2.689-.528-4.906-2.411-5.897-4.977l-3.963-10.285h-7.407l-3.963 10.285c-.991 2.566-3.208 4.449-5.944 4.977-9.105 1.793-17.645 5.336-25.382 10.535-2.312 1.529-5.19 1.783-7.69.665l-10.096-4.477-5.237 5.237 4.482 10.082c1.132 2.51.849 5.421-.66 7.704-5.237 7.742-8.775 16.291-10.568 25.405-.519 2.699-2.406 4.94-4.954 5.926l-10.285 3.958zm-15.993 5.492v-18.39c0-3.312 2.029-6.279 5.095-7.463l11.417-4.397c2.076-8.129 5.284-15.856 9.577-23.06l-4.954-11.191c-1.368-3.024-.708-6.562 1.651-8.902l12.974-13.002c2.359-2.34 5.897-3 8.917-1.656l11.181 4.973c7.218-4.321 14.955-7.525 23.07-9.563l4.388-11.417c1.227-3.09 4.152-5.128 7.454-5.128h18.399c3.303 0 6.275 2.038 7.501 5.128l4.388 11.417c8.115 2.038 15.852 5.242 23.023 9.563l11.228-4.973c3.02-1.344 6.558-.684 8.869 1.656l13.021 13.002c2.359 2.34 3.02 5.878 1.651 8.902l-4.954 11.186c4.293 7.209 7.501 14.932 9.577 23.07l11.37 4.392c3.114 1.184 5.142 4.152 5.142 7.463v18.39c0 3.307-2.029 6.275-5.142 7.464l-11.417 4.397c-2.029 8.124-5.237 15.852-9.53 23.061l4.954 11.186c1.368 3.024.708 6.567-1.651 8.907l-13.021 13.002c-2.312 2.34-5.85 3.001-8.869 1.656l-11.181-4.973c-7.218 4.322-14.955 7.525-23.07 9.563l-4.388 11.417c-1.227 3.086-4.199 5.124-7.501 5.124h-18.399c-3.302 0-6.227-2.038-7.454-5.124l-4.388-11.417c-8.115-2.038-15.852-5.246-23.07-9.563l-11.181 4.973c-3.019 1.345-6.558.684-8.917-1.656l-12.974-13.002c-2.359-2.34-3.019-5.878-1.651-8.902l4.954-11.186c-4.293-7.209-7.501-14.936-9.577-23.07l-11.417-4.392c-3.066-1.191-5.095-4.158-5.095-7.465zm67.37-9.196c0-17.984 14.625-32.614 32.6-32.614 18.022 0 32.647 14.63 32.647 32.614s-14.625 32.614-32.647 32.614c-17.975.001-32.6-14.629-32.6-32.614zm-15.993 0c0-26.806 21.796-48.617 48.593-48.617 26.844 0 48.64 21.81 48.64 48.617s-21.796 48.617-48.64 48.617c-26.797 0-48.593-21.81-48.593-48.617zm100.111 198.261c0-8.044-6.558-14.583-14.578-14.583-8.067 0-14.578 6.539-14.578 14.583 0 8.039 6.511 14.578 14.578 14.578 8.021 0 14.578-6.539 14.578-14.578zm51.755-84.439c0 8.044 6.511 14.583 14.578 14.583 8.02 0 14.578-6.539 14.578-14.583 0-8.039-6.558-14.578-14.578-14.578-8.068 0-14.578 6.539-14.578 14.578zm-132.665 44.526c0-8.039-6.558-14.578-14.578-14.578-8.067 0-14.578 6.539-14.578 14.578 0 8.044 6.511 14.583 14.578 14.583 8.021 0 14.578-6.539 14.578-14.583zm-80.91 70.47c0-8.039-6.558-14.578-14.578-14.578-8.067 0-14.625 6.539-14.625 14.578s6.558 14.583 14.625 14.583c8.02 0 14.578-6.544 14.578-14.583zm-23.353 29.293c-17.362 35.586-57.887 59.218-102.376 58.449-.094 0-.189 0-.283 0-41.564.689-79.495-19.14-98.791-51.792-17.173-28.949-16.701-62.28 1.274-93.865 12.833-22.57 33.166-48.546 63.737-81.575h67.795c30.618 33.029 50.952 59.005 63.784 81.575 5.095 8.988 8.822 18.187 11.087 27.448-15.663 1.288-28.071 14.46-28.071 30.468.001 13.822 9.201 25.508 21.844 29.292zm-151.394-194.387c0 5.298 4.293 9.605 9.624 9.605h78.504c5.284 0 9.624-4.307 9.624-9.601 0-5.298-4.34-9.605-9.624-9.605h-78.504c-5.331 0-9.624 4.307-9.624 9.601zm.142-52.08 26.514 26.481h44.442l26.467-26.481c1.887-1.892 2.925-4.425 2.925-7.133s-1.038-5.242-2.925-7.133c-3.303-3.331-8.634-3.897-12.597-1.349-4.812 3.104-10.662 3.624-15.946 1.425-5.331-2.199-9.058-6.68-10.285-12.295-.991-4.609-5.142-7.959-9.86-7.959s-8.87 3.35-9.86 7.959c-1.227 5.614-4.953 10.096-10.285 12.295-5.331 2.199-11.134 1.68-15.993-1.425-3.963-2.548-9.247-1.981-12.597 1.349-3.916 3.934-3.916 10.336 0 14.266zm348.031 170.845c2.784 4.609 4.388 10.011 4.388 15.772 0 16.856-13.729 30.581-30.571 30.581-16.89 0-30.618-13.724-30.618-30.581 0-2.014.236-3.982.613-5.883l-28.024-13.804c-5.614 6.341-13.776 10.355-22.881 10.355-6.322 0-12.125-1.906-17.031-5.171l-36.374 31.713c1.934 4.038 3.066 8.567 3.066 13.347 0 13.832-9.247 25.542-21.843 29.311-8.445 21.018-23.967 39.681-44.064 52.901-21.513 14.12-46.942 21.551-73.645 21.551-.755 0-1.557-.014-2.312-.024-47.272.75-90.487-22.089-112.708-59.628-19.909-33.61-19.484-73.692 1.132-109.943 12.502-21.942 31.468-46.687 59.255-77.249-7.501-4.468-12.549-12.663-12.549-22.013 0-12.375 8.822-22.73 20.522-25.094l-15.663-15.673c-10.191-10.172-10.191-26.722 0-36.893 8.586-8.61 22.268-10.082 32.552-3.501.755.5 1.793.066 1.982-.816 2.595-11.903 13.304-20.546 25.476-20.546s22.881 8.638 25.476 20.541c.189.901 1.227 1.311 1.982.821 10.238-6.581 23.966-5.109 32.553 3.496 10.19 10.176 10.19 26.726 0 36.902l-15.663 15.668c11.7 2.368 20.522 12.719 20.522 25.098 0 9.351-5.048 17.541-12.549 22.008 27.788 30.562 46.753 55.307 59.255 77.244 7.171 12.644 11.983 25.726 14.248 38.96.849.448 1.651.948 2.453 1.467l36.421-31.708c-1.981-4.038-3.114-8.567-3.114-13.351 0-16.861 13.729-30.581 30.618-30.581 16.843 0 30.571 13.719 30.571 30.581 0 2.015-.189 3.977-.566 5.883l27.977 13.809c5.614-6.35 13.823-10.36 22.928-10.36 5.284 0 10.285 1.354 14.625 3.736l40.054-41.823c-2.736-4.609-4.388-10.001-4.388-15.771 0-16.857 13.729-30.581 30.618-30.581 16.843 0 30.571 13.724 30.571 30.581 0 16.866-13.729 30.581-30.571 30.581-5.331 0-10.285-1.354-14.672-3.737zm-174.228 145.912h-27.599v67.597h27.599zm15.994-8.001c0-4.421-3.585-8.001-8.02-8.001h-43.545c-4.434 0-8.02 3.581-8.02 8.001v83.599c0 4.421 3.586 8.001 8.02 8.001h43.545c4.435 0 8.02-3.581 8.02-8.001zm226.736-122.682h-27.552v198.28h27.552zm15.994-8.001c0-4.411-3.585-7.992-7.973-7.992h-43.592c-4.435 0-8.02 3.581-8.02 7.992v214.282c0 4.421 3.586 8.001 8.02 8.001h43.592c4.388 0 7.973-3.581 7.973-8.001zm-96.904 94.879h-27.599v111.402h27.599zm15.994-7.996c0-4.421-3.586-8.001-7.973-8.001h-43.592c-4.435 0-8.02 3.581-8.02 8.001v127.399c0 4.421 3.586 8.001 8.02 8.001h43.592c4.387 0 7.973-3.581 7.973-8.001zm-96.904-21.721h-27.599v141.119h27.599zm15.994-8.001c0-4.406-3.585-7.997-7.973-7.997h-43.592c-4.435 0-8.02 3.59-8.02 7.997v157.121c0 4.421 3.585 8.001 8.02 8.001h43.592c4.388 0 7.973-3.581 7.973-8.001zm-171.398-13.371c-3.821-31.449-38.214-37.086-49.49-38.95-31.232-5.128-31.94-19.093-32.128-23.684-.755-14.663 11.558-22.707 22.268-25.141 14.342-3.251 33.166 1.434 40.715 19.39 1.698 4.071 6.416 5.987 10.473 4.279 4.057-1.713 5.992-6.398 4.293-10.474-7.737-18.432-23.353-27.424-39.063-29.604v-11.615c0-4.421-3.586-8.001-7.973-8.001-4.435 0-8.02 3.581-8.02 8.001v11.676c-1.321.198-2.642.448-3.963.741-21.749 4.935-35.714 21.617-34.723 41.521.66 14.361 9.152 32.732 45.527 38.7 23.4 3.84 34.581 11.582 36.185 25.089.708 5.751-.613 10.502-4.105 14.503-5.614 6.51-17.125 10.898-29.344 11.191-14.248.321-32.458-5.709-37.035-23.891-1.038-4.289-5.378-6.897-9.671-5.831-4.293 1.071-6.888 5.411-5.85 9.7 4.812 19.272 21.513 32.723 42.979 35.492v11.577c0 4.421 3.586 8.001 8.02 8.001 4.387 0 7.973-3.581 7.973-8.001v-11.46c14.578-1.557 27.363-7.459 35.053-16.309 6.37-7.396 9.106-16.7 7.879-26.9z" fill="#000000" data-original="#000000" class=""/></g></g></svg>