<?xml version="1.0" encoding="UTF-8"?>
<!DOCTYPE svg PUBLIC "-//W3C//DTD SVG 1.1//EN" "http://www.w3.org/Graphics/SVG/1.1/DTD/svg11.dtd">
<svg xmlns="http://www.w3.org/2000/svg" version="1.1" width="1000px" height="1000px" style="shape-rendering:geometricPrecision; text-rendering:geometricPrecision; image-rendering:optimizeQuality; fill-rule:evenodd; clip-rule:evenodd" xmlns:xlink="http://www.w3.org/1999/xlink">
<g><path style="opacity:1" fill="#fefefe" d="M -0.5,-0.5 C 332.833,-0.5 666.167,-0.5 999.5,-0.5C 999.5,332.833 999.5,666.167 999.5,999.5C 666.167,999.5 332.833,999.5 -0.5,999.5C -0.5,666.167 -0.5,332.833 -0.5,-0.5 Z"/></g>
<g><path style="opacity:1" fill="#fafafa" d="M 954.5,241.5 C 940.62,234.326 925.953,231.993 910.5,234.5C 905.117,222.468 904.283,210.135 908,197.5C 909.54,193.581 911.707,190.081 914.5,187C 916.298,185.495 918.132,185.328 920,186.5C 920.484,192.871 920.484,199.205 920,205.5C 926.279,210.044 930.612,216.044 933,223.5C 933.245,219.557 932.245,215.89 930,212.5C 927.088,209.928 924.588,207.094 922.5,204C 925.966,189.708 933.633,178.375 945.5,170C 947.167,169.333 948.833,169.333 950.5,170C 951.022,170.561 951.355,171.228 951.5,172C 949.776,175.73 947.276,178.897 944,181.5C 942.5,184.5 941,187.5 939.5,190.5C 939.833,190.833 940.167,191.167 940.5,191.5C 946.74,185.08 953.907,180.08 962,176.5C 965.164,176.767 966.164,178.433 965,181.5C 959.966,186.199 955.3,191.199 951,196.5C 950.333,197.5 950.333,198.5 951,199.5C 956.5,194.667 962,189.833 967.5,185C 968.793,184.51 970.127,184.343 971.5,184.5C 971.741,187.794 970.908,190.794 969,193.5C 965.584,197.084 962.751,201.084 960.5,205.5C 961.002,206.521 961.668,206.688 962.5,206C 964.903,201.419 968.57,198.585 973.5,197.5C 969.873,213.397 963.539,228.064 954.5,241.5 Z"/></g>
<g><path style="opacity:1" fill="#010101" d="M 661.5,276.5 C 630.44,278.061 599.773,275.395 569.5,268.5C 567.604,267.519 565.604,266.519 563.5,265.5C 562.832,263.031 562.165,260.698 561.5,258.5C 560.991,248.43 559.825,238.43 558,228.5C 554.442,207.407 562.942,194.574 583.5,190C 611.027,188.366 637.694,192.366 663.5,202C 674.998,210.501 678.498,221.668 674,235.5C 669.523,249.095 665.357,262.761 661.5,276.5 Z"/></g>
<g><path style="opacity:1" fill="#1d1d1d" d="M 956.5,242.5 C 955.508,242.672 954.842,242.338 954.5,241.5C 963.539,228.064 969.873,213.397 973.5,197.5C 968.57,198.585 964.903,201.419 962.5,206C 961.668,206.688 961.002,206.521 960.5,205.5C 962.751,201.084 965.584,197.084 969,193.5C 970.908,190.794 971.741,187.794 971.5,184.5C 970.127,184.343 968.793,184.51 967.5,185C 962,189.833 956.5,194.667 951,199.5C 950.333,198.5 950.333,197.5 951,196.5C 955.3,191.199 959.966,186.199 965,181.5C 966.164,178.433 965.164,176.767 962,176.5C 953.907,180.08 946.74,185.08 940.5,191.5C 940.167,191.167 939.833,190.833 939.5,190.5C 941,187.5 942.5,184.5 944,181.5C 947.276,178.897 949.776,175.73 951.5,172C 951.355,171.228 951.022,170.561 950.5,170C 948.833,169.333 947.167,169.333 945.5,170C 933.633,178.375 925.966,189.708 922.5,204C 924.588,207.094 927.088,209.928 930,212.5C 932.245,215.89 933.245,219.557 933,223.5C 930.612,216.044 926.279,210.044 920,205.5C 920.484,199.205 920.484,192.871 920,186.5C 918.132,185.328 916.298,185.495 914.5,187C 911.707,190.081 909.54,193.581 908,197.5C 904.283,210.135 905.117,222.468 910.5,234.5C 909.833,234.5 909.167,234.5 908.5,234.5C 901.36,219.227 901.86,204.227 910,189.5C 911.833,187.667 913.667,185.833 915.5,184C 918.352,183.087 920.519,183.92 922,186.5C 922.333,190.167 922.667,193.833 923,197.5C 927.165,185.639 934.332,176.139 944.5,169C 946.833,168.333 949.167,168.333 951.5,169C 953.211,170.133 953.711,171.633 953,173.5C 941.021,187.394 941.854,188.561 955.5,177C 964.103,171.942 967.936,174.109 967,183.5C 972.188,182.02 974.188,184.02 973,189.5C 972.208,191.587 971.041,193.421 969.5,195C 971.167,195.333 972.833,195.667 974.5,196C 972.074,212.718 966.074,228.218 956.5,242.5 Z"/></g>
<g><path style="opacity:1" fill="#7082a9" d="M 574.5,200.5 C 576.694,202.835 579.361,204.668 582.5,206C 593.168,209.867 604.168,212.2 615.5,213C 628.845,213.38 642.178,213.38 655.5,213C 629.952,217.673 604.952,215.673 580.5,207C 577.591,205.594 575.591,203.428 574.5,200.5 Z"/></g>
<g><path style="opacity:1" fill="#53537b" d="M 660.5,211.5 C 661.978,211.238 663.311,211.571 664.5,212.5C 663.833,212.833 663.167,213.167 662.5,213.5C 661.287,213.253 660.62,212.586 660.5,211.5 Z"/></g>
<g><path style="opacity:1" fill="#98c8cc" d="M 954.5,241.5 C 954.842,242.338 955.508,242.672 956.5,242.5C 956.827,244.488 957.16,246.488 957.5,248.5C 956.712,253.895 955.712,259.229 954.5,264.5C 946.853,258.753 938.186,256.42 928.5,257.5C 927.273,261.618 925.773,265.618 924,269.5C 920.023,258.582 912.19,252.582 900.5,251.5C 902.023,245.251 904.689,239.584 908.5,234.5C 909.167,234.5 909.833,234.5 910.5,234.5C 925.953,231.993 940.62,234.326 954.5,241.5 Z"/></g>
<g><path style="opacity:1" fill="#000001" d="M 900.5,251.5 C 912.19,252.582 920.023,258.582 924,269.5C 925.773,265.618 927.273,261.618 928.5,257.5C 938.186,256.42 946.853,258.753 954.5,264.5C 957.186,269.156 958.019,274.156 957,279.5C 947.686,331.777 933.686,382.777 915,432.5C 903.833,454.333 887.333,470.833 865.5,482C 843.775,493.195 821.775,503.862 799.5,514C 783.928,520.301 768.095,525.801 752,530.5C 748.706,549.389 744.372,568.056 739,586.5C 737.61,594.458 737.277,602.458 738,610.5C 749.613,645.062 765.946,677.062 787,706.5C 787.665,711.181 786.665,715.514 784,719.5C 780.334,724.661 776.501,729.661 772.5,734.5C 746.091,763.037 713.424,778.87 674.5,782C 671.837,780.199 670.003,777.699 669,774.5C 657.101,746.94 644.934,719.607 632.5,692.5C 632.291,691.078 631.791,689.745 631,688.5C 627.694,701.39 624.861,714.39 622.5,727.5C 618.706,742.232 615.539,757.232 613,772.5C 612.496,776.02 610.663,778.52 607.5,780C 587.051,782.092 567.384,779.092 548.5,771C 538.7,766.908 529.033,762.742 519.5,758.5C 515.557,755.522 511.223,753.022 506.5,751C 503.684,748.868 502.351,746.035 502.5,742.5C 513.13,702.981 523.297,663.314 533,623.5C 533.667,619.167 533.667,614.833 533,610.5C 528.464,595.893 524.131,581.226 520,566.5C 519.275,565.941 518.442,565.608 517.5,565.5C 454.214,581.62 395.881,570.953 342.5,533.5C 355.915,518.101 362.748,500.101 363,479.5C 369.176,469.313 371.843,458.313 371,446.5C 368.865,441.895 367.032,437.228 365.5,432.5C 366.434,431.432 366.768,430.099 366.5,428.5C 382.427,438.571 398.761,448.071 415.5,457C 435.811,464.529 456.478,465.529 477.5,460C 511.553,450.925 545.553,441.758 579.5,432.5C 580.167,434.5 580.833,436.5 581.5,438.5C 584.135,452.067 589.135,464.733 596.5,476.5C 603.221,471.112 608.888,464.778 613.5,457.5C 617.991,462.824 622.991,467.657 628.5,472C 632.309,475.966 636.309,476.299 640.5,473C 652.814,462.021 661.98,448.854 668,433.5C 669.237,429.94 669.737,426.273 669.5,422.5C 669.5,421.833 669.833,421.5 670.5,421.5C 671.449,422.152 672.615,422.486 674,422.5C 695.945,418.888 717.778,414.722 739.5,410C 767.44,403.121 795.44,396.454 823.5,390C 828.929,388.198 833.429,385.031 837,380.5C 858.569,342.025 876.903,302.025 892,260.5C 893.659,256.342 896.492,253.342 900.5,251.5 Z"/></g>
<g><path style="opacity:1" fill="#96c7ca" d="M 569.5,268.5 C 599.773,275.395 630.44,278.061 661.5,276.5C 660.997,280.85 660.33,285.183 659.5,289.5C 659.592,291.258 659.925,292.924 660.5,294.5C 652.889,295.434 645.222,295.767 637.5,295.5C 637.389,294.883 637.056,294.383 636.5,294C 631.5,293.667 626.5,293.333 621.5,293C 621.833,292.667 622.167,292.333 622.5,292C 609.429,291.868 596.429,291.035 583.5,289.5C 578.46,288.709 573.46,287.709 568.5,286.5C 567.599,284.273 565.933,283.273 563.5,283.5C 563.5,278.5 563.5,273.5 563.5,268.5C 565.5,268.5 567.5,268.5 569.5,268.5 Z"/></g>
<g><path style="opacity:1" fill="#9bb7cb" d="M 561.5,258.5 C 562.165,260.698 562.832,263.031 563.5,265.5C 565.604,266.519 567.604,267.519 569.5,268.5C 567.5,268.5 565.5,268.5 563.5,268.5C 563.5,273.5 563.5,278.5 563.5,283.5C 565.933,283.273 567.599,284.273 568.5,286.5C 565.881,286.075 563.547,285.075 561.5,283.5C 561.5,275.167 561.5,266.833 561.5,258.5 Z"/></g>
<g><path style="opacity:1" fill="#030303" d="M 178.5,335.5 C 162.114,336.003 148.781,342.503 138.5,355C 137.906,355.464 137.239,355.631 136.5,355.5C 128.656,332.511 127.489,309.178 133,285.5C 135.332,281.459 138.498,280.625 142.5,283C 156.857,298.879 168.857,316.379 178.5,335.5 Z"/></g>
<g><path style="opacity:1" fill="#030304" d="M 561.5,283.5 C 563.547,285.075 565.881,286.075 568.5,286.5C 573.46,287.709 578.46,288.709 583.5,289.5C 601.153,293.313 619.153,295.313 637.5,295.5C 645.222,295.767 652.889,295.434 660.5,294.5C 664.371,295.84 668.371,296.673 672.5,297C 675.47,297.763 677.97,299.263 680,301.5C 680.825,303.701 680.325,305.534 678.5,307C 673.683,308.071 669.016,309.237 664.5,310.5C 656.16,311.084 647.826,311.751 639.5,312.5C 629.5,312.5 619.5,312.5 609.5,312.5C 602.597,311.755 595.597,310.755 588.5,309.5C 587.5,309.5 586.5,309.5 585.5,309.5C 574.406,307.14 563.406,304.14 552.5,300.5C 545.783,299.095 539.616,296.428 534,292.5C 532.621,288.525 533.787,285.691 537.5,284C 545.493,283.5 553.493,283.334 561.5,283.5 Z"/></g>
<g><path style="opacity:1" fill="#88adbf" d="M 583.5,289.5 C 596.429,291.035 609.429,291.868 622.5,292C 622.167,292.333 621.833,292.667 621.5,293C 626.5,293.333 631.5,293.667 636.5,294C 637.056,294.383 637.389,294.883 637.5,295.5C 619.153,295.313 601.153,293.313 583.5,289.5 Z"/></g>
<g><path style="opacity:1" fill="#98c7cc" d="M 552.5,300.5 C 563.406,304.14 574.406,307.14 585.5,309.5C 575.454,313.349 565.121,316.349 554.5,318.5C 554.672,317.508 554.338,316.842 553.5,316.5C 550.564,315.485 549.231,313.318 549.5,310C 550.621,306.911 551.621,303.745 552.5,300.5 Z"/></g>
<g><path style="opacity:1" fill="#b4c1e2" d="M 359.5,327.5 C 354.687,317.884 348.854,308.884 342,300.5C 339.961,298.126 337.628,296.126 335,294.5C 334.333,293.833 334.333,293.167 335,292.5C 346.547,301.867 354.713,313.534 359.5,327.5 Z"/></g>
<g><path style="opacity:1" fill="#fcfcfc" d="M 585.5,309.5 C 586.5,309.5 587.5,309.5 588.5,309.5C 588.329,311.993 589.329,313.826 591.5,315C 594.5,315.667 597.5,315.667 600.5,315C 603.353,313.57 606.353,312.737 609.5,312.5C 609.33,313.822 609.663,314.989 610.5,316C 612.513,317.257 614.679,318.091 617,318.5C 622.137,317.505 626.971,315.838 631.5,313.5C 630.393,318.081 630.227,322.748 631,327.5C 633.001,335.003 635.501,342.336 638.5,349.5C 640.16,347.007 642.16,344.84 644.5,343C 651.166,342.004 653.666,344.837 652,351.5C 650.039,354.463 647.706,357.129 645,359.5C 644.077,361.034 643.577,362.701 643.5,364.5C 644.681,374.056 646.347,383.389 648.5,392.5C 650.314,399.391 649.814,406.058 647,412.5C 638.708,423.456 628.542,432.29 616.5,439C 614.396,441.042 613.229,443.542 613,446.5C 607.913,438.659 602.58,430.992 597,423.5C 595.722,420.279 594.889,416.946 594.5,413.5C 602.469,413.454 609.802,411.288 616.5,407C 610.584,408.604 604.584,410.27 598.5,412C 590.698,413.62 583.698,411.953 577.5,407C 563.507,395.515 556.007,380.681 555,362.5C 554.5,347.837 554.333,333.17 554.5,318.5C 565.121,316.349 575.454,313.349 585.5,309.5 Z"/></g>
<g><path style="opacity:1" fill="#99bfcf" d="M 588.5,309.5 C 595.597,310.755 602.597,311.755 609.5,312.5C 606.353,312.737 603.353,313.57 600.5,315C 597.5,315.667 594.5,315.667 591.5,315C 589.329,313.826 588.329,311.993 588.5,309.5 Z"/></g>
<g><path style="opacity:1" fill="#98c9cc" d="M 664.5,310.5 C 665.341,312.379 665.675,314.379 665.5,316.5C 665.629,325.567 664.962,334.567 663.5,343.5C 659.768,359.359 655.435,375.026 650.5,390.5C 649.167,390.5 648.5,391.167 648.5,392.5C 646.347,383.389 644.681,374.056 643.5,364.5C 643.577,362.701 644.077,361.034 645,359.5C 647.706,357.129 650.039,354.463 652,351.5C 653.666,344.837 651.166,342.004 644.5,343C 642.16,344.84 640.16,347.007 638.5,349.5C 635.501,342.336 633.001,335.003 631,327.5C 630.227,322.748 630.393,318.081 631.5,313.5C 634.385,313.806 637.052,313.473 639.5,312.5C 647.826,311.751 656.16,311.084 664.5,310.5 Z"/></g>
<g><path style="opacity:1" fill="#97bbcd" d="M 609.5,312.5 C 619.5,312.5 629.5,312.5 639.5,312.5C 637.052,313.473 634.385,313.806 631.5,313.5C 626.971,315.838 622.137,317.505 617,318.5C 614.679,318.091 612.513,317.257 610.5,316C 609.663,314.989 609.33,313.822 609.5,312.5 Z"/></g>
<g><path style="opacity:1" fill="#1c1c1d" d="M 268.5,365.5 C 271.92,375.35 269.086,383.016 260,388.5C 259.601,388.272 259.435,387.938 259.5,387.5C 265.698,383.48 268.532,377.814 268,370.5C 264.536,359.058 258.036,349.892 248.5,343C 237.255,339.867 227.755,342.7 220,351.5C 217.831,356.046 219.331,358.88 224.5,360C 229.5,360.333 234.5,360.667 239.5,361C 237.75,362.319 235.75,362.819 233.5,362.5C 227.068,363.653 221.568,361.986 217,357.5C 217.066,354.422 216.899,351.422 216.5,348.5C 216.747,347.287 217.414,346.62 218.5,346.5C 218.351,347.552 218.517,348.552 219,349.5C 221.383,346.727 224.217,344.561 227.5,343C 229.506,340.158 230.839,336.992 231.5,333.5C 232.769,335.695 232.769,337.861 231.5,340C 236.449,339.508 241.449,339.508 246.5,340C 249.306,341.089 251.973,342.089 254.5,343C 243.69,317.43 225.357,309.764 199.5,320C 193.832,322.179 188.832,325.346 184.5,329.5C 183.479,328.998 183.312,328.332 184,327.5C 198.92,314.896 215.753,311.396 234.5,317C 240.563,319.729 245.397,323.896 249,329.5C 255.767,341.367 262.267,353.367 268.5,365.5 Z"/></g>
<g><path style="opacity:1" fill="#0d0d0d" d="M 598.5,329.5 C 603.179,329.334 607.845,329.501 612.5,330C 613.741,331.487 613.241,332.32 611,332.5C 606.19,331.807 601.357,331.307 596.5,331C 597.416,330.722 598.082,330.222 598.5,329.5 Z"/></g>
<g><path style="opacity:1" fill="#202020" d="M 566.5,330.5 C 569.482,330.104 572.149,330.771 574.5,332.5C 570.173,333.532 565.839,334.032 561.5,334C 563.233,332.811 564.9,331.644 566.5,330.5 Z"/></g>
<g><path style="opacity:1" fill="#a4bede" d="M 665.5,316.5 C 667.21,325.671 666.544,334.671 663.5,343.5C 664.962,334.567 665.629,325.567 665.5,316.5 Z"/></g>
<g><path style="opacity:1" fill="#a8badf" d="M 359.5,327.5 C 363.061,334.01 365.561,341.01 367,348.5C 371.378,375.173 371.211,401.839 366.5,428.5C 366.768,430.099 366.434,431.432 365.5,432.5C 365.5,431.833 365.167,431.5 364.5,431.5C 364.5,429.833 364.5,428.167 364.5,426.5C 369.533,399.997 369.7,373.331 365,346.5C 363.316,340.091 361.482,333.758 359.5,327.5 Z"/></g>
<g><path style="opacity:1" fill="#fbfbfb" d="M 259.5,387.5 C 253.3,390.82 246.966,391.486 240.5,389.5C 240.167,388.5 239.5,387.833 238.5,387.5C 234.587,385.35 232.42,382.016 232,377.5C 231.433,372.37 231.933,367.37 233.5,362.5C 235.75,362.819 237.75,362.319 239.5,361C 234.5,360.667 229.5,360.333 224.5,360C 219.331,358.88 217.831,356.046 220,351.5C 227.755,342.7 237.255,339.867 248.5,343C 258.036,349.892 264.536,359.058 268,370.5C 268.532,377.814 265.698,383.48 259.5,387.5 Z"/></g>
<g><path style="opacity:1" fill="#101010" d="M 603.5,345.5 C 607.068,345.759 608.401,347.759 607.5,351.5C 605.833,351.5 604.167,351.5 602.5,351.5C 602.325,349.379 602.659,347.379 603.5,345.5 Z"/></g>
<g><path style="opacity:1" fill="#141414" d="M 569.5,347.5 C 574.053,348.99 574.553,351.323 571,354.5C 567.065,352.867 566.565,350.534 569.5,347.5 Z"/></g>
<g><path style="opacity:1" fill="#1a1a1d" d="M 217.5,339.5 C 215.798,344.429 213.965,349.429 212,354.5C 210.136,357.207 207.636,358.041 204.5,357C 205.737,356.768 206.737,356.268 207.5,355.5C 209.504,354.327 211.004,352.66 212,350.5C 213.673,343.982 215.839,337.648 218.5,331.5C 218.833,332.167 219.167,332.833 219.5,333.5C 218.822,335.516 218.156,337.516 217.5,339.5 Z"/></g>
<g><path style="opacity:1" fill="#282928" d="M 645.5,347.5 C 649.243,347.459 649.41,348.126 646,349.5C 645.508,350.549 645.674,351.549 646.5,352.5C 645.24,355.109 644.24,354.943 643.5,352C 644.044,350.415 644.711,348.915 645.5,347.5 Z"/></g>
<g><path style="opacity:1" fill="#17191b" d="M 201.5,347.5 C 199.734,351.285 198.234,355.285 197,359.5C 192.99,366.325 189.824,365.991 187.5,358.5C 188.837,359.315 189.837,360.482 190.5,362C 191.784,362.684 192.951,362.517 194,361.5C 197.644,352.243 200.978,342.91 204,333.5C 203.504,338.177 202.671,342.843 201.5,347.5 Z"/></g>
<g><path style="opacity:1" fill="#252525" d="M 582.5,351.5 C 583.693,351.97 584.36,352.97 584.5,354.5C 583.903,357.958 582.903,361.291 581.5,364.5C 582.065,366.405 583.065,368.071 584.5,369.5C 580.898,370.263 578.898,368.597 578.5,364.5C 579.048,362.444 580.214,360.777 582,359.5C 582.497,356.854 582.664,354.187 582.5,351.5 Z"/></g>
<g><path style="opacity:1" fill="#afbde2" d="M 48.5,436.5 C 48.5,437.167 48.1667,437.5 47.5,437.5C 32.9693,403.112 34.636,369.445 52.5,336.5C 53.5874,339.401 52.7541,341.734 50,343.5C 36.7014,374.36 36.2014,405.36 48.5,436.5 Z"/></g>
<g><path style="opacity:1" fill="#97c9cb" d="M 178.5,335.5 C 179.053,336.823 178.553,338.156 177,339.5C 176.037,345.465 175.537,351.465 175.5,357.5C 173.259,365.753 176.092,368.086 184,364.5C 185.296,361.429 186.462,358.429 187.5,355.5C 187.5,356.5 187.5,357.5 187.5,358.5C 189.824,365.991 192.99,366.325 197,359.5C 198.234,355.285 199.734,351.285 201.5,347.5C 201.575,350.206 201.908,352.873 202.5,355.5C 204.167,355.5 205.833,355.5 207.5,355.5C 206.737,356.268 205.737,356.768 204.5,357C 207.636,358.041 210.136,357.207 212,354.5C 213.965,349.429 215.798,344.429 217.5,339.5C 217.298,341.95 217.631,344.283 218.5,346.5C 217.414,346.62 216.747,347.287 216.5,348.5C 216.899,351.422 217.066,354.422 217,357.5C 221.568,361.986 227.068,363.653 233.5,362.5C 231.933,367.37 231.433,372.37 232,377.5C 232.42,382.016 234.587,385.35 238.5,387.5C 238.334,393.842 238.5,400.175 239,406.5C 240.404,400.956 240.904,395.29 240.5,389.5C 246.966,391.486 253.3,390.82 259.5,387.5C 259.435,387.938 259.601,388.272 260,388.5C 269.086,383.016 271.92,375.35 268.5,365.5C 273.385,368.043 277.718,371.377 281.5,375.5C 285.164,379.332 288.664,383.332 292,387.5C 292.459,390.93 291.459,393.93 289,396.5C 278.882,410.477 265.382,418.81 248.5,421.5C 246.278,417.93 243.612,414.597 240.5,411.5C 234.854,420.276 236.854,426.443 246.5,430C 254.827,437.5 260.494,446.667 263.5,457.5C 270.298,471.927 270.132,486.261 263,500.5C 261.022,503.645 258.522,506.312 255.5,508.5C 268.94,524.941 278.107,543.607 283,564.5C 284.445,572.557 285.945,580.557 287.5,588.5C 246.167,588.5 204.833,588.5 163.5,588.5C 164.735,579.226 167.069,570.226 170.5,561.5C 165.953,559.697 161.953,560.531 158.5,564C 155.107,565.168 152.441,564.334 150.5,561.5C 148.577,560.692 146.577,560.192 144.5,560C 142.963,558.89 142.297,557.39 142.5,555.5C 136.151,554.973 133.984,551.639 136,545.5C 143.503,535.698 153.503,530.698 166,530.5C 171.904,530.947 177.571,532.28 183,534.5C 183.383,533.944 183.883,533.611 184.5,533.5C 187.251,535.975 190.584,536.975 194.5,536.5C 201.395,536.85 208.062,537.85 214.5,539.5C 212.163,542.681 209.996,546.014 208,549.5C 207.071,553.244 207.571,556.744 209.5,560C 212.603,560.604 215.27,561.937 217.5,564C 221.555,564.146 225.388,564.98 229,566.5C 233.215,565.296 235.548,562.63 236,558.5C 234.524,561.793 232.024,563.793 228.5,564.5C 226.337,564.078 225.003,562.744 224.5,560.5C 222.821,562.104 220.821,562.771 218.5,562.5C 218.5,561.167 218.5,559.833 218.5,558.5C 209.602,560.413 207.102,557.08 211,548.5C 214.968,541.019 221.135,537.019 229.5,536.5C 237.118,537.107 244.451,538.607 251.5,541C 247.151,538.324 242.485,536.491 237.5,535.5C 237.082,534.778 236.416,534.278 235.5,534C 232.518,533.502 229.518,533.335 226.5,533.5C 235.706,530.304 243.539,524.971 250,517.5C 251.874,515.431 252.874,513.098 253,510.5C 234.794,521.975 215.294,524.975 194.5,519.5C 193.817,519.863 193.15,520.196 192.5,520.5C 187.097,517.625 181.764,514.458 176.5,511C 165.723,501.334 162.223,489.501 166,475.5C 173.768,458.937 183.268,443.603 194.5,429.5C 195.15,429.804 195.817,430.137 196.5,430.5C 200.424,428.533 204.424,427.199 208.5,426.5C 212.95,426.579 217.283,425.912 221.5,424.5C 219.421,413.185 216.255,402.185 212,391.5C 210.957,388.243 210.457,384.91 210.5,381.5C 215.745,379.627 220.245,376.627 224,372.5C 224.667,371.833 224.667,371.167 224,370.5C 219.206,374.803 214.039,378.47 208.5,381.5C 205.977,382.801 203.31,383.801 200.5,384.5C 199.702,384.957 199.369,385.624 199.5,386.5C 198.258,385.957 196.925,385.623 195.5,385.5C 188.942,387.279 182.275,388.279 175.5,388.5C 169.974,388.179 164.64,388.512 159.5,389.5C 148.536,388.692 139.703,384.025 133,375.5C 132.833,373.667 132.667,371.833 132.5,370C 133.104,364.96 134.437,360.127 136.5,355.5C 137.239,355.631 137.906,355.464 138.5,355C 148.781,342.503 162.114,336.003 178.5,335.5 Z"/></g>
<g><path style="opacity:1" fill="#1c1d1f" d="M 187.5,355.5 C 186.462,358.429 185.296,361.429 184,364.5C 176.092,368.086 173.259,365.753 175.5,357.5C 175.138,364.004 177.638,365.671 183,362.5C 185.048,354.627 187.548,346.96 190.5,339.5C 190.833,339.833 191.167,340.167 191.5,340.5C 189.872,345.422 188.539,350.422 187.5,355.5 Z"/></g>
<g><path style="opacity:1" fill="#020203" d="M 364.5,426.5 C 364.5,428.167 364.5,429.833 364.5,431.5C 364.265,432.097 363.765,432.43 363,432.5C 355.098,427.061 347.264,427.228 339.5,433C 331.025,438.471 325.192,445.971 322,455.5C 319.769,463.543 322.602,468.71 330.5,471C 345.053,471.461 355.219,464.961 361,451.5C 362.488,447.213 363.822,442.88 365,438.5C 369.01,444.241 370.344,450.575 369,457.5C 367.267,464.366 364.933,471.032 362,477.5C 360.093,473.99 357.26,472.824 353.5,474C 346.549,477.619 341.716,483.119 339,490.5C 337.91,499.085 341.41,502.252 349.5,500C 354.102,495.963 357.602,491.129 360,485.5C 359.244,503.337 352.744,518.671 340.5,531.5C 334.377,527.217 328.377,522.717 322.5,518C 302.24,498.243 282.574,478.076 263.5,457.5C 260.494,446.667 254.827,437.5 246.5,430C 236.854,426.443 234.854,420.276 240.5,411.5C 243.612,414.597 246.278,417.93 248.5,421.5C 265.382,418.81 278.882,410.477 289,396.5C 291.459,393.93 292.459,390.93 292,387.5C 288.664,383.332 285.164,379.332 281.5,375.5C 286.101,374.1 290.768,374.267 295.5,376C 316.784,395.296 339.784,412.129 364.5,426.5 Z"/></g>
<g><path style="opacity:1" fill="#0f0f11" d="M 595.5,375.5 C 602.673,373.839 605.173,376.506 603,383.5C 600.89,388.945 597.056,390.778 591.5,389C 589.832,385.914 588.165,382.914 586.5,380C 589.766,378.942 592.766,377.442 595.5,375.5 Z"/></g>
<g><path style="opacity:1" fill="#151c22" d="M 210.5,381.5 C 209.833,381.5 209.167,381.5 208.5,381.5C 214.039,378.47 219.206,374.803 224,370.5C 224.667,371.167 224.667,371.833 224,372.5C 220.245,376.627 215.745,379.627 210.5,381.5 Z"/></g>
<g><path style="opacity:1" fill="#fafbfb" d="M 208.5,381.5 C 209.167,381.5 209.833,381.5 210.5,381.5C 210.457,384.91 210.957,388.243 212,391.5C 216.255,402.185 219.421,413.185 221.5,424.5C 217.283,425.912 212.95,426.579 208.5,426.5C 206.446,412.952 203.446,399.619 199.5,386.5C 199.369,385.624 199.702,384.957 200.5,384.5C 203.31,383.801 205.977,382.801 208.5,381.5 Z"/></g>
<g><path style="opacity:1" fill="#788cac" d="M 597.5,380.5 C 599.103,380.312 600.437,380.812 601.5,382C 597.934,382.7 595.1,384.533 593,387.5C 592.333,386.5 592.333,385.5 593,384.5C 594.667,383.267 596.167,381.933 597.5,380.5 Z"/></g>
<g><path style="opacity:1" fill="#050506" d="M 199.5,386.5 C 203.446,399.619 206.446,412.952 208.5,426.5C 204.424,427.199 200.424,428.533 196.5,430.5C 195.817,430.137 195.15,429.804 194.5,429.5C 192.443,424.39 189.609,419.723 186,415.5C 177.093,407.486 168.593,399.153 160.5,390.5C 165.5,389.833 170.5,389.167 175.5,388.5C 182.275,388.279 188.942,387.279 195.5,385.5C 196.925,385.623 198.258,385.957 199.5,386.5 Z"/></g>
<g><path style="opacity:1" fill="#546285" d="M 175.5,388.5 C 170.5,389.167 165.5,389.833 160.5,390.5C 159.833,390.5 159.5,390.167 159.5,389.5C 164.64,388.512 169.974,388.179 175.5,388.5 Z"/></g>
<g><path style="opacity:1" fill="#243436" d="M 238.5,387.5 C 239.5,387.833 240.167,388.5 240.5,389.5C 240.904,395.29 240.404,400.956 239,406.5C 238.5,400.175 238.334,393.842 238.5,387.5 Z"/></g>
<g><path style="opacity:1" fill="#fbfbfb" d="M 669.5,422.5 C 669.737,426.273 669.237,429.94 668,433.5C 661.98,448.854 652.814,462.021 640.5,473C 636.309,476.299 632.309,475.966 628.5,472C 622.991,467.657 617.991,462.824 613.5,457.5C 608.888,464.778 603.221,471.112 596.5,476.5C 589.135,464.733 584.135,452.067 581.5,438.5C 581.337,436.143 581.503,433.81 582,431.5C 585.667,427.167 589.333,422.833 593,418.5C 599.247,429.242 606.081,439.576 613.5,449.5C 614.086,449.291 614.586,448.957 615,448.5C 615.333,446.5 615.667,444.5 616,442.5C 623.5,437 631,431.5 638.5,426C 644.128,419.873 649.128,413.373 653.5,406.5C 659.853,410.853 665.186,416.186 669.5,422.5 Z"/></g>
<g><path style="opacity:1" fill="#222222" d="M 553.5,316.5 C 554.338,316.842 554.672,317.508 554.5,318.5C 554.333,333.17 554.5,347.837 555,362.5C 556.007,380.681 563.507,395.515 577.5,407C 583.698,411.953 590.698,413.62 598.5,412C 604.584,410.27 610.584,408.604 616.5,407C 609.802,411.288 602.469,413.454 594.5,413.5C 594.889,416.946 595.722,420.279 597,423.5C 602.58,430.992 607.913,438.659 613,446.5C 613.229,443.542 614.396,441.042 616.5,439C 628.542,432.29 638.708,423.456 647,412.5C 649.814,406.058 650.314,399.391 648.5,392.5C 648.5,391.167 649.167,390.5 650.5,390.5C 650.998,395.152 651.331,399.819 651.5,404.5C 654.226,404.264 656.559,405.097 658.5,407C 662.712,411.707 666.712,416.54 670.5,421.5C 669.833,421.5 669.5,421.833 669.5,422.5C 665.186,416.186 659.853,410.853 653.5,406.5C 649.128,413.373 644.128,419.873 638.5,426C 631,431.5 623.5,437 616,442.5C 615.667,444.5 615.333,446.5 615,448.5C 614.586,448.957 614.086,449.291 613.5,449.5C 606.081,439.576 599.247,429.242 593,418.5C 589.333,422.833 585.667,427.167 582,431.5C 581.503,433.81 581.337,436.143 581.5,438.5C 580.833,436.5 580.167,434.5 579.5,432.5C 583.426,426.567 587.759,420.901 592.5,415.5C 574.591,410.092 562.758,398.425 557,380.5C 554.7,373.706 553.367,366.706 553,359.5C 552.185,345.092 552.352,330.759 553.5,316.5 Z"/></g>
<g><path style="opacity:1" fill="#0a1013" d="M 195.5,447.5 C 197.288,447.215 198.955,447.548 200.5,448.5C 198.209,449.59 195.876,450.09 193.5,450C 194.381,449.292 195.047,448.458 195.5,447.5 Z"/></g>
<g><path style="opacity:1" fill="#0c1117" d="M 220.5,446.5 C 222.833,446.5 225.167,446.5 227.5,446.5C 227.719,447.675 227.386,448.675 226.5,449.5C 224.224,448.787 221.891,448.287 219.5,448C 220.056,447.617 220.389,447.117 220.5,446.5 Z"/></g>
<g><path style="opacity:1" fill="#0d1113" d="M 222.5,456.5 C 224.017,456.511 225.184,457.177 226,458.5C 226.667,461.167 226.667,463.833 226,466.5C 223.507,467.946 221.673,467.279 220.5,464.5C 219.877,461.654 220.544,458.988 222.5,456.5 Z"/></g>
<g><path style="opacity:1" fill="#0c0f12" d="M 195.5,456.5 C 197.017,456.511 198.184,457.177 199,458.5C 199.667,461.167 199.667,463.833 199,466.5C 196.507,467.946 194.673,467.279 193.5,464.5C 193.067,461.753 193.734,459.087 195.5,456.5 Z"/></g>
<g><path style="opacity:1" fill="#14181d" d="M 202.5,469.5 C 205.5,469.5 208.5,469.5 211.5,469.5C 211.97,472.346 211.137,474.679 209,476.5C 208.501,480.152 208.335,483.818 208.5,487.5C 212.306,487.98 215.639,486.98 218.5,484.5C 218.833,484.667 219.167,484.833 219.5,485C 217.388,487.818 214.555,489.318 211,489.5C 207.906,489.038 204.739,488.871 201.5,489C 199.919,488.293 198.419,487.46 197,486.5C 196.312,485.668 196.479,485.002 197.5,484.5C 199.578,486.986 202.245,487.986 205.5,487.5C 205.665,484.15 205.498,480.817 205,477.5C 201.675,475.521 200.842,472.855 202.5,469.5 Z"/></g>
<g><path style="opacity:1" fill="#a6c0da" d="M 47.5,437.5 C 48.1667,437.5 48.5,437.167 48.5,436.5C 52.6697,444.013 58.003,450.68 64.5,456.5C 66.7059,443.902 73.0392,434.068 83.5,427C 93.7735,425.43 99.1069,429.93 99.5,440.5C 96.744,456.886 87.0774,464.053 70.5,462C 67.5142,459.909 66.1809,460.909 66.5,465C 67.4407,480.932 75.1074,492.265 89.5,499C 93.0969,500.277 96.7636,500.61 100.5,500C 100.957,499.586 101.291,499.086 101.5,498.5C 97.8673,488.559 99.2006,479.393 105.5,471C 110.922,469.965 114.422,472.131 116,477.5C 117.897,488.206 114.063,496.039 104.5,501C 109.773,507.466 116.44,511.633 124.5,513.5C 120.345,514.076 116.345,513.242 112.5,511C 108.661,507.991 104.994,504.824 101.5,501.5C 93.4275,502.815 86.0942,500.982 79.5,496C 68.4378,486.03 63.2711,473.53 64,458.5C 57.0666,452.637 51.5666,445.637 47.5,437.5 Z"/></g>
<g><path style="opacity:1" fill="#fcfcfd" d="M 106.5,472.5 C 112.398,473.078 115.064,476.411 114.5,482.5C 114.658,490.04 111.324,495.373 104.5,498.5C 103.201,497.91 102.368,496.91 102,495.5C 100.303,487.105 101.803,479.438 106.5,472.5 Z"/></g>
<g><path style="opacity:1" fill="#fdfdfd" d="M 84.5,428.5 C 90.6947,427.345 94.8614,429.678 97,435.5C 98.8174,447.668 93.9841,455.835 82.5,460C 77.3105,460.985 72.3105,460.485 67.5,458.5C 67.9546,445.595 73.6213,435.595 84.5,428.5 Z"/></g>
<g><path style="opacity:1" fill="#314c4d" d="M 204.5,494.5 C 206.693,493.203 209.027,493.203 211.5,494.5C 209.141,495.714 206.808,495.714 204.5,494.5 Z"/></g>
<g><path style="opacity:1" fill="#87a7be" d="M 364.5,431.5 C 365.167,431.5 365.5,431.833 365.5,432.5C 367.032,437.228 368.865,441.895 371,446.5C 371.843,458.313 369.176,469.313 363,479.5C 362.748,500.101 355.915,518.101 342.5,533.5C 338.123,538.043 333.29,542.043 328,545.5C 327.333,544.833 327.333,544.167 328,543.5C 332.669,539.997 336.836,535.997 340.5,531.5C 352.744,518.671 359.244,503.337 360,485.5C 357.602,491.129 354.102,495.963 349.5,500C 341.41,502.252 337.91,499.085 339,490.5C 341.716,483.119 346.549,477.619 353.5,474C 357.26,472.824 360.093,473.99 362,477.5C 364.933,471.032 367.267,464.366 369,457.5C 370.344,450.575 369.01,444.241 365,438.5C 363.822,442.88 362.488,447.213 361,451.5C 355.219,464.961 345.053,471.461 330.5,471C 322.602,468.71 319.769,463.543 322,455.5C 325.192,445.971 331.025,438.471 339.5,433C 347.264,427.228 355.098,427.061 363,432.5C 363.765,432.43 364.265,432.097 364.5,431.5 Z"/></g>
<g><path style="opacity:1" fill="#050608" d="M 352.5,476.5 C 356.445,475.573 359.112,476.906 360.5,480.5C 357.612,487.115 353.612,492.948 348.5,498C 346.5,498.667 344.5,498.667 342.5,498C 341.383,494.927 341.216,491.76 342,488.5C 344.649,483.689 348.149,479.689 352.5,476.5 Z"/></g>
<g><path style="opacity:1" fill="#020304" d="M 346.5,431.5 C 352.605,430.651 358.105,431.984 363,435.5C 362.327,447.347 357.493,457.18 348.5,465C 341.439,469.802 334.106,470.469 326.5,467C 323.018,462.918 322.518,458.418 325,453.5C 329.714,443.621 336.881,436.287 346.5,431.5 Z"/></g>
<g><path style="opacity:1" fill="#93bcc9" d="M 621.5,511.5 C 623.331,512.052 624.997,512.052 626.5,511.5C 628.588,516.019 627.254,517.852 622.5,517C 621.594,515.301 621.261,513.467 621.5,511.5 Z"/></g>
<g><path style="opacity:1" fill="#040507" d="M 226.5,533.5 C 224.214,533.595 222.214,534.262 220.5,535.5C 211.862,536.34 203.195,536.673 194.5,536.5C 190.584,536.975 187.251,535.975 184.5,533.5C 186.905,529.027 189.571,524.694 192.5,520.5C 193.15,520.196 193.817,519.863 194.5,519.5C 215.294,524.975 234.794,521.975 253,510.5C 252.874,513.098 251.874,515.431 250,517.5C 243.539,524.971 235.706,530.304 226.5,533.5 Z"/></g>
<g><path style="opacity:1" fill="#aebfdf" d="M 63.5,522.5 C 66.6215,524.448 69.6215,526.615 72.5,529C 69.7012,528.268 67.0345,526.934 64.5,525C 63.7476,524.329 63.4142,523.496 63.5,522.5 Z"/></g>
<g><path style="opacity:1" fill="#68799b" d="M 748.5,530.5 C 750.337,530.639 750.67,531.306 749.5,532.5C 747.043,534.225 744.377,534.725 741.5,534C 744.069,533.102 746.402,531.935 748.5,530.5 Z"/></g>
<g><path style="opacity:1" fill="#748aa6" d="M 226.5,533.5 C 229.518,533.335 232.518,533.502 235.5,534C 236.416,534.278 237.082,534.778 237.5,535.5C 231.833,534.167 226.167,534.167 220.5,535.5C 222.214,534.262 224.214,533.595 226.5,533.5 Z"/></g>
<g><path style="opacity:1" fill="#0e1216" d="M 237.5,535.5 C 242.485,536.491 247.151,538.324 251.5,541C 244.451,538.607 237.118,537.107 229.5,536.5C 221.135,537.019 214.968,541.019 211,548.5C 207.102,557.08 209.602,560.413 218.5,558.5C 218.5,559.833 218.5,561.167 218.5,562.5C 220.821,562.771 222.821,562.104 224.5,560.5C 225.003,562.744 226.337,564.078 228.5,564.5C 232.024,563.793 234.524,561.793 236,558.5C 235.548,562.63 233.215,565.296 229,566.5C 225.388,564.98 221.555,564.146 217.5,564C 215.27,561.937 212.603,560.604 209.5,560C 207.571,556.744 207.071,553.244 208,549.5C 209.996,546.014 212.163,542.681 214.5,539.5C 216.795,538.525 218.795,537.192 220.5,535.5C 226.167,534.167 231.833,534.167 237.5,535.5 Z"/></g>
<g><path style="opacity:1" fill="#7794ad" d="M 220.5,535.5 C 218.795,537.192 216.795,538.525 214.5,539.5C 208.062,537.85 201.395,536.85 194.5,536.5C 203.195,536.673 211.862,536.34 220.5,535.5 Z"/></g>
<g><path style="opacity:1" fill="#627198" d="M 516.5,506.5 C 517.331,519.327 517.831,532.327 518,545.5C 518.184,549.65 519.018,553.65 520.5,557.5C 520.167,557.833 519.833,558.167 519.5,558.5C 517.124,554.549 515.957,550.216 516,545.5C 515.187,532.425 515.354,519.425 516.5,506.5 Z"/></g>
<g><path style="opacity:1" fill="#b0bee1" d="M 78.5,534.5 C 79.7211,533.535 81.0544,533.702 82.5,535C 88.9985,539.417 95.6652,543.584 102.5,547.5C 101.998,548.521 101.332,548.688 100.5,548C 92.9717,543.74 85.6383,539.24 78.5,534.5 Z"/></g>
<g><path style="opacity:1" fill="#16272b" d="M 177.5,546.5 C 177.272,544.645 177.939,543.812 179.5,544C 178.934,544.995 178.267,545.828 177.5,546.5 Z"/></g>
<g><path style="opacity:1" fill="#192224" d="M 177.5,546.5 C 176.633,549.908 175.467,553.242 174,556.5C 173.303,558.584 172.136,560.251 170.5,561.5C 172.044,556.081 174.378,551.081 177.5,546.5 Z"/></g>
<g><path style="opacity:1" fill="#92b8c8" d="M 625.5,550.5 C 627.435,551.15 629.435,551.483 631.5,551.5C 631.615,556.328 629.448,557.661 625,555.5C 624.36,553.735 624.527,552.068 625.5,550.5 Z"/></g>
<g><path style="opacity:1" fill="#b2c2e0" d="M 58.5,549.5 C 66.1581,557.322 74.8248,563.822 84.5,569C 74.4951,565.712 65.9951,559.878 59,551.5C 58.5357,550.906 58.369,550.239 58.5,549.5 Z"/></g>
<g><path style="opacity:1" fill="#7f9bb9" d="M 618.5,599.5 C 618.795,601.735 618.461,603.735 617.5,605.5C 612.157,569.399 609.324,533.065 609,496.5C 611.629,489.58 613.963,482.58 616,475.5C 616.167,476.167 616.333,476.833 616.5,477.5C 614.431,484.874 612.264,492.207 610,499.5C 609.833,502.5 609.667,505.5 609.5,508.5C 612.83,538.799 615.83,569.133 618.5,599.5 Z"/></g>
<g><path style="opacity:1" fill="#020203" d="M 163.5,588.5 C 204.833,588.5 246.167,588.5 287.5,588.5C 308.836,588.333 330.169,588.5 351.5,589C 358.402,590.999 362.402,595.499 363.5,602.5C 363.5,608.167 363.5,613.833 363.5,619.5C 360.575,619.46 357.909,620.293 355.5,622C 350.522,623.605 346.855,622.105 344.5,617.5C 345.706,615.484 345.706,613.484 344.5,611.5C 340.98,621.268 333.98,625.435 323.5,624C 321.487,623.32 320.154,621.987 319.5,620C 321.127,617.236 322.46,614.403 323.5,611.5C 321.097,611.393 319.264,612.393 318,614.5C 317.837,616.676 317.004,618.509 315.5,620C 308.823,625.566 301.323,627.399 293,625.5C 294.374,622.381 295.541,619.047 296.5,615.5C 294.173,615.247 292.173,615.914 290.5,617.5C 290.207,620.907 288.873,623.74 286.5,626C 278.776,629.171 270.776,630.171 262.5,629C 258.99,627.093 257.824,624.26 259,620.5C 261.315,618.465 262.148,616.132 261.5,613.5C 257.816,614.681 255.816,617.181 255.5,621C 248.088,625.52 240.088,627.52 231.5,627C 230.069,626.535 228.903,625.701 228,624.5C 227.8,621.716 228.634,619.216 230.5,617C 229.055,613.863 227.222,613.697 225,616.5C 224.97,619.615 223.803,622.115 221.5,624C 210.481,630.516 199.314,631.016 188,625.5C 185.768,622.185 186.434,619.519 190,617.5C 191.009,615.975 191.509,614.308 191.5,612.5C 186.089,612.93 183.089,615.93 182.5,621.5C 174.329,625.876 165.662,627.376 156.5,626C 151.142,623.759 150.142,620.259 153.5,615.5C 153.272,613.603 152.272,612.27 150.5,611.5C 149.213,615.041 147.88,618.541 146.5,622C 137.64,627.455 128.64,627.789 119.5,623C 118.101,621.938 117.101,620.605 116.5,619C 117.625,617.037 118.959,615.204 120.5,613.5C 119.277,612.386 117.944,612.219 116.5,613C 112.176,620.25 105.676,623.75 97,623.5C 94.0011,623.519 91.1678,622.852 88.5,621.5C 88.1667,621.833 87.8333,622.167 87.5,622.5C 96.4872,626.629 105.154,625.962 113.5,620.5C 124.718,630.472 136.551,631.139 149,622.5C 152.462,627.231 157.128,629.564 163,629.5C 170.189,628.696 177.023,626.696 183.5,623.5C 186.409,626.577 189.742,629.077 193.5,631C 204.678,632.598 215.011,630.432 224.5,624.5C 229.207,629.231 234.874,630.731 241.5,629C 246.364,627.657 251.031,625.823 255.5,623.5C 258.157,629.987 262.99,632.987 270,632.5C 277.095,631.954 283.762,629.954 290,626.5C 293.463,628.986 297.296,629.82 301.5,629C 307.13,627.435 312.297,624.935 317,621.5C 322.247,626.796 328.413,627.962 335.5,625C 338.562,623.939 341.062,622.106 343,619.5C 344.943,622.465 347.61,624.131 351,624.5C 355.417,623.861 359.583,622.527 363.5,620.5C 363.5,632.167 363.5,643.833 363.5,655.5C 360.763,656.031 358.096,656.864 355.5,658C 347.201,659.857 343.534,656.691 344.5,648.5C 342.869,650.059 342.036,652.059 342,654.5C 336.51,659.773 330.01,661.606 322.5,660C 320.777,659.225 319.777,657.892 319.5,656C 321.016,653.976 322.349,651.809 323.5,649.5C 319.315,648.159 317.149,649.826 317,654.5C 310.791,660.859 303.291,663.692 294.5,663C 293.572,662.612 292.905,661.945 292.5,661C 294.487,658.524 295.487,655.69 295.5,652.5C 293.278,652.178 291.444,652.845 290,654.5C 289.764,656.764 289.264,658.931 288.5,661C 279.969,665.923 270.969,667.256 261.5,665C 258.903,662.683 258.07,659.85 259,656.5C 261.612,654.719 262.279,652.719 261,650.5C 257.796,652.059 255.629,654.559 254.5,658C 246.963,662.556 238.963,664.223 230.5,663C 229.667,662.167 228.833,661.333 228,660.5C 228.179,657.911 229.013,655.411 230.5,653C 229.667,650.5 228.167,650 226,651.5C 225.202,654.543 224.035,657.376 222.5,660C 213.434,665.007 203.768,666.673 193.5,665C 190.035,664.034 187.702,661.868 186.5,658.5C 188.167,655.833 189.833,653.167 191.5,650.5C 188.433,648.948 185.933,649.615 184,652.5C 183.749,654.433 183.249,656.266 182.5,658C 174.612,662.057 166.279,663.723 157.5,663C 151.459,660.709 150.126,656.875 153.5,651.5C 152.976,648.604 151.476,647.937 149,649.5C 149.657,654.41 147.824,657.91 143.5,660C 136.638,662.886 129.638,663.22 122.5,661C 116.382,658.708 115.549,655.541 120,651.5C 120.483,650.552 120.649,649.552 120.5,648.5C 116.038,648.621 113.371,650.954 112.5,655.5C 109.094,657.6 105.428,658.933 101.5,659.5C 97.1071,659.457 92.7738,659.291 88.5,659C 91.3374,660.902 94.5041,661.735 98,661.5C 100.033,661.494 101.866,661.161 103.5,660.5C 107.505,660.443 111.005,659.11 114,656.5C 118.201,662.514 124.034,665.181 131.5,664.5C 138.168,664.778 144.001,662.778 149,658.5C 150.833,660.333 152.667,662.167 154.5,664C 164.676,666.212 174.343,664.712 183.5,659.5C 187.599,665.797 193.432,668.464 201,667.5C 209.806,667.785 217.806,665.452 225,660.5C 227.429,664.44 230.929,666.44 235.5,666.5C 242.208,665.209 248.708,663.209 255,660.5C 258.125,666.148 262.958,668.814 269.5,668.5C 276.88,668.281 283.713,666.281 290,662.5C 294.025,665.393 298.525,666.226 303.5,665C 308.532,663.402 313.032,660.902 317,657.5C 319.212,661.276 322.545,663.276 327,663.5C 333.131,662.904 338.465,660.57 343,656.5C 345.01,659.56 347.843,661.226 351.5,661.5C 355.592,660.358 359.592,659.025 363.5,657.5C 363.5,668.833 363.5,680.167 363.5,691.5C 360.273,692.744 356.939,693.91 353.5,695C 349.326,696.018 346.326,694.518 344.5,690.5C 345.706,688.484 345.706,686.484 344.5,684.5C 341.002,694.258 334.002,698.425 323.5,697C 321.264,696.266 319.931,694.766 319.5,692.5C 321.303,690.041 322.637,687.374 323.5,684.5C 319.477,685.025 317.31,687.359 317,691.5C 310.152,698.043 302.152,700.376 293,698.5C 293.856,695.108 295.023,691.775 296.5,688.5C 293.956,688.104 291.789,688.771 290,690.5C 289.04,692.98 288.207,695.48 287.5,698C 279.993,702.157 271.993,703.491 263.5,702C 259.335,700.517 257.835,697.684 259,693.5C 260.879,691.473 262.046,689.14 262.5,686.5C 261.448,686.351 260.448,686.517 259.5,687C 257.257,689.488 255.257,692.154 253.5,695C 246.642,698.957 239.309,700.624 231.5,700C 230.069,699.535 228.903,698.701 228,697.5C 228.619,694.292 229.119,690.958 229.5,687.5C 225.333,687.846 223.5,690.18 224,694.5C 214.555,701.645 204.055,703.812 192.5,701C 185.986,698.506 185.152,695.006 190,690.5C 191.009,688.975 191.509,687.308 191.5,685.5C 185.996,685.167 183.163,687.834 183,693.5C 173.343,699.858 163.343,700.858 153,696.5C 152.5,695.5 152,694.5 151.5,693.5C 153.225,691.043 153.725,688.377 153,685.5C 151.667,684.167 150.333,684.167 149,685.5C 148.667,688.167 148.333,690.833 148,693.5C 138.462,699.479 128.628,699.979 118.5,695C 117.426,694.261 116.759,693.261 116.5,692C 118.523,689.825 119.857,687.325 120.5,684.5C 116.279,684.91 113.779,687.244 113,691.5C 105.692,696.747 97.8586,697.747 89.5,694.5C 89.1667,694.833 88.8333,695.167 88.5,695.5C 97.0817,698.506 105.415,697.84 113.5,693.5C 124.832,703.428 136.832,704.095 149.5,695.5C 152.948,700.221 157.614,702.221 163.5,701.5C 170.837,701.221 177.67,699.221 184,695.5C 187.675,702.172 193.342,705.172 201,704.5C 209.959,704.625 217.959,701.958 225,696.5C 227.208,701.105 230.875,703.105 236,702.5C 242.833,701.665 249.333,699.665 255.5,696.5C 258.049,702.362 262.549,705.362 269,705.5C 276.502,705.249 283.502,703.249 290,699.5C 299.781,703.015 308.614,701.348 316.5,694.5C 325.715,701.499 334.548,700.832 343,692.5C 344.943,695.465 347.61,697.131 351,697.5C 355.417,696.861 359.583,695.527 363.5,693.5C 363.5,705.167 363.5,716.833 363.5,728.5C 358.647,730.286 353.647,731.12 348.5,731C 346.365,730.241 345.032,728.741 344.5,726.5C 345.681,724.802 345.681,723.135 344.5,721.5C 340.509,731.332 333.176,735.165 322.5,733C 321.101,731.938 320.101,730.605 319.5,729C 320.701,726.766 322.035,724.599 323.5,722.5C 319.315,721.159 317.149,722.826 317,727.5C 311.84,732.496 305.673,735.496 298.5,736.5C 295.927,736.547 293.927,735.547 292.5,733.5C 294.086,731.33 295.42,728.996 296.5,726.5C 294.125,723.877 291.959,724.211 290,727.5C 289.764,729.764 289.264,731.931 288.5,734C 279.496,739.128 270.162,740.128 260.5,737C 258.718,734.757 258.218,732.257 259,729.5C 261.622,727.627 262.456,725.293 261.5,722.5C 257.977,723.521 256.144,725.855 256,729.5C 248.338,734.874 239.838,737.041 230.5,736C 229.667,735.167 228.833,734.333 228,733.5C 228.179,730.911 229.013,728.411 230.5,726C 229.055,722.863 227.222,722.697 225,725.5C 225.396,729.457 223.896,732.29 220.5,734C 212.235,737.919 203.569,739.253 194.5,738C 190.563,737.044 187.897,734.711 186.5,731C 188.348,728.646 190.014,726.146 191.5,723.5C 191.113,722.28 190.28,721.613 189,721.5C 185.101,723.234 182.935,726.234 182.5,730.5C 175.046,734.864 167.046,736.697 158.5,736C 151.794,734.175 150.127,730.342 153.5,724.5C 152.976,721.604 151.476,720.937 149,722.5C 149.657,727.41 147.824,730.91 143.5,733C 135.781,736.143 128.114,736.143 120.5,733C 119.333,731.833 118.167,730.667 117,729.5C 117.052,726.728 118.219,724.394 120.5,722.5C 119.277,721.386 117.944,721.219 116.5,722C 114.682,725.162 112.348,727.828 109.5,730C 102.652,732.532 95.6524,733.198 88.5,732C 97.3652,735.764 105.865,734.93 114,729.5C 122.415,738.009 132.248,739.842 143.5,735C 145.587,734.208 147.421,733.041 149,731.5C 152.462,736.231 157.128,738.564 163,738.5C 170.124,737.51 176.957,735.51 183.5,732.5C 187.763,738.819 193.763,741.486 201.5,740.5C 210.073,741.055 217.739,738.721 224.5,733.5C 226.316,734.815 227.983,736.315 229.5,738C 238.862,739.325 247.529,737.492 255.5,732.5C 257.844,739.01 262.51,742.01 269.5,741.5C 276.959,741.125 283.959,739.125 290.5,735.5C 293.71,738.222 297.376,739.056 301.5,738C 307.348,736.833 312.514,734.333 317,730.5C 322.189,735.835 328.356,737.002 335.5,734C 338.249,732.877 340.749,731.377 343,729.5C 345.132,732.316 347.965,733.649 351.5,733.5C 355.855,733.16 359.855,731.826 363.5,729.5C 363.5,741.167 363.5,752.833 363.5,764.5C 360.984,764.755 358.65,765.589 356.5,767C 347.711,769.354 343.711,766.187 344.5,757.5C 342.996,763.836 338.996,767.669 332.5,769C 328.833,769.667 325.167,769.667 321.5,769C 320.196,768.196 319.529,767.029 319.5,765.5C 320.795,763.19 322.129,760.857 323.5,758.5C 321.994,757.253 320.494,757.253 319,758.5C 315.017,767.452 308.017,772.119 298,772.5C 295.615,772.744 293.782,771.911 292.5,770C 294.774,767.618 296.107,764.785 296.5,761.5C 290.431,761.246 287.765,764.246 288.5,770.5C 280.612,774.511 272.279,776.011 263.5,775C 259.335,773.517 257.835,770.684 259,766.5C 260.366,764.63 261.533,762.63 262.5,760.5C 260.157,759.275 258.323,759.941 257,762.5C 256.293,764.081 255.46,765.581 254.5,767C 247.365,771.271 239.698,773.271 231.5,773C 230,772.167 228.833,771 228,769.5C 229.016,766.393 229.516,763.06 229.5,759.5C 227.408,759.561 225.908,760.561 225,762.5C 224.907,765.007 224.074,767.174 222.5,769C 213.452,774.089 203.785,775.756 193.5,774C 185.331,771.179 184.498,767.013 191,761.5C 191.483,760.552 191.649,759.552 191.5,758.5C 185.953,758.212 183.12,760.879 183,766.5C 175.062,770.943 166.562,772.776 157.5,772C 151.459,769.709 150.126,765.875 153.5,760.5C 152.976,757.604 151.476,756.937 149,758.5C 149.087,766.086 145.254,770.253 137.5,771C 130.751,772.331 124.418,771.331 118.5,768C 117.426,767.261 116.759,766.261 116.5,765C 118.523,762.825 119.857,760.325 120.5,757.5C 116.038,757.621 113.371,759.954 112.5,764.5C 108.003,767.542 103.003,768.875 97.5,768.5C 94.1188,768.186 90.7855,768.019 87.5,768C 92.9077,770.444 98.5743,771.11 104.5,770C 108.062,769.261 111.228,767.761 114,765.5C 116.087,769.302 119.254,771.802 123.5,773C 132.626,774.665 141.126,773.165 149,768.5C 152.309,772.654 156.642,774.654 162,774.5C 169.794,774.123 177.127,772.123 184,768.5C 188.151,774.616 193.985,777.616 201.5,777.5C 210.199,777.265 218.032,774.598 225,769.5C 227.268,773.3 230.602,775.3 235,775.5C 241.989,774.586 248.656,772.586 255,769.5C 256.706,771.727 258.54,773.894 260.5,776C 270.996,778.904 280.83,777.404 290,771.5C 290.903,772.701 292.069,773.535 293.5,774C 302.547,775.398 310.38,772.898 317,766.5C 319.212,770.276 322.545,772.276 327,772.5C 333.131,771.904 338.465,769.57 343,765.5C 344.909,768.414 347.575,770.081 351,770.5C 355.285,769.46 359.452,768.127 363.5,766.5C 363.5,778.167 363.5,789.833 363.5,801.5C 358.647,803.286 353.647,804.12 348.5,804C 346.981,802.649 345.648,801.149 344.5,799.5C 345.52,797.568 345.687,795.568 345,793.5C 341.163,803.174 333.997,807.341 323.5,806C 321.487,805.32 320.154,803.987 319.5,802C 321.127,799.236 322.46,796.403 323.5,793.5C 322.448,793.351 321.448,793.517 320.5,794C 318.401,796.409 316.734,799.076 315.5,802C 312.436,803.859 309.436,805.692 306.5,807.5C 301.787,808.709 297.121,808.709 292.5,807.5C 294.375,804.412 295.708,801.078 296.5,797.5C 294.533,797.261 292.699,797.594 291,798.5C 290.443,802.198 288.943,805.365 286.5,808C 277.84,808.5 269.173,808.666 260.5,808.5C 259.833,808.167 259.167,807.833 258.5,807.5C 258.34,805.801 258.506,804.134 259,802.5C 260.879,800.473 262.046,798.14 262.5,795.5C 258.312,796.19 255.978,798.69 255.5,803C 248.214,807.883 240.214,809.716 231.5,808.5C 230.391,808.443 229.391,808.11 228.5,807.5C 227.447,804.386 228.113,801.553 230.5,799C 229.055,795.863 227.222,795.697 225,798.5C 224.808,800.577 224.308,802.577 223.5,804.5C 221.435,805.857 219.435,807.19 217.5,808.5C 207.828,808.666 198.161,808.5 188.5,808C 185.614,804.639 186.114,801.805 190,799.5C 191.009,797.975 191.509,796.308 191.5,794.5C 185.643,794.498 182.643,797.498 182.5,803.5C 178.135,805.394 173.801,807.061 169.5,808.5C 165.167,808.5 160.833,808.5 156.5,808.5C 154.897,807.404 153.397,806.07 152,804.5C 151.997,801.968 152.497,799.468 153.5,797C 152.923,793.251 151.423,792.751 149,795.5C 148.989,798.659 148.155,801.493 146.5,804C 142.843,805.822 139.176,807.322 135.5,808.5C 131.434,808.693 127.434,808.36 123.5,807.5C 121.132,806.217 118.965,804.55 117,802.5C 116.333,801.5 116.333,800.5 117,799.5C 118.353,798.315 119.52,796.981 120.5,795.5C 116.229,794.558 113.562,796.391 112.5,801C 104.683,805.5 96.6827,806.666 88.5,804.5C 97.1016,808.563 105.435,807.896 113.5,802.5C 116.221,804.548 118.221,806.548 119.5,808.5C 87.0934,808.826 54.76,808.492 22.5,807.5C 43.1401,805.511 64.1401,804.845 85.5,805.5C 85.3333,737.166 85.5,668.833 86,600.5C 87.7694,595.065 91.2694,591.232 96.5,589C 118.831,588.5 141.164,588.333 163.5,588.5 Z"/></g>
<g><path style="opacity:1" fill="#8fb0c3" d="M 630.5,589.5 C 632.435,590.15 634.435,590.483 636.5,590.5C 636.615,595.328 634.448,596.661 630,594.5C 629.36,592.735 629.527,591.068 630.5,589.5 Z"/></g>
<g><path style="opacity:1" fill="#85a5bc" d="M 363.5,602.5 C 364.49,608.31 364.823,614.31 364.5,620.5C 364.167,620.5 363.833,620.5 363.5,620.5C 359.583,622.527 355.417,623.861 351,624.5C 347.61,624.131 344.943,622.465 343,619.5C 341.062,622.106 338.562,623.939 335.5,625C 328.413,627.962 322.247,626.796 317,621.5C 312.297,624.935 307.13,627.435 301.5,629C 297.296,629.82 293.463,628.986 290,626.5C 283.762,629.954 277.095,631.954 270,632.5C 262.99,632.987 258.157,629.987 255.5,623.5C 251.031,625.823 246.364,627.657 241.5,629C 234.874,630.731 229.207,629.231 224.5,624.5C 215.011,630.432 204.678,632.598 193.5,631C 189.742,629.077 186.409,626.577 183.5,623.5C 177.023,626.696 170.189,628.696 163,629.5C 157.128,629.564 152.462,627.231 149,622.5C 136.551,631.139 124.718,630.472 113.5,620.5C 105.154,625.962 96.4872,626.629 87.5,622.5C 87.8333,622.167 88.1667,621.833 88.5,621.5C 91.1678,622.852 94.0011,623.519 97,623.5C 105.676,623.75 112.176,620.25 116.5,613C 117.944,612.219 119.277,612.386 120.5,613.5C 118.959,615.204 117.625,617.037 116.5,619C 117.101,620.605 118.101,621.938 119.5,623C 128.64,627.789 137.64,627.455 146.5,622C 147.88,618.541 149.213,615.041 150.5,611.5C 152.272,612.27 153.272,613.603 153.5,615.5C 150.142,620.259 151.142,623.759 156.5,626C 165.662,627.376 174.329,625.876 182.5,621.5C 183.089,615.93 186.089,612.93 191.5,612.5C 191.509,614.308 191.009,615.975 190,617.5C 186.434,619.519 185.768,622.185 188,625.5C 199.314,631.016 210.481,630.516 221.5,624C 223.803,622.115 224.97,619.615 225,616.5C 227.222,613.697 229.055,613.863 230.5,617C 228.634,619.216 227.8,621.716 228,624.5C 228.903,625.701 230.069,626.535 231.5,627C 240.088,627.52 248.088,625.52 255.5,621C 255.816,617.181 257.816,614.681 261.5,613.5C 262.148,616.132 261.315,618.465 259,620.5C 257.824,624.26 258.99,627.093 262.5,629C 270.776,630.171 278.776,629.171 286.5,626C 288.873,623.74 290.207,620.907 290.5,617.5C 292.173,615.914 294.173,615.247 296.5,615.5C 295.541,619.047 294.374,622.381 293,625.5C 301.323,627.399 308.823,625.566 315.5,620C 317.004,618.509 317.837,616.676 318,614.5C 319.264,612.393 321.097,611.393 323.5,611.5C 322.46,614.403 321.127,617.236 319.5,620C 320.154,621.987 321.487,623.32 323.5,624C 333.98,625.435 340.98,621.268 344.5,611.5C 345.706,613.484 345.706,615.484 344.5,617.5C 346.855,622.105 350.522,623.605 355.5,622C 357.909,620.293 360.575,619.46 363.5,619.5C 363.5,613.833 363.5,608.167 363.5,602.5 Z"/></g>
<g><path style="opacity:1" fill="#89adbe" d="M 634.5,628.5 C 636.042,629.301 637.708,629.634 639.5,629.5C 640.508,634.667 638.675,636.334 634,634.5C 633.322,632.402 633.489,630.402 634.5,628.5 Z"/></g>
<g><path style="opacity:1" fill="#6f84a8" d="M 618.5,599.5 C 622.166,628.151 626.333,656.818 631,685.5C 624.883,659.129 620.383,632.462 617.5,605.5C 618.461,603.735 618.795,601.735 618.5,599.5 Z"/></g>
<g><path style="opacity:1" fill="#7483b3" d="M 101.5,659.5 C 101.842,660.338 102.508,660.672 103.5,660.5C 101.866,661.161 100.033,661.494 98,661.5C 94.5041,661.735 91.3374,660.902 88.5,659C 92.7738,659.291 97.1071,659.457 101.5,659.5 Z"/></g>
<g><path style="opacity:1" fill="#88a9bf" d="M 363.5,655.5 C 363.5,656.167 363.5,656.833 363.5,657.5C 359.592,659.025 355.592,660.358 351.5,661.5C 347.843,661.226 345.01,659.56 343,656.5C 338.465,660.57 333.131,662.904 327,663.5C 322.545,663.276 319.212,661.276 317,657.5C 313.032,660.902 308.532,663.402 303.5,665C 298.525,666.226 294.025,665.393 290,662.5C 283.713,666.281 276.88,668.281 269.5,668.5C 262.958,668.814 258.125,666.148 255,660.5C 248.708,663.209 242.208,665.209 235.5,666.5C 230.929,666.44 227.429,664.44 225,660.5C 217.806,665.452 209.806,667.785 201,667.5C 193.432,668.464 187.599,665.797 183.5,659.5C 174.343,664.712 164.676,666.212 154.5,664C 152.667,662.167 150.833,660.333 149,658.5C 144.001,662.778 138.168,664.778 131.5,664.5C 124.034,665.181 118.201,662.514 114,656.5C 111.005,659.11 107.505,660.443 103.5,660.5C 102.508,660.672 101.842,660.338 101.5,659.5C 105.428,658.933 109.094,657.6 112.5,655.5C 113.371,650.954 116.038,648.621 120.5,648.5C 120.649,649.552 120.483,650.552 120,651.5C 115.549,655.541 116.382,658.708 122.5,661C 129.638,663.22 136.638,662.886 143.5,660C 147.824,657.91 149.657,654.41 149,649.5C 151.476,647.937 152.976,648.604 153.5,651.5C 150.126,656.875 151.459,660.709 157.5,663C 166.279,663.723 174.612,662.057 182.5,658C 183.249,656.266 183.749,654.433 184,652.5C 185.933,649.615 188.433,648.948 191.5,650.5C 189.833,653.167 188.167,655.833 186.5,658.5C 187.702,661.868 190.035,664.034 193.5,665C 203.768,666.673 213.434,665.007 222.5,660C 224.035,657.376 225.202,654.543 226,651.5C 228.167,650 229.667,650.5 230.5,653C 229.013,655.411 228.179,657.911 228,660.5C 228.833,661.333 229.667,662.167 230.5,663C 238.963,664.223 246.963,662.556 254.5,658C 255.629,654.559 257.796,652.059 261,650.5C 262.279,652.719 261.612,654.719 259,656.5C 258.07,659.85 258.903,662.683 261.5,665C 270.969,667.256 279.969,665.923 288.5,661C 289.264,658.931 289.764,656.764 290,654.5C 291.444,652.845 293.278,652.178 295.5,652.5C 295.487,655.69 294.487,658.524 292.5,661C 292.905,661.945 293.572,662.612 294.5,663C 303.291,663.692 310.791,660.859 317,654.5C 317.149,649.826 319.315,648.159 323.5,649.5C 322.349,651.809 321.016,653.976 319.5,656C 319.777,657.892 320.777,659.225 322.5,660C 330.01,661.606 336.51,659.773 342,654.5C 342.036,652.059 342.869,650.059 344.5,648.5C 343.534,656.691 347.201,659.857 355.5,658C 358.096,656.864 360.763,656.031 363.5,655.5 Z"/></g>
<g><path style="opacity:1" fill="#132721" d="M 292.5,654.5 C 293.713,655.497 293.546,656.497 292,657.5C 291.53,656.423 291.697,655.423 292.5,654.5 Z"/></g>
<g><path style="opacity:1" fill="#8cb3c2" d="M 641.5,667.5 C 643.042,668.301 644.708,668.634 646.5,668.5C 647.508,673.667 645.675,675.334 641,673.5C 640.322,671.402 640.489,669.402 641.5,667.5 Z"/></g>
<g><path style="opacity:1" fill="#7a93b2" d="M 562.5,681.5 C 563.465,682.721 563.298,684.054 562,685.5C 554.167,694.667 546.333,703.833 538.5,713C 537.241,713.982 535.908,714.315 534.5,714C 537.63,711.872 540.463,709.372 543,706.5C 549.333,698.005 555.833,689.671 562.5,681.5 Z"/></g>
<g><path style="opacity:1" fill="#85a5bc" d="M 363.5,691.5 C 363.5,692.167 363.5,692.833 363.5,693.5C 359.583,695.527 355.417,696.861 351,697.5C 347.61,697.131 344.943,695.465 343,692.5C 334.548,700.832 325.715,701.499 316.5,694.5C 308.614,701.348 299.781,703.015 290,699.5C 283.502,703.249 276.502,705.249 269,705.5C 262.549,705.362 258.049,702.362 255.5,696.5C 249.333,699.665 242.833,701.665 236,702.5C 230.875,703.105 227.208,701.105 225,696.5C 217.959,701.958 209.959,704.625 201,704.5C 193.342,705.172 187.675,702.172 184,695.5C 177.67,699.221 170.837,701.221 163.5,701.5C 157.614,702.221 152.948,700.221 149.5,695.5C 136.832,704.095 124.832,703.428 113.5,693.5C 105.415,697.84 97.0817,698.506 88.5,695.5C 88.8333,695.167 89.1667,694.833 89.5,694.5C 97.8586,697.747 105.692,696.747 113,691.5C 113.779,687.244 116.279,684.91 120.5,684.5C 119.857,687.325 118.523,689.825 116.5,692C 116.759,693.261 117.426,694.261 118.5,695C 128.628,699.979 138.462,699.479 148,693.5C 148.333,690.833 148.667,688.167 149,685.5C 150.333,684.167 151.667,684.167 153,685.5C 153.725,688.377 153.225,691.043 151.5,693.5C 152,694.5 152.5,695.5 153,696.5C 163.343,700.858 173.343,699.858 183,693.5C 183.163,687.834 185.996,685.167 191.5,685.5C 191.509,687.308 191.009,688.975 190,690.5C 185.152,695.006 185.986,698.506 192.5,701C 204.055,703.812 214.555,701.645 224,694.5C 223.5,690.18 225.333,687.846 229.5,687.5C 229.119,690.958 228.619,694.292 228,697.5C 228.903,698.701 230.069,699.535 231.5,700C 239.309,700.624 246.642,698.957 253.5,695C 255.257,692.154 257.257,689.488 259.5,687C 260.448,686.517 261.448,686.351 262.5,686.5C 262.046,689.14 260.879,691.473 259,693.5C 257.835,697.684 259.335,700.517 263.5,702C 271.993,703.491 279.993,702.157 287.5,698C 288.207,695.48 289.04,692.98 290,690.5C 291.789,688.771 293.956,688.104 296.5,688.5C 295.023,691.775 293.856,695.108 293,698.5C 302.152,700.376 310.152,698.043 317,691.5C 317.31,687.359 319.477,685.025 323.5,684.5C 322.637,687.374 321.303,690.041 319.5,692.5C 319.931,694.766 321.264,696.266 323.5,697C 334.002,698.425 341.002,694.258 344.5,684.5C 345.706,686.484 345.706,688.484 344.5,690.5C 346.326,694.518 349.326,696.018 353.5,695C 356.939,693.91 360.273,692.744 363.5,691.5 Z"/></g>
<g><path style="opacity:1" fill="#7990b1" d="M 709.5,672.5 C 723.298,682.237 737.298,691.737 751.5,701C 752.451,701.718 752.617,702.551 752,703.5C 737.892,694.39 724.059,684.89 710.5,675C 709.748,674.329 709.414,673.496 709.5,672.5 Z"/></g>
<g><path style="opacity:1" fill="#8cb1c2" d="M 632.5,692.5 C 631.883,692.389 631.383,692.056 631,691.5C 630.797,695.421 630.297,699.255 629.5,703C 629.833,703.333 630.167,703.667 630.5,704C 627.067,711.071 625.067,718.571 624.5,726.5C 623.817,726.863 623.15,727.196 622.5,727.5C 624.861,714.39 627.694,701.39 631,688.5C 631.791,689.745 632.291,691.078 632.5,692.5 Z"/></g>
<g><path style="opacity:1" fill="#97cacc" d="M 632.5,692.5 C 644.934,719.607 657.101,746.94 669,774.5C 670.003,777.699 671.837,780.199 674.5,782C 713.424,778.87 746.091,763.037 772.5,734.5C 782.695,765.332 788.695,796.999 790.5,829.5C 773.167,829.5 755.833,829.5 738.5,829.5C 661.928,829.271 585.428,829.271 509,829.5C 510.766,805.573 514.266,781.906 519.5,758.5C 529.033,762.742 538.7,766.908 548.5,771C 567.384,779.092 587.051,782.092 607.5,780C 610.663,778.52 612.496,776.02 613,772.5C 615.539,757.232 618.706,742.232 622.5,727.5C 623.15,727.196 623.817,726.863 624.5,726.5C 625.067,718.571 627.067,711.071 630.5,704C 630.167,703.667 629.833,703.333 629.5,703C 630.297,699.255 630.797,695.421 631,691.5C 631.383,692.056 631.883,692.389 632.5,692.5 Z"/></g>
<g><path style="opacity:1" fill="#86a7be" d="M 363.5,728.5 C 363.5,728.833 363.5,729.167 363.5,729.5C 359.855,731.826 355.855,733.16 351.5,733.5C 347.965,733.649 345.132,732.316 343,729.5C 340.749,731.377 338.249,732.877 335.5,734C 328.356,737.002 322.189,735.835 317,730.5C 312.514,734.333 307.348,736.833 301.5,738C 297.376,739.056 293.71,738.222 290.5,735.5C 283.959,739.125 276.959,741.125 269.5,741.5C 262.51,742.01 257.844,739.01 255.5,732.5C 247.529,737.492 238.862,739.325 229.5,738C 227.983,736.315 226.316,734.815 224.5,733.5C 217.739,738.721 210.073,741.055 201.5,740.5C 193.763,741.486 187.763,738.819 183.5,732.5C 176.957,735.51 170.124,737.51 163,738.5C 157.128,738.564 152.462,736.231 149,731.5C 147.421,733.041 145.587,734.208 143.5,735C 132.248,739.842 122.415,738.009 114,729.5C 105.865,734.93 97.3652,735.764 88.5,732C 95.6524,733.198 102.652,732.532 109.5,730C 112.348,727.828 114.682,725.162 116.5,722C 117.944,721.219 119.277,721.386 120.5,722.5C 118.219,724.394 117.052,726.728 117,729.5C 118.167,730.667 119.333,731.833 120.5,733C 128.114,736.143 135.781,736.143 143.5,733C 147.824,730.91 149.657,727.41 149,722.5C 151.476,720.937 152.976,721.604 153.5,724.5C 150.127,730.342 151.794,734.175 158.5,736C 167.046,736.697 175.046,734.864 182.5,730.5C 182.935,726.234 185.101,723.234 189,721.5C 190.28,721.613 191.113,722.28 191.5,723.5C 190.014,726.146 188.348,728.646 186.5,731C 187.897,734.711 190.563,737.044 194.5,738C 203.569,739.253 212.235,737.919 220.5,734C 223.896,732.29 225.396,729.457 225,725.5C 227.222,722.697 229.055,722.863 230.5,726C 229.013,728.411 228.179,730.911 228,733.5C 228.833,734.333 229.667,735.167 230.5,736C 239.838,737.041 248.338,734.874 256,729.5C 256.144,725.855 257.977,723.521 261.5,722.5C 262.456,725.293 261.622,727.627 259,729.5C 258.218,732.257 258.718,734.757 260.5,737C 270.162,740.128 279.496,739.128 288.5,734C 289.264,731.931 289.764,729.764 290,727.5C 291.959,724.211 294.125,723.877 296.5,726.5C 295.42,728.996 294.086,731.33 292.5,733.5C 293.927,735.547 295.927,736.547 298.5,736.5C 305.673,735.496 311.84,732.496 317,727.5C 317.149,722.826 319.315,721.159 323.5,722.5C 322.035,724.599 320.701,726.766 319.5,729C 320.101,730.605 321.101,731.938 322.5,733C 333.176,735.165 340.509,731.332 344.5,721.5C 345.681,723.135 345.681,724.802 344.5,726.5C 345.032,728.741 346.365,730.241 348.5,731C 353.647,731.12 358.647,730.286 363.5,728.5 Z"/></g>
<g><path style="opacity:1" fill="#182c27" d="M 292.5,727.5 C 293.713,728.497 293.546,729.497 292,730.5C 291.53,729.423 291.697,728.423 292.5,727.5 Z"/></g>
<g><path style="opacity:1" fill="#86a7be" d="M 363.5,764.5 C 363.5,765.167 363.5,765.833 363.5,766.5C 359.452,768.127 355.285,769.46 351,770.5C 347.575,770.081 344.909,768.414 343,765.5C 338.465,769.57 333.131,771.904 327,772.5C 322.545,772.276 319.212,770.276 317,766.5C 310.38,772.898 302.547,775.398 293.5,774C 292.069,773.535 290.903,772.701 290,771.5C 280.83,777.404 270.996,778.904 260.5,776C 258.54,773.894 256.706,771.727 255,769.5C 248.656,772.586 241.989,774.586 235,775.5C 230.602,775.3 227.268,773.3 225,769.5C 218.032,774.598 210.199,777.265 201.5,777.5C 193.985,777.616 188.151,774.616 184,768.5C 177.127,772.123 169.794,774.123 162,774.5C 156.642,774.654 152.309,772.654 149,768.5C 141.126,773.165 132.626,774.665 123.5,773C 119.254,771.802 116.087,769.302 114,765.5C 111.228,767.761 108.062,769.261 104.5,770C 98.5743,771.11 92.9077,770.444 87.5,768C 90.7855,768.019 94.1188,768.186 97.5,768.5C 103.003,768.875 108.003,767.542 112.5,764.5C 113.371,759.954 116.038,757.621 120.5,757.5C 119.857,760.325 118.523,762.825 116.5,765C 116.759,766.261 117.426,767.261 118.5,768C 124.418,771.331 130.751,772.331 137.5,771C 145.254,770.253 149.087,766.086 149,758.5C 151.476,756.937 152.976,757.604 153.5,760.5C 150.126,765.875 151.459,769.709 157.5,772C 166.562,772.776 175.062,770.943 183,766.5C 183.12,760.879 185.953,758.212 191.5,758.5C 191.649,759.552 191.483,760.552 191,761.5C 184.498,767.013 185.331,771.179 193.5,774C 203.785,775.756 213.452,774.089 222.5,769C 224.074,767.174 224.907,765.007 225,762.5C 225.908,760.561 227.408,759.561 229.5,759.5C 229.516,763.06 229.016,766.393 228,769.5C 228.833,771 230,772.167 231.5,773C 239.698,773.271 247.365,771.271 254.5,767C 255.46,765.581 256.293,764.081 257,762.5C 258.323,759.941 260.157,759.275 262.5,760.5C 261.533,762.63 260.366,764.63 259,766.5C 257.835,770.684 259.335,773.517 263.5,775C 272.279,776.011 280.612,774.511 288.5,770.5C 287.765,764.246 290.431,761.246 296.5,761.5C 296.107,764.785 294.774,767.618 292.5,770C 293.782,771.911 295.615,772.744 298,772.5C 308.017,772.119 315.017,767.452 319,758.5C 320.494,757.253 321.994,757.253 323.5,758.5C 322.129,760.857 320.795,763.19 319.5,765.5C 319.529,767.029 320.196,768.196 321.5,769C 325.167,769.667 328.833,769.667 332.5,769C 338.996,767.669 342.996,763.836 344.5,757.5C 343.711,766.187 347.711,769.354 356.5,767C 358.65,765.589 360.984,764.755 363.5,764.5 Z"/></g>
<g><path style="opacity:1" fill="#1b2b2a" d="M 292.5,763.5 C 293.713,764.497 293.546,765.497 292,766.5C 291.53,765.423 291.697,764.423 292.5,763.5 Z"/></g>
<g><path style="opacity:1" fill="#85a8bb" d="M 123.5,807.5 C 120.903,807.721 120.903,808.221 123.5,809C 122.207,809.49 120.873,809.657 119.5,809.5C 119.5,809.167 119.5,808.833 119.5,808.5C 118.221,806.548 116.221,804.548 113.5,802.5C 105.435,807.896 97.1016,808.563 88.5,804.5C 96.6827,806.666 104.683,805.5 112.5,801C 113.562,796.391 116.229,794.558 120.5,795.5C 119.52,796.981 118.353,798.315 117,799.5C 116.333,800.5 116.333,801.5 117,802.5C 118.965,804.55 121.132,806.217 123.5,807.5 Z"/></g>
<g><path style="opacity:1" fill="#98abb9" d="M 363.5,620.5 C 363.833,620.5 364.167,620.5 364.5,620.5C 364.5,681.833 364.5,743.167 364.5,804.5C 389.672,804.169 414.672,804.502 439.5,805.5C 414.167,805.5 388.833,805.5 363.5,805.5C 363.649,804.448 363.483,803.448 363,802.5C 358.278,805.639 353.111,806.806 347.5,806C 345.667,804.833 344.167,803.333 343,801.5C 340.297,804.934 336.797,806.934 332.5,807.5C 329.133,808.747 325.799,808.747 322.5,807.5C 320.284,806.797 318.451,805.464 317,803.5C 314.948,805.058 312.781,806.392 310.5,807.5C 309.833,807.5 309.167,807.5 308.5,807.5C 307.833,807.5 307.167,807.5 306.5,807.5C 309.436,805.692 312.436,803.859 315.5,802C 316.734,799.076 318.401,796.409 320.5,794C 321.448,793.517 322.448,793.351 323.5,793.5C 322.46,796.403 321.127,799.236 319.5,802C 320.154,803.987 321.487,805.32 323.5,806C 333.997,807.341 341.163,803.174 345,793.5C 345.687,795.568 345.52,797.568 344.5,799.5C 345.648,801.149 346.981,802.649 348.5,804C 353.647,804.12 358.647,803.286 363.5,801.5C 363.5,789.833 363.5,778.167 363.5,766.5C 363.5,765.833 363.5,765.167 363.5,764.5C 363.5,752.833 363.5,741.167 363.5,729.5C 363.5,729.167 363.5,728.833 363.5,728.5C 363.5,716.833 363.5,705.167 363.5,693.5C 363.5,692.833 363.5,692.167 363.5,691.5C 363.5,680.167 363.5,668.833 363.5,657.5C 363.5,656.833 363.5,656.167 363.5,655.5C 363.5,643.833 363.5,632.167 363.5,620.5 Z"/></g>
<g><path style="opacity:1" fill="#030305" d="M 439.5,805.5 C 440.404,806.209 440.737,807.209 440.5,808.5C 440.167,808.5 439.833,808.5 439.5,808.5C 403.663,808.832 367.996,808.498 332.5,807.5C 336.797,806.934 340.297,804.934 343,801.5C 344.167,803.333 345.667,804.833 347.5,806C 353.111,806.806 358.278,805.639 363,802.5C 363.483,803.448 363.649,804.448 363.5,805.5C 388.833,805.5 414.167,805.5 439.5,805.5 Z"/></g>
<g><path style="opacity:1" fill="#80a2b4" d="M 156.5,808.5 C 149.52,809.747 142.52,809.747 135.5,808.5C 139.176,807.322 142.843,805.822 146.5,804C 148.155,801.493 148.989,798.659 149,795.5C 151.423,792.751 152.923,793.251 153.5,797C 152.497,799.468 151.997,801.968 152,804.5C 153.397,806.07 154.897,807.404 156.5,808.5 Z"/></g>
<g><path style="opacity:1" fill="#0a0d12" d="M 322.5,807.5 C 318.5,808.833 314.5,808.833 310.5,807.5C 312.781,806.392 314.948,805.058 317,803.5C 318.451,805.464 320.284,806.797 322.5,807.5 Z"/></g>
<g><path style="opacity:1" fill="#779aaa" d="M 292.5,807.5 C 291.778,807.082 291.278,806.416 291,805.5C 290.316,806.784 290.483,807.951 291.5,809C 280.992,809.825 270.658,809.659 260.5,808.5C 269.173,808.666 277.84,808.5 286.5,808C 288.943,805.365 290.443,802.198 291,798.5C 292.699,797.594 294.533,797.261 296.5,797.5C 295.708,801.078 294.375,804.412 292.5,807.5 Z"/></g>
<g><path style="opacity:1" fill="#04080a" d="M 148.5,804.5 C 149.962,805.458 151.295,806.624 152.5,808C 149.5,808.667 146.5,808.667 143.5,808C 145.346,806.97 147.013,805.804 148.5,804.5 Z"/></g>
<g><path style="opacity:1" fill="#7ea1b1" d="M 228.5,807.5 C 227.287,808.575 225.787,809.241 224,809.5C 221.813,809.212 219.646,808.878 217.5,808.5C 219.435,807.19 221.435,805.857 223.5,804.5C 224.308,802.577 224.808,800.577 225,798.5C 227.222,795.697 229.055,795.863 230.5,799C 228.113,801.553 227.447,804.386 228.5,807.5 Z"/></g>
<g><path style="opacity:1" fill="#060d0e" d="M 223.5,806.5 C 224.756,806.461 225.756,806.961 226.5,808C 225.167,808.667 223.833,808.667 222.5,808C 223.056,807.617 223.389,807.117 223.5,806.5 Z"/></g>
<g><path style="opacity:1" fill="#7fa1b5" d="M 258.5,807.5 C 256.785,808.657 254.785,809.324 252.5,809.5C 245.406,809.516 238.406,809.183 231.5,808.5C 240.214,809.716 248.214,807.883 255.5,803C 255.978,798.69 258.312,796.19 262.5,795.5C 262.046,798.14 260.879,800.473 259,802.5C 258.506,804.134 258.34,805.801 258.5,807.5 Z"/></g>
<g><path style="opacity:1" fill="#070c0f" d="M 254.5,805.5 C 256.048,805.821 256.715,806.821 256.5,808.5C 254.473,808.662 252.473,808.495 250.5,808C 252.066,807.392 253.4,806.558 254.5,805.5 Z"/></g>
<g><path style="opacity:1" fill="#6c7ea8" d="M 22.5,807.5 C 54.76,808.492 87.0934,808.826 119.5,808.5C 119.5,808.833 119.5,809.167 119.5,809.5C 108.833,809.5 98.1667,809.5 87.5,809.5C 65.8333,809.5 44.1667,809.5 22.5,809.5C 22.5,808.833 22.5,808.167 22.5,807.5 Z"/></g>
<g><path style="opacity:1" fill="#658299" d="M 308.5,807.5 C 309.167,807.5 309.833,807.5 310.5,807.5C 314.5,808.833 318.5,808.833 322.5,807.5C 325.799,808.747 329.133,808.747 332.5,807.5C 367.996,808.498 403.663,808.832 439.5,808.5C 405.004,809.498 370.337,809.832 335.5,809.5C 326.161,809.666 316.827,809.5 307.5,809C 308.056,808.617 308.389,808.117 308.5,807.5 Z"/></g>
<g><path style="opacity:1" fill="#97cbcb" d="M 292.5,807.5 C 297.121,808.709 301.787,808.709 306.5,807.5C 307.167,807.5 307.833,807.5 308.5,807.5C 308.389,808.117 308.056,808.617 307.5,809C 316.827,809.5 326.161,809.666 335.5,809.5C 369.996,810.498 404.663,810.832 439.5,810.5C 439.666,816.176 439.499,821.843 439,827.5C 303.236,826.334 167.403,826.168 31.5,827C 166.5,827.333 301.5,827.667 436.5,828C 298.834,828.5 161.167,828.667 23.5,828.5C 23.5,822.5 23.5,816.5 23.5,810.5C 45.0065,810.831 66.3399,810.497 87.5,809.5C 98.1667,809.5 108.833,809.5 119.5,809.5C 120.873,809.657 122.207,809.49 123.5,809C 120.903,808.221 120.903,807.721 123.5,807.5C 127.434,808.36 131.434,808.693 135.5,808.5C 142.52,809.747 149.52,809.747 156.5,808.5C 160.833,808.5 165.167,808.5 169.5,808.5C 180.797,809.581 192.13,810.248 203.5,810.5C 208.551,810.493 213.217,809.827 217.5,808.5C 219.646,808.878 221.813,809.212 224,809.5C 225.787,809.241 227.287,808.575 228.5,807.5C 229.391,808.11 230.391,808.443 231.5,808.5C 238.406,809.183 245.406,809.516 252.5,809.5C 254.785,809.324 256.785,808.657 258.5,807.5C 259.167,807.833 259.833,808.167 260.5,808.5C 270.658,809.659 280.992,809.825 291.5,809C 290.483,807.951 290.316,806.784 291,805.5C 291.278,806.416 291.778,807.082 292.5,807.5 Z"/></g>
<g><path style="opacity:1" fill="#81a4b7" d="M 217.5,808.5 C 213.217,809.827 208.551,810.493 203.5,810.5C 192.13,810.248 180.797,809.581 169.5,808.5C 173.801,807.061 178.135,805.394 182.5,803.5C 182.643,797.498 185.643,794.498 191.5,794.5C 191.509,796.308 191.009,797.975 190,799.5C 186.114,801.805 185.614,804.639 188.5,808C 198.161,808.5 207.828,808.666 217.5,808.5 Z"/></g>
<g><path style="opacity:1" fill="#0c1014" d="M 183.5,804.5 C 184.391,805.261 185.058,806.261 185.5,807.5C 182.894,808.652 180.227,808.818 177.5,808C 179.879,807.284 181.879,806.117 183.5,804.5 Z"/></g>
<g><path style="opacity:1" fill="#a5c8d6" d="M 439.5,808.5 C 439.833,808.5 440.167,808.5 440.5,808.5C 440.813,815.755 440.48,822.921 439.5,830C 300.833,830.667 162.167,830.667 23.5,830C 22.5212,823.256 22.1878,816.422 22.5,809.5C 44.1667,809.5 65.8333,809.5 87.5,809.5C 66.3399,810.497 45.0065,810.831 23.5,810.5C 23.5,816.5 23.5,822.5 23.5,828.5C 161.167,828.667 298.834,828.5 436.5,828C 301.5,827.667 166.5,827.333 31.5,827C 167.403,826.168 303.236,826.334 439,827.5C 439.499,821.843 439.666,816.176 439.5,810.5C 404.663,810.832 369.996,810.498 335.5,809.5C 370.337,809.832 405.004,809.498 439.5,808.5 Z"/></g>
<g><path style="opacity:1" fill="#d1d2f1" d="M 738.5,829.5 C 755.833,829.5 773.167,829.5 790.5,829.5C 790.631,830.239 790.464,830.906 790,831.5C 772.735,830.84 755.569,830.173 738.5,829.5 Z"/></g>
</svg>
