<?xml version="1.0" ?><svg viewBox="0 0 1000 1000" xmlns="http://www.w3.org/2000/svg"><rect fill="#18c4ff" height="102.3" rx="29.95" width="371.87" x="125" y="105.26"/><circle cx="439.58" cy="156.41" fill="#fff" r="34.62"/><rect height="102.3" rx="29.95" width="371.87" x="125" y="259.94"/><circle cx="182.3" cy="311.09" fill="#18c4ff" r="34.62"/><path d="m585.16 236.48a130.33 130.33 0 0 1 -23.5 29.11l1.93.25c-8-15.18-16.2-30.3-24.33-45.44l-24.39-45.4c-3.85-7.16-7.59-14.38-11.57-21.47-3.21-5.71-6.79-11.39-11.58-15.91-3.9-3.69-8.65-6.65-14-7.54a42.51 42.51 0 0 0 -15 .55 75.56 75.56 0 0 0 -33.45 16.15c-1.27 1.06-2.49 2.18-3.67 3.33s.6 2.91 1.79 1.79a75.8 75.8 0 0 1 32.29-17.9 46.83 46.83 0 0 1 15.12-1.65 23.46 23.46 0 0 1 13.4 5.65c4.89 4.07 8.51 9.4 11.69 14.86 3.85 6.61 7.34 13.44 11 20.18l23.81 44.3c7.93 14.77 15.81 29.58 23.83 44.3l3 5.46a1.24 1.24 0 0 0 1.93.25 128 128 0 0 0 23.28-30 .88.88 0 0 0 -1.52-.89z"/><path d="m651.34 160c-2.35-1.1-5.07.21-7.29 1.56-26.66 16.18-45.85 42-63.7 67.56-2.28 3.27-4.59 6.63-5.65 10.47-1.78 6.5.26 13.46 3.33 19.45 8.76 17.14 25.78 29.26 44.35 34.3a5.53 5.53 0 0 0 3.16.2c1-.33 15.54 7.29 16.24 6.48 14.62-17.06 22.69-35.84 34.93-54.68" fill="#18c4ff"/><path d="m460.27 150.1a33.87 33.87 0 0 0 -10.49 4.39c-2.82 1.81-6.72 4.47-7.36 8-1.16 6.38 7.33 8 11.94 7.84l-1.24-1.24c.75 10.54 11 19.27 21.6 17.92l-1.27-1c4.78 23 7.21 46.51 12.59 69.43 4.61 19.62 11.59 39.14 23.36 55.66 11.31 15.88 27.12 28.4 46.07 33.68a61.27 61.27 0 0 0 54.67-9.9 107.52 107.52 0 0 0 21.86-21.8c3.45-4.46 6.67-9.1 9.79-13.8 1.52-2.3 3-4.6 4.5-6.91a34.44 34.44 0 0 0 3.75-6.63 6.88 6.88 0 0 0 -.53-6.46c-1-1.4-3.32-.11-2.35 1.37 1.35 2.08.11 4.64-1 6.55-1.27 2.19-2.72 4.28-4.1 6.4-2.95 4.55-5.95 9.06-9.13 13.45-6 8.33-12.78 16.21-20.79 22.71a65.59 65.59 0 0 1 -25.29 13.1 59 59 0 0 1 -26.85.14c-18.46-4.07-34.43-15.42-45.9-30.24-11.93-15.41-19.24-33.93-24.1-52.65-5.68-21.83-8.23-44.28-12.39-66.41q-.78-4.16-1.65-8.29a1.31 1.31 0 0 0 -1.27-1c-9.1 1.18-18.4-6-19.13-15.28a1.25 1.25 0 0 0 -1.23-1.23c-3.05.13-11.75-.83-9.3-5.91a11.55 11.55 0 0 1 3-3.34 31.72 31.72 0 0 1 3.88-2.95 29.82 29.82 0 0 1 8.86-3.78.93.93 0 0 0 -.5-1.8z"/><path d="m685.73 354q-8 93.87-12.5 188c-1.61 33.89-2.85 68.12 3.21 101.5 4.3 23.67 12.21 46.52 20.48 69.11 26.16 71.39 65.52 141.46 103.61 207.49a7 7 0 0 1 -.9 8.22c-13 14.3-19.17 21.29-10.46 25.25 9.73 4.41 17.58 3.12 30.06 3.58a118.71 118.71 0 0 0 32.77-3.42c10.73-2.64 16.68-5.1 19.12-15.7a24.56 24.56 0 0 0 -.84-13.45c-10.84-31.58-21-63.65-25.63-96.73-4.72-33.61-3.7-67.77-7-101.56s-11.37-68.29-31.89-95.29c-5.18-6.83-11.22-13.32-14-21.44-2.65-7.79-2-16.27-1.12-24.45 4.63-42.91 14.92-85.11 17.36-128.21s-3.85-88.53-29.1-123.5"/><path d="m684.75 354q-6.43 73.47-10.75 147.13c-1.4 24.3-2.88 48.65-3.41 73-.51 23.7.22 47.56 4.58 70.92 4.32 23.1 12 45.38 20.07 67.39 7.9 21.57 16.85 42.74 26.52 63.56 19.71 42.45 42.27 83.53 65.52 124.12q4.36 7.6 8.74 15.19c1.32 2.28 3.42 4.89 3.85 7.51.57 3.54-2.73 6-4.85 8.4a106.83 106.83 0 0 0 -8.17 9.84c-1.47 2.1-3.08 4.6-3.2 7.25-.28 6.23 8.38 8.27 13 9.18a67.66 67.66 0 0 0 12.47 1c5.52 0 11.05.3 16.56.2a116.43 116.43 0 0 0 31.52-4.83c6.33-1.94 11.56-5.15 14.09-11.52 4.11-10.39-.38-20.06-3.68-30-3.78-11.32-7.4-22.71-10.63-34.21a376.47 376.47 0 0 1 -13.19-71c-2-24.26-2.1-48.63-4-72.89-1.65-21-4.74-42-11.36-62a155.52 155.52 0 0 0 -12-27.57c-5.08-9-11.69-16.66-17.63-25.07a38.35 38.35 0 0 1 -6.8-14.75c-1.11-5.76-.73-11.72-.16-17.52 1.18-12.05 3-24.05 4.82-36 3.67-23.43 8-46.78 10.68-70.35 4.71-41 4.15-84.2-12.61-122.68a139.62 139.62 0 0 0 -14.54-25.66c-1.13-1.6-3.8-.07-2.64 1.54 23.66 33.05 30.46 74.64 29.29 114.5-1.36 46.55-13.18 91.9-17.85 138.1-1 10.23-.93 20.36 4.25 29.54 4.93 8.72 12.15 16 17.48 24.44 10.92 17.4 17.44 37.16 21.41 57.21 8.92 45.07 4.76 91.48 12.11 136.76 3.73 23 10 45.46 17.09 67.6q2.64 8.23 5.44 16.43c2 5.82 4.27 11.51 3.19 17.78-.64 3.72-2.06 7.52-4.87 10.14-2.6 2.41-6 3.63-9.39 4.6a115.53 115.53 0 0 1 -33 4.53c-9.33-.06-19.74.81-28.77-1.93-2.33-.71-7.13-1.87-7.46-5-.28-2.68 2.22-5.66 3.72-7.64 3.07-4 6.64-7.66 10-11.47 2.4-2.74 3.45-6.14 2-9.63-2.15-5-5.53-9.73-8.23-14.45q-4.22-7.38-8.42-14.77-8.46-14.88-16.75-29.87c-11.1-20.11-21.89-40.39-32.09-61-20.39-41.09-38.88-83.64-51.77-127.73a287 287 0 0 1 -11.25-69.17c-1-23.5.21-47 1.33-70.52q3.45-71.81 8.88-143.5 1.33-17.61 2.81-35.21c.1-1.25-1.84-1.24-2 0z"/><path d="m636.33 347.84a2511.22 2511.22 0 0 0 -122.33 512.85c-2.71 20.87-6.13 43.73-21.87 57.71-5.23 4.65-11.6 8.05-16.08 13.42s-6.44 13.93-1.81 19.17c3.72 4.2 10 4.63 15.62 4.75l62.68 1.44c6.66.16 13.8.17 19.32-3.55 7.89-5.32 9.51-16 10.7-25.48a487.28 487.28 0 0 1 31-120c22.38-55.91 55.79-110.81 53-171-.37-7.78-1.35-15.57-.52-23.31 1.44-13.47 8.2-25.68 14.44-37.7a610 610 0 0 0 35-81.42c18.23-52.72 27.75-115.72-5.16-160.87"/><path d="m635.36 347.57q-24.69 69.51-45.29 140.43-20.4 70.56-36.65 142.25-16.32 71.9-28.32 144.75-6 36.09-10.85 72.35c-2.69 19.93-3.69 42.18-14.58 59.73a47 47 0 0 1 -9.76 11.27c-4 3.31-8.41 6-12.19 9.56-5.79 5.42-10.51 14.91-5.82 22.51 5.06 8.18 17.14 6.86 25.32 7l38.1.88c6.24.14 12.48.32 18.71.42 4.94.08 10.06 0 14.73-1.83 8.37-3.21 12.15-11.33 13.87-19.6 2.26-10.9 3.09-22.13 5-33.1q3.17-17.9 7.67-35.53a496.09 496.09 0 0 1 22.71-67.74c8.75-21 18.59-41.56 27.31-62.58 8.56-20.64 16.14-41.87 20-63.93a172.28 172.28 0 0 0 2.72-32.37c-.18-12.24-2.3-24.34.92-36.38 3-11.33 9-21.58 14.31-31.95q8.34-16.31 15.71-33.11c9.17-20.94 17.49-42.4 23.82-64.38 10.9-37.86 16.74-80.69 2.16-118.41a108.92 108.92 0 0 0 -13.55-24.64c-1-1.36-3.28-.05-2.28 1.34 23.85 33 24.69 76 17.23 114.58-4 20.62-10.41 40.63-17.78 60.27a608 608 0 0 1 -29.39 66.07c-4.93 9.52-10.17 19.06-13 29.48-3 11.42-1.44 22.8-1 34.42.72 21.94-3.46 43.68-10 64.54-13.46 42.71-35.84 82-50.61 124.18a488 488 0 0 0 -18.48 68.44c-2.18 11.23-3.79 22.53-5.34 33.86-1.24 8.95-3.39 19.87-12.81 23.62-5.06 2-10.71 1.79-16.05 1.67l-18.43-.42-37.47-.85c-9.05-.21-25.18.36-22.67-13.37 1.91-10.45 12.68-15.14 19.87-21.53 14.23-12.65 18.55-32.34 21.16-50.36 3.35-23.08 6.23-46.22 9.8-69.27q11-71.13 26.06-141.55 14.93-70.11 33.87-139.29 19-69.42 41.84-137.71 5.58-16.64 11.38-33.19c.44-1.24-1.52-1.76-1.95-.54z"/><path d="m790.37 186.05c-36.53-28-85.62-39-130.6-29.12-7.88 1.72-15.83 4.15-22.2 9.1-15.58 12.13-17 34.82-16.26 54.54.84 21.73 6.52 42.78 9 64.3a180.85 180.85 0 0 1 .79 36c-.94 11.4-9 23.8-7.21 35.32 2.44 16.1 20.09 18.62 33.46 19.86 22.59 2.09 45.2 4.71 67.92 4.84 13.54.07 27.68.46 40.94-2.63 10-2.32 19.7-7.11 26.12-15.1 9.7-12.07 9.48-27.86 10.88-42.49 1.92-20 4.18-39.95 6.27-59.92 1.27-12.2 2.55-24.56.8-36.71s-9.21-29.27-18.68-37.06" fill="#18c4ff"/><path d="m671.15 161.48c-5 2.36-8.4 7.43-10 12.77s-1.64 11-1.68 16.56a2 2 0 0 0 1.74 2.37c3.07 1 6.46 2 9.44.75a2.77 2.77 0 0 0 1.35-1.05 3.33 3.33 0 0 0 -.06-2.59 76 76 0 0 0 -3.83-10 20.38 20.38 0 0 0 2.45 7.46 8.46 8.46 0 0 0 6.35 4.2c3.52.21 6.55-2.46 8.65-5.3a28.45 28.45 0 0 0 5.66-14.53 22.56 22.56 0 0 0 -4-14.94" fill="#fff"/><path d="m670.65 160.62c-8.22 3.54-11.49 12.36-12.4 20.67a73.62 73.62 0 0 0 -.35 7.43c0 2.2-.31 4.63 2.06 5.69 3.48 1.56 9.75 3.1 12.86 0 1.94-1.93.61-4.82-.14-7a81 81 0 0 0 -3.24-7.91c-.78-1.66-3.07-.41-2.78 1.17.75 4.15 2 8.41 5.56 11a8.85 8.85 0 0 0 10.66-.17 24.3 24.3 0 0 0 7.32-9.62 28 28 0 0 0 2.7-12.52c-.15-4.57-1.45-9.84-4.69-13.23-1.12-1.17-2.87.32-2.17 1.69 1.6 3.14 3.1 6.11 3.52 9.67a23.86 23.86 0 0 1 -1.14 10.4 26.07 26.07 0 0 1 -5.28 9.23c-2.06 2.24-5 4.2-8.11 2.7-3.74-1.81-4.79-6.26-5.43-10l-2.79 1.18c.82 1.79 1.57 3.6 2.24 5.45.32.87.62 1.75.91 2.64a7 7 0 0 1 .71 2.65c-.22 1.39-3.49 1.16-4.47 1a16.94 16.94 0 0 1 -2.63-.59c-.5-.14-2.2-.38-2.48-.84-.11-.17 0-.84 0-1 0-.46 0-.93 0-1.39 0-1 0-2 .07-3 .06-2 .18-4 .41-6a29.82 29.82 0 0 1 2.92-9.91 17.4 17.4 0 0 1 7.14-7.66c1.14-.62.14-2.19-1-1.71z"/><path d="m620.33 220.57c.12 18.63 4.39 36.85 7.2 55.18a212 212 0 0 1 2.59 28.56q.12 7.15-.35 14.3a52.86 52.86 0 0 1 -2.25 11.82c-2.55 8.44-6.42 17-4.7 26 .24 1.24 2.34 1 2.23-.3-.74-7.94 2.41-15.72 4.8-23.13a58.24 58.24 0 0 0 2.72-11.42 132.43 132.43 0 0 0 .64-14.08c0-18.76-3.26-37.22-6.62-55.6a298.58 298.58 0 0 1 -4.31-31.35 1 1 0 0 0 -1.95 0z"/><path d="m848.6 263.92c12.16 16.62 24.77 34.43 26.26 55 1.57 21.82-10 42.68-24.68 58.87s-32.73 29-48.25 44.46c-6.79 6.76-13.34 14.18-22 18.2a5 5 0 0 1 -2.55.63 5.29 5.29 0 0 1 -2.86-1.74 124.49 124.49 0 0 1 -21.52-27.74 6.45 6.45 0 0 1 -1.2-3.6 6.56 6.56 0 0 1 2-3.47c19.56-22.45 38.87-45.26 55.16-70.19.94-1.44 1.92-3.07 1.65-4.77a6.93 6.93 0 0 0 -1.14-2.56 221 221 0 0 0 -20.13-27.4" fill="#fff"/><path d="m847.75 264.42c7.18 10.45 14.69 20.89 19.84 32.52 5 11.29 7.21 23.63 5 35.87a70.61 70.61 0 0 1 -5.48 17.25 53.35 53.35 0 0 1 -4.45 8c-1.74 2.55-3.22 5.27-5 7.8-7.44 10.5-16.74 19.5-26.33 28-9.86 8.76-20.12 17.1-29.53 26.36-4.44 4.37-8.65 9-13.46 13a46.65 46.65 0 0 1 -7.54 5.14c-1.24.66-2.79 1.77-4.19 1a19.11 19.11 0 0 1 -3.55-3.3 122.67 122.67 0 0 1 -12.59-15.09q-2.79-4-5.26-8.13a14 14 0 0 1 -2-3.93c-.37-1.79 1.36-3.26 2.41-4.47 9-10.35 18-20.77 26.58-31.46s16.85-21.55 24.52-32.87q1.44-2.13 2.85-4.28a14.36 14.36 0 0 0 2.2-4.21c.8-3.19-1.55-5.93-3.17-8.44q-5.54-8.56-11.84-16.6-3.16-4-6.51-7.93c-1.16-1.34-3.09.61-1.94 1.95q7 8.18 13.23 17 2.94 4.19 5.69 8.53c.78 1.23 2.1 2.73 2 4.28-.13 1.72-1.62 3.43-2.53 4.8-7.75 11.74-16.18 23-25 34s-18.1 21.87-27.42 32.58c-2 2.23-4.51 4.55-3.73 7.82a16.36 16.36 0 0 0 2.08 4.21q1.33 2.28 2.78 4.49a126 126 0 0 0 12 15.64 69.64 69.64 0 0 0 6.94 7.12 5 5 0 0 0 3.85 1.35 12.59 12.59 0 0 0 4.26-1.67c5.64-3 10.41-7.37 14.9-11.83 4.65-4.62 9.25-9.26 14.12-13.66s10.15-8.9 15.26-13.31c10.12-8.72 20.28-17.6 28.82-27.92q3-3.64 5.75-7.51a56.06 56.06 0 0 0 5.1-8.2c2.67-5.65 5.49-11.11 7.29-17.14a61.87 61.87 0 0 0 -.17-36.69c-3.92-12.36-11-23.49-18.59-33.89-1.82-2.49-3.75-4.92-5.65-7.37-.68-.88-2.18.28-1.55 1.2z"/><path d="m639.27 77.88c-6.42 11.27-.63 27.14-8.56 37.39a9.19 9.19 0 0 0 -1.92 3c-.63 2.38 1.14 4.25 3.43 5.52 4.39 2.44 4.15 8.74 4.71 13.07.59 4.55.81 9.21 1.68 13.71.74 3.87 2.36 7.79 5.52 10.14a14.3 14.3 0 0 0 8.88 2.47c4.71-.1 9.15-1.88 13.84-2.11 1.58-.07 3.35-.13 4.55.92a6 6 0 0 1 1.5 2.76q2.83 8.5 5.44 17.07a7.81 7.81 0 0 0 2.16 4c1.54 1.23 3.73 1.12 5.68.84a56.36 56.36 0 0 0 37.25-22.48 5.76 5.76 0 0 0 1.45-3.67c-.12-1.35-1.12-2.44-2-3.46-8.11-9.21-13.55-20.88-16.36-32.77-4.52-18.83 4.06-43.58-10.52-59.43a25.25 25.25 0 0 0 -13-7.49c-8.32-1.91-17.44-.77-25.33 2.35-7.08 2.79-16.21 8.25-17.39 16.55" fill="#fff"/><path d="m638.41 77.38c-2.91 5.11-3.49 11-3.86 16.77s-.37 11.87-2.94 17.12a17.89 17.89 0 0 1 -2.12 3.35 8.29 8.29 0 0 0 -2.16 4.06c-.39 3.16 2.12 5 4.46 6.53 2.1 1.36 2.76 3.93 3.13 6.25.43 2.73.61 5.54.9 8.29.68 6.42.7 13.89 4.7 19.32 4.21 5.74 11.33 6.18 17.8 4.93 3.39-.65 6.91-1.77 10.4-1.49 1.7.14 2.31 1.14 2.83 2.67.63 1.83 1.22 3.67 1.81 5.51q1.8 5.53 3.49 11.09c.92 3 2.15 5.85 5.6 6.42 2.93.49 6.22-.36 9.06-1a56.83 56.83 0 0 0 8.65-2.84 58.8 58.8 0 0 0 15.59-9.65 56 56 0 0 0 6.52-6.64c1.81-2.19 4.61-5.06 3.9-8.15a8.27 8.27 0 0 0 -2.08-3.43c-1.11-1.29-2.21-2.58-3.23-3.95a70.74 70.74 0 0 1 -5.5-8.59 80.42 80.42 0 0 1 -7.36-19.13 70.35 70.35 0 0 1 -1.65-16.5c-.08-11.24 1-23.15-3-33.88a30.37 30.37 0 0 0 -10.26-13.92c-5.44-4-12.25-5.44-18.9-5.39a48.22 48.22 0 0 0 -19.19 4.31c-4.91 2.19-9.75 5.19-12.91 9.64a15.94 15.94 0 0 0 -2.8 6.9c-.21 1.31 1.8 1.88 2 .56.81-5.18 5-9 9.21-11.75a45.42 45.42 0 0 1 16-6.31c6.41-1.23 13.43-1.17 19.59 1.17a25.16 25.16 0 0 1 12.83 11.35c5.32 9.45 4.89 20.94 4.75 31.43a128.45 128.45 0 0 0 .46 16.18 69.74 69.74 0 0 0 4.41 17 76.12 76.12 0 0 0 9 17q1.27 1.78 2.66 3.49c1 1.18 2.34 2.34 3 3.73s-.41 2.82-1.25 4-1.92 2.47-3 3.64a55.34 55.34 0 0 1 -29.79 17.28c-2.24.47-6.13 1.67-8-.14-1.08-1-1.38-2.72-1.8-4.09q-.84-2.77-1.72-5.55c-1.11-3.54-2.23-7.08-3.43-10.59a7.66 7.66 0 0 0 -1.86-3.38 6.09 6.09 0 0 0 -4-1.37c-6.54-.2-12.89 3.33-19.43 1.72s-8.55-8-9.38-14c-.5-3.59-.76-7.2-1.2-10.8-.28-2.34-.38-4.71-.88-7a10.77 10.77 0 0 0 -3.21-6c-1.9-1.62-5.59-2.89-3.58-6 .69-1.07 1.56-2 2.23-3.11a21 21 0 0 0 1.8-3.8 33 33 0 0 0 1.67-8c.57-5.56.27-11.2 1.23-16.71a24.79 24.79 0 0 1 2.53-7.59 1 1 0 0 0 -1.71-1z"/><path d="m645.82 106.52-.15.2.1-.1-.21.16.13-.07-.27.11h.11c.13 0 .25-.1.37-.15l-.28.12a.65.65 0 0 1 .21-.06h-.32.22-.33a.88.88 0 0 1 .23.07l-.29-.13.23.14-.25-.19a1.52 1.52 0 0 1 .22.22l-.21-.26a1.76 1.76 0 0 1 .24.42l-.13-.31a1.36 1.36 0 0 1 .1.36v-.36a1.15 1.15 0 0 1 0 .37v-.35a1.11 1.11 0 0 1 -.07.26l.13-.32a1.18 1.18 0 0 1 -.11.19l.21-.28-.13.13.28-.21-.14.08.33-.14a.53.53 0 0 1 -.17 0h.36a.67.67 0 0 1 -.2 0h.37a.79.79 0 0 1 -.22-.06l.33.14a1.19 1.19 0 0 1 -.15-.09l.28.22a.63.63 0 0 1 -.11-.12l.21.29a4.59 4.59 0 0 0 -.33-.44l.21.27-.06-.1.14.32a1.36 1.36 0 0 0 -.33-.57l-.26-.21a1 1 0 0 0 -.48-.15.69.69 0 0 0 -.35 0 .62.62 0 0 0 -.32.09.64.64 0 0 0 -.29.16 1.06 1.06 0 0 0 -.33.37 1.77 1.77 0 0 0 -.24.84 1.54 1.54 0 0 0 .46 1.13 2 2 0 0 0 1 .59 2.12 2.12 0 0 0 1.17 0 2.08 2.08 0 0 0 1.17-.91 1.75 1.75 0 0 0 .24-.54.94.94 0 0 0 0-.16c0-.17.05-.33.06-.5a2.9 2.9 0 0 0 -.3-1.23 1.08 1.08 0 0 0 -.14-.26 3.1 3.1 0 0 0 -.44-.51 2.35 2.35 0 0 0 -1.1-.58 2.29 2.29 0 0 0 -.94 0 1.86 1.86 0 0 0 -.56.24 1.59 1.59 0 0 0 -.72 1.35v.26a.67.67 0 0 0 .18.33 1 1 0 0 0 .51.36 1.19 1.19 0 0 0 .53 0 1 1 0 0 0 .59-.46z"/><path d="m641.48 101.34a2.12 2.12 0 0 0 1.09 0h.22-.19a1.4 1.4 0 0 1 .36 0h.16c-.26 0-.33-.06-.2 0a1.79 1.79 0 0 0 .69.12l.74.07-.54-.07a17.27 17.27 0 0 1 1.88.35l-.55-.23h.09a2.65 2.65 0 0 0 1.79.24 2.24 2.24 0 0 0 1.51-1.35 2.32 2.32 0 0 0 -1.53-3.17 15.23 15.23 0 0 0 -5.26 0 2.33 2.33 0 0 0 -1.41 1.09 2.43 2.43 0 0 0 -.28 1.5 2.34 2.34 0 0 0 2.32 2 22.29 22.29 0 0 1 4.76.08l-.63-.09c.79.12 1.57.32 2.37.4l-1.19-4.42-.47.27a2.11 2.11 0 0 0 -1 2.13 2.14 2.14 0 0 0 1.53 1.77l.52.16a2.4 2.4 0 0 0 2.92-1.65 2.43 2.43 0 0 0 -1.66-2.92 11.46 11.46 0 0 0 -2.1-.32c-.57-.06-1.13-.13-1.7-.16a21.78 21.78 0 0 0 -3.33 0l.63 4.63h.13l-.63.09a15.84 15.84 0 0 1 1.94-.15c.66 0 1.3.07 1.95.1l-.62-4.57h-.1l.6-.08a12.3 12.3 0 0 0 -3 .37 2.75 2.75 0 0 0 -.66.26l-.38.29c-.11.09-.1.08 0 0s0 0-.08 0a2.61 2.61 0 0 0 -.28.17c-.49.35-1.18.83-1.27 1.48a1.26 1.26 0 0 0 .85 1.51z"/><path d="m682.11 102.91a3.45 3.45 0 0 0 -2.52 2.62 3.17 3.17 0 0 0 0 2.27 1.51 1.51 0 0 0 1.27.78 1.36 1.36 0 0 0 1.35-.93 1.46 1.46 0 0 0 -.66-1.65 1.69 1.69 0 0 0 -2 .23 1.08 1.08 0 0 0 -.23 1.18 1.09 1.09 0 0 0 1 .67 2.44 2.44 0 0 0 .6-.11h-.29.18-.29.11l-.26-.11.08.05-.22-.17.07.07-.18-.22a.22.22 0 0 1 .05.08l-.11-.27v.09-.29-.3a.24.24 0 0 1 0 .09l.11-.26.17-.23v.06l.22-.17.26-.11h-.07.29a.29.29 0 0 1 -.13 0h.29-.12l.26.11c-.13-.07.14.13.17.17s0 0 0 0l.11.26a1.24 1.24 0 0 1 0-.16v.29a4 4 0 0 1 0-1.09v.29a4.55 4.55 0 0 1 .17-.73v-.12.13a.59.59 0 0 0 .07-.16l.18-.3c.12-.17-.09.1 0 0l.11-.12a.57.57 0 0 1 .11-.11s.18-.16 0-.05 0 0 .06 0l.13-.08c.18-.09-.11 0 0 0l.17-.06a.91.91 0 0 0 .64-1.11 1 1 0 0 0 -1.12-.64z"/><path d="m649.7 138.8a12.13 12.13 0 0 0 5.49-7.18 1.11 1.11 0 0 0 -.77-1.36 1.14 1.14 0 0 0 -1.36.77c-.12.33-.24.65-.37 1a1.54 1.54 0 0 1 -.08.19c.08-.19 0 0 0 .06s-.14.32-.22.47a11.79 11.79 0 0 1 -1.06 1.73l-.12.17c.12-.16 0 0 0 .06l-.33.4a9.05 9.05 0 0 1 -.65.74 10.18 10.18 0 0 1 -.74.73l-.36.3c-.19.16-.15.12-.33.26a1 1 0 0 0 -.35 1.33 1 1 0 0 0 1.33.35z"/><path d="m671.18 104.12-3.18-14.41a12.75 12.75 0 0 0 -1.21-3.65 17.11 17.11 0 0 0 -1.89-2.44 25.42 25.42 0 0 1 -5.83-17.82 46 46 0 0 1 -16.93 9.52c-1.92.59-4 1.06-5.92.38s-3.35-2.91-2.5-4.74c-2.44-.48-4.79-2.09-5.48-4.47s.91-5.36 3.38-5.54c-2.75-1.5-5.76-3.34-6.5-6.39a7.37 7.37 0 0 1 2.65-7 16.47 16.47 0 0 1 7.14-3.22 65.77 65.77 0 0 1 14.81-1.55 123 123 0 0 1 23.06 2 24.92 24.92 0 0 1 8.91 2.95c1.65 1 3.08 2.43 4.86 3.24 2.23 1 4.77 1 7.21 1.34a29.11 29.11 0 0 1 23 18c3.77 9.75 1.92 20.72-.81 30.81s-6.32 20.2-5.92 30.65a3.16 3.16 0 0 1 -.26 1.75c-.61 1-2.11.94-3.27.67a31.48 31.48 0 0 1 -20.92-17 3.72 3.72 0 0 1 -.49-1.88 4.49 4.49 0 0 1 1.36-2.31 13.51 13.51 0 0 0 3.69-9.26c-.16-3.41-2.43-6.81-5.75-7.6a8.9 8.9 0 0 0 -7.54 2.19 25.38 25.38 0 0 0 -5 6.41"/><path d="m672.08 103.87-2.27-11.09c-.7-3.41-1.12-6.67-3.42-9.42a24.71 24.71 0 0 1 -6-17.56 1.35 1.35 0 0 0 -2.28-.94 45.36 45.36 0 0 1 -12.35 7.71 24.55 24.55 0 0 1 -6.76 2.07c-1.86.16-4.86-.89-3.91-3.31a1.39 1.39 0 0 0 -1-1.7c-1.88-.42-3.94-1.51-4.5-3.51-.4-1.43.36-3.54 2-3.59a1.59 1.59 0 0 0 .8-2.94c-1.44-1-3.22-1.64-4.44-2.89a4.86 4.86 0 0 1 -1.4-4.7c1.07-4.17 5.73-5.64 9.43-6.46 9-2 18.79-1.61 27.95-.62a69.25 69.25 0 0 1 13.27 2.36 18.24 18.24 0 0 1 5.46 2.89 14.74 14.74 0 0 0 5.53 2.83c2 .46 4.06.48 6.08.8a27.16 27.16 0 0 1 5.1 1.34 27.57 27.57 0 0 1 9 5.48 28.42 28.42 0 0 1 9 20.69c.25 8.88-2.33 17.46-4.75 25.91-1.25 4.34-2.52 8.73-3.39 13.17a53.5 53.5 0 0 0 -.73 6.68c-.06 1.08-.1 2.17-.09 3.25 0 .59.37 2.16-.21 2.4s-1.75-.21-2.34-.38c-.89-.24-1.78-.53-2.65-.85a28.78 28.78 0 0 1 -4.79-2.36 31 31 0 0 1 -8-7 29.62 29.62 0 0 1 -3-4.48c-.37-.71-1.09-1.71-.84-2.52a10.47 10.47 0 0 1 1.75-2.43c2.14-3 3.52-7 2.75-10.65-.69-3.27-3.18-6.37-6.55-7.08-3.91-.83-7.69 1.29-10.21 4.15a37.78 37.78 0 0 0 -3.53 5c-.87 1.4 1.36 2.71 2.21 1.3 2.18-3.59 5.07-8.19 9.81-8.24 4.23 0 6.61 4.44 6.18 8.21a11.75 11.75 0 0 1 -2.76 6c-1.29 1.57-2.89 2.88-2.41 5.14a16.91 16.91 0 0 0 2.5 5 33.1 33.1 0 0 0 3.51 4.56 32.65 32.65 0 0 0 9.13 7 32.32 32.32 0 0 0 5.35 2.19c1.69.52 3.71 1.15 5.42.36 2.15-1 1.9-3.22 1.9-5.22a39.6 39.6 0 0 1 .55-7c.43-2.46.77-4.93 1.35-7.36s1.16-4.55 1.79-6.82c2.53-9 5.33-18.17 5.09-27.65-.21-8.3-3.11-16.23-9.08-22.11a31.07 31.07 0 0 0 -9.33-6.36 29.56 29.56 0 0 0 -5.36-1.78c-2-.46-4.11-.57-6.17-.84a12.35 12.35 0 0 1 -6-2.57 21.41 21.41 0 0 0 -5.47-3.09c-4.37-1.61-9.26-2.13-13.86-2.67-9.73-1.15-20-1.54-29.68.54-4.05.88-8.37 2.39-10.64 6.12a8 8 0 0 0 1.37 10.17 15.8 15.8 0 0 0 4.63 3.32l.37-2.88a6.06 6.06 0 0 0 -4.45 6.64c.44 3.32 3.52 5.55 6.6 6.23l-1-1.71c-.93 2.42.62 5.11 2.84 6.17 2.83 1.36 6.12.32 8.9-.66a48.36 48.36 0 0 0 15.92-9.36l-2.28-1a26.8 26.8 0 0 0 5.47 17.79c1 1.33 2.37 2.51 3 4.1a37.11 37.11 0 0 1 1.35 5.2l2.73 11.48c.28 1.17 2.05.67 1.8-.5z"/><g fill="#18c4ff"><path d="m659.48 410.05q-3 31.8-2.92 63.79c0 21.28 1.16 42.57 3.19 63.76 1.14 11.84 2.56 23.67 4.5 35.41.21 1.29 2.48 1 2.31-.31-2.77-21-5.12-42.08-6.32-63.27s-1.45-42.4-.77-63.59q.59-17.91 2-35.79c.1-1.27-1.86-1.25-2 0z"/><path d="m711.44 615.72c5.43-2.11 10.92-4.11 16.28-6.37 1.13-.48.69-2.32-.51-1.88-5.48 2-10.87 4.24-16.28 6.37-1.16.46-.66 2.34.51 1.88z"/><path d="m715.12 627.69a82.46 82.46 0 0 0 13.74-4.86c1.14-.51.15-2.2-1-1.68a81.08 81.08 0 0 1 -13.27 4.69 1 1 0 0 0 .51 1.85z"/><path d="m593.22 606.72 11.78 2.83c1.25.3 1.78-1.63.53-1.93l-11.76-2.78c-1.22-.29-1.74 1.58-.52 1.88z"/><path d="m594.71 618.65a12.43 12.43 0 0 1 10.77 2.25 1.07 1.07 0 0 0 1.46 0 1 1 0 0 0 0-1.45 14.62 14.62 0 0 0 -12.77-2.78 1 1 0 0 0 .54 2z"/><path d="m500 907.73a173.42 173.42 0 0 1 30.81 8.73c4.88 2 9.66 4.82 14.87 5.82s11 .58 16.41.32a159.73 159.73 0 0 0 18.76-2.1c1.23-.2 1-2.33-.3-2.2-5.49.59-11 1-16.51 1.29s-11 .84-16.36.2-10-3.45-14.86-5.4a137.71 137.71 0 0 0 -15.19-5.14 118.13 118.13 0 0 0 -17.36-3.51c-1.13-.13-1.39 1.77-.27 2z"/><path d="m800.79 916.54a206.93 206.93 0 0 1 26.23-.68 24.12 24.12 0 0 1 6.08 1c1.85.61 3.58 1.51 5.36 2.29a19.3 19.3 0 0 0 11.3 1.39c2.39-.38 4.77-.93 7.14-1.41a61.18 61.18 0 0 0 7.5-1.68c1.25-.42 1.14-2.55-.33-2.44a50.64 50.64 0 0 0 -6.2 1.1l-6.52 1.34a26.15 26.15 0 0 1 -6.16.69 16.57 16.57 0 0 1 -5.69-1.48c-1.7-.7-3.36-1.51-5.1-2.1a23.82 23.82 0 0 0 -6-1.11 116.85 116.85 0 0 0 -12.83.12q-7.41.31-14.8 1c-1.21.11-1.24 2 0 1.92z"/><path d="m747.19 258.24a392.3 392.3 0 0 0 37.18 45.94c2.75 2.92 5.79 5.93 9.72 6.71 3.26.64 6.6-.37 9.71-1.55a88.36 88.36 0 0 0 47-42.28 8.78 8.78 0 0 0 1.31-4.78 9.2 9.2 0 0 0 -2-4.15l-26.29-37.78c-8.45-12.15-33.16-41.15-53.16-47.1"/></g><path d="m746.36 258.73a305 305 0 0 0 19.77 26.89q5.24 6.39 10.8 12.51c3.47 3.84 6.93 8 11.06 11.17a13.83 13.83 0 0 0 7.21 3c3.06.26 6.09-.71 8.91-1.77 1.42-.54.8-2.83-.63-2.29a19.85 19.85 0 0 1 -7.61 1.67 11.28 11.28 0 0 1 -6.51-2.67 46.1 46.1 0 0 1 -5-5c-1.79-1.94-3.55-3.91-5.31-5.88-7-7.82-13.62-15.92-20.1-24.16-3.73-4.74-7.35-9.57-10.92-14.43-.72-1-2.35-.09-1.66 1z"/><path d="m716.77 144.72c-2 6.69-6.9 12.23-12.56 16.33s-12.13 6.92-18.55 9.68a5.66 5.66 0 0 0 -2.22 1.41 5.3 5.3 0 0 0 -.89 2.18 46.62 46.62 0 0 0 -1 15.17c.1 1.09.38 2.37 1.39 2.79a3.13 3.13 0 0 0 1.58.07q3.94-.51 7.85-1.27a21.68 21.68 0 0 0 -3.72-7.57 48.75 48.75 0 0 0 7.17 11.11 5.06 5.06 0 0 0 2.84 2 5.15 5.15 0 0 0 2.77-.63 61.11 61.11 0 0 0 31.46-32.7 7.22 7.22 0 0 0 .72-4 7.61 7.61 0 0 0 -1.48-2.88l-8.4-11.86a10 10 0 0 0 -3.59-3.59 5.15 5.15 0 0 0 -6 1.32" fill="#fff"/><path d="m715.83 144.46c-3.32 9.59-12 15.95-20.73 20.37-2.37 1.21-4.8 2.31-7.24 3.38-2.13.93-5 1.62-6.09 3.86s-1.37 5.36-1.64 7.89a47.42 47.42 0 0 0 -.17 8.34c.17 2.35.58 5.39 3.53 5.55a22.68 22.68 0 0 0 4.4-.52c1.61-.25 3.22-.56 4.82-.9a1.4 1.4 0 0 0 1-1.72 24.59 24.59 0 0 0 -3.87-7.91 1.4 1.4 0 0 0 -2.41 1.42 50.9 50.9 0 0 0 6 9.7c1.06 1.35 2.19 3 3.78 3.71s3.35.31 5-.4a60.88 60.88 0 0 0 16.32-10.73 62.38 62.38 0 0 0 12.28-15.44q1.21-2.16 2.25-4.42a25.06 25.06 0 0 0 1.92-4.93c.87-4-2.36-7.14-4.5-10.15l-4.07-5.73a27.84 27.84 0 0 0 -3.77-4.86 6.57 6.57 0 0 0 -9.42.35c-1.15 1.33.71 3.25 1.94 2a4 4 0 0 1 3.36-1.32c1.59.19 2.68 1.48 3.58 2.69 2.08 2.8 4 5.71 6.05 8.56l2.79 4a7.49 7.49 0 0 1 1.23 2.14 4.62 4.62 0 0 1 -.3 2.74 46.18 46.18 0 0 1 -3.66 7.72 60.24 60.24 0 0 1 -24 23.32 23.34 23.34 0 0 1 -4.24 2c-1.91.56-3.16-1.52-4.19-2.81a49.14 49.14 0 0 1 -5.85-9.45l-2.41 1.42a20.58 20.58 0 0 1 3.58 7.23l1-1.72c-2.54.45-5.12 1-7.68 1.19-1.1.1-1.19-.42-1.32-1.43a34.23 34.23 0 0 1 -.21-4.05 44.87 44.87 0 0 1 .62-7.93 24.56 24.56 0 0 1 .77-3.58c.37-1.12 1.22-1.5 2.25-1.94 8.67-3.81 17.53-7.67 24.19-14.64a29.65 29.65 0 0 0 6.99-12.46 1 1 0 0 0 -1.88-.52z"/><g fill="#fff"><path d="m681.06 196.61c.25 1.95-1.5 3.36-2.57 4.78a12.7 12.7 0 0 0 -2.27 5.05c-.83 4-.33 8.26 0 12.32.7 9.38 1.87 18.73 3.39 28q1.3 8 3 15.86c.31 1.46 2.53.84 2.24-.62-1.88-9.24-3.42-18.55-4.54-27.92-.57-4.69-1-9.4-1.42-14.11-.35-4.08-1-8.42-.3-12.49a13.1 13.1 0 0 1 2.59-5.92c1.19-1.59 2.2-3.16 1.84-5.22-.19-1.07-2.06-.83-1.92.26z"/><path d="m704 248.69c6.73.86 13.47 1.57 20.22 2.2s13.51 1.37 20.27 1.61c1.55.05 1.49-2.22 0-2.37-6.74-.69-13.52-1-20.27-1.58s-13.48-1.23-20.22-1.86c-1.3-.12-1.25 1.84 0 2z"/></g></svg>