<?xml version="1.0" ?><svg viewBox="0 0 1000 1000" xmlns="http://www.w3.org/2000/svg"><rect fill="#8346FC" height="12.11" rx="3.35" width="360.63" x="575.33" y="197.19"/><rect height="69.64" rx="13.18" width="69.64" x="588.28" y="168.43"/><path d="m305.45 370.65c50.81 56.47 81.62 125.35 106.44 194.52a1466.63 1466.63 0 0 1 78.22 341.21c2.12 20 4.88 42.15 21.42 55.65a6.85 6.85 0 0 1 2.45 2.79c1.1 3.28-3.72 5.42-7.45 6.08-14.51 2.53-29.3 5.07-44 3.49s-29.47-8-36.82-19.55c-4-6.24-5.51-13.47-7.18-20.51-18.95-79.55-63.86-155-63.26-236.39.08-10.46.89-21.11-2.18-31.18-2.1-6.87-5.94-13.2-10-19.33-19.71-30.11-44.53-57.27-64.78-87.08-37.17-54.75-58.31-118.25-60.72-182.41" fill="#8346FC"/><path d="m514 964.82a6.85 6.85 0 0 0 -2.45-2.79c-16.54-13.5-19.3-35.61-21.42-55.65-.36-3.44-.78-6.88-1.17-10.32-6.89.65-13.9 1.34-20.27 4.07s-12.12 7.87-13.69 14.67c-.75 3.17-.72 6.86-3.11 9.08-1.48 1.39-3.59 1.85-5.59 2.2a132.53 132.53 0 0 1 -29.3 1.92q.81 3.16 1.58 6.33c1.67 7 3.21 14.27 7.18 20.51 7.35 11.56 22.15 18 36.82 19.55s29.46-1 44-3.49c3.68-.66 8.5-2.8 7.42-6.08z" fill="#fff"/><path d="m273.83 559.83c-13.54-21.62-25.9-43.94-35.39-67.67a347.1 347.1 0 0 1 -20.44-72.43q-1.68-10.26-2.71-20.63c-.7-7-1.05-14.1-1.52-21.16-.14-2-3.13-2-3.11 0 .11 12.59 1.66 25.26 3.55 37.7a346.68 346.68 0 0 0 7.79 37.18 354.44 354.44 0 0 0 27.36 71 280.85 280.85 0 0 0 22.7 37.06c.75 1 2.46.11 1.75-1z"/><path d="m489.09 906.38c1.08 12.09 2.29 24.43 6.76 35.82a54.27 54.27 0 0 0 9 15.37 72.4 72.4 0 0 0 6.61 6.38c.86.78 1.58 1.68.77 2.73a7.19 7.19 0 0 1 -3.38 2c-3.4 1.16-7.17 1.48-10.7 2.06-3.95.65-7.92 1.24-11.9 1.69a107.23 107.23 0 0 1 -24.09.31c-12.21-1.4-25.23-6.27-33.12-16.1-4.4-5.47-6.35-12.27-8-19-1.73-7.09-3.49-14.16-5.49-21.18-4-14-8.62-27.78-13.43-41.5-9.64-27.49-20.26-54.65-28.89-82.48-8.45-27.27-15-55.35-16.08-84-.14-3.54-.25-7.07-.27-10.6a1.56 1.56 0 0 0 -3.11 0c-.57 29.31 5.59 58.55 13.79 86.55 8.41 28.73 19.27 56.64 29.34 84.81 5 14.09 9.84 28.27 14.05 42.63q3.12 10.64 5.73 21.42c1.72 7.18 3.18 14.57 6.91 21 6.47 11.25 19 17.64 31.25 20.35 15.62 3.44 31.79 1.17 47.34-1.5 3.32-.56 6.76-.91 9.78-2.5 2.13-1.13 4.13-3.12 3.68-5.74a6.18 6.18 0 0 0 -2.34-3.52c-1.29-1.09-2.6-2.15-3.81-3.34a43.93 43.93 0 0 1 -5.94-7.25c-6.9-10.49-9.5-23.25-11.23-35.5-.42-3-.8-6-1.17-9-.16-1.27-2.15-1.32-2 0z"/><path d="m185.9 390.06c-3.31 36.48-4.64 73.31-.5 109.7 4.26 37.38 14.27 74.26 13.9 111.88-.74 76.73-18.37 53.52-37.93 127.72-9.34 35.44-22 132.35-20.35 169 .37 8.37-15.56 49.75-10.05 56.06 6 6.84 15.71 8.72 24.74 9.59a289.56 289.56 0 0 0 47.73.09 9.25 9.25 0 0 0 7.5-13.38c-3.88-7.6-9.11-14.76-11.24-23-4-15.44 3.47-31.29 10.73-45.5 43.8-85.68 80.55-173.31 95.62-268.36a452.13 452.13 0 0 0 -35.61-258.07" fill="#8346FC"/><path d="m203.44 974.06a9.25 9.25 0 0 0 7.5-13.38c-3.88-7.6-9.11-14.76-11.24-23-2.66-10.29-.22-20.76 3.84-30.81-2-.16-4.08-.17-6.1-.18h-23.38c-3.76 0-8.11.28-10.29 3.34-1.78 2.49-1.68 6.36-4.31 7.93a7.83 7.83 0 0 1 -4 .75l-16.36.1c-4 15.39-12.33 40.78-8.12 45.62 6 6.84 15.72 8.72 24.75 9.59a289.56 289.56 0 0 0 47.71.04z" fill="#fff"/><path d="m307 624.06a261.41 261.41 0 0 0 4.18-28.7c.95-9.59 1.6-19.21 1.85-28.85a443.6 443.6 0 0 0 -2.24-57.74c-1.13-10.84-2.64-21.64-4.61-32.37-.32-1.74-2.92-1-2.65.73a499 499 0 0 1 6 57.08 471.83 471.83 0 0 1 -1.16 57.52c-.84 10.72-2.16 21.38-3.28 32.07-.11 1.09 1.69 1.33 1.92.26z"/><path d="m160.43 739.1c-2.61 9.73-4.61 19.63-6.4 29.55q-3.53 19.59-6.25 39.32-2.94 20.91-5.19 41.92c-1.32 12.55-2.44 25.13-3 37.74-.24 5-.39 10-.36 15 0 2 .14 4 .14 6a17.27 17.27 0 0 1 -.55 4.09c-2.13 10.41-5.55 20.54-8 30.89a84.47 84.47 0 0 0 -2.51 14.56 15.42 15.42 0 0 0 .38 5c.65 2.31 2.65 3.93 4.49 5.34 6.29 4.8 14.48 6.2 22.16 7a249.68 249.68 0 0 0 25.66 1.05q6.86 0 13.71-.35c2.22-.11 4.44-.24 6.66-.41a17 17 0 0 0 5.53-1 10.94 10.94 0 0 0 6.24-7.13c1-3.79-.37-7-2.18-10.27-4.34-7.89-9.66-15.58-10.64-24.78-1-9.4 1.78-18.75 5.42-27.33 1.79-4.23 3.83-8.34 5.9-12.44.79-1.57-1.56-3-2.37-1.38-8.21 15.9-16.6 34.08-9.2 51.91a106.52 106.52 0 0 0 6.09 11.77c1.12 2 2.24 3.91 3.27 5.92a8.08 8.08 0 0 1 1 4.54 7.79 7.79 0 0 1 -5.26 6.52 24.69 24.69 0 0 1 -5.88.69q-3.25.21-6.51.35c-8.85.38-17.73.37-26.59 0-7.73-.36-15.76-.71-23.17-3.09a24.63 24.63 0 0 1 -9.74-5.53c-.36-.35-.7-.71-1-1.08s0 .06-.11-.14a2.38 2.38 0 0 1 -.18-.3c-.19-.39 0 0-.09-.18s-.17-.54-.24-.82-.07-.35-.1-.52a1.48 1.48 0 0 1 0-.3c-.39-4.11.52-8.36 1.37-12.36 2.25-10.63 5.77-20.94 8.38-31.48a36.87 36.87 0 0 0 1.48-10.15c-.16-4.53-.1-9.07 0-13.59.37-11.82 1.3-23.63 2.38-35.4q1.89-20.46 4.55-40.86 2.56-19.87 5.72-39.67c1.72-10.72 3.55-21.44 5.69-32.08q.6-3 1.27-6a1 1 0 0 0 -1.88-.52z"/><path d="m348.49 359.15c-6.36-19.26-14.06-38.4-15.81-58.61-1.71-19.72 2.32-39.65.09-59.31-.44-3.87-1.15-7.8-3.14-11.14-3-5-8.31-8-13.41-10.72-3.11-1.67-6.31-3.38-9.82-3.76-3.28-.34-6.9.77-8.77 3.42l.32.14a5 5 0 0 1 2.73 2.23 5 5 0 0 1 -.23 3.43c-3.78 12.21-7.87 24.55-15.14 35.06s-18.31 19.11-30.96 20.62c-14.09 1.66-28.21-5.83-37.11-16.87s-13.19-25.17-15.06-39.23c-.31-2.39-.49-5.07 1-7 1.16-1.46 3.05-2.09 4.84-2.64l2.61-.8h-.17c-2.89-3.6-8.63-1.62-12.66.63l-17.19 9.61c-2.36 1.32-4.78 2.69-6.49 4.8-2.19 2.72-2.91 6.32-3.54 9.76a959.19 959.19 0 0 0 -14.9 135.64c-.31 8.16-.19 17.24 5.36 23.23 4.25 4.6 10.76 6.26 17 7.18 20.3 3 41 .45 61.32-2.18 19.24-2.49 38.56-5.05 57.18-10.52s36.64-14 50.88-27.17a5.65 5.65 0 0 0 1.38-1.67c.56-1.28.13-2.78-.31-4.13z"/><path d="m302.5 121.8a54.1 54.1 0 0 0 9.9 23.58c1.73 2.34 3.61 5.79 1.49 7.77a14.25 14.25 0 0 1 -2.14 1.28c-3 1.92-3.08 6.25-2.9 9.85.4 7.66-.14 16.27-5.74 21.52s-14 5.28-21.41 3.9c-20.37-3.78-39.68-18.19-44.54-38.33-2.28-9.43-1.33-19.42 1.43-28.72 2-6.92 5.21-13.72 10.47-18.68 9.48-8.93 24.52-10.14 36.64-5.34 8.29 3.28 16.28 14.26 16.8 23.17" fill="#fff"/><path d="m238.1 151.11c-1.79-8.69-.86-17.77 1.43-26.28 2-7.43 5.18-14.92 11-20.18 5.17-4.67 12.13-7 19-7.27 6.71-.27 14.28 1 19.82 5 6.09 4.39 11.05 11.9 12 19.41.17 1.38 2.24 1.48 2.23 0-.07-7.43-4.62-14.76-9.93-19.67-5.64-5.22-13.21-7.39-20.77-7.73s-15.39 1.45-21.61 5.83c-6.84 4.82-11 12.27-13.55 20.07-3.34 10.12-4.3 21-1.54 31.33.32 1.22 2.13.7 1.88-.52z"/><path d="m301.53 121.8a51 51 0 0 0 6.06 18.93q1.17 2.06 2.52 4a31.63 31.63 0 0 1 2.57 3.9c.45.9 1.06 2.32.35 3.25-.47.61-1.4.84-2 1.25a7 7 0 0 0 -1.52 1.29c-1.83 2.13-2.19 5.07-2.19 7.77s.25 5.66.1 8.51c-.31 5.54-1.79 11.5-6.46 15-5.48 4.1-12.82 3.56-19.23 2.89-1.27-.14-1.49 1.88-.3 2.19 6 1.56 12.82 1.67 18.51-1s8.82-8.19 9.91-14.15a46.83 46.83 0 0 0 .61-9.46c-.08-2.72-.54-5.7.46-8.31a5 5 0 0 1 2.72-2.71 4.78 4.78 0 0 0 2.67-3.63c.37-3-1.72-5.62-3.34-7.92a58.78 58.78 0 0 1 -9.5-22c-.21-1.06-2.05-.84-1.91.26z"/><path d="m299.85 136.79-.42.22a4 4 0 0 0 -.59.43 2.93 2.93 0 0 0 -.75.93 2.68 2.68 0 0 0 -.24.67 2.33 2.33 0 0 0 -.06.53 3.31 3.31 0 0 0 .06.54 2.28 2.28 0 0 0 .72 1.24l.3.23a1.18 1.18 0 0 0 .54.17 1.45 1.45 0 0 0 .93-.17 3.21 3.21 0 0 0 .3-.21 2 2 0 0 0 .27-.24 2.66 2.66 0 0 0 .54-.92 2.09 2.09 0 0 0 .12-.74 2.42 2.42 0 0 0 -.06-.54 1.6 1.6 0 0 0 -.05-.21 1.62 1.62 0 0 0 -.39-.67l-.31-.24a1.55 1.55 0 0 0 -2.17.73 1.58 1.58 0 0 0 .08 1.36v.06l-.15-.36a1 1 0 0 1 .06.23l-.06-.4a1 1 0 0 1 0 .25l.05-.4a1.05 1.05 0 0 1 -.06.24l.15-.36a.72.72 0 0 1 -.12.21l.23-.3a1 1 0 0 1 -.17.18l.3-.23h-.06 1.47-.06l.3.23a1.45 1.45 0 0 1 -.18-.17l.23.29a1.13 1.13 0 0 1 -.12-.21l.14.34a2 2 0 0 1 -.11-.48v.37a1.8 1.8 0 0 1 0-.4v.36a1.62 1.62 0 0 1 .12-.43l-.13.3a6.61 6.61 0 0 1 .67-1.07l.1-.24a.65.65 0 0 0 0-.39.93.93 0 0 0 -.27-.57 1 1 0 0 0 -1.2-.16z"/><path d="m296 133.62h.22a.89.89 0 0 0 .28 0l.45-.1.76-.16a5.52 5.52 0 0 1 .71-.11c-.38 0 0 0 .07 0h.4a21.68 21.68 0 0 1 3 .08l-.55-.07c.37 0 .65.17 1.05.19l-.55-.07h.05l-.48-.2-.31-.24a2 2 0 0 0 3-.39 2.28 2.28 0 0 0 -.33-2.67 2.44 2.44 0 0 0 -1.92-.69 11.16 11.16 0 0 0 -2.49.53c-.37.13-.73.27-1.09.43l-.3.12.16-.07s-.19.08-.22.09l-.74.31-.95.46-.46.25a3.27 3.27 0 0 0 -.36.25c-.05.07-.11.13-.16.21s-.13.15 0 .07a1.07 1.07 0 0 0 -.24 1.16 1.06 1.06 0 0 0 .94.63z"/><path d="m268.73 141.09c.14 0 0 0-.07 0a.75.75 0 0 0 .15 0h-.08.12c.11 0-.18-.1 0 0l.11.06c.12.06 0 0 0 0a1.31 1.31 0 0 0 .12.11l.08.09c.08.07-.12-.19 0 0a1.76 1.76 0 0 1 .14.23.45.45 0 0 0 .06.12c0-.12-.07-.15 0-.08a.19.19 0 0 1 0 .07 2.47 2.47 0 0 1 .1.29 5.41 5.41 0 0 1 .12.58.59.59 0 0 1 0 .13s0 .18 0 .27v.32a.57.57 0 0 0 0 .13l-.06.26s-.09.22 0 .07 0 0 0 .06l1.44-.38q.2.18.12.09t.09.12s-.09-.18 0 0 0 0 0 0c0 .2 0 .25 0 .17a.22.22 0 0 1 0-.08s-.08.32 0 .12 0 .11-.05.11a.21.21 0 0 1 0-.06c0-.07 0 0-.1.12.12-.12-.24.16-.08.06a1.1 1.1 0 1 0 -1.11-1.9 1.76 1.76 0 0 0 -.61.66 1.88 1.88 0 0 0 .62 2.42 1.06 1.06 0 0 0 1.44-.38 3.65 3.65 0 0 0 .36-1.87 6.19 6.19 0 0 0 -.34-1.69 3.27 3.27 0 0 0 -1.15-1.63 2.24 2.24 0 0 0 -1.86-.35 1 1 0 0 0 .51 1.85z"/><path d="m275 137.57c-.15-4.21-5.88-6.58-9.51-4.46s-4.81 7.11-3.6 11.15 4.29 7.23 7.57 9.86a45.53 45.53 0 0 1 -9.63 17.08 14.49 14.49 0 0 1 -6.22 4.56c-2.48.77-5.55.18-7-2a36.43 36.43 0 0 1 -15.61 9.68c-3.76 1.15-7.9 1.65-11.56.21s-6.57-5.27-5.92-9.15c-4.18 2.26-8.6 4.29-13.32 4.89s-9.82-.39-13.37-3.56-5.07-8.75-2.78-12.93a12.29 12.29 0 0 1 -12.44-21.18 15 15 0 0 1 .93-26.36c-4.19-3.66-7.19-9-6.93-14.57s4.33-11 9.84-11.87c-.84-6-.81-12.41 2.28-17.58s10.1-8.36 15.42-5.53a1.86 1.86 0 0 0 1.12.33c.47-.09.76-.54 1-1 2.43-4.47 4.25-9.46 8-12.92s10.32-4.61 13.64-.75c5-5 10.22-10.24 17-12.12s15.45 1 17.38 7.77a63.71 63.71 0 0 1 16.18-5c5-.86 10.44-1.06 15.07 1.11s8.22 7.26 7.21 12.28c3.88-2 8.55-3.43 12.52-1.65s5.7 8.12 2.06 10.51c3.76-.16 7.88-.21 10.84 2.12a8 8 0 0 1 -3.66 14.1c3.9.12 8.38.53 10.66 3.7 1.92 2.66 1.46 6.57-.54 9.18a13.27 13.27 0 0 1 -8.45 4.6 7.45 7.45 0 1 1 -6 13.55c2.7 1.54 5.83 4.4 4.37 7.14-1 1.84-3.46 2.16-5.55 2.12a47.27 47.27 0 0 1 -21.63-5.83c1.89 3.75-1 8.06-3.81 11.18s-5.9 7.18-4.4 11.1"/><path d="m276 137.57a6.79 6.79 0 0 0 -5.58-6.22 7.93 7.93 0 0 0 -8.45 3.61 12 12 0 0 0 -1 10.4c1.44 4 4.4 7.1 7.62 9.74l-.35-1.34a44.68 44.68 0 0 1 -8 14.81c-1.67 2-3.54 4.22-6 5.37-2 .92-4.87 1-6.28-.92a1.54 1.54 0 0 0 -2.38-.31 34.74 34.74 0 0 1 -16.73 9.67c-3.11.73-6.73 1-9.64-.59-2.41-1.29-4.57-4-4.17-6.86a1.64 1.64 0 0 0 -2.37-1.82c-6 3.24-13 6.19-19.95 4.14a11.48 11.48 0 0 1 -7-5.32 8.82 8.82 0 0 1 -.35-8.2 1.64 1.64 0 0 0 -2.23-2.23 10.65 10.65 0 0 1 -10.78-18.36 1.67 1.67 0 0 0 0-2.84 13.31 13.31 0 0 1 .93-23.51 1.65 1.65 0 0 0 .34-2.59c-3.92-3.49-6.93-8.53-6.41-14 .46-4.66 3.9-8.93 8.59-9.72a1.71 1.71 0 0 0 1.16-2c-.64-4.71-.76-9.79 1.09-14.26a12.55 12.55 0 0 1 8.68-7.58 8.22 8.22 0 0 1 5.18.46c1.08.49 2.07 1 3.24.44a5.63 5.63 0 0 0 2.12-2.76c2.06-4 3.82-8.53 7.31-11.55 2.92-2.54 8.13-3.72 11-.53a1.7 1.7 0 0 0 2.39 0c4.93-5 10.57-10.87 17.85-12 5.29-.84 12 1.36 13.72 6.94a1.72 1.72 0 0 0 2.5 1c7-3.23 15.2-5.69 23-5.27a14.8 14.8 0 0 1 9.56 3.63c2.13 2 3.69 5 3.14 8a2 2 0 0 0 2.95 2.26c3.17-1.58 8.29-3.56 11.51-1 1.62 1.3 3.05 4.85 1 6.29-1.6 1.12-1.18 4 1.06 3.93 3.87-.15 9.23-.39 11.14 3.8a5.86 5.86 0 0 1 -4.55 8.17c-2.55.46-1.82 4.27.59 4.36 3.4.13 9.07.39 9.56 4.82.55 4.9-4.47 7.44-8.53 8.14a2.4 2.4 0 0 0 -1.74 2.3 2.46 2.46 0 0 0 1.74 2.29 5.07 5.07 0 1 1 -4.16 9.21c-2.69-1.43-5.05 2.55-2.4 4.1.95.55 4.54 2.74 3.36 4.18-.42.52-1.53.62-2.16.65a29.16 29.16 0 0 1 -4.28-.14 44.83 44.83 0 0 1 -17.36-5.32 2.34 2.34 0 0 0 -3.17 3.18c.76 1.65.09 3.53-.7 5a37.32 37.32 0 0 1 -3.42 5c-2.46 3.27-4.64 7.2-3.21 11.34.49 1.4 2.73.8 2.24-.62-1.55-4.46 3.38-8.1 5.94-11 3-3.39 5.2-7.71 3.16-12.17l-3.18 3.17a48.87 48.87 0 0 0 23.14 6.18c3.5 0 7.5-1.4 7.9-5.42.36-3.7-3-6.55-5.86-8.24l-2.4 4.1c4.89 2.62 11.61.61 13.87-4.59a10.16 10.16 0 0 0 -6-13.31v4.59c6.3-1.17 12.62-6 11.81-13.09a9.11 9.11 0 0 0 -5.27-7.16 22.1 22.1 0 0 0 -8.89-1.63l.59 4.36a10.21 10.21 0 0 0 7.62-13.44 10.53 10.53 0 0 0 -6.3-6.17c-2.87-1.07-6.08-1-9.09-.85l1.06 3.92c4.22-3 3.64-9 .23-12.45-4.56-4.61-11.86-2.51-16.88 0l2.95 2.26a12.76 12.76 0 0 0 -3.38-10.87 17.32 17.32 0 0 0 -11-5.26c-4.51-.56-9.09.19-13.48 1.18a67 67 0 0 0 -13.43 4.59l2.5 1c-2.08-6.88-9.72-10.2-16.49-9.5-8.51.88-15 7.31-20.75 13.1h2.41c-3.14-3.48-8.25-3.48-12.29-1.69-4.54 2-7.24 6.4-9.41 10.66-.58 1.15-1.14 2.3-1.72 3.45a10.18 10.18 0 0 0 -.84 1.6l-.18.32c.44-.16.51-.28.22-.37s-.76-.35-1-.45a11.6 11.6 0 0 0 -6.57-.49 15.53 15.53 0 0 0 -10.38 7.89c-3 5.57-2.87 12-2 18.13l1.17-2c-5.89 1-10.17 6.44-10.93 12.18-.87 6.49 2.55 12.82 7.29 17l.34-2.59a16.61 16.61 0 0 0 -.93 29.2v-2.78c-6.09 3.95-8.42 12.72-4.58 19s12.34 8.34 18.67 5l-2.23-2.23a12 12 0 0 0 -.12 10.52 14.25 14.25 0 0 0 7.93 7.28c8.09 3.23 16.69-.12 23.89-4l-2.38-1.83a10.12 10.12 0 0 0 4.11 9.48c3.15 2.43 7.22 2.9 11.07 2.37 7.8-1.07 15.22-5.43 20.62-11.06l-2.38-.31a7.69 7.69 0 0 0 7.55 2.91c3.27-.51 5.91-2.84 8-5.22a47.2 47.2 0 0 0 9.92-17.75 1.35 1.35 0 0 0 -.35-1.34c-4.56-3.65-9.46-9.19-7.15-15.48a5.87 5.87 0 0 1 5.56-4.17c2.32.07 5 1.57 5.23 4.07.12 1.15 1.87 1.2 1.83 0z"/><path d="m293.43 160.72a19.46 19.46 0 0 0 3.46 4.11 1 1 0 0 0 1.44 0 1 1 0 0 0 0-1.43c-.62-.58-1.22-1.17-1.79-1.8-.28-.31-.55-.62-.81-.95l-.19-.24c0 .05.09.12 0 0l-.1-.14q-.21-.27-.39-.54a1 1 0 0 0 -1.3-.34 1 1 0 0 0 -.34 1.3z"/><path d="m273.81 150.8a3.29 3.29 0 0 1 2.88 1.2 3.61 3.61 0 0 1 .62 3.18 4.13 4.13 0 0 1 -2.13 2.63 5.28 5.28 0 0 1 -1.76.57c.22 0-.15 0-.22 0a3.62 3.62 0 0 1 -.57 0 4 4 0 0 1 -.49 0c-.28 0 .18 0-.09 0l-.33-.06a5.7 5.7 0 0 1 -.55-.16s-.27-.11-.09 0l-.29-.15-.21-.13-.17-.12-.13-.13a2.18 2.18 0 0 1 -.21-.22c-.12-.13 0 0 0 0a2.13 2.13 0 0 1 -.16-.25c-.06-.09-.1-.18-.15-.27.07.15 0 0 0 0l-.06-.22c0-.05-.06-.38 0-.11a3 3 0 0 1 0-.6 1.55 1.55 0 0 0 -1.54-1.54 1.58 1.58 0 0 0 -1.54 1.54 5.19 5.19 0 0 0 3.29 5 7.53 7.53 0 0 0 6.16-.29 7.06 7.06 0 0 0 3.72-4.29 6.13 6.13 0 0 0 -1-5.58 5.5 5.5 0 0 0 -5.47-1.91 1 1 0 1 0 .54 2z"/><path d="m274.78 216.15c1.39-4.17 2.66-8.39 4-12.59l1.91-6.19a54.12 54.12 0 0 0 1.87-6.46c.21-1.22-1.62-2.27-2.2-.92a55.17 55.17 0 0 0 -2 6.48l-1.77 6.23c-1.23 4.31-2.48 8.61-3.6 13a1 1 0 0 0 1.83.5z"/><path d="m236.84 206.54c2.46-5.5 4.68-11.1 6.62-16.81q1.44-4.22 2.67-8.49a81.65 81.65 0 0 0 2.43-9.05c.3-1.76-2.21-2.54-2.72-.75-.81 2.85-1.25 5.81-2 8.68s-1.62 5.88-2.53 8.78c-1.8 5.73-3.88 11.38-6.21 16.91-.42 1 1.29 1.71 1.73.73z"/><path d="m235.84 205.21q-13.46 3.66-26.8 7.64c-3.57 1.07-7.45 2.26-8.41 6.35-.85 3.59.22 7.73.86 11.28 2.73 15.21 8.89 30.62 20.91 40.86 11.26 9.59 26.75 14.09 40.94 8.64 14.53-5.57 24.43-18.45 30.62-32.25 1.73-3.87 3.25-7.83 4.63-11.83.69-2 1.34-4 2-5.94a55 55 0 0 0 1.82-6 4.89 4.89 0 0 0 -1.67-5.07 20.28 20.28 0 0 0 -5.29-2.58 94.85 94.85 0 0 0 -12.34-3.86c-2.1-.5-4.21-.92-6.34-1.28-1.67-.27-2.4 2.26-.71 2.57a80.67 80.67 0 0 1 11.64 2.95c1.91.65 3.81 1.38 5.67 2.18a29.84 29.84 0 0 1 5.08 2.39c1.63 1.1.38 3.34-.09 4.83q-.85 2.78-1.77 5.53c-1.21 3.68-2.51 7.34-4 10.93-5.3 13.06-13.4 25.64-26.18 32.39a34.37 34.37 0 0 1 -19.28 4 40.1 40.1 0 0 1 -18.76-7.18c-11.9-8.2-18.72-21.59-22.23-35.29-.91-3.56-1.61-7.16-2.16-10.79a19 19 0 0 1 -.35-5.1 4.26 4.26 0 0 1 2.72-3.47 48.42 48.42 0 0 1 5.42-1.79l6.17-2c4.12-1.31 8.21-2.69 12.3-4.09l6.13-2.1a1 1 0 0 0 -.53-1.91z"/><path d="m326.3 230.75a312.81 312.81 0 0 0 53.7 29.13 292.93 292.93 0 0 0 29.17 10.64c9.65 2.92 19.59 4.63 29.58 2.49 18.4-3.93 32.95-17.77 45.63-30.81 7.46-7.68 14.64-15.63 21.42-23.92 5.87-7.18 11.21-14.77 17.08-21.94 5.33-6.52 11.27-12.84 18.67-17a36.46 36.46 0 0 1 12-4.24 53 53 0 0 1 16.34.3c2.72.39 5.43.89 8.14 1.34 1.36.23 2-1.8.58-2.1-10.06-2.17-20.87-4.07-30.93-.87-7.92 2.53-14.64 7.68-20.37 13.58-5.92 6.1-10.93 13-16.06 19.78-6.43 8.48-13.29 16.61-20.48 24.46a270.87 270.87 0 0 1 -21.23 21.23c-6.91 6-14.53 11.6-23.09 15a47.85 47.85 0 0 1 -13.2 3.33 50 50 0 0 1 -15.25-1.09c-10.11-2.19-20-5.9-29.65-9.64a327.34 327.34 0 0 1 -54.69-27.42c-2.12-1.32-4.23-2.67-6.31-4-1.12-.73-2.14 1-1.05 1.78z"/><path d="m563.55 186.78c8.64.35 15.1 11.17 11 18.89l1.49-.61a15.39 15.39 0 0 1 -6.15-4 1.36 1.36 0 0 0 -2.25.59 11.19 11.19 0 0 1 -14.41 7.65 1.42 1.42 0 0 0 -1.73 1 344.29 344.29 0 0 1 -24.37 55.12q-7.26 13.2-15.68 25.71c-5.57 8.27-11.34 16.63-19 23.09-14.71 12.33-34.25 17.21-53.07 18a227.69 227.69 0 0 1 -33-1.38c-10-1-20-2.2-30-3.8-19.58-3.16-39.14-8-57-16.73q-3.37-1.65-6.66-3.46c-1.89-1.05-3.6 1.87-1.69 2.9 17.89 9.75 37.62 15.43 57.59 19 10.05 1.81 20.17 3.16 30.31 4.3a306.62 306.62 0 0 0 33 2.31c19.68 0 40.08-3.48 56.69-14.61 8.29-5.55 14.71-12.88 20.47-20.95 6-8.37 11.54-17.05 16.71-25.94a338.81 338.81 0 0 0 26-55.72q1.29-3.57 2.49-7.17l-1.73 1c7.25 2.64 16-2.14 17.76-9.64l-2.32.67a18 18 0 0 0 7.35 4.66 1.33 1.33 0 0 0 1.49-.61c4.77-9.35-2.67-22.08-13.31-22.09a.94.94 0 0 0 0 1.87z"/><path d="m182.57 225.88a332.43 332.43 0 0 0 -30.18 21.33 306.71 306.71 0 0 0 -27.89 24.56c-17.56 17.52-32.87 37.45-43.81 59.77-11 22.53-17.93 47.35-18.39 72.51a145.92 145.92 0 0 0 4.38 37.95c3.18 12.85 7.63 25.33 11.18 38.08 3.48 12.51 5.83 25.1 5.53 38.13-.26 10.77-1.4 22.56 3.38 32.59a26.66 26.66 0 0 0 4.33 6.39c1 1.11 2.6-.52 1.64-1.64-7.41-8.67-6.76-20.79-6.29-31.47a139.34 139.34 0 0 0 0-17.46 130 130 0 0 0 -3-18.91c-2.91-12.59-7.21-24.8-10.78-37.21s-6.18-24.7-6.73-37.5c-1-24.68 4.32-49.44 14.12-72s24-42.92 40.62-60.91 35.56-33.53 55.55-47.47c2.43-1.7 4.87-3.38 7.29-5.08 1-.69.1-2.29-1-1.64z"/><path d="m170.26 324.46c-19.11 17.39-36.74 39-41.23 65.23-2.62 15.3.78 30.39 1.76 45.66a160.63 160.63 0 0 1 -.26 23.93c-.6 6.87-2.09 13.72-2 20.64a26.72 26.72 0 0 0 2.16 10.7 23.7 23.7 0 0 0 6.71 8.18c2.73 2.29 5.79 4.39 7.9 7.31s3.54 6.7 1.87 10.1c-.62 1.27 1.26 2.39 1.9 1.12 2.95-5.81-.68-12.19-4.93-16.24-2.31-2.2-4.89-4.11-7.12-6.42a18.34 18.34 0 0 1 -4.77-8.49c-1.54-6.29-.36-13 .47-19.3a162.05 162.05 0 0 0 1.43-23.71c-.11-7.82-1-15.56-1.85-23.33s-1.66-15.58-1-23.4c1-12.9 5.72-25.21 12.32-36.26 7.57-12.69 17.44-24.08 28-34.36.89-.87-.45-2.19-1.36-1.36z"/><path d="m124.39 518.73a57 57 0 0 0 -1.39 14.27 49.81 49.81 0 0 0 2.13 14.21 1.23 1.23 0 0 0 2.37-.65 74.82 74.82 0 0 1 -2.2-13.56 61.27 61.27 0 0 1 1-13.72c.23-1.26-1.65-1.81-1.94-.54z"/><path d="m109.67 531.52a80 80 0 0 0 3.18 19.5 1.12 1.12 0 0 0 2.16-.59 97.17 97.17 0 0 1 -3.39-18.91c-.08-1.24-2-1.26-2 0z"/><path d="m97.75 535.79a57.09 57.09 0 0 0 .8 8.85 47 47 0 0 0 2.14 8.68 1.17 1.17 0 0 0 2.26-.63c-.73-2.78-1.6-5.5-2.15-8.33a85.35 85.35 0 0 1 -1.21-8.57c-.11-1.16-1.86-1.2-1.84 0z"/><path d="m264.54 413.92c.61 2 4 3.13 5.26 1s-2.13-3.43-3.63-2.14a2.87 2.87 0 0 0 -.46 3.34c.25.63.65 1.19.9 1.83a7.56 7.56 0 0 1 .33 2.8 77.22 77.22 0 0 1 -.69 9.61 78.28 78.28 0 0 1 -13.89 35c-3.84 5.38-9.28 11-8.55 18.12a1.67 1.67 0 0 0 3.34 0l.19-2.72-3 .82a14 14 0 0 0 2.8 3.15 1.64 1.64 0 0 0 2.54-.32 4.23 4.23 0 0 0 .14-4l-2.82 1.59a2.61 2.61 0 0 0 4.2.2c1.47-1.63.3-3.7-.89-5.07l-1.94 2.52c1.33.95 2.35 2.1 4 1.36a7.6 7.6 0 0 0 3.09-2.64c1-1.38-1.29-3.17-2.37-1.83a4.93 4.93 0 0 1 -2.3 1.67l1.23.16-2.02-1.48c-1.56-1.12-3 1.22-1.94 2.52.19.22.34.55.54.74 0 .19.1.19.17 0 .21-.38.55-.31 1 .22a1.61 1.61 0 0 0 -2.77 1.63.88.88 0 0 1 -.15.77l2.54-.32a10.83 10.83 0 0 1 -2.27-2.51 1.65 1.65 0 0 0 -3 .82l-.27 2.72h3.34c-.37-5 2.74-9.13 5.59-12.9a90.2 90.2 0 0 0 8.43-12.93 80.23 80.23 0 0 0 8.64-29.84 44.76 44.76 0 0 0 .16-8.58 9.6 9.6 0 0 0 -1.43-3.87l-.2-.35c0-.38-.12-.47-.3-.26s-.21.14-.08.09c.21-1.07.06-1.52-.44-1.33-.41-.13-.74.07-1.07-.4-.63-.94-2.26-.39-1.91.8z" fill="#fff"/><path d="m292.73 406.68a3.78 3.78 0 0 0 -2.79 2.83 1.44 1.44 0 0 0 .37 1.4 2.69 2.69 0 0 0 4.35-1.14 1.48 1.48 0 0 0 -.68-1.67c-1.55-.83-2.87.55-2.72 2.11s1.66 2.89 2.74 3.79c2.6 2.17 5.77 3.31 8.71 4.9 5.8 3.15 10.62 9.26 9.68 16.18a11.84 11.84 0 0 1 -4.39 7.92c-1.47 1.1-5.86 2.72-6.56-.14a3.06 3.06 0 0 1 1.71-3.19 6.44 6.44 0 0 1 5.37.31 14.51 14.51 0 0 1 6.7 7c2 4 2.34 8.67 2.35 13.1 0 5-.27 10-.43 14.95a1.66 1.66 0 0 0 2.48 1.43 4.2 4.2 0 0 0 2-3.79l-2.47 1.42a7.54 7.54 0 0 1 2.52 3c.81 1.63 3.69.46 3-1.26l-1.73-4.17-1.56 2a5.47 5.47 0 0 1 3 .93c1.09.69 2.91-.49 2.36-1.81a17.71 17.71 0 0 0 -3.44-5.38l-1.15 2.78a1.63 1.63 0 0 1 1.85 1.26 1.48 1.48 0 0 0 2.89-.39c0-2.83-2.54-4.43-5.17-4.07-1.27.18-1.48 1.94-.72 2.72a12.61 12.61 0 0 1 2.65 3.93l2.35-1.81a8.86 8.86 0 0 0 -4.61-1.39 1.63 1.63 0 0 0 -1.56 2.05l1.71 4.18 3-1.26a10.83 10.83 0 0 0 -3.68-4.18 1.66 1.66 0 0 0 -2.48 1.42c0 .4 0 .69-.34.94l2.48 1.42c.17-5 .45-10 .44-14.95 0-4.52-.4-9.15-2.15-13.36a18.85 18.85 0 0 0 -7.23-9c-3.36-2.08-8.32-3-11.45 0-2.6 2.49-2.81 7.05.49 9.05 3 1.83 7 .73 9.6-1.3 6.11-4.73 7-13.58 3.58-20.16a22.83 22.83 0 0 0 -9.42-9.23c-1.83-1-3.76-1.77-5.59-2.75a18.68 18.68 0 0 1 -2.7-1.67 11.48 11.48 0 0 1 -1-.94c-.17-.17-.33-.35-.48-.53l-.19-.25c-.24-.43-.28-.39-.14.11l-.89.68h.14l-1.14-.15.17.08-.68-1.67c.37-.07.45-.18.25-.33l.71 1.25a1 1 0 0 1 .62-.82 1.25 1.25 0 0 0 -.66-2.4z" fill="#fff"/><path d="m176.74 927.52 6.48-.31 3-.16c.85 0 2.19-.38 3 0l-.24-1.9-14.65 12.45a1.44 1.44 0 0 0 1 2.44c5.3-.32 10.59-.72 15.88-1.1l-1.21-2.19a9.68 9.68 0 0 1 -2.79 2.19l-3.3 2.27-6.6 4.54c-.94.65-1 2.5.35 2.72a57.22 57.22 0 0 0 15.24.49c1.9-.2 1.92-3.2 0-3a54.22 54.22 0 0 1 -14.45-.36l.36 2.72 7.29-5 3.47-2.39a9.88 9.88 0 0 0 3-2.66 1.48 1.48 0 0 0 -1.28-2.22c-5.29.38-10.59.75-15.88 1.19l1 2.44 14.33-12.76a1.21 1.21 0 0 0 -.24-1.9c-1.86-.91-4.37-.26-6.36-.11-2.45.19-4.9.4-7.35.61-1.29.11-1.32 2.1 0 2z"/><path d="m478.5 922.47a44.74 44.74 0 0 1 9.11-.15l-1-1.8c-2.93 6.14-9.64 9.26-13.3 14.89-.73 1.13.47 2.23 1.58 2.05q8.08-1.28 16.17-2.61l-1.43-2.46q-6.24 5.25-12.72 10.23a1.63 1.63 0 0 0 -.7 1.71c.52 3.16 5.43 2.51 7.66 2.58 3.7.12 7.44.41 11.14.33a1.52 1.52 0 0 0 0-3c-2.89-.24-5.82-.2-8.72-.29-.85 0-7.07.16-7.16-.39l-.39 1.47q6.6-5.13 13-10.53c1.23-1.05-.14-2.67-1.43-2.45q-8.07 1.35-16.13 2.75l1.57 2.05c3.58-5.68 10.2-8.79 12.95-15.09a1.21 1.21 0 0 0 -1-1.8 45.41 45.41 0 0 0 -9.39.49c-1.15.17-.9 2.19.28 2.05z"/><path d="m186.57 225.26c4.72 2.74 9.43 5.5 14.18 8.21l-.25-1.93a79.53 79.53 0 0 0 -12.77 17.39 1.43 1.43 0 0 0 .84 2.08c6.77 2.27 13.55 4.48 20.33 6.7l-1-1.82-3.74 13.77c-.88 3.26-3.19 8.3-.22 11.14a6 6 0 0 0 4.55 1.33c2.22-.11 4.46-.56 6.66-.86l14.12-1.95-2-1.52a95.36 95.36 0 0 0 5.05 25.28 1.6 1.6 0 0 0 2.32.94 116 116 0 0 0 24.23-20.62h-2.22a103.15 103.15 0 0 0 16.33 16 1.59 1.59 0 0 0 2.46-.32 55.55 55.55 0 0 0 7.48-27l-2 1.5a61.55 61.55 0 0 0 24.08 4.51 1.58 1.58 0 0 0 1.5-2 133.89 133.89 0 0 0 -7.5-26.64l-1.49 2 20-.27a1.55 1.55 0 0 0 1.49-2 39.07 39.07 0 0 0 -14.19-17.84l.31 2.42 8.38-8.71c1.38-1.43-.8-3.61-2.17-2.18l-8.33 8.75a1.56 1.56 0 0 0 .31 2.42 35.39 35.39 0 0 1 12.69 15.96l1.49-1.95-20 .26a1.56 1.56 0 0 0 -1.5 2 134 134 0 0 1 7.49 26.63l1.5-2a59.09 59.09 0 0 1 -23.26-4.46c-1-.4-2 .6-2 1.51a52.35 52.35 0 0 1 -7.07 25.44l2.46-.32a103.51 103.51 0 0 1 -16.32-16 1.57 1.57 0 0 0 -2.22 0 112.42 112.42 0 0 1 -23.57 20.18l2.32.95a92 92 0 0 1 -4.93-24.44 1.61 1.61 0 0 0 -2-1.53l-12.16 1.73-6.08.86c-1.18.17-3.06.62-4.09-.21s-.46-2.8-.17-3.91c.53-2.06 1.1-4.12 1.65-6.18l3.18-11.88a1.51 1.51 0 0 0 -1-1.83c-6.79-2.2-13.56-4.42-20.36-6.58l.85 2.09a76.7 76.7 0 0 1 12.06-17.08 1.25 1.25 0 0 0 -.25-1.94c-4.78-2.65-9.59-5.24-14.38-7.86a1 1 0 0 0 -1 1.78z" fill="#8346FC"/><rect fill="#8346FC" height="12.11" rx="3.35" width="438" x="497.95" y="53.76"/><rect height="69.64" rx="13.18" width="69.64" x="771.45" y="25"/><rect fill="#8346FC" height="12.11" rx="3.35" width="438" x="497.95" y="340.62"/><rect height="69.64" rx="13.18" width="69.64" x="736.63" y="311.86"/><rect fill="#8346FC" height="12.11" rx="3.35" width="438" x="497.95" y="484.05"/><rect height="69.64" rx="13.18" width="69.64" x="630.67" y="455.28"/></svg>