<?xml version="1.0" ?><svg viewBox="0 0 1000 1000" xmlns="http://www.w3.org/2000/svg"><path d="m265.12 424.11c22.19 49.32 44.5 98.95 57.89 151.36 9 35.34 13.92 71.61 17.69 107.9 7 67.63 5.09 134.23 9.94 202 .32 4.42 7.73 13.28 9.87 17.16 3.69 6.68 10.59 8.95 8.78 16.36-1.46 6-23.43 4.6-27.47 4.71-13.13.38-27.69 4.8-38.67-5.76-4.16-4-3.36-11.08-3.82-16.52-3.83-45.13-27.07-104.32-39.68-163.13-3.1-14.48-4.38-42.37-3.58-57.15.54-9.92 2.83-19.72 2.74-29.65-.15-17-7.27-33.16-14.14-48.76-14.13-32.07-27.85-64.63-34.76-99s-6.65-71 6.64-103.4"/><path d="m264.3 424.59c15.9 36.33 32.26 72.5 45.11 110.06 13.06 38.2 21.26 77.49 26.4 117.5 5.25 40.83 7.77 81.79 9.08 122.92.64 20.41 1.12 40.82 1.88 61.23q.57 15.5 1.4 31c.29 5.18.62 10.37 1 15.54a18.2 18.2 0 0 0 2.32 8.35c1.63 2.92 3.62 5.62 5.52 8.37 1.59 2.3 2.9 4.8 4.66 7 2 2.5 5 4.69 6.21 7.76 1 2.46.62 5-1.82 6.14-4.63 2.16-10.63 2-15.63 2s-9.8-.08-14.74.35c-7.7.67-15.87 1.89-23.36-.69-3.82-1.32-8.34-3.88-10.1-7.69-1.64-3.58-1.34-7.8-1.55-11.64-.87-15.88-4.57-31.76-8.38-47.14-9.2-37.22-21.45-73.61-29.95-111-3.4-15-4.73-30.09-5.14-45.4a188.89 188.89 0 0 1 .33-21.15c.83-9.69 2.92-19.3 2.47-29.07-.89-19.06-9.71-36.58-17.2-53.74-7.89-18.07-15.49-36.3-21.69-55-12.12-36.46-18.86-75.73-11.12-113.79a147.61 147.61 0 0 1 7.7-25.95c.58-1.42-1.73-2-2.3-.63-14.46 35.65-13.58 75.23-5 112.21 4.58 19.62 11.26 38.67 18.76 57.34 3.64 9.08 7.49 18.08 11.41 27 4 9.26 8.34 18.44 11.66 28s5.6 19.63 5.25 29.86c-.33 9.6-2.41 19-2.79 28.66a276.84 276.84 0 0 0 2 44.86c2.23 17.9 7.47 35.55 12.24 52.9 5.2 18.91 10.84 37.69 16 56.6 4.66 17.05 9 34.26 11.63 51.75.59 3.94 1.08 7.89 1.41 11.86.31 3.64.12 7.35.82 11 1.44 7.33 8.45 11.68 15.31 13.28 7.57 1.78 15.4.55 23-.05 4.95-.38 9.87-.12 14.82-.22s10.57-.14 15.12-2.25 4.55-7.63 2-11.46c-1.88-2.82-4.62-5-6.54-7.75-1.74-2.52-3.31-5.16-5.06-7.69s-3.92-5.47-5.1-8.53a18.81 18.81 0 0 1 -.76-5.49c-.19-2.77-.36-5.53-.53-8.3-1.26-21-2-42-2.62-62.94-1.25-42.09-2.15-84.23-6.45-126.14-4.18-40.83-9.88-81.66-21.07-121.22-10.94-38.67-26.36-75.93-42.78-112.55q-6.08-13.54-12.31-27c-.52-1.12-2.12-.14-1.64 1z"/><path d="m249.38 203.34c2.29 4.11 4.74 8.37 8.65 11 3.06 2 6.75 2.92 10 4.73a13.22 13.22 0 0 1 6.28 7.1c1 3.07.25 6.81-2.28 8.82a10.65 10.65 0 0 1 -4.8 17.24c2.21 1.12 3 4 2.38 6.44a12 12 0 0 1 -4.36 5.86c-9.64 7.82-24.84 8.35-34.36.38-5.64-4.72-9-11.76-10.49-18.95s-1.5-14.62-1.44-22"/><path d="m248.73 203.72a33.86 33.86 0 0 0 6.13 9.28c2.68 2.72 6.06 4.07 9.49 5.57 3.24 1.42 6.4 3.28 8.11 6.51a7.23 7.23 0 0 1 -1.42 9 1.35 1.35 0 0 0 0 1.88 9.4 9.4 0 0 1 -4.23 15 1.41 1.41 0 0 0 -.33 2.55c2.58 1.46 2.14 4.85.72 7a18.1 18.1 0 0 1 -6.31 5.31 27.67 27.67 0 0 1 -15.44 3.36 23.93 23.93 0 0 1 -14.45-6.18c-4.47-4.11-7.22-9.72-8.75-15.53-2-7.64-1.94-15.68-2-23.52a1.39 1.39 0 0 0 -2.77 0c-.31 14.32 0 31.14 11.62 41.49 9.31 8.31 23.93 8.68 34.29 2.09 3-1.89 6-4.39 7.25-7.79 1.17-3.13.24-7.06-2.8-8.76l-.34 2.55a12 12 0 0 0 5.43-19.53v1.88a9.44 9.44 0 0 0 2.73-9.43c-.88-3.57-3.65-6.46-6.76-8.26-3.68-2.13-8.06-2.89-11.44-5.57s-5.22-6.27-7.43-9.7a.75.75 0 0 0 -1.3.76z"/><path d="m140.41 465.84c-19.41 47.65-1.1 117.92-12.41 168.16-5.8 25.73-23.39 47.39-37.65 79.4-37.21 83.51-35.56 112.46-63.22 183.18-2.25 5.76-3.22 12.6-.37 18.09 4.21 8.15 15.28 9.1 24.46 9l24.91-.33c6.46-.09 14.52-1.29 16.45-7.46 2.23-7.13-5.94-13.05-8-20.23-2.6-9 1.5-13.07 7.45-20.27 66.94-80.92 101.06-149.2 122.6-225.67s22.58-141.71 21-221.14"/><path d="m139.67 465.63c-6.25 15.27-8.5 31.82-9.34 48.2-.92 18-.16 36.09.29 54.12.42 17.3.7 34.72-1.39 51.93a115.34 115.34 0 0 1 -5.31 24 164.21 164.21 0 0 1 -10.38 22.75c-9.1 17.08-18.78 33.7-26.56 51.46-7.28 16.6-14 33.43-20 50.54-9.3 26.37-16.21 53.37-24.42 80.02q-6.95 22.54-15.42 44.58c-3 7.67-5.66 17 0 24.19 4.37 5.61 12 7 18.73 7.33 9.88.53 19.92-.09 29.82-.25 6-.09 14.42-.74 17.5-6.92 3.55-7.13-3.26-13.52-6.27-19.37-1.91-3.68-2.66-8.16-1.1-12.1s4.71-7.12 7.36-10.32c25.15-30.45 48.51-62.49 68.35-96.68a543.91 543.91 0 0 0 42.87-93 565.83 565.83 0 0 0 26.8-109.94c5.33-38.73 6.43-77.83 6.16-116.88q-.1-15.39-.43-30.77a1.25 1.25 0 0 0 -2.5 0c.75 39.23 1 78.56-2.34 117.69a562.7 562.7 0 0 1 -21.82 114.23 548 548 0 0 1 -36.94 92.2c-16.94 33-37.31 64.16-59.73 93.69q-9.69 12.76-19.88 25.14c-4.49 5.47-11.06 11.37-11.1 19a20.55 20.55 0 0 0 3.13 10.44c2 3.3 4.75 6.45 5.76 10.22 2.55 9.6-9.81 10.88-16.3 11-9.74.14-19.61.75-29.34.23-7.68-.42-16.78-2.5-19.06-11-2.39-8.86 3-18.2 6-26.29q4.1-11 7.77-22.21c8.45-25.66 15-51.88 23.29-77.59 11.07-34.42 24.61-68.39 42.13-100 7.94-14.35 16.58-28.66 21.41-44.43 4.69-15.39 5.59-31.84 5.7-47.84.33-34.86-4.37-70.39 1.88-105a114.71 114.71 0 0 1 6.17-22c.37-.93-1.12-1.32-1.49-.41z"/><g fill="#8346FC"><path d="m238.83 283.06c12.53 1.22 23.69 8.59 32.82 17.26s16.79 18.81 26 27.45a10.62 10.62 0 0 1 2.92 3.66 9.47 9.47 0 0 1 .43 3.57 66.12 66.12 0 0 1 -18 44.18c-1.68 1.77-9.1 11.59-11.54 11.6-1.67 0-6.35-2.49-7.81-3.31-15-8.48-20.91-24.25-34.73-34.5"/><path d="m238.83 283.87c14.89 1.81 27 11.84 37 22.38 5.54 5.86 10.69 12.09 16.27 17.92q2.06 2.16 4.22 4.25c1.27 1.22 2.74 2.42 3.12 4.23a20.85 20.85 0 0 1 0 5.58c-.12 1.78-.31 3.56-.59 5.33a65.34 65.34 0 0 1 -6.75 20.4 66.41 66.41 0 0 1 -5.73 9c-1.67 2.21-3.61 4.17-5.39 6.29-1.43 1.71-2.85 3.44-4.32 5.12a26.77 26.77 0 0 1 -4.57 4.52 3.87 3.87 0 0 1 -.43.27l-.21.11c-.32.11.08 0-.07 0l-.49-.11a18.81 18.81 0 0 1 -3.51-1.45 46.34 46.34 0 0 1 -7.31-4.4c-10.51-7.83-16.43-20.13-26.33-28.59q-1.93-1.65-4-3.13c-1.46-1-3.37 1.39-1.94 2.51 11 8.55 17.64 21.21 28.34 30a47.79 47.79 0 0 0 7.87 5.3c1.22.65 2.46 1.26 3.73 1.81a10 10 0 0 0 3.64 1.09c1.87 0 3.51-1.73 4.73-2.94 1.83-1.81 3.49-3.79 5.13-5.77 3.76-4.59 7.76-8.84 10.91-13.89a67.41 67.41 0 0 0 10.11-32.09 21.33 21.33 0 0 0 -.16-5.7 9.35 9.35 0 0 0 -3-4.56c-6.09-5.82-11.66-12.08-17.33-18.29-10.25-11.2-22.15-22.67-37.51-26a42.2 42.2 0 0 0 -5.47-.81c-1.05-.09-1 1.5 0 1.62z"/><path d="m207.19 274.37c-10.33 1.08-20.77 2.23-30.54 5.78s-18.93 9.76-24 18.82c-3.12 5.58-4.54 11.92-5.93 18.16-3.91 17.6-7.84 35.33-8.29 53.35-.43 17.1 2.29 34.23.77 51.27a16.17 16.17 0 0 0 .15 5.89c1.34 4.68 6.63 6.83 11.32 8.16a196.29 196.29 0 0 0 112.06-1.7c2.64-.84 5.38-1.81 7.23-3.86 4.06-4.52 2-11.55.35-17.4a78.89 78.89 0 0 1 -1.57-35.47c2.07-11.15 6.58-22.06 5.87-33.38-.36-5.92-2.14-11.64-3.91-17.29l-5.7-18.12c-1.89-6-3.91-12.28-8.3-16.8-4.07-4.19-9.71-6.4-15.17-8.49l-22.21-8.52c-2.45-.94-5.85-1.58-7.15.7"/><path d="m207.19 273.58c-16.5 1-34.3 3.62-47.31 14.73-6.15 5.26-10 12.08-12.25 19.8-1.24 4.26-2.13 8.63-3.08 13-1 4.69-2.06 9.38-3 14.09a234.28 234.28 0 0 0 -4 27.79 221.14 221.14 0 0 0 .17 28.55c.5 9.5 1.05 19 .35 28.55-.29 4-.88 7.92 1.8 11.25 2.08 2.58 5.25 4 8.33 5.08a150.39 150.39 0 0 0 25.51 5.75 200.66 200.66 0 0 0 26.69 2.28 196.2 196.2 0 0 0 53-6.29 106 106 0 0 0 12.36-3.73c3.41-1.36 6.26-3.57 7.35-7.2s.37-7.33-.48-10.8c-1-4.14-2.23-8.18-2.91-12.4a77.34 77.34 0 0 1 .56-27.64c1.77-8.68 4.77-17.11 5.56-26 .82-9.26-1.94-17.91-4.67-26.63l-4.32-13.84a90.77 90.77 0 0 0 -4.2-11.68 25.75 25.75 0 0 0 -7-9.25 40.8 40.8 0 0 0 -10.2-5.58c-4.27-1.75-8.61-3.34-12.92-5s-8.73-3.52-13.17-5.06c-2.78-1-6.31-1.28-8.1 1.53-.85 1.32 1.26 2.54 2.1 1.23s2.65-.92 3.86-.64a44.27 44.27 0 0 1 5.59 2l12.73 4.87c7.26 2.77 15.77 5.09 21.08 11.13a30.73 30.73 0 0 1 5.45 10c1.46 4 2.64 8.12 3.92 12.18 1.38 4.42 2.77 8.82 4.14 13.24a76.46 76.46 0 0 1 3.06 12.54c1.14 8.6-1 17.05-3.16 25.32-2.17 8.46-3.83 16.9-3.75 25.68a81.56 81.56 0 0 0 1.14 12.76c.68 4.05 1.86 7.95 2.84 11.93.8 3.27 1.57 7.07.19 10.3-1.54 3.57-5.41 4.74-8.82 5.8a196.16 196.16 0 0 1 -101.37 3.74 108.22 108.22 0 0 1 -11.62-3.13c-2.88-1-6.1-2.53-7.52-5.4-.89-1.77-.76-3.79-.6-5.71.19-2.25.36-4.5.45-6.75.17-4.56.1-9.11-.07-13.66-.34-9.05-1.08-18.08-1.13-27.13a171.33 171.33 0 0 1 2.17-27.05c1.4-9 3.3-17.91 5.27-26.8 1.77-8 3.21-16.48 7.75-23.49 8.72-13.47 25.14-18.5 40.14-20.86 4.13-.64 8.28-1.16 12.42-1.78.88-.13.68-1.62-.22-1.56z"/></g><rect fill="#fff" height="153.3" rx="7.89" transform="matrix(.89470061 .44666634 -.44666634 .89470061 226.31 -14.57)" width="166.1" x="61" y="396.02"/><path d="m177.62 573.86-13.23-6.6-31.81-15.88-38.58-19.28-33.5-16.71c-5.67-2.83-11.34-5.64-17-8.49a7 7 0 0 1 -3.3-9.7l3.07-6.15 14.22-28.45 19-38.14 17-33.94c2.63-5.28 5.18-10.61 7.9-15.84a6.89 6.89 0 0 1 9.11-3.2l1 .48 6.94 3.47 28.33 14.14 37.93 18.94 35.95 17.94 22.07 11c2.55 1.28 5.06 2.41 5.89 5.52.76 2.83-.65 5.09-1.84 7.48l-11.9 23.83-18.54 37.14-18.14 36.33-10.73 21.5-.69 1.38a6.88 6.88 0 0 1 -9.1 3.21c-1.29-.61-2.42 1.31-1.13 1.92a9.13 9.13 0 0 0 12.11-3.94c.19-.36.37-.73.55-1.1l3.81-7.62 15.31-30.68 19.43-38.9 16.25-32.65 4.7-9.42c1.29-2.59 2.66-5 2.19-8.09a9.13 9.13 0 0 0 -5-6.74l-1.68-.84-8.2-4.09-30.37-15.17-38.85-19.39-35.09-17.54-19.21-9.59c-.48-.24-1-.49-1.47-.7a9.06 9.06 0 0 0 -11.52 4.2c-.73 1.38-1.4 2.79-2.1 4.19l-13.2 26.45-19.09 38.23-17.73 35.51c-3 6.1-6.11 12.18-9.13 18.29a9.19 9.19 0 0 0 3.94 12.56l5.14 2.56 26.47 13.22 37.91 18.92 37.15 18.57 24.24 12.1 3.39 1.7c1.28.62 2.41-1.3 1.13-1.94z"/><path d="m149.77 405.08h39.43v33.29h-39.43z" transform="matrix(.44666634 -.89470061 .89470061 .44666634 -283.54 384.98)"/><rect height="153.3" rx="7.89" width="166.1" x="669.03" y="75.11"/><path d="m827.24 227.3h-130.9c-6.33 0-12.66 0-19 0a7 7 0 0 1 -7.21-7.28v-119.24c0-5.9-.09-11.8 0-17.7a6.88 6.88 0 0 1 6.79-6.86h147.75c2.85 0 5.59-.09 7.7 2.35 1.91 2.19 1.65 4.88 1.65 7.55v132.77 1.55a6.87 6.87 0 0 1 -6.78 6.86 1.11 1.11 0 0 0 0 2.22 9.14 9.14 0 0 0 9-9v-134.52c0-2.91.13-5.7-1.72-8.23a9.19 9.19 0 0 0 -7.46-3.77h-149.14c-.57 0-1.13 0-1.7 0a9.11 9.11 0 0 0 -8.3 9v4.68 112 20.44a9.18 9.18 0 0 0 9.21 9.4h5.74 144.37a1.11 1.11 0 0 0 0-2.22z"/><path d="m712.36 75.11h33.29v39.43h-33.29z"/><rect fill="#fff" height="153.3" rx="7.89" width="166.1" x="600.05" y="75.11"/><path d="m758.26 227.3h-130.91c-6.32 0-12.65 0-19 0a7 7 0 0 1 -7.21-7.28c0-2.29 0-4.58 0-6.88v-112.36c0-5.9-.1-11.8 0-17.7a6.87 6.87 0 0 1 6.78-6.86h147.76c2.85 0 5.59-.09 7.71 2.35 1.91 2.19 1.65 4.88 1.65 7.55v132.77 1.55a6.87 6.87 0 0 1 -6.78 6.86 1.11 1.11 0 0 0 0 2.22 9.13 9.13 0 0 0 9-9c0-.41 0-.82 0-1.23v-133.29c0-2.91.13-5.7-1.71-8.23a9.19 9.19 0 0 0 -7.47-3.77h-149.15c-.56 0-1.13 0-1.69 0a9.1 9.1 0 0 0 -8.3 9v4.68 112 20.44a9.17 9.17 0 0 0 9.21 9.4h5.74 144.37a1.11 1.11 0 0 0 0-2.22z"/><path d="m666.45 75.11h33.29v39.43h-33.29z"/><rect height="126.45" rx="7.89" width="137.01" x="738.18" y="778.57"/><path d="m867.3 903.9h-106.23c-4.93 0-9.85 0-14.78 0a6.93 6.93 0 0 1 -7-7.14v-96.76c0-4.5-.08-9 0-13.52a6.86 6.86 0 0 1 6.79-6.78h119.42c2.76 0 5.41.26 7.25 2.74 1.46 2 1.33 4.18 1.33 6.46v108.21a6.87 6.87 0 0 1 -6.78 6.79 1.11 1.11 0 0 0 0 2.22c5.39-.12 9-4.44 9-9.64v-107.68c0-2.47.05-4.85-1.34-7.07a9.18 9.18 0 0 0 -7.71-4.28h-120.36c-.39 0-.78 0-1.17 0a9.09 9.09 0 0 0 -8.46 7.15 26.5 26.5 0 0 0 -.19 5v90.54 16.71a9.16 9.16 0 0 0 9.06 9.3h4.11 117.06a1.11 1.11 0 0 0 0-2.25z"/><path d="m773.92 778.57h27.46v32.52h-27.46z"/><rect fill="#fff" height="126.45" rx="7.89" width="137.01" x="681.28" y="778.57"/><path d="m810.4 903.9h-106.23c-4.93 0-9.85 0-14.78 0a6.93 6.93 0 0 1 -7-7.14v-96.76c0-4.5-.08-9 0-13.52a6.86 6.86 0 0 1 6.79-6.78h119.42c2.76 0 5.41.26 7.25 2.74 1.46 2 1.33 4.18 1.33 6.46v108.21a6.87 6.87 0 0 1 -6.78 6.79 1.11 1.11 0 0 0 0 2.22c5.39-.12 9-4.44 9-9.64v-107.68c0-2.47.05-4.85-1.34-7.07a9.18 9.18 0 0 0 -7.71-4.28h-120.35c-.39 0-.78 0-1.17 0a9.08 9.08 0 0 0 -8.45 7.15 25.68 25.68 0 0 0 -.2 5v90.54 16.71a9.16 9.16 0 0 0 9.06 9.3h4.11 117.05a1.11 1.11 0 0 0 0-2.25z"/><path d="m736.05 778.57h27.46v32.52h-27.46z"/><rect height="126.45" rx="7.89" width="137.01" x="581.72" y="778.57"/><path d="m710.83 903.9h-106.22c-4.93 0-9.85 0-14.78 0a6.93 6.93 0 0 1 -7-7.14c0-1.85 0-3.7 0-5.55v-91.21c0-4.5-.08-9 0-13.52a6.86 6.86 0 0 1 6.78-6.78h119.39c2.77 0 5.42.26 7.26 2.74 1.46 2 1.33 4.18 1.33 6.46v108.21a6.88 6.88 0 0 1 -6.79 6.79 1.11 1.11 0 0 0 0 2.22c5.4-.12 9-4.44 9-9.64v-107.68c0-2.47 0-4.85-1.34-7.07a9.18 9.18 0 0 0 -7.71-4.28h-120.32c-.39 0-.78 0-1.17 0a9.09 9.09 0 0 0 -8.46 7.15 25.68 25.68 0 0 0 -.19 5v90.54 16.71a9.16 9.16 0 0 0 9.06 9.3h4.11 117.05a1.11 1.11 0 0 0 0-2.25z"/><path d="m617.46 778.57h27.46v32.52h-27.46z"/><rect fill="#fff" height="126.45" rx="7.89" width="137.01" x="524.82" y="778.57"/><path d="m653.94 903.9h-106.23c-4.93 0-9.85 0-14.78 0a6.93 6.93 0 0 1 -7-7.14v-96.76c0-4.5-.08-9 0-13.52a6.86 6.86 0 0 1 6.79-6.78h119.41c2.77 0 5.42.26 7.26 2.74 1.46 2 1.33 4.18 1.33 6.46v108.21a6.87 6.87 0 0 1 -6.78 6.79 1.11 1.11 0 0 0 0 2.22c5.39-.12 9-4.44 9-9.64v-107.68c0-2.47 0-4.85-1.34-7.07a9.18 9.18 0 0 0 -7.71-4.28h-120.36c-.39 0-.78 0-1.17 0a9.09 9.09 0 0 0 -8.46 7.15 26.5 26.5 0 0 0 -.19 5v90.54 16.71a9.16 9.16 0 0 0 9.06 9.3h4.11 117.06a1.11 1.11 0 0 0 0-2.25z"/><path d="m579.59 778.57h27.46v32.52h-27.46z"/><rect height="161.67" rx="7.89" width="83.05" x="753.22" y="518.16"/><path d="m828.38 678.72h-48.18c-6.31 0-12.63.08-18.94 0a6.91 6.91 0 0 1 -6.93-7.1c0-1.3 0-2.59 0-3.89v-132.8c0-3-.05-5.92 0-8.87a6.87 6.87 0 0 1 6.78-6.79h67.15a6.93 6.93 0 0 1 6.33 4.05 10.78 10.78 0 0 1 .57 4.54v143.49c0 4-2.64 7.28-6.78 7.37a1.12 1.12 0 0 0 0 2.23 9.17 9.17 0 0 0 9-9.33c0-1.34 0-2.69 0-4v-134.28c0-3.72.71-8.73-1.34-12a9.17 9.17 0 0 0 -7.69-4.27h-66c-.52 0-1 0-1.55 0a9.13 9.13 0 0 0 -8.2 6.17 14.35 14.35 0 0 0 -.45 4.66v132.53 11.34a9.14 9.14 0 0 0 9 9.18h5.76 61.47a1.12 1.12 0 0 0 0-2.23z"/><path d="m774.88 518.16h16.65v19.71h-16.65z"/><rect fill="#fff" height="161.67" rx="7.89" width="83.05" x="718.73" y="518.16"/><path d="m793.89 678.72h-48.18c-6.31 0-12.63.08-18.94 0a6.91 6.91 0 0 1 -6.93-7.1c0-1.3 0-2.59 0-3.89v-132.8c0-3-.05-5.92 0-8.87a6.87 6.87 0 0 1 6.78-6.79h67.14a6.93 6.93 0 0 1 6.34 4.05 10.78 10.78 0 0 1 .57 4.54v143.49c0 4-2.64 7.28-6.78 7.37a1.12 1.12 0 0 0 0 2.23 9.17 9.17 0 0 0 9-9.33c0-1.34 0-2.69 0-4v-134.28c0-3.72.71-8.73-1.34-12a9.17 9.17 0 0 0 -7.69-4.27h-66c-.52 0-1 0-1.55 0a9.12 9.12 0 0 0 -8.2 6.17 14.35 14.35 0 0 0 -.45 4.66v132.53 11.34a9.14 9.14 0 0 0 9 9.18h5.75 61.48a1.12 1.12 0 0 0 0-2.23z"/><path d="m751.93 518.16h16.65v19.71h-16.65z"/><rect height="161.67" rx="7.89" width="83.05" x="658.82" y="518.16"/><path d="m734 678.72h-48.2c-6.31 0-12.63.08-18.94 0a6.91 6.91 0 0 1 -6.93-7.1v-136.69c0-3 0-5.92 0-8.87a6.88 6.88 0 0 1 6.78-6.79h67.15a6.93 6.93 0 0 1 6.33 4.05 10.78 10.78 0 0 1 .57 4.54v143.49c0 4-2.63 7.28-6.78 7.37a1.12 1.12 0 0 0 0 2.23 9.16 9.16 0 0 0 9-9.33c0-1.34 0-2.69 0-4v-134.28c0-3.72.71-8.73-1.34-12a9.17 9.17 0 0 0 -7.69-4.27h-66c-.51 0-1 0-1.55 0a9.13 9.13 0 0 0 -8.2 6.17 14.35 14.35 0 0 0 -.45 4.66v132.53 11.34a9.15 9.15 0 0 0 9 9.18h5.75 61.5a1.12 1.12 0 0 0 0-2.23z"/><path d="m680.48 518.16h16.65v19.71h-16.65z"/><rect fill="#fff" height="161.67" rx="7.89" width="83.05" x="624.33" y="518.16"/><path d="m699.49 678.72h-48.18c-6.31 0-12.63.08-18.94 0a6.91 6.91 0 0 1 -6.93-7.1c0-1.3 0-2.59 0-3.89v-132.8c0-3-.05-5.92 0-8.87a6.87 6.87 0 0 1 6.78-6.79h67.15a6.93 6.93 0 0 1 6.33 4.05 10.78 10.78 0 0 1 .57 4.54v143.49c0 4-2.64 7.28-6.78 7.37a1.12 1.12 0 0 0 0 2.23 9.17 9.17 0 0 0 9-9.33c0-1.34 0-2.69 0-4v-134.28c0-3.72.71-8.73-1.34-12a9.17 9.17 0 0 0 -7.69-4.27h-66c-.52 0-1 0-1.55 0a9.13 9.13 0 0 0 -8.2 6.17 14.35 14.35 0 0 0 -.45 4.66v132.53 11.34a9.14 9.14 0 0 0 9 9.18h5.76 61.47a1.12 1.12 0 0 0 0-2.23z"/><path d="m657.53 518.16h16.65v19.71h-16.65z"/><rect height="161.67" rx="7.89" width="83.05" x="564.42" y="518.16"/><path d="m639.58 678.72h-48.18c-6.31 0-12.63.08-18.94 0a6.91 6.91 0 0 1 -6.93-7.1v-136.69c0-3 0-5.92 0-8.87a6.88 6.88 0 0 1 6.78-6.79h67.15a6.91 6.91 0 0 1 6.33 4.05 10.78 10.78 0 0 1 .57 4.54v143.49c0 4-2.63 7.28-6.78 7.37a1.12 1.12 0 0 0 0 2.23 9.16 9.16 0 0 0 9-9.33c0-1.34 0-2.69 0-4v-134.28c0-3.72.71-8.73-1.34-12a9.17 9.17 0 0 0 -7.69-4.27h-66c-.51 0-1 0-1.55 0a9.13 9.13 0 0 0 -8.2 6.17 14.35 14.35 0 0 0 -.45 4.66v132.53 11.34a9.15 9.15 0 0 0 9.05 9.18h5.75 61.47a1.12 1.12 0 0 0 -.04-2.23z"/><path d="m586.09 518.16h16.65v19.71h-16.65z"/><rect fill="#fff" height="161.67" rx="7.89" width="83.05" x="529.93" y="518.16"/><path d="m605.09 678.72h-48.18c-6.31 0-12.63.08-18.94 0a6.91 6.91 0 0 1 -6.93-7.1v-136.69c0-3 0-5.92 0-8.87a6.88 6.88 0 0 1 6.78-6.79h67.18a6.93 6.93 0 0 1 6.33 4.05 10.78 10.78 0 0 1 .57 4.54v143.49c0 4-2.63 7.28-6.78 7.37a1.12 1.12 0 0 0 0 2.23 9.16 9.16 0 0 0 9-9.33c0-1.34 0-2.69 0-4v-134.28c0-3.72.71-8.73-1.34-12a9.17 9.17 0 0 0 -7.69-4.27h-66.09c-.51 0-1 0-1.55 0a9.13 9.13 0 0 0 -8.2 6.17 14.35 14.35 0 0 0 -.45 4.66v132.53 11.34a9.15 9.15 0 0 0 9 9.18h5.75 61.47a1.12 1.12 0 0 0 .07-2.23z"/><path d="m563.13 518.16h16.65v19.71h-16.65z"/><rect height="161.74" rx="7.89" width="175.25" x="597.78" y="291.64"/><path d="m765.13 452.27h-159a7 7 0 0 1 -7.28-7.28v-126.46c0-6.3-.1-12.6 0-18.9a6.87 6.87 0 0 1 6.78-6.88h156.65c2.82 0 5.57-.18 7.76 2.1s1.87 5.13 1.87 7.95v140.86 1.72a6.87 6.87 0 0 1 -6.78 6.89 1.11 1.11 0 0 0 0 2.22 9.13 9.13 0 0 0 9-9c0-.47 0-.94 0-1.42v-141.51c0-3 .12-5.93-1.89-8.53a9.21 9.21 0 0 0 -7.37-3.5h-158.18c-.57 0-1.15 0-1.72 0a9.12 9.12 0 0 0 -8.31 9v5.15 118.75 21.65a9.19 9.19 0 0 0 9.28 9.41h159.19a1.11 1.11 0 0 0 0-2.22z"/><path d="m584.8 291.64h35.13v41.6h-35.13z"/><rect fill="#fff" height="161.74" rx="7.89" width="175.25" x="466.31" y="291.64"/><path d="m633.66 452.27h-159a7 7 0 0 1 -7.28-7.28v-126.46c0-6.3-.1-12.6 0-18.9a6.87 6.87 0 0 1 6.78-6.88h156.65c2.82 0 5.57-.18 7.76 2.1s1.87 5.13 1.87 7.95v140.86 1.72a6.87 6.87 0 0 1 -6.78 6.89 1.11 1.11 0 0 0 0 2.22 9.13 9.13 0 0 0 9-9c0-.47 0-.94 0-1.42v-141.51c0-3 .12-5.93-1.89-8.53a9.21 9.21 0 0 0 -7.37-3.5h-158.18c-.57 0-1.15 0-1.72 0a9.12 9.12 0 0 0 -8.31 9v5.15 118.75 21.65a9.19 9.19 0 0 0 9.28 9.41h159.19a1.11 1.11 0 0 0 0-2.22z"/><path d="m536.37 291.64h35.13v41.6h-35.13z"/><path d="m140.72 372.57-15 14.06a7 7 0 0 0 -2.38 3.35c-.44 2 .83 3.86 2 5.52 11.39 16.73 14.76 37.42 19.53 57.09s12.08 40.22 28.35 52.25c4.14 3.06 8.85 5.56 12 9.61s4.27 10.44.69 14.15a4.59 4.59 0 0 1 -2.17 1.35c-3.28.79-5.42-3.3-6.29-6.56a46.44 46.44 0 0 1 5.55 17.61c.21 2 .19 4.27-1.27 5.63-1.8 1.67-4.92.91-6.55-.92s-2.17-4.37-2.64-6.78a16.34 16.34 0 0 1 1.53 6.43c-.09 2.22-1.35 4.55-3.48 5.18-2.35.7-4.88-.93-6-3.09s-1.27-4.7-1.36-7.15a51.32 51.32 0 0 1 .32 9.68 4.84 4.84 0 0 1 -.65 2.54c-1.47 2.08-5 .76-6.26-1.44s-1.46-4.94-2.87-7.06c1.2 3.13 1.68 7.85-1.56 8.74-1.46.4-3-.33-4.23-1.19-9.1-6.27-11-19.77-13.87-29.57-4-13.55-12.91-23.88-21.42-34.89-19.61-25.37-37.58-56.93-37.54-89.9 0-10.67 1.84-21.53 6.53-31.18 7.71-15.9 20.46-29.27 33-41.49q3.11-3 6.26-6" fill="#fff"/><path d="m152 552c-2.12.32-4.17-1.78-5.56-3.15a21.41 21.41 0 0 1 -3.2-4.08 43.6 43.6 0 0 1 -4.26-9.84c-2.31-7.35-3.65-14.89-7-21.9-3.73-7.86-9-14.83-14.39-21.63-5.51-7-10.9-14-15.8-21.46-9.91-15.05-18.23-31.38-22.51-49s-4.67-37.47 3.33-54.12c7.88-16.41 20.84-29.73 33.8-42.22 1.8-1.73 3.6-3.44 5.39-5.18 1.18-1.15-.6-2.9-1.81-1.8a285.19 285.19 0 0 0 -20.25 20.45 129 129 0 0 0 -16.54 22.35 70.24 70.24 0 0 0 -8.73 26.83 94.1 94.1 0 0 0 1.16 28.07c3.38 18.13 11.37 35.25 21 50.85 4.83 7.79 10.15 15.27 15.73 22.54 5.43 7.08 11.13 14.06 15.47 21.89a59.93 59.93 0 0 1 5.21 12.46c1 3.48 1.82 7 2.83 10.49 1.95 6.73 4.79 14.51 10.94 18.55a7 7 0 0 0 5.55 1.38c1-.26.55-1.64-.41-1.5z"/><path d="m140.17 372c-3 2.49-6 5.07-8.9 7.71-1.33 1.2-2.63 2.44-3.94 3.66a43.54 43.54 0 0 0 -3.84 3.72c-2.27 2.71-1.54 5.62.25 8.36a96.38 96.38 0 0 1 5 8.34c6.18 12 9.42 25.18 12.43 38.21 5.35 23.11 11.3 49.11 31.55 64 5.38 3.95 12.53 7.39 14 14.57.53 2.68 0 6.92-2.95 8.07s-4.56-3.6-5.1-5.59l-2.29 1a48.48 48.48 0 0 1 5.41 17c.21 1.58 2.69 1.66 2.54 0a46.18 46.18 0 0 0 -5.79-18.23 1.25 1.25 0 0 0 -2.28 1c.69 2.49 1.87 5.31 4.13 6.78s5.16.5 6.86-1.56c3.67-4.47 2.16-11.17-1.16-15.36-4.09-5.18-10.4-8-15.3-12.25a58.92 58.92 0 0 1 -11.56-14c-6.53-10.76-10.35-22.9-13.29-35.06-3.23-13.44-5.64-27.27-10.66-40.2a96.75 96.75 0 0 0 -4.68-10.32c-.94-1.75-1.93-3.46-3-5.13-1-1.5-2.26-3-2.84-4.68-.72-2.12.84-3.45 2.24-4.77l4.64-4.35q5-4.71 9.65-9.72a.78.78 0 0 0 -1.1-1.1z"/><path d="m234.85 265.11a162.3 162.3 0 0 0 -6.63 24 3.86 3.86 0 0 1 -.72 1.88 3.61 3.61 0 0 1 -2.71.88 34.48 34.48 0 0 1 -16.79-4.13 51.74 51.74 0 0 1 -13.65-10.74 102.64 102.64 0 0 0 12.32-23.75c.12-.33.15-.83-.2-.9" fill="#fff"/><path d="m234.15 264.7a84.24 84.24 0 0 0 -5 13.72c-.69 2.38-1.33 4.77-1.9 7.18-.27 1.15-.53 2.3-.77 3.46-.17.8-.7 2.09-.17 2.84a1.4 1.4 0 0 0 2.17.28 2 2 0 0 0 .56-1.3 1.38 1.38 0 0 0 -1.38-1.38c-.59 0-.83.34-1.28.64a3.66 3.66 0 0 1 -2 .38 29.58 29.58 0 0 1 -5-.36 34.69 34.69 0 0 1 -9.27-2.9 49.83 49.83 0 0 1 -14.82-11.26l.21 1.61a103.35 103.35 0 0 0 7.84-13.52c1.09-2.24 2.1-4.52 3-6.82a31.66 31.66 0 0 0 1.44-3.76 1.87 1.87 0 0 0 -.74-2.25c-1.3-.83-2.5 1.24-1.21 2.06l.19.13-.54-.71c.1.31-.36 1.1-.47 1.39-.21.56-.43 1.12-.65 1.67-.4 1-.82 2-1.26 3q-1.35 3.07-2.9 6a104.39 104.39 0 0 1 -7 11.41 1.33 1.33 0 0 0 .21 1.61 50.84 50.84 0 0 0 16.14 12.18 36.57 36.57 0 0 0 10 2.95c2.84.4 6.81 1.11 9.08-1.08l-1 .41-1.38-1.38.24-.65 2.17.28c.16.6.26.62.29.07 0-.26.11-.52.16-.79.12-.54.23-1.07.35-1.61.25-1.1.51-2.21.79-3.3.55-2.21 1.12-4.41 1.73-6.59 1.2-4.33 2.57-8.6 3.61-13 .2-.85-1.06-1.48-1.48-.62z"/><path d="m252.24 209.71a44.34 44.34 0 0 0 8.12 19.29c1.42 1.91 3 4.74 1.22 6.37a12.29 12.29 0 0 1 -1.75 1.05c-2.5 1.57-2.53 5.12-2.38 8.07.32 6.28-.12 13.33-4.7 17.64s-11.48 4.33-17.56 3.2c-16.69-3.1-32.52-14.92-36.5-31.42-1.87-7.73-1.09-15.92 1.17-23.53 1.68-5.68 4.27-11.26 8.58-15.32 7.78-7.32 20.1-8.31 30-4.38 6.8 2.7 13.34 11.69 13.77 19" fill="#fff"/><path d="m199.46 233.74a42.78 42.78 0 0 1 7.15-33.07 26.56 26.56 0 0 1 13.26-9.67 26.27 26.27 0 0 1 18.73 1.46 22 22 0 0 1 12.73 17.29c.14 1.13 1.84 1.22 1.83 0-.12-15.38-16.88-24.17-30.66-21.89-12.73 2.11-21.28 13.44-24.49 25.29a40.72 40.72 0 0 0 -.09 21c.26 1 1.74.58 1.54-.42z"/><path d="m250.44 204.32a90.3 90.3 0 0 1 -20.26 19.15 7.36 7.36 0 0 0 -7.87-3.09 6.15 6.15 0 0 0 -4.27 7c.72 3 3.67 4.75 6.36 6.21-5.34 9.11-12.33 17.13-19.27 25.09a24.23 24.23 0 0 1 -4.55 4.39c-8.81 5.92-24.62 3.61-29.15-6.73-1.7-3.87-2-8.95.83-12.38 1.06-1.3 2.74-2.64 2.24-4.24a5.26 5.26 0 0 0 -1-1.51 7.49 7.49 0 0 1 3.05-11.71c1.94-.77 4.4-.88 5.53-2.63a15 15 0 0 0 1-3.07c1-2.78 4.18-4 7-5.07a237.65 237.65 0 0 0 26.1-11.35"/><path d="m249.9 203.78a98.38 98.38 0 0 1 -20.26 18.77l1.46.38c-3.11-4.46-9.89-5.42-13.12-.53a6.73 6.73 0 0 0 -.25 7.12c1.34 2.33 3.82 3.77 6.11 5l-.41-1.53a117.77 117.77 0 0 1 -10.18 14.34c-1.84 2.26-3.73 4.47-5.63 6.67s-3.62 4.34-5.62 6.31c-5.52 5.4-14.84 6-21.67 2.9a15 15 0 0 1 -7.69-7.27 13.07 13.07 0 0 1 -1.14-6.94 8.87 8.87 0 0 1 1-3.21 31.31 31.31 0 0 1 2.33-2.94 4.25 4.25 0 0 0 1-2.84c-.09-1.32-1.07-2.1-1.74-3.13a6.28 6.28 0 0 1 .1-7c1.48-2.08 3.65-2.33 5.87-3.14a6.42 6.42 0 0 0 2.48-1.46 7.13 7.13 0 0 0 1.53-3.36c.7-2.53 3-3.69 5.32-4.57 3-1.15 6-2.23 9-3.44q9.39-3.81 18.45-8.4c1.51-.77.18-3-1.33-2.28-5.83 3-11.77 5.68-17.82 8.14-2.85 1.16-5.74 2.23-8.62 3.32a14.26 14.26 0 0 0 -5.87 3.48 7.51 7.51 0 0 0 -1.59 3.05c-.4 1.46-.69 2.44-2.19 3-2.26.86-4.45 1.16-6.26 2.94a8.76 8.76 0 0 0 -2.62 6.72 9.23 9.23 0 0 0 1 3.64c.5 1 2.11 2.17 1.63 3.3s-1.56 1.86-2.22 2.77a10.58 10.58 0 0 0 -1.67 3.64 14.57 14.57 0 0 0 .22 7.33 16.52 16.52 0 0 0 7.28 9.55 23.76 23.76 0 0 0 23.24.7 24.4 24.4 0 0 0 6.29-5.66c2.31-2.67 4.61-5.33 6.86-8.05a129.13 129.13 0 0 0 12.23-17 1.14 1.14 0 0 0 -.4-1.53c-3.05-1.64-7.51-4.41-5.45-8.51s7.37-3.44 9.73-.09a1.09 1.09 0 0 0 1.47.39 86.41 86.41 0 0 0 20.38-19.69c.51-.7-.65-1.6-1.2-.93z"/><path d="m251.45 209.71a41.8 41.8 0 0 0 4.81 15.29c1.27 2.29 3.07 4.3 4.26 6.62.44.88 1 2.14.19 3a13.47 13.47 0 0 1 -1.77 1 5.46 5.46 0 0 0 -1.13 1.07c-2.73 3.43-1.37 8.76-1.55 12.78-.2 4.64-1.37 9.7-5.28 12.64-4.49 3.38-10.52 2.93-15.79 2.38-1-.1-1.22 1.55-.24 1.8 4.87 1.27 10.4 1.37 15-.77s7.33-6.69 8.24-11.61a37.36 37.36 0 0 0 .52-7.47c-.05-2.26-.43-4.69.28-6.88a4 4 0 0 1 2.14-2.4 4.08 4.08 0 0 0 2.33-2.8c.48-2.45-1.26-4.73-2.59-6.6a48.22 48.22 0 0 1 -7.87-18.26c-.18-.87-1.69-.69-1.57.21z"/><path d="m250.07 222-.34.18a3.48 3.48 0 0 0 -.48.35 2.42 2.42 0 0 0 -.62.77 2.49 2.49 0 0 0 -.2.54 1.61 1.61 0 0 0 -.05.44 3.12 3.12 0 0 0 .05.44 1.86 1.86 0 0 0 .59 1l.25.18a.86.86 0 0 0 .44.15 1.26 1.26 0 0 0 .76-.15 1.31 1.31 0 0 0 .24-.17 1.06 1.06 0 0 0 .23-.19 2.23 2.23 0 0 0 .44-.76 1.76 1.76 0 0 0 .1-.6 1.73 1.73 0 0 0 0-.45.75.75 0 0 0 0-.16 1.31 1.31 0 0 0 -.32-.56l-.26-.19a1.18 1.18 0 0 0 -1.11-.06 1.16 1.16 0 0 0 -.66.66 1.28 1.28 0 0 0 .06 1.11l-.13-.3a.73.73 0 0 1 .05.2v-.33a1.41 1.41 0 0 1 0 .2l.05-.33a1.05 1.05 0 0 1 -.05.19l.12-.29a1 1 0 0 1 -.1.18l.19-.25a.62.62 0 0 1 -.14.14l.24-.18h1.2-.05l.25.18a.47.47 0 0 1 -.14-.14l.18.24a1 1 0 0 1 -.1-.17l.12.28a1.72 1.72 0 0 1 -.1-.39v.3a1.71 1.71 0 0 1 0-.32v.29a2 2 0 0 1 .1-.35l-.1.25a5.08 5.08 0 0 1 .55-.89l.08-.19a.59.59 0 0 0 0-.32.81.81 0 0 0 -1.21-.6z"/><path d="m224.56 225.53c.12 0 0 0-.06 0h.13-.06.1c.09 0-.15-.08 0 0l.09.05a.34.34 0 0 0 .09.08l.07.08c.07.06-.1-.16 0 0l.12.19a.3.3 0 0 0 0 .1q-.06-.15 0-.06a.08.08 0 0 1 0 .05 2.25 2.25 0 0 1 .08.24c0 .16.07.31.1.47s0 .08 0 .11 0-.21 0 0a1.79 1.79 0 0 1 0 .23v.26s0 .07 0 .11 0-.19 0 0a1.6 1.6 0 0 1 0 .21s-.07.18 0 .06 0 0 0 .05l1.18-.31c.11.09.15.12.1.07s0 0 .07.1c.06.15 0 0 0 0 0 .17 0 .21 0 .14v-.06s-.06.26 0 .1 0 .08 0 .08l-.08.11c.1-.11-.19.12-.06 0a.9.9 0 1 0 -.91-1.56 1.55 1.55 0 0 0 -.5.55 1.67 1.67 0 0 0 -.18.73 1.55 1.55 0 0 0 .69 1.25.87.87 0 0 0 1.18-.31 3.1 3.1 0 0 0 .29-1.53 5.43 5.43 0 0 0 -.27-1.39 2.71 2.71 0 0 0 -1-1.33 1.8 1.8 0 0 0 -1.52-.29.79.79 0 0 0 .41 1.52z"/><path d="m244.82 215.17h.1l-.54-.23c.48.5 1.25.27 1.84.18l1.38-.21c1-.14 1.91-.24 2.85-.45a1.07 1.07 0 0 0 .74-1.31 1.1 1.1 0 0 0 -1.31-.75c-.92.14-1.84.38-2.76.59l-1.35.29c-.51.11-1.27.19-1.51.73l.46-.35h-.1a.76.76 0 0 0 -.54.83.75.75 0 0 0 .74.65z"/><path d="m241.64 240.42a6.72 6.72 0 0 0 1.8 6.54.92.92 0 0 0 1.3-1.29 6.38 6.38 0 0 1 -.51-.53l-.06-.08-.06-.08-.21-.32c-.13-.21-.24-.43-.35-.65a1 1 0 0 0 -.07-.15c-.06-.14.05.11 0 0l-.13-.36c-.07-.22-.12-.45-.17-.67v-.21c0-.15 0 .11 0 0v-.34a5.9 5.9 0 0 1 0-.73c0-.06 0-.12 0-.18v-.08c0-.12.05-.25.07-.38a.81.81 0 0 0 -1.56-.43z"/><path d="m253.53 205.61c.38 1-.9 1.69-1.89 1.93-29.54 7.21-51.24 11.93-81.35 16.2-1.32.18-3.16 0-3.29-1.34a2.12 2.12 0 0 1 .84-1.65c1.9-1.79 4.6-2.37 7.15-2.93 8.15-1.8 8.1-2.53 15.94-5.39a10.23 10.23 0 0 0 2.87-1.43c2.22-1.76 2.47-11.39 3.17-14.14 2.1-8.19 7.16-11.78 14.7-15.61 5.82-3 12.44-4.86 19-4.5 6.41.35 11.23 3.64 16.17 7.44a15.89 15.89 0 0 1 5.43 9.29 47.54 47.54 0 0 1 .71 10.93 3.49 3.49 0 0 1 -.48 2.09" fill="#fff"/><path d="m205.29 217.91a13 13 0 0 0 -.74-1.18 22.22 22.22 0 0 0 -9.61-7.67 4.52 4.52 0 0 1 -1.14 2 10.23 10.23 0 0 1 -2.87 1.41c-7.84 2.86-7.79 3.59-15.94 5.39-2.55.56-5.25 1.14-7.15 2.93a2.12 2.12 0 0 0 -.84 1.65c.13 1.33 2 1.52 3.29 1.34 12.76-1.85 24.01-3.78 35-5.87z" fill="#8346FC"/><path d="m252.81 205.81c.15.9-4.54 1.49-5.22 1.64-2.07.46-4.13 1-6.2 1.45q-5.8 1.36-11.63 2.69-11.08 2.5-22.22 4.7t-22.46 4q-6.11 1-12.21 1.88c-1 .14-2 .35-3 .42a4 4 0 0 1 -.91 0c-.45-.07-.75-.08-.67-.52.13-.67 1.35-1.26 1.89-1.55a12.93 12.93 0 0 1 2.64-1c3-.84 6.18-1.35 9.18-2.38 2.38-.81 4.67-1.86 7-2.76 2.5-1 5.59-1.56 6.76-4.25a26.09 26.09 0 0 0 1.54-7.13 43.19 43.19 0 0 1 1-6.51 18.18 18.18 0 0 1 4.06-7.42 27.54 27.54 0 0 1 6.85-5.13 50.73 50.73 0 0 1 10.26-4.52 31.92 31.92 0 0 1 11.85-1.42 22.46 22.46 0 0 1 10 3.69c3 1.88 6.15 3.95 7.94 7.07 2 3.44 2.48 7.44 2.58 11.34v2.87a6 6 0 0 1 -.32 2.93 1.18 1.18 0 0 0 2 1.19c1-1.63.68-4 .67-5.79a42.22 42.22 0 0 0 -.5-6.74 18.53 18.53 0 0 0 -4.83-10.19 33.05 33.05 0 0 0 -4.54-3.53 35.18 35.18 0 0 0 -4.93-3 23.81 23.81 0 0 0 -11.39-2.3c-8 .29-15.83 3.49-22.45 7.84-5 3.29-8.92 8.16-9.89 14.21-.44 2.66-.6 5.37-1.07 8a16 16 0 0 1 -.91 3.54c-.59 1.35-2 1.74-3.27 2.23-2.84 1-5.6 2.29-8.44 3.32-3.19 1.15-6.52 1.69-9.78 2.59-2.24.61-8.44 3.23-5.8 6.51.91 1.12 2.58 1.25 3.91 1.09 2.25-.25 4.5-.64 6.74-1q12.78-1.91 25.49-4.3 12.15-2.32 24.21-5.07 6.28-1.42 12.56-2.93l6.55-1.57a47.32 47.32 0 0 0 6.45-1.78c1.2-.49 2.38-1.44 2-2.87a.75.75 0 0 0 -1.45.4z"/><path d="m198 270.39a55.31 55.31 0 0 0 -10.09 5.05 3.41 3.41 0 0 0 -1.39 1.35c-.44 1 .12 2.12.67 3a122 122 0 0 0 9.14 13.27c2.36 3 5.12 6 8.83 6.82a3.5 3.5 0 0 0 1.64.05 4.5 4.5 0 0 0 1.59-.93l8.13-6.44a1 1 0 0 1 1.69.27c1.26 1.94 2.44 3.95 3.52 6 .42.78.9 1.65 1.75 1.89 1.54.44 2.7-1.38 3.26-2.88l2-5.26c.1-.26.23-.55.49-.63s.61.16.84.38a29.46 29.46 0 0 0 6 4.4c.9.5 2.18.88 2.82.08a2.25 2.25 0 0 0 .37-1.09 28.47 28.47 0 0 0 -.36-11.63 16.3 16.3 0 0 0 -6.48-9.46 96.06 96.06 0 0 1 -8.09 15.84l-17.45-12.11c-1.84-1.29-3.69-2.57-5.44-4q-1.83-1.36-3.44-2.86"/><path d="m197.75 269.62a47.78 47.78 0 0 0 -6.08 2.47c-1.8.9-4.07 1.85-5.52 3.29s-1 3.29-.09 4.86c1.11 2 2.39 3.93 3.66 5.83a84.86 84.86 0 0 0 7.79 10.3c2.21 2.39 6.35 5.92 9.92 4.65a8.08 8.08 0 0 0 2.16-1.42l3.1-2.45 2.72-2.14c.45-.36.9-.72 1.36-1.07.22-.18.77-.31.48-.46s.37.83.35.8c1.16 1.85 2.16 3.79 3.26 5.67.83 1.42 2.21 2.51 3.92 2s2.49-2.14 3.07-3.57c.4-1 .76-2 1.13-3 .2-.51.39-1 .58-1.53a5.38 5.38 0 0 0 .32-.84l-.76.27.32.3a11 11 0 0 0 2.42 2 29.33 29.33 0 0 0 2.71 1.84c1.33.8 3.15 1.72 4.64.73a3.3 3.3 0 0 0 1.23-2.51 38.28 38.28 0 0 0 .37-3.85 26.64 26.64 0 0 0 -.67-7.55 17.92 17.92 0 0 0 -7.14-10.67 1.31 1.31 0 0 0 -1.9.77 97.1 97.1 0 0 1 -8 15.52l1.78-.47-13.39-9.3c-4.31-3-8.74-5.87-12.54-9.52-1.23-1.18-3.1.69-1.87 1.87 3.85 3.69 8.32 6.6 12.68 9.63l13.8 9.57a1.33 1.33 0 0 0 1.79-.47 100.31 100.31 0 0 0 8.2-16.14l-1.9.77a14.79 14.79 0 0 1 5.68 7.93 21.9 21.9 0 0 1 1 6q0 1.41-.06 2.82a11.23 11.23 0 0 1 -.34 3.12c-.17.43-.07.42-.55.36a2.87 2.87 0 0 1 -.93-.41 26.81 26.81 0 0 1 -4.54-3.21 6.93 6.93 0 0 0 -1.91-1.51c-1.81-.65-2.41 1.24-2.9 2.53a31.5 31.5 0 0 1 -2 5.09c-.24.41-.7 1.2-1.28 1.09s-1.08-1.46-1.33-1.93c-.93-1.7-1.9-3.37-3-5-.91-1.39-2.09-2.17-3.62-1.09s-3.14 2.49-4.69 3.73l-2.32 1.84a7.6 7.6 0 0 1 -2.41 1.7c-1.51.37-3.57-1-4.72-1.8-2.9-2.12-5.1-5.3-7.21-8.17-1.27-1.73-2.5-3.5-3.68-5.29-.59-.9-1.17-1.81-1.73-2.72a10.62 10.62 0 0 1 -1.57-2.8c-.31-1.29 1.3-2 2.22-2.52s1.82-1.08 2.74-1.58c1.92-1 3.87-2 5.87-2.86.83-.35.24-1.75-.61-1.46z"/><path d="m178.49 279.43a218.41 218.41 0 0 0 -73.4 50.57c-1.47 1.54-3 3.29-3.17 5.42a9.2 9.2 0 0 0 1.22 4.56 125.73 125.73 0 0 0 22.6 33.08c3.15 3.31 6.91 6.65 11.48 6.83 3.86.16 7.4-2 10.63-4.11a467.91 467.91 0 0 0 39.93-29.24 11.55 11.55 0 0 0 3.63-4.12c.72-1.7.42-4-1.16-4.95" fill="#8346FC"/><path d="m178.24 278.55a203 203 0 0 0 -39.85 21.45 215.57 215.57 0 0 0 -34.39 29.24c-2.58 2.73-4.26 5.72-2.86 9.51a72.53 72.53 0 0 0 5.25 10.46 127.94 127.94 0 0 0 13.15 18.93 77.66 77.66 0 0 0 7.87 8.45c2.61 2.32 5.64 4.25 9.18 4.6 3.85.38 7.47-1.45 10.62-3.43 3.52-2.21 6.95-4.57 10.37-6.92q10.48-7.21 20.58-15c3.29-2.54 6.56-5.12 9.78-7.74 2.53-2.06 5.45-4.47 5.09-8.09a4.75 4.75 0 0 0 -2.16-3.63c-1.39-.93-2.63 1.27-1.3 2.22 1.1.78 1 2.44.5 3.53-.74 1.59-2.3 2.72-3.63 3.8q-4.6 3.76-9.31 7.4-9.28 7.19-18.93 13.88-4.87 3.39-9.85 6.67c-2.87 1.89-5.91 4.1-9.4 4.62s-6.76-1.25-9.37-3.5a71.43 71.43 0 0 1 -7.33-7.73 123.88 123.88 0 0 1 -12.49-17.5q-2.78-4.71-5.14-9.64c-.75-1.57-1.72-3.33-1.34-5.12.34-1.62 1.61-2.92 2.7-4.07a212.65 212.65 0 0 1 31.87-27.6 238.13 238.13 0 0 1 41.15-23.12c.93-.42.26-2.06-.71-1.67z" fill="#8346FC"/><path d="m152.88 541.53a9.55 9.55 0 0 0 .46 3.17 15.51 15.51 0 0 0 1.17 3 14.55 14.55 0 0 0 4 5c.84.64 1.77-.7 1.09-1.42a20.15 20.15 0 0 1 -3.45-4.55 17.66 17.66 0 0 1 -1-2.55c-.31-1-.42-2-.71-2.89a.77.77 0 0 0 -1.5.2z"/><path d="m162.54 539.06a33.08 33.08 0 0 0 2 7c.76 1.82 1.63 4.24 3.68 4.93a.92.92 0 0 0 .71-1.67c-1.6-.89-2.27-2.8-2.93-4.41a45.14 45.14 0 0 1 -2-6.21c-.24-.95-1.63-.54-1.45.4z"/><path d="m171.59 537.42a11.3 11.3 0 0 1 1.07 2.11l1.06 2.2c.74 1.51 1.46 3 2.24 4.53a1 1 0 0 0 1.35.35 1 1 0 0 0 .35-1.34c-.77-1.56-1.6-3.1-2.41-4.64l-1.25-2.31a7.29 7.29 0 0 0 -1.38-2c-.72-.68-1.66.33-1.06 1.07z"/><path d="m140.15 380.78c5.42-3 10.67-6.32 15.88-9.68s10.46-6.5 15.15-10.38c.84-.7-.24-2-1.15-1.5-5.25 3.11-10.15 6.89-15.23 10.25s-10.3 6.64-15.41 10a.75.75 0 0 0 .76 1.3z"/><path d="m270.58 332c3.39 7.55 3.32 16.08 2.08 24.11-.63 4.1-1.55 8.15-2.46 12.19-1 4.29-2.22 8.61-2.79 13-.15 1.18 1.67 1.31 2 .27 1.42-4.39 2.14-9.1 3.14-13.6.94-4.25 1.87-8.5 2.44-12.81 1.08-8.09.67-16.52-3.09-23.9-.45-.89-1.72-.11-1.32.77z"/><path d="m270.75 388c13.35 9.54 29.22 16.17 45.67 17.41 14.86 1.12 29.62-2.8 42.58-10a103.53 103.53 0 0 0 32.75-29.23c10.28-13.92 17.16-30 26.75-44.32 2.29-3.43 4.7-6.76 8.26-9s7.05-3.64 10.06-6.41a54.06 54.06 0 0 0 4.27-4.55 24.07 24.07 0 0 0 3.38-4.53c1.47-2.9 1-6.63-2.31-7.95a3.57 3.57 0 0 0 -3.69.59c-1.13.88.45 2.44 1.57 1.57s2.71.72 3 1.74c.52 1.8-.86 3.76-1.91 5.08a42.15 42.15 0 0 1 -8.13 8.4c-3.07 2.18-6.69 3.45-9.63 5.83s-5.08 5.59-7.14 8.71c-9 13.63-15.68 28.67-25.23 42a103.46 103.46 0 0 1 -30.59 28.38c-11.9 7.12-25.49 11.46-39.43 11.39-15.69-.07-30.91-5.63-44.31-13.53-1.68-1-3.36-2-5-3-1-.61-1.77.86-.88 1.5z"/><path d="m300.22 334.26a86.94 86.94 0 0 0 14.89 12.74c2.54 1.7 5.48 4 8.69 4 3 0 6-1.92 8.59-3.23a196.89 196.89 0 0 0 31.35-20.21c19.8-15.22 37.8-32.7 58.2-47.15 5.85-4.14 12.11-8.26 19.3-9.5 7.92-1.36 15.67 1.76 22.89 4.62 1.24.49 1.75-1.49.55-2-6.3-2.58-12.87-5.17-19.79-5.07-6.3.09-12.21 2.61-17.53 5.82a166.7 166.7 0 0 0 -15.53 11c-4.83 3.72-9.55 7.57-14.22 11.48-19 15.89-37.35 32.89-58.91 45.3q-4.5 2.6-9.16 4.9c-1.66.81-3.41 1.87-5.29 2-2.05.21-3.92-1-5.6-2a92 92 0 0 1 -17.37-13.84c-.68-.69-1.72.36-1.06 1.07z"/><path d="m446.5 279.44a18.28 18.28 0 0 1 2.85 3.92 8 8 0 0 1 .84 1.9 1.28 1.28 0 0 1 0 .3v.18.08.16.07c0-.05.19-.09 0 0a.83.83 0 0 0 .44 1.6 1.86 1.86 0 0 0 1.35-1.87 5.48 5.48 0 0 0 -.79-2.5 20.22 20.22 0 0 0 -3.6-4.87.76.76 0 0 0 -1.07 1.07z"/><path d="m448.8 294.59a.87.87 0 0 0 0-1.73.87.87 0 0 0 0 1.73z"/><g fill="#8346FC"><path d="m487.27 227.57h423.51v19.88h-423.51z"/><path d="m910.78 245.22h-406.32c-5.45 0-11-.36-16.47 0-.24 0-.48 0-.72 0l2.22 2.23v-19.88l-2.22 2.22h406.31c5.45 0 11 .37 16.48 0h.72l-2.23-2.22v19.88c0 2.86 4.45 2.86 4.45 0v-19.88a2.25 2.25 0 0 0 -2.22-2.22h-406.32c-5.49 0-11-.11-16.47 0h-.72a2.25 2.25 0 0 0 -2.22 2.22v19.88a2.25 2.25 0 0 0 2.22 2.22h406.31c5.49 0 11 .1 16.48 0h.72c2.86 0 2.86-4.45 0-4.45z"/><path d="m487.27 453.38h423.51v19.88h-423.51z"/><path d="m910.78 471h-406.32c-5.45 0-11-.37-16.47 0h-.72l2.22 2.22v-19.84l-2.22 2.23h406.31c5.45 0 11 .36 16.48 0h.72l-2.23-2.23v19.88c0 2.86 4.45 2.87 4.45 0v-19.88a2.25 2.25 0 0 0 -2.22-2.22h-406.32c-5.49 0-11-.11-16.47 0h-.72a2.25 2.25 0 0 0 -2.22 2.22v19.88a2.25 2.25 0 0 0 2.22 2.22h406.31c5.49 0 11 .11 16.48 0h.72c2.86 0 2.86-4.48 0-4.48z"/><path d="m487.27 679.2h423.51v19.88h-423.51z"/><path d="m910.78 696.85h-406.32c-5.45 0-11-.36-16.47 0-.24 0-.48 0-.72 0l2.22 2.22v-19.87l-2.22 2.22h406.31c5.45 0 11 .36 16.48 0h.72l-2.23-2.22v19.87c0 2.87 4.45 2.87 4.45 0v-19.87a2.26 2.26 0 0 0 -2.22-2.23h-406.32c-5.49 0-11-.1-16.47 0h-.72a2.26 2.26 0 0 0 -2.22 2.23v19.87a2.25 2.25 0 0 0 2.22 2.23h406.31c5.49 0 11 .1 16.48 0h.72c2.86 0 2.86-4.45 0-4.45z"/><path d="m487.27 905.01h423.51v19.88h-423.51z"/><path d="m910.78 922.67h-406.32c-5.45 0-11-.37-16.47 0h-.72l2.22 2.22v-19.89l-2.22 2.22h406.31c5.45 0 11 .37 16.48 0h.72l-2.23-2.22v19.88c0 2.86 4.45 2.86 4.45 0v-19.88a2.25 2.25 0 0 0 -2.22-2.22h-406.32c-5.49 0-11-.11-16.47 0h-.72a2.25 2.25 0 0 0 -2.22 2.22v19.88a2.25 2.25 0 0 0 2.22 2.22h406.31c5.49 0 11 .11 16.48 0h.72c2.86.01 2.86-4.43 0-4.43z"/></g><path d="m975 924.89h-74.44v-817.3a16.73 16.73 0 0 1 16.73-16.74h41a16.73 16.73 0 0 1 16.71 16.74z"/><path d="m975 922.67h-74.44l2.22 2.22v-814c0-1 0-2 0-3 .23-8.3 6.16-14.55 14.54-14.88 7.07-.28 14.21 0 21.29 0s14.61-.8 21.62.15c7.59 1 12.37 7.49 12.55 14.86v3.22 813.65c0 2.86 4.44 2.86 4.44 0v-815.15c0-11.21-7-20.76-19-21.11-7.22-.21-14.48 0-21.71 0-7.06 0-14.48-.68-21.51.15-11.14 1.31-16.69 11-16.69 21.26v814.85a2.26 2.26 0 0 0 2.23 2.22h74.46c2.86 0 2.87-4.44 0-4.44z"/><g fill="#fff"><path d="m931.57 135.19h12.41v12.41h-12.41z" transform="matrix(.70710678 -.70710678 .70710678 .70710678 174.69 704.52)"/><path d="m931.57 203.84h12.41v12.41h-12.41z" transform="matrix(.70710678 -.70710678 .70710678 .70710678 126.14 724.63)"/><path d="m931.57 272.5h12.41v12.41h-12.41z" transform="matrix(.70710678 -.70710678 .70710678 .70710678 77.6 744.74)"/><path d="m931.57 341.15h12.41v12.41h-12.41z" transform="matrix(.70710678 -.70710678 .70710678 .70710678 29.05 764.85)"/><path d="m931.57 409.8h12.41v12.41h-12.41z" transform="matrix(.70710678 -.70710678 .70710678 .70710678 -19.49 784.95)"/><path d="m931.57 478.46h12.41v12.41h-12.41z" transform="matrix(.70710678 -.70710678 .70710678 .70710678 -68.04 805.06)"/><path d="m931.57 547.11h12.41v12.41h-12.41z" transform="matrix(.70710678 -.70710678 .70710678 .70710678 -116.58 825.17)"/><path d="m931.57 615.77h12.41v12.41h-12.41z" transform="matrix(.70710678 -.70710678 .70710678 .70710678 -165.13 845.28)"/><path d="m931.57 684.42h12.41v12.41h-12.41z" transform="matrix(.70710678 -.70710678 .70710678 .70710678 -213.68 865.39)"/><path d="m931.57 753.07h12.41v12.41h-12.41z" transform="matrix(.70710678 -.70710678 .70710678 .70710678 -262.22 885.5)"/><path d="m931.57 821.73h12.41v12.41h-12.41z" transform="matrix(.70710678 -.70710678 .70710678 .70710678 -310.77 905.6)"/></g><g fill="#8346FC"><path d="m231.29 524.76a159.16 159.16 0 0 1 -.74 41.14c-.17 1.13 1.55 1.61 1.72.48a154.69 154.69 0 0 0 .57-41.62c-.12-1-1.66-1-1.55 0z"/><path d="m38.09 871.61a1.12 1.12 0 0 1 -1 .29.94.94 0 0 0 -.5 1.82 109.86 109.86 0 0 0 23.57 6.28 21.94 21.94 0 0 1 4.9.9c2.14.87 1.24 2.66 1.26 4.48a3.66 3.66 0 0 0 2 3.34c1.46.62 2.54-.36 3.43-1.4a9.87 9.87 0 0 1 9.82-3.18 1.15 1.15 0 0 0 .61-2.21 12.29 12.29 0 0 0 -8.91 1.19 13 13 0 0 0 -3.48 3c-.19.22-.36.54-.67.44s-.41-.75-.44-1c-.12-.95.27-1.93.23-2.89-.13-3.29-3.38-4.18-6.09-4.54a118.87 118.87 0 0 1 -12.42-2.26 136 136 0 0 1 -13.29-3.94l-.25 1.85a3 3 0 0 0 2.18-1c.56-.6-.18-1.68-.92-1.19z"/><path d="m299.23 890.1c10.38 1.11 20.32-2.53 30-5.66a17.45 17.45 0 0 1 6-1.32 3.71 3.71 0 0 1 2.22.67 8.09 8.09 0 0 1 1.4 2.4c.77 1.31 2.33 2.19 3.63.94 1.11-1.07.84-2.76 2.16-3.75 2.82-2.1 6.8-2 8.84-5.19.76-1.22-1.14-2.31-1.92-1.12-1.62 2.46-5.26 2.65-7.62 4.09a5.78 5.78 0 0 0 -2.56 3.13c-.09.29-.1.83-.29 1.05s-.18.15-.41-.22a22 22 0 0 0 -1.28-2.27c-2.26-2.77-6.51-1.66-9.39-.73-4.74 1.53-9.43 3.22-14.25 4.5a48.28 48.28 0 0 1 -16.59 1.84c-1.07-.1-1 1.53 0 1.64z"/></g></svg>