<?xml version="1.0" ?><svg viewBox="0 0 1000 1000" xmlns="http://www.w3.org/2000/svg"><path d="m567.54 529.54c45.65 22.09 92.45 42 136.75 66.65s86.45 54.61 118.8 93.68c7.8-51.33-16.26-101.92-20-153.71-.9-12.7-.17-26.62 8.09-36.3 2-2.4 4.52-4.49 5.9-7.32 2.26-4.61-5.65-10.42-4.93-15.5 1.19-8.45 14.33-15.14 21.76-19.32s15.94-6 24.28-7.73c9.08-1.89 18.61-3.77 27.49-1.1s16.61 11.57 14.6 20.62c9.21-2.21 19 2.73 25 10s9.26 16.45 12.16 25.46c22.47 69.3 37.56 141.52 37.56 214.35 0 25-2.27 51.41-16.65 71.85-12.44 17.69-32.71 28.7-53.72 33.83s-42.93 5-64.54 4.08c-56.46-2.29-113.64-9.33-165.62-31.5" fill="#8346FC"/><path d="m567.2 530.11c37.63 18.36 76 35.23 113.17 54.49 34.11 17.66 67.28 37.53 97 62a332.45 332.45 0 0 1 44.8 44.21 1.27 1.27 0 0 0 2.12-.56c6.94-46.75-11.46-91.85-18.1-137.49-1.58-10.9-3-22.32-1.58-33.31a38.87 38.87 0 0 1 4.62-14.56 33.79 33.79 0 0 1 4.69-6.1c1.64-1.77 3.54-3.66 4.44-5.95 1.35-3.39-1-6.76-2.7-9.55a13.81 13.81 0 0 1 -2.21-4.88c-.29-2 .82-4.11 1.94-5.7 2.46-3.5 6.16-6.09 9.71-8.36a122.71 122.71 0 0 1 11.42-6.52c6-3 12.64-4.57 19.18-6s13-2.9 19.71-3c6.39-.08 12.8 1.32 17.72 5.61 4.2 3.67 7.07 9 5.94 14.72a1.31 1.31 0 0 0 1.59 1.58c9.65-2.14 19.16 3.51 24.84 11 6.17 8.19 9 18.35 12 28q10 31.56 17.69 63.76c10.2 43 16.84 86.85 18.09 131 .57 20.05.74 40.71-4.52 60.22a81.31 81.31 0 0 1 -11.67 25.69 75.5 75.5 0 0 1 -19.9 19.14c-16.54 11.07-36.06 16.09-55.7 17.78-21.84 1.89-44 .51-65.85-1-42.57-2.93-85.3-9.4-125.52-24.15q-7.56-2.78-15-5.93c-1.73-.73-3.23 1.8-1.49 2.54 40.58 17.25 84.35 25.39 128.09 29.21 22.28 1.94 44.88 3.43 67.24 2.7 20.68-.67 41.56-4 60.17-13.44 16.89-8.55 30.59-21.93 38.06-39.46 7.78-18.27 9.1-38.57 9.15-58.2.1-45.6-5.79-91.07-15.64-135.55-4.94-22.31-10.9-44.37-17.63-66.19-3.1-10-5.91-20.46-10.64-29.88-4.2-8.34-10.64-15.69-19.62-18.91a23 23 0 0 0 -12.92-.86l1.58 1.58c1.91-9.59-5.25-18.24-13.82-21.61-11.21-4.4-24.36-.79-35.58 1.76a74.65 74.65 0 0 0 -16.92 5.59 123.94 123.94 0 0 0 -11.89 6.83c-5.8 3.76-15 10.59-11.7 18.64a43.86 43.86 0 0 0 2.88 5.19c1 1.65 2.24 3.69 1.5 5.65-1 2.56-3.5 4.56-5.26 6.56a32 32 0 0 0 -4.46 6.48c-4.71 9.14-5.14 19.88-4.52 29.94 1.52 24.56 7.74 48.54 13.07 72.46 6 26.9 11.12 54.61 7 82.2l2.23-.48c-24-29-53.41-52.94-84.92-73.3-33.9-21.91-70.22-39.75-106.77-56.73-21.48-10-43.07-19.73-64.43-30-.76-.36-1.43.77-.67 1.14z" fill="#8346FC"/><path d="m737.61 709.24c-4.36-37-17.3-73.85-44.05-100.69-13.72-13.77-30-24.65-46.44-34.91-18.64-11.64-37.42-23.04-56.12-34.55l-64.7-39.78a.92.92 0 0 0 -.91 0l-47.76 28.59-4.63 2.79c-.3.18-2 .92-2.12 1.27s.71.15.68 0-.66-.38-.78-.46c-1.07-.76-2.29-1.38-3.42-2l-28-16.77-22.36-13.42a.92.92 0 0 0 -.91 0q-58.44 36-116.89 71.9c-16.75 10.35-33.46 21.12-47.75 34.78a142.2 142.2 0 0 0 -32.38 47.33c-16.53 38.79-17.65 81.61-15.14 123.09q1 16.94 2.55 33.86c.33 3.7 1.06 7.38 4.73 9.13 4 1.94 9.42 1.85 13.79 2.37q33.6 4 67.43 5.2 34.07 1.21 68.15-.39 16.9-.8 33.75-2.29c10.15-.9 20.28-2.41 30.46-3 4.92-.28 9.85-.41 14.78-.49l-.87-.66.3 1.86a.89.89 0 0 0 .87.66 293.78 293.78 0 0 1 62.56 0 .89.89 0 0 0 .86-.66c.13-.6.25-1.21.36-1.81l-.86.66c21.39.37 42.57 3.53 63.91 4.93q34.53 2.26 69.18 1.62t69.06-4.2q8.79-.9 17.58-2c3.71-.46 8.43-.5 11.09-3.56s2.37-8.6 2.69-12.51q.74-8.85 1.39-17.71c1.89-26 2.83-52.16-.12-78.12-.13-1.14-1.93-1.15-1.8 0 2.54 22.3 2.21 44.79.86 67.17-.68 11.12-1.57 22.23-2.51 33.34-.24 2.83-.44 6.12-3.19 7.74-2.45 1.44-5.66 1.51-8.41 1.85q-8.26 1-16.55 1.91a822.72 822.72 0 0 1 -133.55 3c-23.25-1.36-46.34-4.89-69.63-5.29a.9.9 0 0 0 -.87.66l-.36 1.82.87-.66a292 292 0 0 0 -62.56 0l.86.66c-.12-.61-.24-1.21-.35-1.82a.91.91 0 0 0 -.87-.66c-12.44.22-24.59 1.5-36.95 2.72q-20.72 2-41.52 3a825.15 825.15 0 0 1 -84.26-.29q-21-1.15-42-3.39c-3.28-.35-6.55-.72-9.83-1.11-3.68-.43-7.63-.57-11.22-1.55-4-1.1-5.09-3.91-5.46-7.75-.35-3.6-.6-7.21-.89-10.81-2.27-28.05-4.08-56.31-1.49-84.4 2.26-24.59 8.07-49.17 19.36-71.25a136.86 136.86 0 0 1 20.37-29.74 178.18 178.18 0 0 1 28.54-24.77c10.15-7.25 20.77-13.8 31.39-20.33l36.45-22.35 72.33-44.48c.1-.06 2.39-1.61 1.83-1.63.09 0 .18.15.27.17a5.57 5.57 0 0 1 1.3.77l5 3 15.76 9.43 30.44 18.22 1.87 1.13a.92.92 0 0 0 .91 0l31-18.54 18.58-11.12c1.37-.82 3.16-2.42 4.72-2.83.1 0 .24-.21.35-.21-.56 0 1.73 1.57 1.83 1.63l11.68 7.19 87.14 53.59c26 16 53.57 31.52 73.39 55.28 21.12 25.4 31.6 58.15 35.41 90.64.13 1.13 1.94 1.15 1.8 0z"/><path d="m736.71 709.24c-3.88-33.52-14.94-67-36.92-92.65-17.19-20-40.06-34.17-62.54-48l-111.4-68.51-54.66 32.72-54.66-32.72-111.4 68.52c-22.49 13.82-45.35 28-62.55 48-22 25.6-33 59.13-36.92 92.65s-1.09 67.4 1.7 101c.2 2.39.47 5 2.07 6.77 1.76 2 4.65 2.47 7.29 2.81a821.55 821.55 0 0 0 201.4 1.08c4.66-.55 12.41-.88 21.43-1 .12.6.23 1.21.36 1.81 6.29-.79 18.19-1.37 31.28-1.67 13.09.3 25 .88 31.28 1.67l.36-1.81c9 .15 16.76.48 21.43 1a821.47 821.47 0 0 0 201.39-1.08c2.65-.34 5.53-.82 7.3-2.81 1.59-1.8 1.86-4.38 2.06-6.77 2.79-33.61 5.58-67.5 1.7-101.01z" fill="#8346FC"/><path d="m738.51 709.24c-4.39-37.26-17.39-74.31-44.31-101.32-13.78-13.83-30.13-24.76-46.63-35-18.63-11.64-37.41-23-56.13-34.55l-64.68-39.78a1.8 1.8 0 0 0 -1.82 0l-47.76 28.59-6.9 4.13h1.82l-47.77-28.59-6.9-4.13a1.78 1.78 0 0 0 -1.81 0q-58.46 35.94-116.9 71.89c-16.8 10.39-33.59 21.21-47.93 34.92a142.86 142.86 0 0 0 -32.52 47.52c-16.61 38.88-17.78 81.84-15.27 123.49q1 16.94 2.55 33.86c.36 4 1.21 8 5.17 9.91 4.2 2 9.7 2 14.25 2.49q33.6 4 67.43 5.2 34.07 1.21 68.15-.39 16.9-.79 33.75-2.29c10.15-.9 20.28-2.41 30.46-3 4.92-.28 9.85-.41 14.78-.49l-1.74-1.32.36 1.81a1.8 1.8 0 0 0 1.74 1.32 293.78 293.78 0 0 1 62.56 0 1.78 1.78 0 0 0 1.73-1.32l.36-1.81-1.73 1.32c21.39.37 42.57 3.53 63.91 4.93q34.53 2.26 69.18 1.62t69.06-4.2q8.79-.91 17.58-2c4-.5 8.94-.59 11.8-3.91s2.54-8.9 2.88-13.06q.74-8.85 1.39-17.71c1.89-26 2.83-52.16-.12-78.12-.26-2.28-3.86-2.3-3.6 0 2.54 22.3 2.21 44.79.86 67.17-.68 11.12-1.57 22.23-2.51 33.34-.22 2.54-.34 5.45-2.74 7-2.24 1.4-5.43 1.42-8 1.74q-8.26 1-16.55 1.9a822.72 822.72 0 0 1 -133.55 3c-23.25-1.36-46.34-4.88-69.63-5.29a1.82 1.82 0 0 0 -1.74 1.32l-.36 1.82 1.74-1.32a292 292 0 0 0 -62.56 0l1.73 1.32-.36-1.82a1.82 1.82 0 0 0 -1.73-1.32c-20.19.35-40.16 3.28-60.28 4.69q-33 2.31-66 2t-66-3.34q-8-.74-16.05-1.62c-5.42-.6-11.06-.91-16.4-2.06-2.75-.58-4.62-1.86-5.28-4.72a58.49 58.49 0 0 1 -.78-7.94c-.46-5.56-.91-11.11-1.31-16.67-3-41.28-3.83-83.79 10-123.38 6.27-18 15.54-35 28.27-49.23 13.15-14.66 29.33-26.11 45.86-36.62 36.84-23.42 74.35-45.82 111.53-68.69l14.37-8.84h-1.81l47.76 28.59 6.9 4.13a1.8 1.8 0 0 0 1.82 0l47.76-28.59 6.9-4.13h-1.82l112.19 69c16.33 10 32.76 20.21 47.18 32.93a139.68 139.68 0 0 1 33.77 44.67c9.16 19.12 14.36 40 16.83 61 .27 2.22 3.87 2.25 3.6-.05z" fill="#8346FC"/><path d="m285.52 663c-14.14 51.65-16.38 106-30.21 157.7-.87 3.28-2 6.83-4.86 8.66a13.05 13.05 0 0 1 -6.24 1.58 99.15 99.15 0 0 1 -23.9-1.17c-5.41-.92-11-2.41-15.08-6-5.5-4.83-7.44-12.52-8.22-19.8-3-28 7-55.69 17.75-81.77 9.16-22.31 19.13-44.66 34.24-63.47"/><path d="m284.88 662.86a370.17 370.17 0 0 0 -9 38.95c-2.44 13.05-4.49 26.17-6.51 39.28-4 26.3-8.06 52.67-14.88 78.42-.67 2.54-1.3 5.31-3 7.41-1.86 2.34-4.72 2.73-7.52 2.93a98.49 98.49 0 0 1 -20.45-.7c-5.8-.81-12.13-1.93-16.85-5.67-4.36-3.44-6.52-8.76-7.65-14a78.15 78.15 0 0 1 -1.35-18.48 118.82 118.82 0 0 1 2.2-19.45c2.47-12.77 6.63-25.15 11.31-37.26 4.59-11.91 9.5-23.75 14.95-35.3a213.25 213.25 0 0 1 18.4-32.34c1.76-2.48 3.57-4.93 5.4-7.36.73-1-.9-2.24-1.69-1.31-8.33 9.78-14.87 21.14-20.63 32.58s-10.76 23.33-15.61 35.23c-9.92 24.53-19 50.86-16.23 77.72.56 5.51 1.65 11.16 4.49 16 3 5.06 7.72 8.21 13.25 9.92a77.19 77.19 0 0 0 19.49 2.85 97.91 97.91 0 0 0 10.28-.1c2.9-.18 6-.4 8.37-2.22a12.62 12.62 0 0 0 3.95-6.1c1.06-3 1.74-6.19 2.51-9.29 1.65-6.62 3.12-13.29 4.46-20 2.69-13.4 4.88-26.9 7-40.41 4.19-27.18 8-54.44 14.32-81.23q1.15-4.87 2.36-9.73a.67.67 0 0 0 -1.29-.35z"/><path d="m34.79 816.61a544.41 544.41 0 0 1 87.14-187.61c8.63-11.92 18.46-24 32.26-29.16 2.84-1.05 5.82-1.8 8.46-3.28 4.15-2.34 11.36-2.65 14.42-6.29 5.22-6.24 6.93-15.61 14.1-19.45 14.42-7.73 32.23-6.9 47.63-1.39s28.89 15.25 42 25.05c3.86 2.89 7.87 6 9.66 10.48 4.46 11.14-7.16 22.17-18.32 26.58 6.53 7.9 13.39 16.6 13.76 26.85.34 9.38-4.86 18-9.68 26a564.37 564.37 0 0 0 -58.37 135.09" fill="#8346FC"/><path d="m35.53 816.81q5.59-22.29 13.06-44t16.83-43q9.27-21 20.3-41.2t23.68-39.37q6.33-9.6 13-18.91a139.8 139.8 0 0 1 13.37-16.45 54.2 54.2 0 0 1 16.71-12.08c3.46-1.52 7.2-2.31 10.54-4.1 2.57-1.38 5.43-2 8.19-2.85s5.24-1.93 7-4.14a46.26 46.26 0 0 0 4.68-7.64 42.92 42.92 0 0 1 4.6-7.61 19.27 19.27 0 0 1 7.72-5.27c13.66-5.82 29.5-4.48 43.22.42 14.64 5.23 27.49 14.35 39.86 23.57 5.25 3.92 11.78 8.37 11.83 15.67.05 6.46-4.86 12-9.75 15.63a38 38 0 0 1 -8.64 4.84 1.28 1.28 0 0 0 -.55 2.1c4 4.84 7.93 9.78 10.61 15.47a26 26 0 0 1 1.75 18.19c-1.72 6.35-5.24 12-8.6 17.61q-5.31 8.84-10.3 17.85a558.1 558.1 0 0 0 -34 73.93q-8.06 21.49-14.36 43.6a1.56 1.56 0 0 0 3 .83 564.78 564.78 0 0 1 28.72-78.32q8.57-18.89 18.45-37.13 5-9.16 10.27-18.14c3.34-5.66 6.88-11.32 8.94-17.61a28.85 28.85 0 0 0 -.85-20.63c-2.81-6.49-7.31-12.07-11.81-17.44l-.56 2.11c10.86-4.41 25.2-16.35 18.56-29.52a24.53 24.53 0 0 0 -6.94-7.79c-2.95-2.34-6-4.56-9.06-6.78a200.37 200.37 0 0 0 -20.17-13.21c-13.35-7.44-28.4-12.44-43.83-11.38-7.19.51-14.8 2.26-21 6-5.3 3.21-7.66 9.24-10.54 14.41-1.42 2.57-2.94 5.33-5.63 6.74s-5.7 1.92-8.52 2.88a32.14 32.14 0 0 0 -4 1.79 46.16 46.16 0 0 1 -5.87 2.21 47.29 47.29 0 0 0 -9.58 4.49c-12.45 7.7-21.09 20.24-29.34 32q-13.66 19.42-25.52 39.91t-21.81 42q-9.93 21.35-18 43.51-8.15 22.32-14.3 45.3-1.5 5.55-2.86 11.13a.77.77 0 0 0 1.48.41z" fill="#8346FC"/><path d="m569.3 536.94c-6.57-9.65-19.37-13.14-27-22s-8.76-21.8-9.12-33.66a696.52 696.52 0 0 1 4.16-100.15l-67 5.34-67-5.34a696.52 696.52 0 0 1 4.16 100.15c-.36 11.86-1.39 24.66-9.12 33.66s-20.41 12.35-27 22c-5.68 8.34-5.3 19.65-1.54 29 19 47.55 76.44 95.12 129.18 73.08 30.06-12.57 59.62-42.87 71.72-73.09 3.85-9.34 4.26-20.65-1.44-28.99z" fill="#fff"/><path d="m570.08 536.48c-5.26-7.59-13.87-11.39-21.1-16.72a31.83 31.83 0 0 1 -9.5-10.59 44.24 44.24 0 0 1 -4.38-14.49 134.81 134.81 0 0 1 -1.1-15.68q-.25-9.3-.26-18.59 0-18.72 1-37.41 1.13-21 3.5-41.86a.9.9 0 0 0 -.9-.9l-22.71 1.76-36 2.87c-2.68.22-5.42.61-8.11.65-1.76 0-3.57-.27-5.33-.41l-34.4-2.74c-8.95-.72-17.92-1.66-26.9-2.15h-.45a.89.89 0 0 0 -.9.9q3.44 30.22 4.24 60.69.4 15.14.14 30.29c-.15 8.86-.07 17.93-1.94 26.63a38.57 38.57 0 0 1 -4.14 11.3 30.82 30.82 0 0 1 -7.71 8.73c-5.81 4.61-12.67 7.78-18.15 12.83a27.3 27.3 0 0 0 -8.69 20.69c.07 7.79 3 14.93 6.32 21.83a140.31 140.31 0 0 0 26.23 36.72 125.56 125.56 0 0 0 37.12 26.48c13.31 6 28 9.26 42.63 7.82 15.65-1.54 30-8.56 42.77-17.49a152.22 152.22 0 0 0 36.2-36 124.17 124.17 0 0 0 12.38-21.28c3.32-7.36 5.46-15.11 4.24-23.23a26.31 26.31 0 0 0 -4.07-10.7c-.64-1-2.2-.05-1.56.91 9.65 14.44.87 32.13-7.06 45.11a148.84 148.84 0 0 1 -33.21 37.68c-12.16 9.88-26.36 18.56-41.83 21.92-14.19 3.09-28.93 1.44-42.52-3.46-14.12-5.09-27-13.5-38.06-23.55a141 141 0 0 1 -28-34.87c-7.21-12.72-15-29.71-5.26-43.28 4.32-6 11.18-9.56 17.21-13.59a48.14 48.14 0 0 0 8.31-6.67 31.29 31.29 0 0 0 6.13-9.5c3.09-7.31 3.83-15.38 4.16-23.23.4-9.71.47-19.44.39-29.15q-.22-29.67-3-59.24c-.45-4.81-.95-9.63-1.49-14.43l-.9.9 22.74 1.81 36 2.87c2.68.22 5.41.61 8.1.65 1.77 0 3.58-.27 5.34-.41l34.4-2.74 17.41-1.39c3.13-.25 6.38-.26 9.48-.76h.46l-.9-.9a699.4 699.4 0 0 0 -4.45 75.47q0 9.42.16 18.84c.12 5.47.22 11 .8 16.41 1 9.72 3.81 19.45 11.19 26.28 7.61 7 18.34 10.56 24.38 19.28.65.95 2.21.05 1.55-.91z"/><path d="m572.93 309c.33-5.36 6.83-9.31 11.74-7.13 3.67 1.63 5.67 5.63 6.74 9.5 4.07 14.72-2.1 31.69-14.67 40.36-2.23 1.55-4.77 2.88-7.49 2.91s-5.6-1.6-6.25-4.24" fill="#fff"/><path d="m573.61 309c.52-5 6.78-8.41 11.21-5.95 4.84 2.68 6.25 9.63 6.67 14.68a37.57 37.57 0 0 1 -11.06 29.6 24.39 24.39 0 0 1 -8.13 5.63c-2.95 1.1-7.26.71-8.27-2.85a1.07 1.07 0 0 0 -2.06.57 7.32 7.32 0 0 0 6.6 5c3.65.3 7.08-1.77 9.88-3.87a38.18 38.18 0 0 0 11.77-14.95 39.71 39.71 0 0 0 3.39-18.86c-.43-5.9-2.11-13.67-7.79-16.76s-13.16 1.3-13.56 7.67c-.06.88 1.26.85 1.35 0z"/><path d="m583.4 315.52c-.92-1.89-3.52-.31-4.47.71-1.62 1.73-2.48 4.19-3.25 6.39a44.65 44.65 0 0 0 -2.06 16.95 1.07 1.07 0 0 0 2 .54 7.06 7.06 0 0 0 1.16-3.55 7.32 7.32 0 0 0 -.12-1.81c0-.15-.42-1.58-.51-1.46.7-.88-.18-2.34-1.28-1.66s-1 1.86-.65 3a5.42 5.42 0 0 1 -.44 4.38l2 .26a34.65 34.65 0 0 1 .73-13.26 37.46 37.46 0 0 1 2-6.2 10.65 10.65 0 0 1 1.19-2.17c.26-.35 2.11-2.31 2.56-1.45s1.56.09 1.18-.69z"/><path d="m369 309c-.33-5.36-6.83-9.31-11.74-7.13-3.67 1.63-5.67 5.63-6.74 9.5-4.07 14.72 2.1 31.69 14.67 40.36 2.23 1.55 4.77 2.88 7.49 2.91s5.6-1.6 6.25-4.24" fill="#fff"/><path d="m369.65 309a9.62 9.62 0 0 0 -11.49-8.48c-6.46 1.54-8.81 9.42-9.6 15.15a39.47 39.47 0 0 0 13 34.62c2.89 2.48 6.34 5 10.24 5.36 3.45.36 7.14-1.49 8.13-5a1.07 1.07 0 0 0 -2.06-.57c-.85 3-4.32 3.88-7 3.23-2.91-.7-5.53-2.63-7.77-4.55a36.67 36.67 0 0 1 -9.56-13 37.5 37.5 0 0 1 -3.2-15.91c.11-5.17 1.13-11.7 5-15.49a7.21 7.21 0 0 1 7.73-1.67 7.92 7.92 0 0 1 5.23 6.31c.09.85 1.41.88 1.35 0z"/><path d="m359.69 316.21c.45-.86 2.3 1.1 2.56 1.45a10.65 10.65 0 0 1 1.19 2.17 37.46 37.46 0 0 1 2 6.2 34.65 34.65 0 0 1 .73 13.26l1.95-.26a5.42 5.42 0 0 1 -.44-4.38c.38-1.16.53-2.3-.64-3s-2 .77-1.29 1.66c-.09-.12-.43 1.06-.48 1.28a7.39 7.39 0 0 0 1 5.54 1.07 1.07 0 0 0 2-.54 44.65 44.65 0 0 0 -2.06-16.95c-.77-2.2-1.63-4.66-3.25-6.39-1-1-3.55-2.6-4.47-.71-.38.78.78 1.47 1.18.69z"/><path d="m576.08 257c-3.77-30.54-24.48-56.47-51.83-69.64-23.19-11.16-50.11-13.41-75.45-8.9-20 3.57-39.55 11.41-54.94 24.67-44.86 38.59-25.86 105.29-18.43 155.98 2.83 19.23 5.85 39.15 16.47 55.43 12.31 18.87 33.05 30.19 53 40.76 7.33 3.89 14.92 7.86 23.19 8.5 11.47.89 22.34-4.7 32.48-10.13 15.1-8.08 30.54-16.43 41.91-29.25 11.8-13.31 18.34-30.55 22-48s4.72-35.25 6.94-52.9c2.74-22.07 7.35-44.73 4.66-66.52z" fill="#fff"/><path d="m577 257c-3-23.9-16.3-45.38-35.31-60-21.82-16.75-50-23.13-77.17-21.38-26.92 1.73-54.91 10.88-74.65 29.9a79 79 0 0 0 -18.28 27.11 104.68 104.68 0 0 0 -7 31.63c-1.75 22.78 1.81 45.64 5.56 68q2.83 16.92 5.46 33.87c2.12 13.76 4.77 27.68 10.79 40.34 11.67 24.5 35.94 37.88 58.92 50.05 6.32 3.34 12.87 6.7 20 7.82s14.08-.24 20.68-2.75 13-6.07 19.28-9.47c6.14-3.32 12.24-6.73 18.08-10.55 11.51-7.55 21.51-16.83 28.59-28.72s11.3-25.36 13.94-38.91c3-15.55 4.16-31.38 6-47.09s4.77-31.32 5.66-47.14a129.47 129.47 0 0 0 -.55-22.71c-.14-1.14-1.94-1.15-1.8 0 1.85 15.38.2 30.88-1.89 46.14-1 7.56-2.17 15.11-3.08 22.68-.94 7.73-1.67 15.49-2.53 23.23-3.07 27.65-8.44 57.4-28.87 77.95-9.66 9.73-21.64 16.7-33.61 23.18-12.15 6.59-25.75 15-40.17 12.38-7-1.27-13.46-4.67-19.73-8-5.69-3-11.37-6.07-16.93-9.33-11-6.49-21.71-13.93-30.11-23.69-17.55-20.38-19.45-47.89-23.64-73.27-3.62-22-7.92-44-8.61-66.31-.66-21.3 2.2-43.42 14-61.67 14-21.68 38.53-34.32 63.15-39.79 27.22-6.05 57-4.29 82.16 8.37 20.94 10.54 38.06 28.88 45.86 51.13a83.17 83.17 0 0 1 4 17c.12 1.08 1.92 1.1 1.8 0z"/><path d="m576.74 277.48-15 3.2a96.27 96.27 0 0 0 4 47.55 27.42 27.42 0 0 0 4.18 8.27c.46-4.31.93-8.63 1.47-12.94 1.9-15.25 4.69-30.76 5.35-46.08z"/><path d="m371.78 336.76a26.91 26.91 0 0 0 4.4-8.53 96.27 96.27 0 0 0 4-47.55l-15.18-3.23c.17 19.69 3.53 40.11 6.78 59.31z"/><path d="m417.34 319.76a171.72 171.72 0 0 1 30.93-2.19c-.4-2-3.32-2.86-5.82-3.16a46.52 46.52 0 0 0 -25.81 4.16.86.86 0 0 0 .94.29"/><path d="m417.34 321.84c5.11-.47 10.25-.77 15.39-.85s10.35.26 15.54.63c2.71.2 4.51-2.73 3.91-5.13-.88-3.46-4.33-5.26-7.59-5.93a41.09 41.09 0 0 0 -10.27-.61c-7 .37-14.31 1.94-19.94 6.36-1.65 1.31-.94 4.06.65 5a4.09 4.09 0 0 0 4 0c2.15-1 1.73-5-.69-5.29l1 .89-1.91 4.68c2.61-.63 5.14-1.49 7.79-2 1.43-.27 2.83-.63 4.26-.88l.87-.14c1.38-.22-.38 0 .42-.06s1.45-.16 2.18-.21a50.73 50.73 0 0 1 8.36.11c.37 0 .73.08 1.09.1-.36 0-.53-.09-.06 0a13 13 0 0 1 1.72.4c.12 0 .94.43.45.15s.32.23.35.24c-.22-.1-.51-.46-.15-.09-.3-.44-.38-.53-.23-.28s.09.16-.16-.34l3.9-5.13c-5.25.18-10.57.78-15.78 1.45a157.22 157.22 0 0 0 -15.7 2.78c-2.24.52-1.81 4.3.55 4.09z"/><path d="m524.57 319.76a171.72 171.72 0 0 0 -30.93-2.19c.4-2 3.32-2.86 5.82-3.16a46.52 46.52 0 0 1 25.81 4.16.86.86 0 0 1 -.94.29"/><path d="m525.12 317.75a157.22 157.22 0 0 0 -15.7-2.78c-5.21-.67-10.53-1.27-15.78-1.45l3.9 5.13-.23.46c.19-.3.18-.31 0 0s-.2.26-.05.1.13-.14-.25.19a3.6 3.6 0 0 0 .54-.31c-.6.43-.21.08.1 0a12.55 12.55 0 0 1 1.71-.42c.21 0 1-.1.11 0l.87-.08a52.3 52.3 0 0 1 8.58-.13c.66.05 1.31.12 2 .19l.43.05c-.3 0-.31 0 0 0l1.08.17c1.36.23 2.69.58 4 .84s2.66.54 4 .86 2.66.84 4 1.17l-1.91-4.74 1-.89c-2.4.33-2.86 4.31-.69 5.29a4.09 4.09 0 0 0 4 0c1.59-.95 2.31-3.7.65-5-5.63-4.42-12.95-6-19.94-6.36a41.09 41.09 0 0 0 -10.27.61c-3.26.67-6.71 2.47-7.59 5.93-.6 2.4 1.2 5.33 3.91 5.13 5.19-.37 10.32-.71 15.54-.63s10.28.38 15.39.85c2.34.21 2.81-3.56.55-4.09z"/><path d="m430.92 332.57a3.93 3.93 0 0 0 -3.38.43 3 3 0 0 0 -1.26 3.3 2.51 2.51 0 0 0 3.13 1.71 4.05 4.05 0 0 0 2.42-2.68 3.55 3.55 0 0 0 -.43-3.18 2.44 2.44 0 0 0 -3.72-.12 5.69 5.69 0 0 0 -1.37 3.65 2.71 2.71 0 0 0 .64 2.19 2.27 2.27 0 0 0 2.22.55c1.57-.47 2-2.11 2.12-3.56s-.16-3.07-1.42-3.82a2 2 0 0 0 -2.64.62 4.41 4.41 0 0 0 -.64 1.75 5.83 5.83 0 0 0 .51 3.9 2.8 2.8 0 0 0 3.67 1.31 3.84 3.84 0 0 0 1.79-3.24 6 6 0 0 0 -.89-3.63c-.77-1.25-2.37-2.33-3.82-1.39a5 5 0 0 0 -1.85 3.64 4.92 4.92 0 0 0 1 3.67 2.77 2.77 0 0 0 1.88 1 2.28 2.28 0 0 0 2-.93 5 5 0 0 0 .61-3.6 9.64 9.64 0 0 0 -.39-2.05 1.41 1.41 0 0 0 -1.7-1 2 2 0 0 0 -1.4 2.39 1.27 1.27 0 0 0 2.49-.33.68.68 0 0 1 -.73.65l-1.33-1a7.62 7.62 0 0 1 .29 1.34c0-.36 0 0 0 .08s0 .15 0 .23a7.12 7.12 0 0 1 0 .8 2.84 2.84 0 0 0 0 .58s.07-.35 0-.13a2 2 0 0 1 -.05.24v.08c-.05.14 0 .1.05-.11a1.28 1.28 0 0 0 -.11.2l.13-.17-.1.11c.18-.14.21-.17.09-.1l.18-.08c-.27.1.34 0 .06 0h.21c-.14 0-.1 0 .11.06h-.07c-.13-.08-.1-.05.07.07a1.66 1.66 0 0 0 -.19-.18c-.22-.19.12.2 0 0l-.12-.2v-.08q-.1-.19 0 .09s-.11-.32-.11-.35 0-.2-.06-.29c-.08-.33 0 .32 0 0 0-.16 0-.32 0-.49s0-.19 0-.29v-.1c0-.15 0-.13 0 .08-.05-.1.09-.45.13-.57a1.52 1.52 0 0 1 .09-.28v-.09q.09-.21 0 .06c0-.13.21-.4.28-.51l.05-.09-.06.07.12-.13-.15.1q.19-.11-.09 0c.15 0 .11 0-.12 0s-.28-.05-.12 0-.26-.18 0 0h.07c.1.07.11.07 0 0h-.07a.86.86 0 0 1 .14.13l.06.07c.1.11.09.09 0-.07.11 0 .26.4.31.5a1 1 0 0 1 .13.27c-.07-.17-.08-.21 0-.11l.06.14a4.74 4.74 0 0 1 .16.57s.08.24.06.29v-.18a1.23 1.23 0 0 1 0 .2 4 4 0 0 1 0 .49 2.83 2.83 0 0 1 0 .29c0 .16 0 .13 0-.08a1.42 1.42 0 0 1 0 .2 3.19 3.19 0 0 1 -.13.44c0 .19.17-.31 0-.06l-.13.22c-.14.25.23-.21 0 0l-.06.06c-.11.09-.08.07.1-.07h-.07c-.13.07-.09.06.13 0h-.12.17-.07.14-.07q-.21-.06.12.06l-.19-.12c.25.09.18.15.05 0s-.08-.1-.11-.12l.12.15-.09-.14a2.53 2.53 0 0 1 -.12-.23c-.07-.13-.05-.1 0 .1l-.06-.16a4.15 4.15 0 0 1 -.11-.48c-.05-.21 0 .35 0 0 0-.11 0-.21 0-.32s0-.42 0-.64-.07.31 0 0l.06-.32c.05-.2.12-.4.18-.61s-.14.28 0 0l.05-.08a.81.81 0 0 1 -.52.4 1 1 0 0 1 -.48 0l-.21-.08c.12.07.09 0-.1-.09.2.18-.15-.28 0 0a1.09 1.09 0 0 1 .08.15c-.08-.21-.1-.25-.05-.11a4.85 4.85 0 0 1 .11.49c.07.37 0-.3 0 .07v.34a5.15 5.15 0 0 1 0 .68v.11c0 .16 0 .15 0 0a1.13 1.13 0 0 1 -.06.31 2.68 2.68 0 0 1 -.07.27v.09c0 .14 0 .12 0-.08a1.76 1.76 0 0 1 -.14.23l.11-.14c-.11.11-.08.09.1-.05l-.13.08.19-.09q-.22.06.15 0h-.07q-.24 0 .15 0c-.14 0-.1 0 .14.06a.76.76 0 0 1 .29.3c-.17-.25.08.31 0 0 .07.36 0 .22 0 .12s0-.42 0-.62 0-.23 0-.33c-.08.37 0 0 0-.07 0-.22.1-.43.16-.65a.8.8 0 0 0 .09-.26l-.07.17a1.09 1.09 0 0 1 .08-.15l.13-.23c.14-.26-.22.21 0 0l.12-.13c.19-.2-.28.14 0 0 .1-.05.33-.12-.05 0 .15 0 .1 0-.14 0 .15 0 .11 0-.12 0a.73.73 0 0 0 .2.05c-.23 0-.28-.13-.16-.05-.32-.21-.17-.13-.08-.05s-.16-.29-.05-.07 0 .22 0-.07a1.52 1.52 0 0 0 .06.2v.18s0 .05 0-.17v.15s0 .35 0 .52c0-.35 0-.18 0-.06l-.07.25c0 .08-.06.34 0 0a1 1 0 0 1 -.16.32c0 .08-.09.15-.14.23s-.06.1 0 0l-.11.13-.12.12-.13.11c.14-.11.16-.13 0-.05h-.07c-.12.06-.09.05.08 0h-.15.1-.24.16l-.15-.05.13.05-.14-.08c.13.1.15.11.06 0s-.08-.07 0 0a.63.63 0 0 1 -.12-.21c.05.14.06.16 0 0v-.08-.08c0-.13 0-.11 0 .05-.05-.05.07-.42 0-.13a1.41 1.41 0 0 1 .37-.69 2 2 0 0 1 .77-.54 2.62 2.62 0 0 1 1.24-.14.68.68 0 0 0 .68-.6.7.7 0 0 0 -.5-.76z"/><path d="m423.13 338.82a90.57 90.57 0 0 1 11.87.69.77.77 0 0 0 .77-.77.79.79 0 0 0 -.77-.74 67.23 67.23 0 0 0 -11.87-.36.61.61 0 0 0 0 1.21z"/><path d="m511.17 333.93a2.62 2.62 0 0 1 1.05.08l.28.1h.06l.25.15.16.11c-.07-.06-.07 0 0 0a3.51 3.51 0 0 1 .37.4s-.1-.16 0 0l.13.23c.13.23 0-.18 0 .08 0 .05 0 .33 0 .05v.25c0-.16 0-.18 0-.05v.08.08c0 .12 0 .1 0 0a.63.63 0 0 1 -.12.21l.08-.11-.12.12.12-.08-.14.08s.23-.11 0 0 .29 0 0 0h-.08.09-.15.08s-.22-.11-.21-.13l.12.1-.13-.11-.12-.12v-.07c-.09-.1-.08-.08 0 .05-.11-.06-.22-.34-.28-.45v-.09c0-.12 0-.1 0 .07a1.83 1.83 0 0 0 -.08-.25 2.1 2.1 0 0 1 -.06-.24c-.07-.26 0 .33 0 .06s0-.3 0-.45 0-.3 0-.05 0 0 0 0l.06-.21c.07-.22-.15.33 0 0s-.23.23 0 .07c0 0 .19-.19 0 0l-.08.07c.12-.07.07-.05-.16.05a.65.65 0 0 0 .2-.05h-.2c.15 0 .1 0-.14 0 .27.06-.27-.18 0 0h.07c.12.08.09.06-.09-.07 0 .05.13.13.18.18.2.21-.15-.27 0 0l.13.23v.08c.07.13 0 .1 0-.1a.8.8 0 0 0 .09.26c.05.18.1.36.14.54a1.91 1.91 0 0 1 .06.33c0-.19 0-.21 0 0a1.5 1.5 0 0 1 0 .22v.57s-.07.29 0-.07c-.07.29.18-.27 0 0a.81.81 0 0 1 .49-.38c-.27.08.37 0 .08 0s.35.09.08 0c.2.1.26.12.16.07l-.1-.06.16.11c-.1-.11-.09-.08.05.08a1.76 1.76 0 0 1 -.14-.23l.07.17-.06-.18a2.68 2.68 0 0 1 -.07-.27 1.42 1.42 0 0 0 0-.2c-.08-.37 0 .31 0-.07a6.87 6.87 0 0 1 0-.79c0-.11 0-.22 0-.34 0-.36 0 .21 0 0s.07-.36.12-.55-.18.27 0 0 .23-.27 0 0c.19-.21-.29.15 0 0a1 1 0 0 1 -.69.09l-.41-.24c-.12-.18-.14-.21-.06-.08s-.1-.34 0 0 .13.4.18.61 0 .14.05.21v.11q0 .24 0-.06a2.28 2.28 0 0 1 0 .74v.32c0 .27 0 0 0-.06a1.63 1.63 0 0 1 -.12.53v.08c-.05.14 0 .11 0-.1a1.2 1.2 0 0 0 -.11.23 1.35 1.35 0 0 0 -.14.22c0-.07.23-.26 0 0s-.2.08 0 0l-.19.12.19-.08h-.14.22-.15s.37.06.13 0 .29.15 0 0 .21.24 0 0 .08.18 0 0l-.13-.22c-.12-.2.05.07 0 .1s-.07-.19-.08-.24a1.05 1.05 0 0 1 -.06-.24v-.1c0-.16 0-.13 0 .08a.7.7 0 0 1 0-.29 3.85 3.85 0 0 1 0-.59v-.1c0-.16 0-.13 0 .08 0-.05.05-.24.06-.29a4.74 4.74 0 0 1 .16-.57.73.73 0 0 0 .07-.19l-.06.16.09-.18c0-.09.09-.17.14-.26s.14-.31.21-.33l-.1.14.12-.14s.13-.14.14-.13l-.14.1.15-.1c.25-.18-.28.09 0 0h.09a.58.58 0 0 1 -.41 0c.29.07-.27-.15 0 0-.28-.16-.15-.09-.06 0s0 0-.08-.11c0 0 .07.1.1.16l.15.25.09.17q.09.21 0-.06a1.8 1.8 0 0 1 .19.55c0 .1 0 .19.07.29v.19c0-.21 0-.23 0-.08s0 .46 0 .69v.19s0 .13 0-.08v.19c0 .1-.05.2-.07.29a1.21 1.21 0 0 0 0 .18c-.06.14 0 .11 0-.09a1.41 1.41 0 0 1 -.13.24v.08c-.09.12-.07.1 0-.06 0 0-.17.17-.18.19s-.09.07.07-.06l-.14.08.19-.08h.13c-.26 0 .3.1.06 0l.18.08c-.12-.07-.09 0 .1.1l-.11-.11c.14.19.17.22.09.1v-.06c-.06-.14-.05-.1 0 .11a1.34 1.34 0 0 0 -.09-.31 1.1 1.1 0 0 0 0-.16c0 .24 0 .28 0 .13a.92.92 0 0 0 0-.16 12.2 12.2 0 0 1 .05-1.48c0-.38-.05.29 0-.09 0-.15 0-.3.08-.45s.13-.51.19-.77l-1.33 1a.68.68 0 0 1 -.73-.65 1.27 1.27 0 0 0 2.49.33 2 2 0 0 0 -1.4-2.39 1.41 1.41 0 0 0 -1.7 1 10 10 0 0 0 -.4 2.11 8.05 8.05 0 0 0 0 1.7 3.38 3.38 0 0 0 .75 2 2.27 2.27 0 0 0 1.86.79 3.33 3.33 0 0 0 2.76-2.84 6.31 6.31 0 0 0 -.48-3.9 3.59 3.59 0 0 0 -1.24-1.56 2.37 2.37 0 0 0 -2.44 0 4.9 4.9 0 0 0 -2.12 3.19 5.66 5.66 0 0 0 .36 3.76 2.73 2.73 0 0 0 3.66 1.3 4 4 0 0 0 1.88-3.22 6.86 6.86 0 0 0 -.08-2 4.21 4.21 0 0 0 -.75-1.89 1.93 1.93 0 0 0 -2.56-.46 2.87 2.87 0 0 0 -1.2 1.74 6.5 6.5 0 0 0 .31 4.22 2.62 2.62 0 0 0 1.62 1.4 2.28 2.28 0 0 0 2.25-.58 2.8 2.8 0 0 0 .61-2.16 7.23 7.23 0 0 0 -.39-2c-.44-1.24-1.48-2.58-3-2.46a2.41 2.41 0 0 0 -1.86 1.07 3.33 3.33 0 0 0 -.49 1.59c-.19 2.23 2.13 5.32 4.55 3.93a2.73 2.73 0 0 0 1.08-3.38 3.48 3.48 0 0 0 -2.91-2 3.8 3.8 0 0 0 -1.64.18.7.7 0 0 0 -.5.76.68.68 0 0 0 .68.6z"/><path d="m518.78 337.61a67.23 67.23 0 0 0 -11.87.36.8.8 0 0 0 -.77.77.78.78 0 0 0 .77.77 90.57 90.57 0 0 1 11.87-.69.61.61 0 0 0 0-1.21z"/><path d="m580 546.14.52.52a.51.51 0 0 0 .25.16.73.73 0 0 0 .58 0 .51.51 0 0 0 .25-.16l.12-.15a.86.86 0 0 0 .1-.38v-.21a.73.73 0 0 0 -.19-.33l-.53-.53a.9.9 0 0 0 -.54-.22.59.59 0 0 0 -.29.07.61.61 0 0 0 -.24.15l-.12.16a.72.72 0 0 0 -.1.38v.2a.79.79 0 0 0 .2.34z" fill="#fff"/><path d="m25 810.3h892.37v22.84h-892.37z"/><path d="m25 811.2h856.15c11.56 0 23.15.23 34.71 0h1.51a.9.9 0 0 0 0-1.8h-856.15c-11.56 0-23.14-.24-34.7 0h-1.52a.9.9 0 0 0 0 1.8z"/><path d="m389.64 255.63c3.68 7.48-1 32.15-3.13 40.2-4.7 17.53-1.18 36.1 2.36 53.9 1.43 7.17 3.09 14.78 8.25 19.95 5.42 5.42 13.68 7 21.33 6.52s15.07-2.7 22.67-3.74c10.63-1.45 21.44-.55 32.14.35-4.46 30.05 2.83 60.56 2.3 90.93-.05 3.34-.24 6.8-1.78 9.76-2 3.93-6.25 6.39-10.59 7.27s-8.84.39-13.21-.33a131.84 131.84 0 0 1 -32-9.54c-8.63-3.82-17.1-8.8-22.62-16.46-4.13-5.73-6.34-12.6-8.16-19.42a52.68 52.68 0 0 0 -2.5-7.91c-2.21-5-6.07-9.09-9-13.74-6.63-10.64-8-23.77-7.35-36.29s3-24.95 3-37.49c0-6.64-.62-13.27-1.25-19.88l-3-31.43"/><path d="m389.05 256c1.62 3.52 1.24 8.07 1 11.82a139.94 139.94 0 0 1 -2 15.53c-.72 4-1.53 8.09-2.57 12.06a76.35 76.35 0 0 0 -2.31 21.87 157 157 0 0 0 2.71 23c1.24 6.83 2.25 14 4.6 20.54 2.13 5.93 5.81 11 11.59 13.8s12.09 3.26 18.26 2.67c8.78-.84 17.27-3.48 26.09-4.06s17.9.15 26.81.9l-1.2-1.58c-3.57 24.42.31 49 1.83 73.41.37 6.09.61 12.19.49 18.29-.05 2.8-.17 5.77-1.39 8.35a12.07 12.07 0 0 1 -5 5.24c-5.07 2.93-11.18 2.58-16.76 1.72a128.4 128.4 0 0 1 -17.22-3.9 126.83 126.83 0 0 1 -16.49-6.21 67.94 67.94 0 0 1 -13.32-7.76 37.28 37.28 0 0 1 -10.31-12 72.82 72.82 0 0 1 -5.59-15.69 46.75 46.75 0 0 0 -2.82-8.31 45.64 45.64 0 0 0 -4.38-6.92c-3.23-4.44-6.23-8.83-8.12-14-3.78-10.47-3.88-21.81-3-32.78 1-12.42 3-24.73 2.53-37.22-.25-6.18-.92-12.32-1.51-18.47s-1.19-12.44-1.79-18.66q-.44-4.67-.89-9.33c-.14-1.47-2.45-1.48-2.31 0 1.24 12.89 2.64 25.78 3.69 38.69a136.5 136.5 0 0 1 .38 19c-.36 6.34-1.15 12.65-1.82 19-1.23 11.59-2 23.42.69 34.87a48.12 48.12 0 0 0 6.24 15c3.14 4.83 7.17 9.13 9.12 14.64s3 11.27 5.18 16.71a40.51 40.51 0 0 0 8.69 13.52c7.71 7.75 18.25 12.35 28.39 16a133.79 133.79 0 0 0 17.66 5c5.81 1.22 11.95 2.43 17.89 1.59 4.74-.67 9.46-3 12.13-7.08 3.12-4.82 2.6-11.35 2.55-16.83-.21-25.32-5.16-50.49-3.32-75.83.23-3.09.56-6.16 1-9.23a1.27 1.27 0 0 0 -1.2-1.57 196.92 196.92 0 0 0 -23.41-1.06c-7.73.26-15.14 1.91-22.72 3.33-6.68 1.26-13.61 2-20.25.1a20.44 20.44 0 0 1 -13.45-11.87c-2.68-6.15-3.61-13.1-4.85-19.64a173.55 173.55 0 0 1 -3.09-22.82 75.83 75.83 0 0 1 1.84-22.83c1-4 1.88-7.92 2.56-11.95a127.49 127.49 0 0 0 1.93-17c.13-4.13.31-9-1.59-12.8-.39-.78-1.52-.09-1.17.68z"/><path d="m553.12 270.67c-3.69 7.48.12 16.22 2.28 24.27 4.7 17.53 1.18 36.09-2.36 53.9-1.43 7.17-3.09 14.78-8.25 20-5.42 5.42-13.68 7-21.33 6.51s-15.07-2.7-22.67-3.73c-10.63-1.45-21.44-.55-32.14.35 4.46 30.05-2.83 60.56-2.3 90.93 0 3.33.24 6.79 1.78 9.75 2 3.93 6.25 6.39 10.59 7.28s8.84.39 13.21-.33a131.84 131.84 0 0 0 32-9.54c8.63-3.82 17.1-8.81 22.62-16.47 4.13-5.73 6.34-12.59 8.16-19.41a52.68 52.68 0 0 1 2.5-7.91c2.21-5 6.07-9.09 9-13.74 6.63-10.64 8-23.77 7.35-36.3s-3-24.94-3-37.48c0-6.64.62-13.27 1.25-19.88l3-31.43"/><path d="m552.53 270.33c-2.43 4.91-1.91 10.33-.7 15.51 1.36 5.84 3.34 11.42 4.13 17.4 1.62 12.31-.1 24.78-2.36 36.9a168 168 0 0 1 -3.51 16.5c-1.43 4.92-3.71 9.75-7.88 12.92-9 6.87-21.22 4.7-31.44 2.62a112.27 112.27 0 0 0 -20.66-2.59 213.72 213.72 0 0 0 -21.46 1.09 1.27 1.27 0 0 0 -1.2 1.57c3.69 25.16-.8 50.49-2.05 75.65-.31 6.22-.71 12.67 0 18.88.56 5.22 2.92 9.56 7.57 12.17 4.93 2.76 10.7 2.86 16.18 2.16a120.76 120.76 0 0 0 17.85-3.76 136 136 0 0 0 17.1-6.14 75 75 0 0 0 13.9-7.65 41.12 41.12 0 0 0 10.83-11.17 58.44 58.44 0 0 0 6.46-15.63c.8-2.83 1.43-5.72 2.44-8.5a33.22 33.22 0 0 1 4.27-7.71c3.21-4.57 6.46-8.88 8.59-14.09 4.26-10.37 4.72-21.91 4-33-.86-12.75-3.18-25.38-2.83-38.2.17-6.33.82-12.64 1.42-18.94q.95-9.83 1.9-19.64l.9-9.33c.14-1.48-2.17-1.47-2.31 0-1.21 12.57-2.51 25.14-3.61 37.72a140.63 140.63 0 0 0 -.56 18.47c.27 6.18 1 12.34 1.64 18.49 1.22 11.37 2.27 23-.05 34.3a46.81 46.81 0 0 1 -5.75 15.12c-2.84 4.67-6.7 8.71-9 13.7s-3.22 10.78-5.06 16.08a41.53 41.53 0 0 1 -7.83 14.22c-7.13 8.05-17.44 12.78-27.32 16.47a129.18 129.18 0 0 1 -17.21 5.08c-5.77 1.28-11.92 2.64-17.86 2-4.86-.48-10-2.82-12.12-7.45-1.2-2.59-1.34-5.54-1.39-8.35-.06-3.11 0-6.24.08-9.35.74-24.47 5.19-48.9 3.24-73.41-.24-3-.58-6-1-8.93l-1.21 1.58c6.49-.55 13-1.1 19.51-1.14a97.94 97.94 0 0 1 19.4 1.91c10.68 2.09 22.32 4.71 32.59-.46 9.87-5 12.27-15.81 14.23-25.74 2.43-12.33 4.78-24.87 4.31-37.5a76.5 76.5 0 0 0 -3.55-19.78c-1.9-6.2-4.29-13.16-1.44-19.45.35-.77-.78-1.46-1.17-.68z"/><path d="m401.12 451.77c.25 9.08 6.42 16.92 13.24 22.91a85.67 85.67 0 0 0 102.41 8c8.31-5.27 15.86-12.19 20.21-21s5.12-19.77.42-28.42a45 45 0 0 0 -8.26-10.26c-4.43-4.42-9.25-8.73-15.15-10.83a37.41 37.41 0 0 0 -11.08-1.81c-11.39-.46-22.74 1.31-34 3.08"/><path d="m400.41 451.77c.25 8.48 5.24 15.77 11.13 21.51a83.47 83.47 0 0 0 21.76 15.07 86.53 86.53 0 0 0 79-1.79c7.69-4.16 15-9.51 20.49-16.38s8.93-15.06 8.91-23.85a29.4 29.4 0 0 0 -2.77-12.58c-2-4.16-5.13-7.66-8.35-10.91a64 64 0 0 0 -10.08-8.66 30.11 30.11 0 0 0 -13.1-4.63c-10.28-1.24-20.84.08-31 1.68-2.57.4-5.14.83-7.71 1.26-1.26.21-.71 2.08.52 1.9 9.88-1.45 19.83-2.92 29.84-3 4.76 0 9.68.16 14.24 1.68a32.67 32.67 0 0 1 11 6.78c6.5 5.71 13 12.27 14.78 21.05 1.63 8.3-.66 17-5.14 24s-11 12.6-18 17a85.37 85.37 0 0 1 -97.65-5.24c-6.35-5-12.7-11.17-15.28-19a22 22 0 0 1 -1.08-5.91c0-.91-1.45-.92-1.43 0z"/><path d="m376.8 398.83a39.14 39.14 0 0 0 3.14 40.53 9.49 9.49 0 0 1 2 3.62 12.17 12.17 0 0 1 0 2.83c-.16 5.2 2.67 10 6 14a52.73 52.73 0 0 0 40.74 18.63c3.43-.06 6.88-.46 10.27 0a67 67 0 0 1 8.65 2.33 77.17 77.17 0 0 0 16.43 2.51c5.56.36 11.26.43 16.54-1.35 3-1 5.84-2.64 8.89-3.63 5.82-1.9 12.09-1.43 18.2-1.82s12.66-2 16.5-6.73a2.34 2.34 0 0 0 4.15-.23c.25 2.65 4.06 2.89 6.59 2.07a38.13 38.13 0 0 0 25.73-32.59c4.75.11 7.51-5.25 8.77-9.83 2-7.13 3.12-14.84.68-21.82s-8.38-12.49-15.15-15.59-14.34-4.07-21.78-4.15a98.79 98.79 0 0 0 -34.32 5.8"/><path d="m376.24 398.5a39.82 39.82 0 0 0 0 36.56 35.19 35.19 0 0 0 2.5 4.11c1.1 1.57 2.4 2.95 2.42 5a28.49 28.49 0 0 0 .19 5.14 19.08 19.08 0 0 0 1.59 4.65c2.82 5.9 7.85 10.85 13 14.73a54 54 0 0 0 17.48 8.71 53.31 53.31 0 0 0 9.77 1.86 97 97 0 0 0 10.92 0 26 26 0 0 1 6.23.49c1.93.42 3.79 1.05 5.67 1.63a65.61 65.61 0 0 0 11.42 2.36c7.48.93 15.71 1.68 23-.63 3.65-1.16 7-3.18 10.65-4.16a50.62 50.62 0 0 1 11.78-1.2c6.38-.17 13.29-.48 18.75-4.21a15.85 15.85 0 0 0 3.32-3l-1.65-.21c1.31 2.52 5.11 2 6.08-.49h-2c.47 3.3 4.6 3.59 7.18 3a30.7 30.7 0 0 0 10-4.73 40 40 0 0 0 14.12-16.95 38 38 0 0 0 3.04-12.16l-1.07 1.07c7 0 9.46-8.64 10.69-14.15 1.75-7.83 1.95-16.27-2.31-23.36-8.46-14.07-26.27-16.76-41.3-16.15a95.65 95.65 0 0 0 -29.22 5.77c-1.54.56-.9 3 .68 2.47a104.2 104.2 0 0 1 23.59-5.27c7.73-.78 15.77-.87 23.4.76 6.82 1.46 13.33 4.48 18.11 9.67 5.13 5.57 6.69 12.81 5.89 20.2a42.75 42.75 0 0 1 -2.79 11.8c-1.2 2.86-3.28 6.11-6.74 6.13a1.1 1.1 0 0 0 -1.07 1.06 37.26 37.26 0 0 1 -21.76 30.45 15.11 15.11 0 0 1 -5 1.55c-1.35.07-3.13-.1-3.36-1.7-.17-1.15-1.71-.85-2 0s-1.84.74-2.23 0a1.07 1.07 0 0 0 -1.66-.21c-4.05 4.89-10.63 6.16-16.67 6.47-3.67.2-7.37.13-11 .51a33.92 33.92 0 0 0 -10.18 2.74 38.16 38.16 0 0 1 -10.82 3.44 61.18 61.18 0 0 1 -11.16.05 87.55 87.55 0 0 1 -11.52-1.42c-3.72-.76-7.26-2.15-11-3s-7.58-.56-11.41-.43a49.93 49.93 0 0 1 -9.77-.6 52.8 52.8 0 0 1 -18.02-6.46 49.17 49.17 0 0 1 -14.5-12.66 22.51 22.51 0 0 1 -4.37-8.94c-.37-1.8-.07-3.55-.25-5.35a8.67 8.67 0 0 0 -2-4.18 38.83 38.83 0 0 1 -3.57-40.1c.38-.75-.74-1.41-1.13-.66z"/><path d="m464.34 342c0 4 0 8.07.07 12.11 0 1 .12 2 0 2.91s-.76.94-1.49 1.32a9.52 9.52 0 0 0 -3.41 2.89 6.81 6.81 0 0 0 .48 8.25c2.08 2.61 5.73 3.91 9 4.1a1.36 1.36 0 0 0 .36-2.67c-2.93-.7-6.22-1.05-7.84-4-1.51-2.73.42-5.29 2.73-6.75 1-.62 2-1.13 2.14-2.4a28.14 28.14 0 0 0 -.18-5.1c-.17-3.56-.38-7.11-.57-10.66a.65.65 0 0 0 -1.3 0z"/><g fill="#8346FC"><path d="m408 345.81.67-.22a.56.56 0 0 0 .24-.13.44.44 0 0 0 .18-.2.47.47 0 0 0 .08-.26.45.45 0 0 0 0-.28l-.07-.17a.85.85 0 0 0 -.25-.25l-.17-.07a.77.77 0 0 0 -.37 0l-.67.24a.46.46 0 0 0 -.23.12.49.49 0 0 0 -.18.2.46.46 0 0 0 -.08.25.53.53 0 0 0 0 .28l.07.17a.75.75 0 0 0 .25.25l.16.07a.77.77 0 0 0 .37 0z"/><path d="m415 346.13.66.46a.44.44 0 0 0 .25.08.5.5 0 0 0 .27 0 .57.57 0 0 0 .23-.12.52.52 0 0 0 .17-.19l.07-.16a.73.73 0 0 0 0-.36l-.07-.16a.69.69 0 0 0 -.24-.24l-.68-.43a.57.57 0 0 0 -.25-.08.58.58 0 0 0 -.26 0 .48.48 0 0 0 -.22.12.58.58 0 0 0 -.17.18l-.07.16a.69.69 0 0 0 0 .35l.07.16a.66.66 0 0 0 .24.23z"/><path d="m410 350.05.88.68a.75.75 0 0 0 .3.17h.18a.67.67 0 0 0 .34-.1.52.52 0 0 0 .19-.17.46.46 0 0 0 .12-.23.5.5 0 0 0 0-.27.46.46 0 0 0 -.08-.25.69.69 0 0 0 -.24-.24l-.9-.65a.46.46 0 0 0 -.24-.08.5.5 0 0 0 -.27 0l-.15.07a.49.49 0 0 0 -.19.16.31.31 0 0 0 -.08.15.54.54 0 0 0 -.06.25v.18a.69.69 0 0 0 .16.29z"/><path d="m404 351.13h.22a.53.53 0 0 0 .25-.05.6.6 0 0 0 .21-.14.46.46 0 0 0 .13-.21.51.51 0 0 0 .06-.25v-.17a.61.61 0 0 0 -.16-.28l-.13-.1a.63.63 0 0 0 -.33-.09h-.25a.42.42 0 0 0 -.25.06.45.45 0 0 0 -.22.13.46.46 0 0 0 -.13.21.54.54 0 0 0 -.06.25v.18a.64.64 0 0 0 .16.29l.14.1a.63.63 0 0 0 .33.09z"/><path d="m407.82 355.13a3.58 3.58 0 0 0 1.92 0 .7.7 0 0 0 .41-.31.75.75 0 0 0 .07-.53.71.71 0 0 0 -.84-.48 3 3 0 0 1 -.43.09h.18a3.05 3.05 0 0 1 -.74 0h.18a2.59 2.59 0 0 1 -.4-.09.7.7 0 0 0 -.51.07.69.69 0 0 0 -.31.4.68.68 0 0 0 .47.82z"/><path d="m416 354.49a3.53 3.53 0 0 0 1-.3 4.77 4.77 0 0 0 .87-.56.66.66 0 0 0 .2-.49.68.68 0 0 0 -.15-.42.64.64 0 0 0 -.36-.24.66.66 0 0 0 -.53.07 5.18 5.18 0 0 1 -1 .55l.17-.07q-.27.11-.54.18a.68.68 0 0 0 -.4.31.69.69 0 0 0 -.06.51.71.71 0 0 0 .3.4l.16.06a.73.73 0 0 0 .36 0z"/><path d="m529.79 346.05 1.11-.22a.47.47 0 0 0 .25-.13.61.61 0 0 0 .19-.2.78.78 0 0 0 .07-.56.79.79 0 0 0 -.33-.43l-.18-.07a.81.81 0 0 0 -.38 0l-1.11.23a.75.75 0 0 0 -.43.33.71.71 0 0 0 -.07.55.7.7 0 0 0 .33.42l.17.08a.81.81 0 0 0 .38 0z"/><path d="m537.27 344.31.12-.06-.15.06a2.09 2.09 0 0 1 .49-.13h-.17a2.35 2.35 0 0 1 .53 0h-.18.2a.72.72 0 0 0 .52-.07.65.65 0 0 0 .31-.4.71.71 0 0 0 -.06-.52.67.67 0 0 0 -.41-.31 3.07 3.07 0 0 0 -.52-.06 3 3 0 0 0 -.51.06 2.64 2.64 0 0 0 -.81.3.78.78 0 0 0 -.29.38.62.62 0 0 0 .07.48.57.57 0 0 0 .37.29.7.7 0 0 0 .49-.06z"/><path d="m535 349.52.67.24a.72.72 0 0 0 .5-.07.55.55 0 0 0 .18-.16.46.46 0 0 0 .11-.22v-.17a.63.63 0 0 0 -.09-.33l-.1-.13a.66.66 0 0 0 -.29-.17l-.67-.2a.43.43 0 0 0 -.25 0 .42.42 0 0 0 -.24.07.44.44 0 0 0 -.17.16.42.42 0 0 0 -.11.22v.16a.59.59 0 0 0 .09.32l.1.13a.74.74 0 0 0 .27.16z"/><path d="m527.89 351.31a2.6 2.6 0 0 0 .29.76 2.94 2.94 0 0 0 .5.66.66.66 0 0 0 .93 0 .68.68 0 0 0 .19-.47.66.66 0 0 0 -.19-.46 2.27 2.27 0 0 1 -.3-.32l.1.13a2.29 2.29 0 0 1 -.3-.5l.07.15c0-.09-.07-.19-.1-.28a.65.65 0 0 0 -.28-.37.62.62 0 0 0 -.48-.06.61.61 0 0 0 -.37.28.66.66 0 0 0 -.06.48z"/><path d="m534.73 355.58h.27a.43.43 0 0 0 .25 0 .6.6 0 0 0 .21-.14.49.49 0 0 0 .14-.21.43.43 0 0 0 .05-.25v-.18a.66.66 0 0 0 -.17-.29l-.13-.1a.63.63 0 0 0 -.33-.09h-.22a.51.51 0 0 0 -.25.06.46.46 0 0 0 -.21.13.6.6 0 0 0 -.14.21.51.51 0 0 0 0 .25v.17a.62.62 0 0 0 .17.28l.13.11a.73.73 0 0 0 .33.08z"/><path d="m542.35 349.39.57.33.29.17a2.88 2.88 0 0 0 .31.13l.15.06h.2a.57.57 0 0 0 .29-.07.35.35 0 0 0 .17-.09.76.76 0 0 0 .19-.21.86.86 0 0 0 .1-.38.49.49 0 0 0 -.06-.29.54.54 0 0 0 -.16-.24 3 3 0 0 0 -.39-.32l-.28-.17-.57-.35a.53.53 0 0 0 -.3-.09.58.58 0 0 0 -.32 0 .72.72 0 0 0 -.27.15.56.56 0 0 0 -.21.22.8.8 0 0 0 -.08.62.91.91 0 0 0 .37.49z"/></g><path d="m381.54 263.68c50.8-4.37 99.46-3.54 147.46-20.68a173.29 173.29 0 0 0 12.46 26.44c4.13 7.12 9 14.19 16.12 18.36 2.56 1.5 5.36 2.6 7.73 4.4s4.29 4.55 4.06 7.5c2.45.26 4.78-1.44 6-3.58a19.41 19.41 0 0 0 2-7.1l2.52-17.72c1.15-8 2.29-16.1 2-24.2a67.57 67.57 0 0 0 -36-56.14 10.81 10.81 0 0 1 -2.89-1.96 11.27 11.27 0 0 1 -1.49-2.06c-6.41-10.11-17.74-16.38-29.47-18.77s-23.89-1.27-35.68.79a227.55 227.55 0 0 0 -99.93 44.25c-5.26 4.09-10.46 8.56-13.59 14.44s-3.95 12.79-4.07 19.49a110.07 110.07 0 0 0 11.19 50.3c.57 1.15 1.42 2.46 2.7 2.45a2.38 2.38 0 0 0 2.15-1.14c12.71-27 20.65-68.75 15.89-47.16"/><path d="m381.54 264.33c19.58-1.28 39.18-2.24 58.74-3.67 19.17-1.41 38.38-3.53 57.19-7.56a253.45 253.45 0 0 0 31.87-9l-1.48-.84a175.21 175.21 0 0 0 12.77 27.08c4.37 7.51 9.64 14.87 17.45 19.1 4 2.19 10.3 4.61 10 10.2a1.3 1.3 0 0 0 1.27 1.28c4 .26 6.91-3 8.11-6.5a35.23 35.23 0 0 0 1.26-6.61c.33-2.38.67-4.76 1-7.14 1.34-9.53 3.07-19.13 3.3-28.77a68.9 68.9 0 0 0 -29.55-57.81q-2.29-1.59-4.73-3c-1.61-.91-3.66-1.6-5-2.92s-2.27-3.36-3.48-4.9a39.09 39.09 0 0 0 -3.73-4.1c-12.5-11.85-30.39-14.55-46.94-13.15-17.32 1.47-34.61 5.9-50.92 11.78a229.63 229.63 0 0 0 -45.66 22.39 200.46 200.46 0 0 0 -20.66 14.9 48.11 48.11 0 0 0 -8.41 8.7 31.18 31.18 0 0 0 -5.06 11.54c-1.9 8.5-1.54 17.66-.55 26.26a111.5 111.5 0 0 0 6.17 25.95c.76 2.06 1.59 4.1 2.47 6.12a29.39 29.39 0 0 0 2.77 5.59 3.5 3.5 0 0 0 3.75 1.58c1.78-.45 2.31-1.91 3-3.43a209.4 209.4 0 0 0 7.7-20c3.29-9.86 6.21-19.89 8.51-30a4.79 4.79 0 0 0 .31-2 1.07 1.07 0 0 0 -1.54-.63c-.57.27-.67 1.34-.8 1.87-.37 1.58-.73 3.16-1.07 4.74-.3 1.32 1.73 1.88 2 .56.33-1.49.66-3 1-4.46.08-.36.19-.72.26-1.08.13-.72.3-.12-.36.18l-1.54-.62c-.13-.49 0-.58-.1 0l-.3 1.33c-.35 1.52-.72 3-1.1 4.53q-1.89 7.53-4.12 15c-1.91 6.4-4 12.75-6.32 19-1.19 3.16-2.44 6.29-3.8 9.38-.48 1.1-1.15 3.89-2.68 3.78-.82-.07-1.3-1-1.64-1.65-.51-1-1-2-1.41-2.95a107.48 107.48 0 0 1 -9.7-50 44.2 44.2 0 0 1 2.2-12.38 29.48 29.48 0 0 1 6.31-10.21c5.41-5.86 12.22-10.57 18.76-15.07a226 226 0 0 1 89.49-36.56c16.49-2.87 34.52-3.82 49.66 4.55a41.8 41.8 0 0 1 8.75 6.37 35.86 35.86 0 0 1 3.73 4.15c1.12 1.46 2 3.19 3.2 4.55a16.05 16.05 0 0 0 4.46 2.82c1.58.85 3.13 1.78 4.64 2.77a62.93 62.93 0 0 1 8.26 6.47 67.34 67.34 0 0 1 20.27 36.32c1.6 8.25 1.21 16.64.21 24.94-.56 4.6-1.26 9.19-1.93 13.79s-1.21 9.19-2 13.75c-.6 3.41-2.23 8.06-6.49 7.79l1.27 1.27c.2-4.49-3.2-7.88-6.82-10-2-1.17-4.15-2.09-6.13-3.31a30.59 30.59 0 0 1 -5.28-4.14c-6.73-6.52-11.28-15.37-15.38-23.68a169.53 169.53 0 0 1 -6.87-15.91 1.22 1.22 0 0 0 -1.48-.83c-18.2 6.5-37.16 10.6-56.29 13.26s-38.5 3.94-57.8 5.27c-11 .77-22.07 1.54-33.07 2.7-.81.09-.84 1.35 0 1.3z"/><path d="m496.05 393.27a5.26 5.26 0 0 0 -4.47-.7 126.49 126.49 0 0 1 -24.28 3.11 68.94 68.94 0 0 1 -12.52-.66c-2.65-.44-6.68-2.34-8.9 0-4.45 4.78 3.32 10.77 6.87 13.1 7.93 5.18 19 6.09 28.06 3.63a25.43 25.43 0 0 0 11.7-6.74c2.29-2.34 7.21-8.68 3.54-11.74z" fill="#fff"/><path d="m447.09 405.55c17.72 2.45 36.38 3.45 53.26-3.55.92-.38.52-1.9-.42-1.51-16.64 6.89-35.16 6.07-52.66 3.77-.73-.1-.91 1.19-.18 1.29z"/><path d="m381.59 524.87c26.1 19.69 61.09 23.9 93.77 22.67 37.5-1.41 64.75-11.43 84.69-22.48 6.22-3.44 2.61 6.39 9.72 6.5 4.15.06 0 0 3.39 2.41 8.5 6 13.54 16.18 14.86 26.53s-.79 20.89-4.4 30.68c-14.27 38.66-50.3 65-87.16 83.43-20.5 10.26-42.78 19-65.66 17.54-26.2-1.66-50.55-17.12-65.64-38.6s-21.4-48.39-20.44-74.62c.29-7.67 1.19-15.44 4.26-22.47 5.95-13.66 19-22.58 31.5-30.75" fill="#8346FC"/><path d="m381.24 525.46c18.44 14.1 41.29 20.35 64.1 22.49a229.94 229.94 0 0 0 35.21.44 205.43 205.43 0 0 0 35.76-5.19 179.07 179.07 0 0 0 28.78-9.53q6-2.59 11.9-5.65c.88-.46 1.75-.92 2.62-1.4a7.33 7.33 0 0 1 2.46-1.13c.72 0 1 .73 1.29 1.55a12.06 12.06 0 0 0 1.92 3.76 6 6 0 0 0 4.49 1.93 5.74 5.74 0 0 0 1.49 0c.37-.11-.45-1.59-.65-1.15a2.06 2.06 0 0 0 .26 1.75 8.36 8.36 0 0 0 2.31 2.08 29.13 29.13 0 0 1 3.23 2.85c8.29 8.36 11.37 20.47 10.63 32-.78 12-5.23 23.79-11 34.29a124.52 124.52 0 0 1 -19 25.76c-15.12 16-33.59 28.4-52.87 38.76-21.86 11.74-46.2 22.82-71.58 21.79-22-.89-42.66-11.72-57.65-27.52-16.28-17.16-25.33-40.15-28.06-63.44a137.1 137.1 0 0 1 -.92-18 78.6 78.6 0 0 1 2.04-18.73c2.92-11.34 10.63-20 19.65-27.08 4.28-3.36 8.82-6.41 13.36-9.4 1.22-.8.08-2.76-1.14-2-9.45 6.21-19.2 12.57-26.25 21.58a44.59 44.59 0 0 0 -7.87 15.31 77 77 0 0 0 -2.44 19c-.65 24.36 4.93 49.28 18.14 70 12 18.81 30.59 33.65 52.14 39.94a83 83 0 0 0 35.57 2.14c13.08-1.94 25.63-6.5 37.63-11.92 20.88-9.43 41.12-21.12 58.7-35.88 16.82-14.11 31.11-31.55 39-52.24 4.52-11.92 6.94-25.22 3.71-37.77a41.18 41.18 0 0 0 -7.22-15 33.4 33.4 0 0 0 -5.75-5.83c-.74-.59-2-1.22-2.4-2 .07.11.08.39.08.07a1.54 1.54 0 0 0 -.14-1c-.82-1.34-3.39-.45-4.66-1a4.86 4.86 0 0 1 -2.25-3 7.48 7.48 0 0 0 -1.76-3.25c-1.15-1-2.64-.71-3.91-.14-1.94.88-3.79 2-5.69 3s-4.08 2-6.14 3q-6.51 3-13.25 5.47c-22.28 8.11-45.92 11.39-69.56 11.44s-47.8-3-69.13-13.54a96.79 96.79 0 0 1 -14.48-8.81c-.71-.52-1.37.66-.69 1.18z" fill="#8346FC"/><path d="m328.94 654.14a64.32 64.32 0 0 1 -13.27-11.58c-4.05-4.66-7.56-11.07-5.19-16.77a17.54 17.54 0 0 1 4.52-5.79c3.32-3.14 7.15-6.19 11.7-6.66a6.21 6.21 0 0 1 2.81.25 8.18 8.18 0 0 1 2.51 1.75 181.34 181.34 0 0 1 18.75 19.75" fill="#fff"/><path d="m350.74 635.11q-4.14-5.08-8.66-9.85c-9.61 3.16-18.89 7.34-26.84 13.54-.52.4-1 .83-1.54 1.26.63.88 1.29 1.71 2 2.5a64.32 64.32 0 0 0 13.27 11.58z"/><path d="m329.31 653.49a66.56 66.56 0 0 1 -12.92-11.65c-3.28-3.88-6.59-9.3-5-14.57.77-2.57 2.65-4.49 4.56-6.28a29.33 29.33 0 0 1 6.34-4.8c2.1-1.1 5.32-2.28 7.5-.82a23.4 23.4 0 0 1 2.9 2.56q1.69 1.58 3.34 3.19 3.63 3.57 7.05 7.32 1.71 1.89 3.37 3.81a27 27 0 0 0 3.4 3.76 1.28 1.28 0 0 0 2-1.54 20.26 20.26 0 0 0 -3-3.94c-1.1-1.28-2.23-2.55-3.37-3.8q-3.44-3.75-7.06-7.31-1.81-1.78-3.68-3.51a26.87 26.87 0 0 0 -3.49-3c-2.49-1.62-5.76-1.07-8.38 0a25.28 25.28 0 0 0 -7.34 4.79c-2.19 1.94-4.49 4.06-5.84 6.69-2.77 5.44-.26 11.6 3.07 16.15a57.12 57.12 0 0 0 15.84 14.27c.82.52 1.54-.75.75-1.29z"/><path d="m551.87 754.76a372.8 372.8 0 0 0 13.06 50.84 6.66 6.66 0 0 0 1.66 3 6.45 6.45 0 0 0 3.51 1.21 90 90 0 0 0 42-4.64c2-.71 4-1.6 5.06-3.4 1.19-2.08.65-4.67.07-7q-7.13-28.84-14.31-57.77" fill="#fff"/><path d="m551.22 754.93a360.38 360.38 0 0 0 8.12 35.72c.83 2.94 1.69 5.87 2.6 8.78a59.21 59.21 0 0 0 2.72 8.13c1.05 2.22 3 2.93 5.31 3.23a85.2 85.2 0 0 0 8.6.7 89.88 89.88 0 0 0 33.84-5.34c2-.74 4.2-1.66 5.45-3.54 1.36-2.05 1.14-4.58.65-6.87-1.3-6-3-12-4.46-18-3.38-13.64-6.51-27.37-10.19-40.93a1 1 0 0 0 -1.88.52c2.59 11.45 5.64 22.81 8.47 34.2l4.26 17.1c.69 2.74 1.5 5.49 2 8.27.48 2.6 0 4.91-2.36 6.3a33.6 33.6 0 0 1 -7.27 2.69c-2.57.77-5.17 1.43-7.79 2a88.41 88.41 0 0 1 -16.38 1.79q-4.14.06-8.26-.25c-1.22-.09-2.44-.21-3.66-.35s-2.89-.23-3.88-1.17a7.94 7.94 0 0 1 -1.58-3.4c-.46-1.37-.9-2.75-1.34-4.13q-1.34-4.12-2.57-8.28c-3.65-12.32-6.7-24.83-9.12-37.44-.16-.86-1.45-.49-1.3.35z"/><path d="m588.82 805.87c.25-2.32 1.11-5 3.62-5.65a4.15 4.15 0 0 1 5.21 3.75c.08 1 1.56 1 1.55 0 0-2.35.92-5.18 3.07-6.43 2.81-1.62 4.44 1.89 5.19 4a.84.84 0 0 0 1.61 0c.6-2.39 1.53-5.84 4.55-5.95 1.11 0 1.11-1.76 0-1.72-3.91.16-5.36 4-6.16 7.22h1.61c-1-2.81-3.11-6.63-6.77-5.33-3.19 1.13-4.73 5.1-4.65 8.22h1.55a5.67 5.67 0 0 0 -6.43-5.31c-3.62.54-5 4-5.24 7.21-.07.83 1.2.81 1.29 0z" fill="#8346FC"/><path d="m396.33 709.71-1.33 88.55c-.05 3.6.22 7.77 3.9 9.93a16.22 16.22 0 0 0 6.19 1.67 121.4 121.4 0 0 0 43.68-2.47 9 9 0 0 0 4.23-1.89 5.84 5.84 0 0 0 1.32-3.1q4.14-20.35 6.61-40.88" fill="#fff"/><path d="m395.67 709.71c-.84 28.35-1.26 56.71-1.81 85.07-.1 4.7-.69 10.55 3.51 13.79 2.45 1.88 5.64 2.21 8.61 2.56 3.29.38 6.61.63 9.92.74a123 123 0 0 0 20.12-1q4.94-.64 9.8-1.69c2.58-.56 6-.94 7.93-2.92a7.59 7.59 0 0 0 1.69-4.06q.58-2.91 1.15-5.82 1.1-5.82 2.08-11.66c1.29-7.69 2.52-15.42 3.21-23.2.09-1.06-1.71-1.32-1.88-.25-2 13.16-3.8 26.33-6.42 39.39-.27 1.32-.37 3.06-1.36 4.08s-2.5 1.29-3.79 1.6c-3 .75-6.11 1.36-9.2 1.85a120.4 120.4 0 0 1 -19.53 1.48c-3.16 0-6.33-.16-9.48-.42a40.37 40.37 0 0 1 -9.16-1.34c-5.67-1.84-5-8.09-4.91-12.88l.47-40c.18-15.09.34-30.17.36-45.27a.66.66 0 0 0 -1.31 0z"/><path d="m430.83 806.53a8.59 8.59 0 0 1 3-5.37c.88-.73 2-1.11 2.93-.29a5.87 5.87 0 0 1 1.44 3 .81.81 0 0 0 1.55 0c.43-2.17 1.21-4.7 3.45-5.64 3-1.27 3.7 2.78 3.59 4.91a.86.86 0 0 0 1.69.22 7.08 7.08 0 0 1 4.15-4.94c.85-.4.25-1.85-.64-1.52a8.28 8.28 0 0 0 -5.17 6l1.69.23c.14-2.91-1.06-7.4-4.8-6.79-3.43.57-4.94 4.07-5.51 7.1h1.55c-.69-2.42-2.4-5.59-5.45-4.31-2.67 1.13-4.34 4.32-4.71 7.06-.12.83 1.15 1.2 1.28.35z" fill="#8346FC"/><path d="m534 596a378.89 378.89 0 0 0 -101.47-4.07c-40.58 3.85-84.94 17.56-106.77 57.22-9.89 18-14 39.51-14.72 60.77-.45 13.13.4 26.74 5.61 38.42 10.88 24.38 36.85 33.31 60.28 37.91a439.93 439.93 0 0 0 145 4.09c18-2.49 36.2-6.23 52.36-15.73s30.18-25.61 34.82-45.81c3.47-15.15 1.47-31.3-2.18-46.41-4.6-19-11.94-37.51-23.36-52.25s-32.51-32.33-49.57-34.14" fill="#fff"/><path d="m354.16 657.23-4.11-13.44a7.64 7.64 0 0 1 -.46-4.13 7.31 7.31 0 0 1 2.21-3.12c10.57-10.19 23.95-17.11 37.86-21.8s28.45-7.25 42.93-9.67c1.93-.32 4.06-.6 5.72.43s2.44 3.42 2.92 5.49q3.63 15.56 7.25 31.09"/><path d="m354.78 657.06-2.16-7.44c-.72-2.45-1.65-4.91-2.16-7.41-.59-2.86 1.29-4.43 3.21-6.19 1.71-1.56 3.49-3.06 5.33-4.46a101.45 101.45 0 0 1 24-13.34 171.45 171.45 0 0 1 28.46-8.29c5-1.06 10-2 15.06-2.85 2.47-.42 4.94-.93 7.43-1.23s4.33.12 5.41 2.4 1.43 5.14 2 7.63l2 8.75q2.06 8.86 4.14 17.72c.31 1.31 2.31.76 2-.55q-1.94-8.38-3.9-16.76l-2-8.49c-.59-2.52-1-5.11-1.83-7.58a7.11 7.11 0 0 0 -3.29-4.5c-2-1-4.27-.63-6.37-.29-5.43.91-10.87 1.84-16.28 2.9-19.89 3.88-40.11 9.71-56.58 22-2.16 1.61-4.24 3.3-6.23 5.11-1.7 1.54-4 3.29-4.34 5.72-.4 2.71 1.11 5.74 1.92 8.28q1.46 4.62 3 9.23a.64.64 0 0 0 1.24-.34z"/><path d="m271.81 581.34c6.38 10.79 17.43 18 28.78 23.31s23.4 9.18 34.3 15.38 20.88 15.28 24.58 27.26l23.53-13.45c6.7-3.84 13.56-7.74 21.14-9.23a5 5 0 0 0 2.5-1 4.15 4.15 0 0 0 1.09-2.33c1.22-5.87-.28-12.07-3.13-17.35s-7-9.75-11.24-14c-9.73-9.57-20.63-18.11-33-23.85-4-1.84-8.1-3.39-12-5.3a71.67 71.67 0 0 1 -30.69-28.66"/><path d="m271.22 581.68c7.39 12.52 20.38 20 33.28 25.77 14 6.27 29.1 11.18 40.83 21.51 5.75 5.06 10.52 11.32 12.84 18.69a1.36 1.36 0 0 0 2 .8l18.38-10.52c5.69-3.26 11.34-6.77 17.39-9.35a50 50 0 0 1 8.94-2.76 5 5 0 0 0 3.17-1.75 8.6 8.6 0 0 0 1.23-4c.83-6.22-1.05-12.52-4.18-17.87s-7.57-10-12.06-14.3a147.73 147.73 0 0 0 -14-12 104.24 104.24 0 0 0 -15.67-9.74c-5.78-2.88-11.92-5-17.58-8.07a73.72 73.72 0 0 1 -27.12-26.5 1.2 1.2 0 0 0 -2.07 1.21 69.82 69.82 0 0 0 22.11 24 89.7 89.7 0 0 0 15.8 8.2 111.63 111.63 0 0 1 16.21 8.32 136 136 0 0 1 27.56 23.84c4 4.68 7.2 10.12 8.23 16.24a21.2 21.2 0 0 1 .28 4.43c0 1.32 0 3.44-.85 4.55s-2.8 1-3.91 1.29a45.75 45.75 0 0 0 -4.45 1.37c-6.59 2.41-12.63 6.08-18.7 9.56l-20.09 11.49 2 .8c-4.23-13.44-15.57-22.94-27.69-29.26-14.07-7.33-29.71-11.31-43.21-19.78-6.93-4.35-13.2-9.85-17.47-16.9a.68.68 0 0 0 -1.18.69z"/><path d="m510.51 718.52a129 129 0 0 0 86.63 28.63 8.76 8.76 0 0 0 4.21-.94 8.52 8.52 0 0 0 2.91-4 73.46 73.46 0 0 0 6.23-30.68"/><path d="m510 719a127.53 127.53 0 0 0 72.07 29.15 121.72 121.72 0 0 0 13.37.26c2-.07 4.27 0 6.13-1a8.63 8.63 0 0 0 3.58-4.47c4.32-9.67 6.89-20.81 6.39-31.44a1.08 1.08 0 0 0 -2.16 0 88.62 88.62 0 0 1 -1.16 13.8 72.34 72.34 0 0 1 -3.7 13.19c-.75 2-1.48 4.3-2.87 5.89s-3.76 1.56-5.79 1.63c-4.18.13-8.37.06-12.54-.21a132.15 132.15 0 0 1 -48.26-12.73 128.66 128.66 0 0 1 -24.06-15.07c-.67-.53-1.62.39-1 1z"/><path d="m600.94 750.05c7.45-11.3 10.94-24.43 11.13-37.91s-2.74-27.27-6.65-40.25a138.85 138.85 0 0 0 -15.7-35.18 111.52 111.52 0 0 0 -23.06-25.55c-9.25-7.6-20.44-15.08-32.66-16.29-1.45-.14-1.41 2.08 0 2.25 10.49 1.3 20.24 7.42 28.42 13.77a110.39 110.39 0 0 1 23.05 23.93 128.39 128.39 0 0 1 16 33.16 158.22 158.22 0 0 1 8 39 76.89 76.89 0 0 1 -1.47 22.44 69.45 69.45 0 0 1 -8.28 19.89c-.49.81.75 1.52 1.26.74z"/><path d="m534.2 595.29a375.9 375.9 0 0 0 -67.46-6c-19.28 0-38.79 1.2-57.75 4.88-15.91 3.1-31.56 8.11-45.72 16.1a100.1 100.1 0 0 0 -35.71 33.32c-10.7 16.9-15.52 36.86-17.2 56.62-1.64 19.2-1.51 40.65 9.88 57.12 9.24 13.35 24 21.17 39.17 25.89a207.14 207.14 0 0 0 25.47 5.78q16.61 2.92 33.39 4.59a438.12 438.12 0 0 0 67.28 1.49q16.9-.91 33.68-3.15a214.89 214.89 0 0 0 31.62-6.16 118.9 118.9 0 0 0 14.48-5.3c1.32-.58.18-2.52-1.14-1.94-9.7 4.27-20.1 6.89-30.51 8.78-10.7 1.93-21.54 3.22-32.37 4.19a440.82 440.82 0 0 1 -65.81 1 402.16 402.16 0 0 1 -63.44-8.5c-15-3.36-30.44-8.63-42-19.2a51.33 51.33 0 0 1 -13.69-20.44c-3.44-9.54-4.26-19.8-4.17-29.87.18-19.9 3.19-40.43 11.6-58.62a94.41 94.41 0 0 1 31.73-37.75c13.09-9.12 28.08-15.22 43.47-19.26 17.1-4.49 34.74-6.39 52.37-7.22a390.14 390.14 0 0 1 66.16 2.66c5.45.67 10.88 1.49 16.29 2.4.91.16 1.32-1.24.39-1.41z"/><path d="m510.92 574.44c1-11.49 6.95-21.94 13.51-31.43 3.37-4.87 7.14-9.77 12.44-12.42a6.11 6.11 0 0 1 3.47-.82 6 6 0 0 1 2.84 1.4c4.16 3.25 6.79 8.06 8.94 12.89a108.78 108.78 0 0 1 7.2 22.24" fill="#fff"/><path d="m552.12 544.06c-2.15-4.83-4.78-9.64-8.94-12.89a6 6 0 0 0 -2.84-1.4 4.44 4.44 0 0 0 -1.7.13 15.14 15.14 0 0 0 -1.87 2.59c-5.82 10.15-6.48 22.38-6.51 34.08l5.73 3.66 23.33-3.93a108.78 108.78 0 0 0 -7.2-22.24z" fill="#8346FC"/><path d="m587.92 574.44c1-11.49 7-21.94 13.51-31.43 3.37-4.87 7.14-9.77 12.44-12.42a6.13 6.13 0 0 1 3.47-.82 6 6 0 0 1 2.84 1.4c4.16 3.25 6.79 8.06 8.94 12.89a108.78 108.78 0 0 1 7.2 22.24" fill="#fff"/><path d="m629.13 544.06c-2.16-4.83-4.79-9.64-9-12.89a6 6 0 0 0 -2.84-1.4 4 4 0 0 0 -1.24.05v.06a111.43 111.43 0 0 0 -9.42 37.67l2.37 3.35 27.36-4.6a109.37 109.37 0 0 0 -7.23-22.24z" fill="#8346FC"/><path d="m511.62 574.44c1.65-12.35 8-23.37 15.34-33.24a40.35 40.35 0 0 1 5.77-6.41c2-1.75 5.71-4.83 8.49-3.45 2.48 1.22 4.52 3.88 6 6.14a50.93 50.93 0 0 1 4 7.63 103.45 103.45 0 0 1 4 10.65c1.14 3.58 1.94 7.24 3 10.83.33 1.1 2.25 1 2.1-.29-.87-7.08-3.5-14.17-6.27-20.72-2.45-5.79-5.4-11.93-10.64-15.71-3-2.19-6-1.18-9 .7a29.94 29.94 0 0 0 -6.7 6.16 99.64 99.64 0 0 0 -10.89 16.51c-3.5 6.53-6.28 13.74-6.71 21.2-.05.91 1.27.86 1.39 0z"/><path d="m588.62 574.44c1.65-12.35 8-23.37 15.34-33.24a40.35 40.35 0 0 1 5.77-6.41c2-1.75 5.71-4.83 8.49-3.45 2.48 1.22 4.52 3.88 6 6.14a50.93 50.93 0 0 1 4 7.63 103.45 103.45 0 0 1 4 10.65c1.14 3.58 1.94 7.24 3 10.83.33 1.1 2.25 1 2.1-.29-.87-7.08-3.5-14.17-6.27-20.72-2.45-5.79-5.4-11.93-10.64-15.71-3-2.19-6-1.18-9 .7a29.94 29.94 0 0 0 -6.7 6.16 99.64 99.64 0 0 0 -10.89 16.51c-3.5 6.53-6.28 13.74-6.71 21.2-.05.91 1.27.86 1.39 0z"/><path d="m588.48 553.35c-21.05-1.67-42.58-1.85-62.86 4.06-51.93 15.14-65.41 65.81-54.15 114.45 4 17.15 13.39 34 28.12 44.11 17.16 11.78 40.33 13 60.44 14 18.61 1 37.45.9 55.62-3.23 19.25-4.37 39.54-13.82 51.2-30.36 17.88-25.35 18.12-59.21 9-87.87-12.36-38.75-48.28-55.85-87.35-55.16" fill="#fff"/><path d="m499.26 716.54c10.93 7.54 24.12 10.85 37.13 12.52 6.55.84 13.15 1.29 19.74 1.67 7.56.43 15.13.78 22.71.75 27.07-.08 56.34-4.84 77.82-22.62 20.13-16.69 27.49-44.25 26.06-69.53-1.33-23.45-8.77-47.77-26.43-64.09-16-14.83-37.87-21.66-59.37-22.69-2.81-.14-5.62-.17-8.44-.12a.93.93 0 0 0 0 1.85c21.33-.35 43.3 4.67 60.54 17.7a72.79 72.79 0 0 1 20.21 23.68c5.73 10.71 8.85 22.92 10.42 34.91 3.23 24.5-1 52.26-18.38 71-8.47 9.16-19.61 15.54-31.23 19.84-13.16 4.86-27.1 7.1-41.07 7.79a345.89 345.89 0 0 1 -42.83-1c-13-1-26.33-2.74-38.24-8.3a59.66 59.66 0 0 1 -8-4.51c-.7-.47-1.35.66-.66 1.14z"/><path d="m588.48 552.7c-22.54-2.15-46-2.36-67.62 5.1-16.12 5.54-30.51 15.76-39.86 30.2a85.83 85.83 0 0 0 -10.73 24.82.93.93 0 0 0 1.79.5c4.13-15.32 12.41-29.42 24.65-39.65 15.06-12.57 34.48-18 53.72-19.67a256.79 256.79 0 0 1 38 0c.85 0 .83-1.23 0-1.31z"/><path d="m482.24 754.76a371.31 371.31 0 0 0 13.05 50.84 6.66 6.66 0 0 0 1.66 3 6.45 6.45 0 0 0 3.51 1.21 90 90 0 0 0 42.05-4.64c2-.71 4-1.6 5.06-3.4 1.19-2.08.65-4.67.07-7q-7.17-28.89-14.36-57.79" fill="#fff"/><path d="m481.59 754.93q2.6 15 6.44 29.68 2 7.47 4.26 14.82c.73 2.34 1.44 4.68 2.26 7a5.79 5.79 0 0 0 3.61 4 28.21 28.21 0 0 0 6.41.88q3.66.3 7.34.3a91.36 91.36 0 0 0 14.21-1.12 89 89 0 0 0 14-3.37c3.61-1.18 8.24-2.49 9-6.82.4-2.31-.3-4.66-.86-6.89l-2.1-8.49c-1.44-5.82-2.77-11.67-4.36-17.45a1 1 0 0 0 -1.88.52c2.08 9.43 4.85 18.71 7 28.14.43 2 .75 4.27-.69 5.91s-3.46 2.11-5.28 2.74a89.23 89.23 0 0 1 -39.8 4.24 9.16 9.16 0 0 1 -2.88-.62 4.1 4.1 0 0 1 -1.93-2.63c-.79-2.24-1.49-4.52-2.2-6.79q-2.1-6.66-4-13.4-4.26-15.32-7.28-30.94c-.17-.86-1.45-.49-1.3.35z"/><path d="m519.18 805.87c.26-2.32 1.12-5 3.62-5.65a4.15 4.15 0 0 1 5.2 3.78c.07 1 1.56 1 1.54 0 0-2.35.92-5.18 3.08-6.43 2.8-1.62 4.43 1.89 5.18 4a.84.84 0 0 0 1.61 0c.6-2.39 1.54-5.84 4.56-5.95 1.1 0 1.11-1.76 0-1.72-3.92.16-5.37 4-6.17 7.22h1.61c-1-2.81-3.11-6.63-6.76-5.33-3.19 1.13-4.73 5.1-4.65 8.22h1.54a5.67 5.67 0 0 0 -6.43-5.31c-3.62.54-5 4-5.24 7.21-.07.83 1.2.81 1.29 0z" fill="#8346FC"/><path d="m311.27 709.71-1.38 88.55c-.05 3.6.23 7.77 3.9 9.93a16.27 16.27 0 0 0 6.19 1.67 121.39 121.39 0 0 0 43.68-2.47 9 9 0 0 0 4.27-1.89 5.93 5.93 0 0 0 1.33-3.1q4.13-20.35 6.6-40.88" fill="#fff"/><path d="m310.61 709.71c-.83 28.35-1.26 56.71-1.81 85.07-.09 4.7-.69 10.55 3.52 13.79 2.44 1.88 5.63 2.21 8.6 2.56q4.95.57 9.93.74a123.05 123.05 0 0 0 20.12-1c3.28-.43 6.55-1 9.79-1.69 2.58-.56 6-.94 7.93-2.92a7.68 7.68 0 0 0 1.7-4.06q.58-2.91 1.14-5.82 1.11-5.82 2.08-11.66c1.29-7.69 2.53-15.42 3.21-23.2.09-1.06-1.71-1.32-1.88-.25-2 13.16-3.8 26.33-6.42 39.39-.27 1.32-.37 3.06-1.35 4.08a7.74 7.74 0 0 1 -3.79 1.6c-3 .75-6.12 1.36-9.2 1.85a120.58 120.58 0 0 1 -19.53 1.48q-4.75 0-9.49-.42a40.45 40.45 0 0 1 -9.16-1.34c-5.66-1.84-5-8.09-4.9-12.88l.47-40c.17-15.09.33-30.17.36-45.27a.66.66 0 0 0 -1.32 0z"/><path d="m345.77 806.53a8.64 8.64 0 0 1 3-5.37c.89-.73 2-1.11 2.93-.29a5.79 5.79 0 0 1 1.44 3 .81.81 0 0 0 1.55 0c.43-2.17 1.21-4.7 3.45-5.64 3-1.27 3.71 2.78 3.59 4.91a.86.86 0 0 0 1.69.22 7.07 7.07 0 0 1 4.16-4.94c.84-.4.24-1.85-.65-1.52a8.28 8.28 0 0 0 -5.17 6l1.69.23c.14-2.91-1.06-7.4-4.8-6.79-3.42.57-4.93 4.07-5.51 7.1h1.55c-.69-2.42-2.4-5.59-5.44-4.31-2.68 1.13-4.34 4.32-4.72 7.06-.11.83 1.15 1.2 1.28.35z" fill="#8346FC"/><path d="m563.34 607.74a2.63 2.63 0 0 0 3.1-1.14 4 4 0 0 0 .22-3.47 5.18 5.18 0 0 0 -3.14-3.1 4.57 4.57 0 0 0 -4.29.78c-1.4 1.18-1.88 3.13-2 5a20.35 20.35 0 0 0 1.43 9.32c.81 2 2.34 4.06 4.47 4a4.07 4.07 0 0 0 3.32-2.34 10.24 10.24 0 0 0 .87-4.14 5.55 5.55 0 0 0 -.42-2.92 2.06 2.06 0 0 0 -2.49-1.08l1 .59"/><path d="m563.16 608.39a3.46 3.46 0 0 0 4.34-2 5.42 5.42 0 0 0 -1.11-5.53 5.73 5.73 0 0 0 -5.38-1.93 5.57 5.57 0 0 0 -4.17 3.71 15.1 15.1 0 0 0 -.64 6.51 20.84 20.84 0 0 0 1.67 6.67 7.08 7.08 0 0 0 3.7 4 4.53 4.53 0 0 0 5.08-1.64c1.48-1.86 1.84-4.77 1.6-7.08-.21-2-1.85-4.24-4.14-3.43a1 1 0 0 0 -.23 1.78l1 .59c1.07.66 2-1 1-1.68l-1-.6-.24 1.79c1.55-.54 1.71 1.78 1.68 2.76a8.46 8.46 0 0 1 -1 4.31 2.64 2.64 0 0 1 -3.22 1.29 5.5 5.5 0 0 1 -2.42-2.84 18.73 18.73 0 0 1 -1.52-9.14c.2-2.62 1.59-5.85 4.82-5a4.19 4.19 0 0 1 3 3.07c.35 1.54-.51 3.7-2.43 3.14-.85-.25-1.14 1-.35 1.3z"/><path d="m621.44 607.74a2.64 2.64 0 0 0 3.11-1.14 4 4 0 0 0 .21-3.47 5.14 5.14 0 0 0 -3.13-3.1 4.57 4.57 0 0 0 -4.29.78 7.09 7.09 0 0 0 -2 5 20.22 20.22 0 0 0 1.43 9.32c.8 2 2.33 4.06 4.47 4a4.05 4.05 0 0 0 3.31-2.34 10.25 10.25 0 0 0 .88-4.14 5.55 5.55 0 0 0 -.42-2.92 2.07 2.07 0 0 0 -2.49-1.08l1 .59"/><path d="m621.26 608.39a3.47 3.47 0 0 0 4.35-2 5.44 5.44 0 0 0 -1.11-5.53 5.73 5.73 0 0 0 -5.38-1.93 5.6 5.6 0 0 0 -4.18 3.71 15.09 15.09 0 0 0 -.63 6.51 21.09 21.09 0 0 0 1.66 6.67 7.13 7.13 0 0 0 3.71 4 4.53 4.53 0 0 0 5.08-1.64c1.48-1.86 1.83-4.77 1.6-7.08-.21-2-1.85-4.24-4.14-3.43a1 1 0 0 0 -.23 1.78l1 .59c1.07.66 2-1 1-1.68l-1-.6-.23 1.79c1.55-.54 1.71 1.78 1.67 2.76a8.45 8.45 0 0 1 -1 4.31 2.65 2.65 0 0 1 -3.23 1.29 5.48 5.48 0 0 1 -2.41-2.84 18.73 18.73 0 0 1 -1.52-9.14c.2-2.62 1.59-5.85 4.82-5a4.16 4.16 0 0 1 2.91 3.07c.36 1.54-.5 3.7-2.42 3.14-.85-.25-1.14 1-.36 1.3z"/><path d="m608.13 627c-8-.45-16.1-.45-23.79 1.43-19.69 4.82-24.94 20.48-20.82 35.43a22.14 22.14 0 0 0 10.48 13.46c6.46 3.58 15.22 3.88 22.82 4.14a94.4 94.4 0 0 0 21.06-1.16c7.29-1.4 15-4.37 19.45-9.5 6.84-7.87 7-18.3 3.66-27.11-4.57-11.9-18.11-17.07-32.89-16.74" fill="#8346FC"/><path d="m608.13 626.3c-14.65-1-33.38-.56-42.54 13a27.52 27.52 0 0 0 -4.38 16.47c.27 6.71 2.3 13.47 7 18.39 5.81 6.05 14.2 7.54 22.22 8.07 9.2.61 18.65.86 27.74-.87 7.49-1.36 15.59-4.36 20.52-10.36s6.43-13.93 5.07-21.55a25.7 25.7 0 0 0 -10.28-16.87c-5.67-4-12.73-5.83-19.59-6.36-1.92-.15-3.84-.19-5.76-.15a.93.93 0 0 0 0 1.86c12.52-.21 27.49 3.7 32.1 16.81 2.36 6.74 2.67 14.42-.67 20.9-3.54 6.86-10.25 10.53-17.44 12.56-8.34 2.36-17.06 2.5-25.67 2.22-7.48-.25-15.79-.34-22.42-4.26-10.62-6.28-13.55-21.91-8.47-32.67 6.34-13.43 22.67-16 36-16 2.2 0 4.39.07 6.58.17.85 0 .84-1.26 0-1.31z" fill="#8346FC"/><path d="m595.63 648.58a4 4 0 0 0 -5.21.18c-1.79 1.55-2.2 4.19-2.23 6.43a9.66 9.66 0 0 0 2.06 6.44 8.41 8.41 0 0 0 5.43 3.08c1.14.12 1.33-1.67.26-2a8 8 0 0 1 -3.91-2.15 7.18 7.18 0 0 1 -1.88-4.6 9.42 9.42 0 0 1 .87-5.24c.77-1.28 2.49-2.1 3.82-1.14.6.43 1.35-.54.79-1z"/><path d="m621.13 648.58a4 4 0 0 0 -5.21.18c-1.79 1.55-2.2 4.19-2.23 6.43a9.66 9.66 0 0 0 2.06 6.44 8.41 8.41 0 0 0 5.43 3.08c1.14.12 1.33-1.67.27-2a8 8 0 0 1 -3.92-2.15 7.18 7.18 0 0 1 -1.88-4.6 9.42 9.42 0 0 1 .87-5.24c.77-1.28 2.5-2.1 3.82-1.14.6.43 1.35-.54.79-1z"/><g fill="#8346FC"><path d="m527 626.25 1.68-1.67a.65.65 0 0 0 0-.9.67.67 0 0 0 -.91 0l-1.66 1.68a.64.64 0 0 0 0 .89.65.65 0 0 0 .89 0z"/><path d="m535.13 624.76h.18-.17.22-.17l.21.06-.16-.07a1 1 0 0 1 .23.12l-.14-.1a.62.62 0 0 1 .14.14l-.1-.13a.72.72 0 0 0 .4.31.5.5 0 0 0 .27 0 .43.43 0 0 0 .24-.08.65.65 0 0 0 .24-.91 2.23 2.23 0 0 0 -.19-.24 1.5 1.5 0 0 0 -.24-.2l-.13-.08a1.66 1.66 0 0 0 -.29-.1 1.42 1.42 0 0 0 -1.05.13.63.63 0 0 0 -.29.37v.17a.39.39 0 0 0 0 .24.59.59 0 0 0 .26.3.55.55 0 0 0 .48.06z"/><path d="m528.93 631.51 1.36-.16c.5-.06 1-.1 1.49-.19a.67.67 0 0 0 -.17-1.31c-.5 0-1 .13-1.49.21l-1.36.2a.61.61 0 0 0 -.45.7.62.62 0 0 0 .62.55z"/><path d="m533.62 636.1 2-1.32a.73.73 0 0 0 .33-.42.71.71 0 0 0 -.07-.55.73.73 0 0 0 -1-.25l-2 1.36a.7.7 0 0 0 -.25.93.7.7 0 0 0 .94.25z"/><path d="m641.91 624 3-2.68a.81.81 0 0 0 0-1.13.82.82 0 0 0 -1.13 0l-3 2.71a.78.78 0 0 0 0 1.1.79.79 0 0 0 1.1 0z"/><path d="m651.09 620.7h.06l-.14-.11a1.25 1.25 0 0 0 .24.16l.13.05-.16-.07a3.57 3.57 0 0 1 .68.4l-.15-.12c.16.13.29.28.44.41a2.49 2.49 0 0 1 .42.44l-.11-.15a.81.81 0 0 0 .44.33.73.73 0 0 0 .82-1.07 4 4 0 0 0 -.42-.6 2.39 2.39 0 0 0 -.58-.47 4 4 0 0 0 -.66-.32 1.55 1.55 0 0 0 -.7-.15.69.69 0 0 0 -.39.14.64.64 0 0 0 -.23.33 1 1 0 0 0 0 .34.66.66 0 0 0 .3.38z"/><path d="m648.14 627.74 2 1.63a.9.9 0 0 0 .6.25.88.88 0 0 0 .61-.25.84.84 0 0 0 0-1.2l-2-1.67a.93.93 0 0 0 -.61-.25.89.89 0 0 0 -.62.25.9.9 0 0 0 -.25.62.84.84 0 0 0 .25.62z"/></g><path d="m359.14 643.12c10.86-10.24 24.6-17 38.83-21.53s29-6.81 43.8-9.07a3.08 3.08 0 0 1 4.12 2.47 611.07 611.07 0 0 1 21.11 60.01 3.26 3.26 0 0 1 .18 1.6 3.18 3.18 0 0 1 -1.42 1.68c-24.46 17.8-52.76 29.54-80.68 41.12l-23.16 9.6a3.77 3.77 0 0 1 -2.24.43c-1-.22-1.65-1.2-2.16-2.09a147.76 147.76 0 0 1 -17.52-48.47 20.61 20.61 0 0 1 -.4-6 19.84 19.84 0 0 1 2.26-6.36 100.73 100.73 0 0 1 15.94-23" fill="#fff"/><path d="m205.72 569.35c12.89-22.59 29.74-43.93 52.77-56s53.14-13.15 73.85 2.59c9.25 7 16 16.79 22.08 26.72 2.37 3.9 4.41 9.58.86 12.46-2.82 2.29-7 .82-10.24-.82a189.24 189.24 0 0 1 -28.12-17.51c11.18 7.77 23.43 17.32 24.54 30.89.17 2.15 0 4.55-1.6 6.05-2.51 2.44-6.7 1.1-9.77-.6a73.91 73.91 0 0 1 -25.85-24c.16 11.09 12.68 17 20.55 24.79 2.31 2.3 4.42 5.57 3.31 8.63-1.64 4.52-8.16 4.19-12.65 2.47a61 61 0 0 1 -27-20.52l13.46 20.28c1.79 2.69 3.57 6.35 1.57 8.89-1.5 1.91-4.34 2-6.73 1.57a26.62 26.62 0 0 1 -19.95-16.72c-15.1 17.35-42.14 23-62.91 13.09-5.78-2.76-11.78-8.51-9.72-14.58" fill="#fff"/><path d="m253.88 592.85a63.85 63.85 0 0 1 -23.33 2.29 49.17 49.17 0 0 1 -11.61-2.6 29.35 29.35 0 0 1 -9.74-5.27c-2.87-2.51-5.28-6-4-10 .41-1.29-1.62-1.85-2-.56-2.4 7.78 5.54 13.83 11.76 16.5a52.94 52.94 0 0 0 25.04 4.22 52.18 52.18 0 0 0 14.26-3.3c.78-.3.49-1.52-.36-1.28z"/><path d="m301.34 585.12c1.43 2.51 3.82 7.62-.36 8.9-3.14 1-6.88-.27-9.74-1.58a25.83 25.83 0 0 1 -13.42-14.2c-.46-1.27-2.51-.7-2 .56a27.75 27.75 0 0 0 11.81 14.12 26.62 26.62 0 0 0 8.87 3.33c2.82.5 6.09.59 8-2 2.25-3.16.06-7.11-1.94-9.78-.5-.66-1.58-.09-1.15.68z"/><path d="m324.32 574.39c2.1 2.34 4.89 6.81 1.62 9.45-2.13 1.72-5.81 1.39-8.29.78a40.1 40.1 0 0 1 -9.88-4.4 59.49 59.49 0 0 1 -9.49-6.73 58.29 58.29 0 0 1 -8.93-9.51c-.79-1.08-2.62 0-1.81 1a62.89 62.89 0 0 0 20 17.51 41.32 41.32 0 0 0 11.2 4.54c3 .61 6.87.35 9.06-2.09 3.39-3.79.51-8.68-2.59-11.54a.66.66 0 0 0 -.94.94z"/><path d="m340.79 567.66c0 2-.15 4.41-2 5.63-1.52 1-3.47.73-5.11.19-3.91-1.28-7.57-3.82-10.86-6.24a72.23 72.23 0 0 1 -17.72-18.64c-.74-1.13-2.57-.07-1.82 1.06a76.11 76.11 0 0 0 15.34 17c3 2.4 6.13 4.38 9.27 6.49 2.72 1.81 6.22 3.46 9.56 2.85 4-.72 5.06-4.79 4.62-8.33-.1-.82-1.34-.88-1.33 0z"/><path d="m353.84 543c1.33 2.55 2.69 5.61 2.26 8.56-.54 3.76-4.4 3.91-7.37 3.14a23.69 23.69 0 0 1 -4.8-2.14q-2.65-1.38-5.27-2.85c-3.41-1.91-6.76-4-10.05-6.08-3.81-2.45-7.56-5-11.16-7.74-1.07-.81-2.14 1-1.06 1.81a196.81 196.81 0 0 0 22.82 14.73c3.45 1.89 7.32 4.43 11.3 4.94 3.31.44 6.67-1.22 7.49-4.64.86-3.6-1.1-7.47-3-10.4a.67.67 0 0 0 -1.15.67z"/><path d="m206.3 569.69a207.34 207.34 0 0 1 17.79-25.69 128.15 128.15 0 0 1 22.09-21.64c15.91-11.84 35.52-18.7 55.48-17 10.79.92 21.4 4.54 29.93 11.31 1.05.83 2.55-.65 1.49-1.49-15.91-12.5-37.28-14.64-56.49-9.85-20.27 5.06-37.82 18-51.19 33.72a178.2 178.2 0 0 0 -20.25 30 .67.67 0 0 0 1.15.67z"/><path d="m275.72 592.54c5.9 8.62 5.46 19.29 2 28.77a66.76 66.76 0 0 1 -3.15 7.2c-.55 1.09-1.2 2.13-1.76 3.19l-.13.15c-.26.9-.23 1.15.08.76.14.12.47.21.61.31a5.9 5.9 0 0 1 1.31 1.55 41.78 41.78 0 0 1 6.16 13 44.15 44.15 0 0 1 1.34 16.34c-.13 1.32 2.16 1.64 2.34.31a43.21 43.21 0 0 0 -1.52-18.57 44.7 44.7 0 0 0 -3.62-8.52 43.13 43.13 0 0 0 -2.42-3.87c-.83-1.17-1.74-2.49-3.17-3-2.27-.76-4.68 1.75-2.66 3.67 2.65 2.5 4.78-2.37 5.62-4.1 2.89-6 5.1-12.38 5.5-19s-1.16-13.75-5.37-19.09c-.51-.64-1.62.21-1.15.89z"/><path d="m356.09 580.26a19.11 19.11 0 0 0 -17.74 5.62 14.51 14.51 0 0 0 -3.91 8.87 13.09 13.09 0 0 0 3.71 9.14 18.47 18.47 0 0 0 17.37 5.64 18 18 0 0 0 13.28-12.28 13 13 0 0 0 -1.41-11 10.27 10.27 0 0 0 -8.51-4.71.81.81 0 0 0 0 1.62c6.27.52 9.18 6.78 7.92 12.46a15.64 15.64 0 0 1 -10.5 11.22 16 16 0 0 1 -15-3.16 12.35 12.35 0 0 1 -4.45-7.35 11.44 11.44 0 0 1 2.22-7.88c3.68-5.3 10.6-7.8 16.86-7 .69.1.84-1.08.16-1.21z" fill="#8346FC"/><path d="m395.84 603.43a3.85 3.85 0 0 0 -3.15 4.08 4.12 4.12 0 0 0 3.86 3.67.84.84 0 0 0 .82-.83.82.82 0 0 0 -.82-.82 2.46 2.46 0 0 1 -1.53-.64 2.34 2.34 0 0 1 -.55-.7 2.5 2.5 0 0 1 -.26-.77 2.47 2.47 0 0 1 .45-1.7 3.14 3.14 0 0 1 1.49-1.14c.55-.24.29-1.23-.31-1.15z" fill="#8346FC"/><path d="m821.63 686.84c1.28 5-.31 10.08-1.43 15s-2 9.6-2.64 14.46-1.14 9.58-1.44 14.4a118.43 118.43 0 0 0 -.26 15 1 1 0 0 0 1.95 0c.13-5 0-10 .28-15s.78-10.25 1.49-15.34c.68-4.93 1.54-9.85 2.58-14.72 1-4.65 2-9.43.75-14.13a.67.67 0 0 0 -1.28.36z"/><path d="m810.64 697.89-4.64 16.75a.65.65 0 0 0 1.26.35l4.58-16.76a.64.64 0 0 0 -1.23-.34z"/><path d="m682.47 708.84a402.06 402.06 0 0 1 -.54 86.49q-1.41 12.2-3.56 24.27c-.25 1.44 2 2.06 2.21.61a391.53 391.53 0 0 0 5.4-86.62q-.63-12.4-2-24.75c-.1-.93-1.57-1-1.48 0z"/><path d="m800.68 386.7a40.49 40.49 0 0 1 65.5-28.14 25.3 25.3 0 0 0 5 3.5c3.12 1.42 6.76 1.07 10.05 2 6.76 2 10.89 10.26 8.43 16.87 3-1.77 7.12 0 9.07 2.93s2.28 6.58 2.54 10.08c1 13.35 1.62 26.92-1.27 40s-9.72 25.76-20.91 33.11c-8.11 5.33-17.83 7.49-27.32 9.49-10.87 2.29-28.46.68-37.06-6.36" fill="#fff"/><path d="m801.33 386.7c1.66-15.56 13-29.72 28.14-34.13a41.13 41.13 0 0 1 24.09.49 39 39 0 0 1 10.83 5.53 62 62 0 0 0 5.22 3.94 15.92 15.92 0 0 0 6.07 1.8c2.38.31 4.86.46 7 1.61a11.83 11.83 0 0 1 4.18 3.77 12.16 12.16 0 0 1 1.61 11c-.36 1 .88 1.77 1.72 1.32 2-1.08 4.36-.37 6 1 2 1.6 2.83 4.09 3.28 6.49a70.63 70.63 0 0 1 .79 8.35c.2 3 .37 6.06.47 9.1.36 11.25-.24 22.72-3.83 33.48-3.05 9.15-8.28 17.82-15.94 23.83-8.52 6.69-19.27 9-29.6 11.22s-22.29 4.33-31.24-2.58c-.82-.64-1.93.78-1.12 1.46 8.12 6.78 19.43 5.85 29.18 4.13 11.09-1.95 23-4.42 32.38-11 8.54-6 14.44-14.94 18-24.62 4.21-11.45 4.94-23.86 4.55-36-.12-3.6-.33-7.19-.59-10.78-.22-3.17-.32-6.48-1.32-9.53a10.83 10.83 0 0 0 -5-6.44 7.51 7.51 0 0 0 -7.2-.14l1.72 1.32c2.47-7-1.47-15.31-8.33-18a30.07 30.07 0 0 0 -6.87-1.27 13.56 13.56 0 0 1 -6.88-2.91 47.59 47.59 0 0 0 -11.1-6.92 42.88 42.88 0 0 0 -25.48-2.45 40.38 40.38 0 0 0 -21.12 12.23 41.77 41.77 0 0 0 -10.94 24.7c-.07.84 1.22.82 1.31 0z"/><path d="m815.14 469.75a101 101 0 0 1 -23.52-55.44c-.75-8.33-.78-19.36 7.75-23.86 4.06-2.14 9.07-2.6 13.59-2.39a25.51 25.51 0 0 1 12.04 3.39c3.79 2.32 8.54 7.54 6.23 12.31-1.93 4-7.37 5.25-11.29 6.08a1.27 1.27 0 0 0 -.3 2.29c13.53 6.06 21.21 21 19.39 35.51-.16 1.28 2 1.58 2.26.31 2.07-11.85-3-24.5-11.87-32.41a34.25 34.25 0 0 0 -8.51-5.57l-.3 2.29c4.15-.84 8.93-2.15 11.77-5.54 3.46-4.13 2-9.53-1.14-13.39-6-7.51-17-9-26-7.54-5.13.82-9.91 3-12.9 7.43-2.67 3.93-3.51 8.89-3.62 13.56a72.17 72.17 0 0 0 1.69 15.7 103.76 103.76 0 0 0 4.59 16.29 100.31 100.31 0 0 0 19.19 31.91c.57.63 1.47-.29.93-.93z"/><path d="m832.7 365.81a25.54 25.54 0 0 0 -9.8 16.71.74.74 0 1 0 1.45.2 24.25 24.25 0 0 1 9.1-15.94c.55-.43-.19-1.4-.75-1z"/><path d="m850.46 369.49a34.82 34.82 0 0 0 -13.08 23.9c-.33 4.3.77 9 4.66 11.41a8 8 0 0 0 5.56 1.2 7.8 7.8 0 0 0 4.81-3.39c1.87-2.53 3.5-5.27 5.22-7.9 1.87-2.84 3.73-5.67 5.59-8.52a1.1 1.1 0 0 0 -1.73-1.33 53 53 0 0 0 -8.79 12.21c-2 3.82-3.69 8.32-2.67 12.68 1 4.12 4.52 6.7 8.58 7.23 4.62.6 8.92-1.43 12.53-4.14 4.37-3.29 8-7.52 13.06-9.85 1.48-.68.19-2.84-1.28-2.18-3.9 1.74-7 4.71-10.21 7.49s-6.68 5.62-10.91 6.2c-3.48.48-7.47-.73-9-4.13-1.66-3.69 0-8.17 1.6-11.56a49.6 49.6 0 0 1 8.65-12.4l-1.73-1.33q-4.11 6.36-8.19 12.76c-1.17 1.83-2.29 4.19-4.1 5.48a5.18 5.18 0 0 1 -5 .37c-4.17-1.7-5.15-6.45-4.84-10.5a31.91 31.91 0 0 1 3.46-11.79 35.54 35.54 0 0 1 8.72-11c.61-.52-.26-1.36-.88-.87z"/><path d="m406.69 569.66h8.92v-79.89h-8.92a39.95 39.95 0 0 0 0 79.85zm0-79.08v78.31a39.94 39.94 0 0 1 0-78.31z" stroke="#000" stroke-miterlimit="10" stroke-width="1.2"/><circle cx="414.61" cy="529.73" fill="#fff" r="39.96"/><circle cx="414.61" cy="529.73" fill="none" r="39.96" stroke="#000" stroke-miterlimit="10" stroke-width="1.2"/><circle cx="414.61" cy="529.73" fill="#8346FC" r="20.68"/><path d="m612.43 481.12 4.73 7.56 67.78-42.36-4-6.39-.73-1.17a40 40 0 0 0 -67.72 42.33zm67.07-41.92-66.41 41.51a39.95 39.95 0 0 1 66.41-41.51z" stroke="#000" stroke-miterlimit="10" stroke-width="1.2"/><circle cx="650.49" cy="466.67" fill="#fff" r="39.96"/><circle cx="650.49" cy="466.67" fill="none" r="39.96" stroke="#000" stroke-miterlimit="10" stroke-width="1.2"/><circle cx="650.49" cy="466.67" fill="#8346FC" r="20.68"/><path d="m221.06 413.12-8.66-2.12-18.9 77.66 7.32 1.79 1.34.32a40 40 0 0 0 18.89-77.59zm-18.7 76.88 18.52-76.09a39.94 39.94 0 0 1 -18.52 76.09z" stroke="#000" stroke-miterlimit="10" stroke-width="1.2"/><circle cx="203.93" cy="450.04" fill="#fff" r="39.96"/><circle cx="203.93" cy="450.04" fill="none" r="39.96" stroke="#000" stroke-miterlimit="10" stroke-width="1.2"/><g fill="#8346FC"><circle cx="203.93" cy="450.04" r="20.68"/><path d="m171.37 345.15c-21.3 7.27-39.37 22.85-50.43 42.35a89 89 0 0 0 -10.84 31.84c-1.67 12.5-.28 26.27 8.38 36.09a28.84 28.84 0 0 0 13.84 8.86c4.52 1.21 10.68 1.48 14.05-2.46a5.18 5.18 0 0 0 .65-6.05 6.83 6.83 0 0 0 -5.79-3c-5.87-.11-9.46 6.3-12.26 10.55-6.66 10.07-13.46 23.61-6.34 35.24 2.84 4.65 7.39 8 12.27 10.26a47.43 47.43 0 0 0 16.9 4.54c5.47.32 12.2-2.24 12.95-8.45.17-1.46-.06-2.23-1.4-2.91a6 6 0 0 0 -3.7-.5 7.73 7.73 0 0 0 -5.75 4.49c-2.39 5.19-.17 11.78 2.5 16.44a30 30 0 0 0 11.6 11.31 28.11 28.11 0 0 0 7.69 2.78c1.29.26 1.85-1.71.55-2a27.57 27.57 0 0 1 -18.12-13.35c-1.94-3.42-3.44-7.62-3.06-11.6a6.65 6.65 0 0 1 3-5.27 4.42 4.42 0 0 1 5-.05l-.3-.74c.3 5.19-5.14 7.79-9.58 7.84s-9.3-1.28-13.56-2.79c-7.91-2.81-15.59-8.08-17.55-16.73-2.24-9.94 3.57-19.94 8.85-27.9 2.21-3.33 5-8.54 9.38-9.2a5.34 5.34 0 0 1 5 1.72 3.42 3.42 0 0 1 -.78 4.67c-3.07 2.71-7.78 2.38-11.46 1.43a25.93 25.93 0 0 1 -11.16-6.27c-7.15-6.65-10.26-16.2-10.64-25.78-.69-17.62 5.87-35.49 15.81-49.83a92.08 92.08 0 0 1 38.74-32c2-.85 4-1.62 6-2.31.76-.27.43-1.48-.34-1.21z"/><path d="m268.23 386.23 20.58 52.53c.32.81 1.64.46 1.32-.36l-20.67-52.51c-.3-.76-1.53-.43-1.23.34z"/><path d="m313.51 370.27a380.86 380.86 0 0 0 13.19 56.27c.28.87 1.65.5 1.37-.38a407.69 407.69 0 0 1 -13.36-56.22c-.13-.79-1.32-.45-1.2.33z"/><path d="m353.8 391.51q1.2 14.73 2.59 29.49c.08 1 1.59 1 1.49 0q-1.39-14.73-2.86-29.45c-.08-.77-1.29-.79-1.22 0z"/></g><g fill="#fff"><path d="m177.44 597.33c4.38 10.4 12.42 18.68 21.88 24.63 10.81 6.81 23.24 10.35 35.74 12.49 7.76 1.32 15.63 2.27 23.48 2.89 1.47.12 1.42-2.1 0-2.27-13.36-1.58-26.74-2.56-39.69-6.46-10.92-3.28-21.4-8.58-29.62-16.6a48.44 48.44 0 0 1 -10.63-15.17c-.29-.65-1.45-.17-1.16.49z"/><path d="m265.2 635.32a.82.82 0 0 0 0-1.63.82.82 0 0 0 0 1.63z"/><path d="m196.51 621.91a62.67 62.67 0 0 0 -9.77 13.53c-3 5.21-5.64 10.62-8.37 16q-8.87 17.36-17.66 34.76-17.46 34.71-34.94 69.43-4.89 9.68-9.77 19.37c-1.45 2.89-3.3 5.82-4.26 8.92-.71 2.3-.51 4.91 1.64 6.33l-.47-1.81a48.94 48.94 0 0 0 -7.24 20.1c-.13 1.21 1.9 1.49 2.13.29a50.17 50.17 0 0 1 7.39-19.06 1.32 1.32 0 0 0 -.21-1.6c-1.51-1.3-.12-3.9.59-5.33l4.27-8.49q4.22-8.37 8.38-16.77c5.61-11.26 11.17-22.55 16.81-33.8 11.2-22.35 22.4-44.7 33.43-67.14 5.7-11.58 10.79-23.74 19-33.83.52-.64-.31-1.54-.93-.93z"/><path d="m822 493.25c12.34 3.11 25.15 5.19 37.89 4 10.55-1 21-4.32 29.79-10.39a50.88 50.88 0 0 0 6.7-5.55c.82-.81 1.65-1.62 1.62-2.85a1.51 1.51 0 0 0 -2-1.56 1 1 0 0 0 .25 1.9l-.56-.38-.06.2c-.16.1-.34.44-.5.61-.38.38-.76.76-1.15 1.13-.87.83-1.78 1.62-2.71 2.39a49.15 49.15 0 0 1 -5.84 4.07 57.94 57.94 0 0 1 -13 5.7c-10.06 3.05-20.66 3.53-31.09 2.65a138.1 138.1 0 0 1 -19.05-3.17c-.79-.18-1.12 1-.34 1.21z"/><path d="m883.7 491.64c14.23 29.48 23.45 61.1 29.57 93.19 6.18 32.36 9.4 65.23 11.88 98.06.64 8.45 1.55 17 1.26 25.45-.28 8.11-1.89 16.49-7.06 23l2.26.29a3.55 3.55 0 0 1 .07-4.47l-1.95.51c5 2.81 2.8 9.62.84 13.6-2.36 4.79-4.27 9.33-4.91 14.68-1.23 10.14.45 20.36-.65 30.5a30.25 30.25 0 0 1 -5.74 15.18c-.59.78.7 1.76 1.35 1 7.27-7.88 7.2-19.35 7.07-29.41-.07-5.46-.27-11 .46-16.42a39.61 39.61 0 0 1 1.9-8c1-2.93 2.7-5.59 3.93-8.44 2.17-5 2.68-12.12-2.81-15.25a1.45 1.45 0 0 0 -1.73.22 6.24 6.24 0 0 0 -.31 7.66c.48.66 1.63 1.1 2.26.29 9.34-12 8.05-27.9 6.89-42.12-1.38-16.75-2.79-33.51-4.61-50.21-3.61-33.16-8.8-66.34-18.35-98.36a316.35 316.35 0 0 0 -20.32-51.72c-.44-.87-1.73-.1-1.31.77z"/><path d="m696.07 754.86a174.56 174.56 0 0 0 45 44.33 164.34 164.34 0 0 0 15.64 9.44c1 .51 1.85-1 .87-1.49a181 181 0 0 1 -49.13-38.79 174.35 174.35 0 0 1 -11.3-14.13c-.48-.66-1.58 0-1.1.64z"/></g></svg>