<?xml version="1.0" encoding="UTF-8"?>
<!DOCTYPE svg PUBLIC "-//W3C//DTD SVG 1.1//EN" "http://www.w3.org/Graphics/SVG/1.1/DTD/svg11.dtd">
<svg xmlns="http://www.w3.org/2000/svg" version="1.1" width="20px" height="20px" style="shape-rendering:geometricPrecision; text-rendering:geometricPrecision; image-rendering:optimizeQuality; fill-rule:evenodd; clip-rule:evenodd" xmlns:xlink="http://www.w3.org/1999/xlink">
<g><path style="opacity:1" fill="#fafbfd" d="M -0.5,-0.5 C 1.83333,-0.5 4.16667,-0.5 6.5,-0.5C 5.83333,0.166667 5.16667,0.833333 4.5,1.5C 3.76109,1.36899 3.09442,1.53566 2.5,2C 1.60064,3.65161 0.60064,5.15161 -0.5,6.5C -0.5,4.16667 -0.5,1.83333 -0.5,-0.5 Z"/></g>
<g><path style="opacity:1" fill="#f9fafd" d="M 12.5,-0.5 C 14.8333,-0.5 17.1667,-0.5 19.5,-0.5C 19.5,1.83333 19.5,4.16667 19.5,6.5C 19.1667,6.5 18.8333,6.5 18.5,6.5C 18.2384,3.30131 16.5717,1.30131 13.5,0.5C 12.8333,0.5 12.5,0.166667 12.5,-0.5 Z"/></g>
<g><path style="opacity:1" fill="#9ecccc" d="M 6.5,-0.5 C 8.5,-0.5 10.5,-0.5 12.5,-0.5C 12.5,0.166667 12.8333,0.5 13.5,0.5C 13.5,0.833333 13.5,1.16667 13.5,1.5C 11.0274,1.08824 9.69408,2.08824 9.5,4.5C 9.16667,4.5 8.83333,4.5 8.5,4.5C 7.96528,2.55437 6.63195,1.55437 4.5,1.5C 5.16667,0.833333 5.83333,0.166667 6.5,-0.5 Z"/></g>
<g><path style="opacity:1" fill="#a2c8d2" d="M 13.5,0.5 C 16.5717,1.30131 18.2384,3.30131 18.5,6.5C 16.816,5.47283 15.1494,4.47283 13.5,3.5C 12.4937,3.06233 12.4937,2.39567 13.5,1.5C 13.5,1.16667 13.5,0.833333 13.5,0.5 Z"/></g>
<g><path style="opacity:1" fill="#9ecbd1" d="M 4.5,1.5 C 6.63195,1.55437 7.96528,2.55437 8.5,4.5C 5.19194,2.71615 3.52527,3.71615 3.5,7.5C 3.16667,7.5 2.83333,7.5 2.5,7.5C 1.50278,7.47008 0.836112,7.97008 0.5,9C 1.51518,10.3731 1.51518,11.5398 0.5,12.5C 0.5,11.8333 0.166667,11.5 -0.5,11.5C -0.5,9.83333 -0.5,8.16667 -0.5,6.5C 0.60064,5.15161 1.60064,3.65161 2.5,2C 3.09442,1.53566 3.76109,1.36899 4.5,1.5 Z"/></g>
<g><path style="opacity:1" fill="#97cbcc" d="M 13.5,1.5 C 12.4937,2.39567 12.4937,3.06233 13.5,3.5C 13.1583,4.33825 12.4916,4.67158 11.5,4.5C 10.8333,4.5 10.1667,4.5 9.5,4.5C 9.69408,2.08824 11.0274,1.08824 13.5,1.5 Z"/></g>
<g><path style="opacity:1" fill="#96ccc9" d="M 8.5,4.5 C 8.83333,4.5 9.16667,4.5 9.5,4.5C 9.67158,5.49162 9.33825,6.15829 8.5,6.5C 6.30228,6.40879 5.96895,7.07546 7.5,8.5C 6.16667,8.16667 4.83333,7.83333 3.5,7.5C 3.52527,3.71615 5.19194,2.71615 8.5,4.5 Z"/></g>
<g><path style="opacity:1" fill="#a2d0cf" d="M 9.5,4.5 C 10.1667,4.5 10.8333,4.5 11.5,4.5C 11.7822,5.77765 12.4489,6.77765 13.5,7.5C 12.1667,7.83333 10.8333,8.16667 9.5,8.5C 9.16667,7.83333 8.83333,7.16667 8.5,6.5C 9.33825,6.15829 9.67158,5.49162 9.5,4.5 Z"/></g>
<g><path style="opacity:1" fill="#97cdcb" d="M 13.5,3.5 C 15.1494,4.47283 16.816,5.47283 18.5,6.5C 17.1903,8.86981 15.5237,10.2031 13.5,10.5C 12.3951,11.6005 11.0618,12.2671 9.5,12.5C 10.8333,10.8333 12.1667,9.16667 13.5,7.5C 12.4489,6.77765 11.7822,5.77765 11.5,4.5C 12.4916,4.67158 13.1583,4.33825 13.5,3.5 Z"/></g>
<g><path style="opacity:1" fill="#a2cdd0" d="M 2.5,7.5 C 2.83333,7.5 3.16667,7.5 3.5,7.5C 4.83333,7.83333 6.16667,8.16667 7.5,8.5C 7.5,8.83333 7.5,9.16667 7.5,9.5C 6.83333,9.5 6.16667,9.5 5.5,9.5C 4.50838,9.32842 3.84171,9.66175 3.5,10.5C 2.59603,9.79105 2.26269,8.79105 2.5,7.5 Z"/></g>
<g><path style="opacity:1" fill="#a1cfd0" d="M 8.5,6.5 C 8.83333,7.16667 9.16667,7.83333 9.5,8.5C 9.28927,10.4241 8.6226,10.7574 7.5,9.5C 7.5,9.16667 7.5,8.83333 7.5,8.5C 5.96895,7.07546 6.30228,6.40879 8.5,6.5 Z"/></g>
<g><path style="opacity:1" fill="#9dcdcd" d="M 18.5,6.5 C 18.8333,6.5 19.1667,6.5 19.5,6.5C 19.5,8.5 19.5,10.5 19.5,12.5C 18.8333,12.5 18.5,12.8333 18.5,13.5C 17.5041,13.5858 16.6708,13.2524 16,12.5C 15.7679,13.7375 15.2679,14.7375 14.5,15.5C 14.0825,14.7784 13.4158,14.2784 12.5,14C 14.727,13.296 15.0603,12.1294 13.5,10.5C 15.5237,10.2031 17.1903,8.86981 18.5,6.5 Z"/></g>
<g><path style="opacity:1" fill="#f6fcfd" d="M 13.5,7.5 C 12.1667,9.16667 10.8333,10.8333 9.5,12.5C 7.93819,12.2671 6.60486,11.6005 5.5,10.5C 5.5,10.1667 5.5,9.83333 5.5,9.5C 6.16667,9.5 6.83333,9.5 7.5,9.5C 8.6226,10.7574 9.28927,10.4241 9.5,8.5C 10.8333,8.16667 12.1667,7.83333 13.5,7.5 Z"/></g>
<g><path style="opacity:1" fill="#93cdcc" d="M 2.5,7.5 C 2.26269,8.79105 2.59603,9.79105 3.5,10.5C 3.44312,11.609 3.10978,12.609 2.5,13.5C 1.83333,13.5 1.16667,13.5 0.5,13.5C 0.5,13.1667 0.5,12.8333 0.5,12.5C 1.51518,11.5398 1.51518,10.3731 0.5,9C 0.836112,7.97008 1.50278,7.47008 2.5,7.5 Z"/></g>
<g><path style="opacity:1" fill="#99cacb" d="M 5.5,9.5 C 5.5,9.83333 5.5,10.1667 5.5,10.5C 5.85883,12.371 6.85883,13.871 8.5,15C 7.02674,15.7096 6.36007,16.8762 6.5,18.5C 5.50838,18.6716 4.84171,18.3382 4.5,17.5C 4.3404,15.847 3.67373,14.5137 2.5,13.5C 3.10978,12.609 3.44312,11.609 3.5,10.5C 3.84171,9.66175 4.50838,9.32842 5.5,9.5 Z"/></g>
<g><path style="opacity:1" fill="#9acdcd" d="M 5.5,10.5 C 6.60486,11.6005 7.93819,12.2671 9.5,12.5C 11.0618,12.2671 12.3951,11.6005 13.5,10.5C 15.0603,12.1294 14.727,13.296 12.5,14C 13.4158,14.2784 14.0825,14.7784 14.5,15.5C 12.6412,15.4609 11.3079,16.2942 10.5,18C 11.0944,18.4643 11.7611,18.631 12.5,18.5C 12.5,18.8333 12.5,19.1667 12.5,19.5C 10.5,19.5 8.5,19.5 6.5,19.5C 6.5,19.1667 6.5,18.8333 6.5,18.5C 6.36007,16.8762 7.02674,15.7096 8.5,15C 6.85883,13.871 5.85883,12.371 5.5,10.5 Z"/></g>
<g><path style="opacity:1" fill="#9dc7d3" d="M 0.5,13.5 C 1.16667,13.5 1.83333,13.5 2.5,13.5C 3.67373,14.5137 4.3404,15.847 4.5,17.5C 2.73559,16.674 1.40226,15.3407 0.5,13.5 Z"/></g>
<g><path style="opacity:1" fill="#f6fbfd" d="M 19.5,12.5 C 19.5,14.8333 19.5,17.1667 19.5,19.5C 17.1667,19.5 14.8333,19.5 12.5,19.5C 12.5,19.1667 12.5,18.8333 12.5,18.5C 15.0892,17.5806 17.0892,15.914 18.5,13.5C 18.5,12.8333 18.8333,12.5 19.5,12.5 Z"/></g>
<g><path style="opacity:1" fill="#f7f9fc" d="M -0.5,11.5 C 0.166667,11.5 0.5,11.8333 0.5,12.5C 0.5,12.8333 0.5,13.1667 0.5,13.5C 1.40226,15.3407 2.73559,16.674 4.5,17.5C 4.84171,18.3382 5.50838,18.6716 6.5,18.5C 6.5,18.8333 6.5,19.1667 6.5,19.5C 4.16667,19.5 1.83333,19.5 -0.5,19.5C -0.5,16.8333 -0.5,14.1667 -0.5,11.5 Z"/></g>
<g><path style="opacity:1" fill="#9ac9cf" d="M 18.5,13.5 C 17.0892,15.914 15.0892,17.5806 12.5,18.5C 11.7611,18.631 11.0944,18.4643 10.5,18C 11.3079,16.2942 12.6412,15.4609 14.5,15.5C 15.2679,14.7375 15.7679,13.7375 16,12.5C 16.6708,13.2524 17.5041,13.5858 18.5,13.5 Z"/></g>
</svg>
