<svg xmlns="http://www.w3.org/2000/svg" xmlns:xlink="http://www.w3.org/1999/xlink" xmlns:svgjs="http://svgjs.com/svgjs" version="1.1" width="512" height="512" x="0" y="0" viewBox="0 0 32 32" style="enable-background:new 0 0 512 512" xml:space="preserve"><g><linearGradient xmlns="http://www.w3.org/2000/svg" id="linear-gradient" gradientUnits="userSpaceOnUse" x1="2.125" x2="29.875" y1="16" y2="16"><stop stop-opacity="1" stop-color="#0fdcdd" offset="0"/><stop stop-opacity="1" stop-color="#8346fc" offset="0"/></linearGradient><g xmlns="http://www.w3.org/2000/svg" id="Ikon"><path d="m16 30c-18.5021-.5885-18.4977-27.4143 0-28 18.5021.5885 18.4977 27.4143 0 28zm0-26c-15.8589.5044-15.8551 23.498 0 24 15.8589-.5044 15.8551-23.498 0-24zm7.707 7.8613-9.6924 9.6914a.9994.9994 0 0 1 -1.414 0l-4.3076-4.3076c-.9309-.9034.51-2.3452 1.414-1.414l3.6006 3.6005 8.9854-8.9843c.9039-.9312 2.3449.5106 1.414 1.414z" fill="url(#linear-gradient)" data-original="url(#linear-gradient)"/></g></g></svg>