<svg xmlns="http://www.w3.org/2000/svg" xmlns:xlink="http://www.w3.org/1999/xlink" xmlns:svgjs="http://svgjs.com/svgjs" version="1.1" width="512" height="512" x="0" y="0" viewBox="0 0 512 512" style="enable-background:new 0 0 512 512" xml:space="preserve" class=""><g><g xmlns="http://www.w3.org/2000/svg"><g><path d="m288.065 7.5h-256.517c-13.281 0-24.048 10.767-24.048 24.048v96.194c0 13.282 10.767 24.048 24.048 24.048h256.516c13.282 0 24.048-10.767 24.048-24.048v-96.194c.001-13.281-10.766-24.048-24.047-24.048z" fill="#0a5ae9" data-original="#98db7c" class=""/><path d="m108.125 37.349-20.464 10.232-20.463-10.232c-5.33-2.665-11.601 1.211-11.601 7.17v35.126h64.129v-35.126c0-5.959-6.271-9.835-11.601-7.17z" fill="#ffe077" data-original="#ffe077" class=""/><path d="m480.452 151.79h-112.226c-13.282 0-24.048-10.767-24.048-24.048v-96.194c0-13.282 10.767-24.048 24.048-24.048h112.226c13.282 0 24.048 10.767 24.048 24.048v96.194c0 13.281-10.767 24.048-24.048 24.048z" fill="#0a5ae9" data-original="#98db7c" class=""/><path d="m392.274 127.742c-13.261 0-24.048-10.787-24.048-24.048v-96.194c-13.282 0-24.048 10.767-24.048 24.048v96.194c0 13.282 10.767 24.048 24.048 24.048h112.226c13.282 0 24.048-10.767 24.048-24.048z" fill="#0a5ae9" data-original="#77cc7d" class=""/><path d="m47.581 127.172c-8.838 0-16.032-7.19-16.032-16.032v-103.64c-13.282 0-24.049 10.767-24.049 24.048v96.194c0 13.282 10.767 24.048 24.048 24.048h256.516c13.282 0 24.048-11.337 24.048-24.619h-264.531z" fill="#0a5ae9" data-original="#77cc7d" class=""/><path d="m47.581 71.629h80.161v48.097h-80.161z" fill="#f61255" data-original="#ff7e92" class=""/><path d="m47.581 95.677h80.161v24.048h-80.161z" fill="#f61255" data-original="#ff5f7a" class=""/><path d="m288.065 183.855h-256.517c-13.282 0-24.048 10.767-24.048 24.048v96.194c0 13.282 10.767 24.048 24.048 24.048h256.516c13.282 0 24.048-10.767 24.048-24.048v-96.194c.001-13.281-10.766-24.048-24.047-24.048z" fill="#eceaec" data-original="#eceaec" class=""/><path d="m108.125 213.703-20.464 10.232-20.464-10.232c-5.33-2.665-11.601 1.211-11.601 7.17v35.127h64.129v-35.126c.001-5.96-6.27-9.836-11.6-7.171z" fill="#ffe077" data-original="#ffe077" class=""/><path d="m480.452 328.145h-112.226c-13.282 0-24.048-10.767-24.048-24.048v-96.194c0-13.282 10.767-24.048 24.048-24.048h112.226c13.282 0 24.048 10.767 24.048 24.048v96.194c0 13.281-10.767 24.048-24.048 24.048z" fill="#eceaec" data-original="#eceaec" class=""/><path d="m392.274 304.097c-13.261 0-24.048-10.787-24.048-24.048v-96.194c-13.282 0-24.048 10.767-24.048 24.048v96.194c0 13.282 10.767 24.048 24.048 24.048h112.226c13.282 0 24.048-10.767 24.048-24.048z" fill="#dbd8db" data-original="#dbd8db" class=""/><path d="m47.581 303.527c-8.838 0-16.032-7.19-16.032-16.032v-103.64c-13.282 0-24.048 10.767-24.048 24.048v96.194c0 13.282 10.767 24.048 24.048 24.048h256.516c13.282 0 24.048-11.337 24.048-24.619h-264.532z" fill="#dbd8db" data-original="#dbd8db" class=""/><path d="m47.581 247.984h80.161v48.097h-80.161z" fill="#0a5ae9" data-original="#98db7c" class=""/><path d="m47.581 272.032h80.161v24.048h-80.161z" fill="#0a5ae9" data-original="#77cc7d" class=""/><path d="m288.065 360.21h-256.517c-13.282 0-24.048 10.767-24.048 24.048v96.194c0 13.282 10.767 24.048 24.048 24.048h256.516c13.282 0 24.048-10.767 24.048-24.048v-96.194c.001-13.282-10.766-24.048-24.047-24.048z" fill="#eceaec" data-original="#eceaec" class=""/><path d="m108.125 390.058-20.464 10.232-20.464-10.232c-5.33-2.665-11.601 1.211-11.601 7.17v35.126h64.129v-35.126c.001-5.959-6.27-9.835-11.6-7.17z" fill="#ffe077" data-original="#ffe077" class=""/><path d="m480.452 504.5h-112.226c-13.282 0-24.048-10.767-24.048-24.048v-96.194c0-13.282 10.767-24.048 24.048-24.048h112.226c13.282 0 24.048 10.767 24.048 24.048v96.194c0 13.281-10.767 24.048-24.048 24.048z" fill="#eceaec" data-original="#eceaec" class=""/><path d="m392.274 480.452c-13.261 0-24.048-10.787-24.048-24.048v-96.194c-13.282 0-24.048 10.767-24.048 24.048v96.194c0 13.282 10.767 24.048 24.048 24.048h112.226c13.282 0 24.048-10.767 24.048-24.048z" fill="#dbd8db" data-original="#dbd8db" class=""/><path d="m47.581 479.881c-8.838 0-16.032-7.19-16.032-16.032v-103.639c-13.282 0-24.048 10.767-24.048 24.048v96.194c0 13.282 10.767 24.048 24.048 24.048h256.516c13.282 0 24.048-11.337 24.048-24.619z" fill="#dbd8db" data-original="#dbd8db" class=""/><path d="m47.581 424.339h80.161v48.097h-80.161z" fill="#0a5ae9" data-original="#98db7c" class=""/><path d="m47.581 448.387h80.161v24.048h-80.161z" fill="#0a5ae9" data-original="#77cc7d" class=""/></g><g><path d="m288.064 0h-256.516c-17.396 0-31.548 14.152-31.548 31.548v96.193c0 17.396 14.152 31.549 31.548 31.549h176.355c4.142 0 7.5-3.358 7.5-7.5s-3.358-7.5-7.5-7.5h-176.355c-9.125 0-16.548-7.424-16.548-16.549v-96.193c0-9.125 7.423-16.548 16.548-16.548h256.516c9.125 0 16.548 7.423 16.548 16.548v96.193c0 9.125-7.423 16.549-16.548 16.549h-48.097c-4.142 0-7.5 3.358-7.5 7.5s3.358 7.5 7.5 7.5h48.097c17.396 0 31.548-14.153 31.548-31.549v-96.193c.001-17.396-14.152-31.548-31.548-31.548z" fill="#000000" data-original="#000000" class=""/><path d="m480.452 0h-112.226c-17.396 0-31.548 14.152-31.548 31.548v96.193c0 17.396 14.152 31.549 31.548 31.549h112.226c17.396 0 31.548-14.153 31.548-31.549v-96.193c0-17.396-14.152-31.548-31.548-31.548zm16.548 127.742c0 9.125-7.423 16.549-16.548 16.549h-112.226c-9.125 0-16.548-7.424-16.548-16.549v-96.194c0-9.125 7.423-16.548 16.548-16.548h112.226c9.125 0 16.548 7.423 16.548 16.548z" fill="#000000" data-original="#000000" class=""/><path d="m464.419 48.097h-61.907l-1.365-4.779c-1.894-6.626-8.028-11.253-14.919-11.253h-9.986c-4.142 0-7.5 3.358-7.5 7.5s3.358 7.5 7.5 7.5h9.986c.229 0 .434.154.497.375l10.53 36.855c2.907 10.175 12.312 17.066 22.653 17.066 1.092 0 2.195-.077 3.302-.235l28.506-4.072c11.519-1.646 20.205-11.661 20.205-23.296v-18.16c-.002-4.143-3.359-7.501-7.502-7.501zm-7.5 25.659c0 4.219-3.149 7.85-7.326 8.447l-28.506 4.072c-4.194.603-8.245-2.023-9.411-6.103l-4.879-17.076h50.122z" fill="#000000" data-original="#000000" class=""/><path d="m400.371 112.226h-.08c-4.142 0-7.46 3.358-7.46 7.5s3.398 7.5 7.54 7.5 7.5-3.358 7.5-7.5-3.358-7.5-7.5-7.5z" fill="#000000" data-original="#000000" class=""/><path d="m456.403 112.226h-.08c-4.142 0-7.46 3.358-7.46 7.5s3.398 7.5 7.54 7.5 7.5-3.358 7.5-7.5-3.358-7.5-7.5-7.5z" fill="#000000" data-original="#000000" class=""/><path d="m119.867 31.32c-4.608-2.848-10.252-3.103-15.097-.679l-17.109 8.554-17.109-8.554c-4.845-2.423-10.488-2.168-15.097.679-4.607 2.848-7.358 7.782-7.358 13.199v19.61h-.516c-4.142 0-7.5 3.358-7.5 7.5v48.097c0 4.142 3.358 7.5 7.5 7.5h80.161c4.142 0 7.5-3.358 7.5-7.5v-48.097c0-4.142-3.358-7.5-7.5-7.5h-.516v-19.61c0-5.417-2.751-10.351-7.359-13.199zm-8.388 12.737c.096-.048.258-.128.502.022.245.151.245.332.245.439v19.61h-17.065v-11.912zm-48.382.462c0-.107 0-.288.245-.439.244-.151.406-.071.502-.022l16.317 8.158v11.913h-17.064zm-8.016 34.61h25.081v33.097h-25.081zm65.161 33.097h-25.081v-33.097h25.081z" fill="#000000" data-original="#000000" class=""/><path d="m167.823 55.081h104.209c4.142 0 7.5-3.358 7.5-7.5s-3.358-7.5-7.5-7.5h-104.209c-4.142 0-7.5 3.358-7.5 7.5s3.358 7.5 7.5 7.5z" fill="#000000" data-original="#000000" class=""/><path d="m167.823 87.145h104.209c4.142 0 7.5-3.358 7.5-7.5s-3.358-7.5-7.5-7.5h-104.209c-4.142 0-7.5 3.358-7.5 7.5s3.358 7.5 7.5 7.5z" fill="#000000" data-original="#000000" class=""/><path d="m167.823 119.209h40.081c4.142 0 7.5-3.358 7.5-7.5s-3.358-7.5-7.5-7.5h-40.081c-4.142 0-7.5 3.358-7.5 7.5s3.358 7.5 7.5 7.5z" fill="#000000" data-original="#000000" class=""/><path d="m288.064 176.355h-256.516c-17.396 0-31.548 14.152-31.548 31.548v96.193c0 17.396 14.152 31.548 31.548 31.548h256.516c17.396 0 31.548-14.152 31.548-31.548v-96.193c.001-17.396-14.152-31.548-31.548-31.548zm16.549 127.742c0 9.125-7.423 16.548-16.548 16.548h-256.517c-9.125 0-16.548-7.423-16.548-16.548v-96.193c0-9.125 7.423-16.548 16.548-16.548h256.516c9.125 0 16.548 7.423 16.548 16.548v96.193z" fill="#000000" data-original="#000000" class=""/><path d="m480.452 176.355h-112.226c-17.396 0-31.548 14.152-31.548 31.548v96.193c0 17.396 14.152 31.548 31.548 31.548h112.226c17.396 0 31.548-14.152 31.548-31.548v-96.193c0-17.396-14.152-31.548-31.548-31.548zm16.548 127.742c0 9.125-7.423 16.548-16.548 16.548h-112.226c-9.125 0-16.548-7.423-16.548-16.548v-96.193c0-9.125 7.423-16.548 16.548-16.548h112.226c9.125 0 16.548 7.423 16.548 16.548z" fill="#000000" data-original="#000000" class=""/><path d="m464.419 224.452h-61.907l-1.365-4.779c-1.894-6.626-8.028-11.253-14.919-11.253h-9.986c-4.142 0-7.5 3.358-7.5 7.5s3.358 7.5 7.5 7.5h9.986c.229 0 .434.154.497.375l10.53 36.855c2.907 10.175 12.312 17.065 22.652 17.065 1.093 0 2.196-.077 3.303-.235l28.506-4.072c11.519-1.646 20.205-11.661 20.205-23.296v-18.16c-.002-4.142-3.359-7.5-7.502-7.5zm-7.5 25.659c0 4.219-3.149 7.85-7.326 8.446l-28.507 4.072c-4.198.601-8.245-2.023-9.41-6.102l-4.879-17.076h50.122z" fill="#000000" data-original="#000000" class=""/><path d="m400.371 288.581h-.08c-4.142 0-7.46 3.358-7.46 7.5s3.398 7.5 7.54 7.5 7.5-3.358 7.5-7.5-3.358-7.5-7.5-7.5z" fill="#000000" data-original="#000000" class=""/><path d="m456.403 288.581h-.08c-4.142 0-7.46 3.358-7.46 7.5s3.398 7.5 7.54 7.5 7.5-3.358 7.5-7.5-3.358-7.5-7.5-7.5z" fill="#000000" data-original="#000000" class=""/><path d="m127.742 240.484h-.516v-19.61c0-5.417-2.751-10.351-7.359-13.199-4.608-2.849-10.251-3.102-15.096-.679l-17.109 8.555-17.109-8.555c-4.846-2.424-10.49-2.168-15.096.679-4.608 2.848-7.359 7.782-7.359 13.199v19.61h-.516c-4.142 0-7.5 3.358-7.5 7.5v48.097c0 4.142 3.358 7.5 7.5 7.5h80.161c4.142 0 7.5-3.358 7.5-7.5v-48.097c-.001-4.142-3.359-7.5-7.501-7.5zm-16.263-20.072c.096-.047.256-.129.502.023.245.151.245.332.245.439v19.61h-17.065v-11.913zm-48.382.462c0-.107 0-.288.245-.439.246-.152.406-.071.502-.023l16.317 8.159v11.913h-17.064zm-8.016 34.61h25.081v33.097h-25.081zm65.161 33.097h-25.081v-33.097h25.081z" fill="#000000" data-original="#000000" class=""/><path d="m272.032 216.436h-104.209c-4.142 0-7.5 3.358-7.5 7.5s3.358 7.5 7.5 7.5h104.209c4.142 0 7.5-3.358 7.5-7.5s-3.358-7.5-7.5-7.5z" fill="#000000" data-original="#000000" class=""/><path d="m272.032 248.5h-104.209c-4.142 0-7.5 3.358-7.5 7.5s3.358 7.5 7.5 7.5h104.209c4.142 0 7.5-3.358 7.5-7.5s-3.358-7.5-7.5-7.5z" fill="#000000" data-original="#000000" class=""/><path d="m207.903 280.564h-40.081c-4.142 0-7.5 3.358-7.5 7.5s3.358 7.5 7.5 7.5h40.081c4.142 0 7.5-3.358 7.5-7.5s-3.358-7.5-7.5-7.5z" fill="#000000" data-original="#000000" class=""/><path d="m288.064 352.709h-256.516c-17.396 0-31.548 14.153-31.548 31.549v96.193c0 17.397 14.152 31.549 31.548 31.549h256.516c17.396 0 31.548-14.152 31.548-31.548v-96.193c.001-17.397-14.152-31.55-31.548-31.55zm16.549 127.743c0 9.125-7.423 16.548-16.548 16.548h-256.517c-9.125 0-16.548-7.423-16.548-16.548v-96.193c0-9.125 7.423-16.549 16.548-16.549h256.516c9.125 0 16.548 7.424 16.548 16.549v96.193z" fill="#000000" data-original="#000000" class=""/><path d="m480.452 352.709h-72.145c-4.142 0-7.5 3.358-7.5 7.5s3.358 7.5 7.5 7.5h72.145c9.125 0 16.548 7.424 16.548 16.549v96.193c0 9.125-7.423 16.548-16.548 16.548h-112.226c-9.125 0-16.548-7.423-16.548-16.548v-96.193c0-9.125 7.423-16.549 16.548-16.549h8.016c4.142 0 7.5-3.358 7.5-7.5s-3.358-7.5-7.5-7.5h-8.016c-17.396 0-31.548 14.153-31.548 31.549v96.193c0 17.396 14.152 31.548 31.548 31.548h112.226c17.396.001 31.548-14.151 31.548-31.547v-96.193c0-17.397-14.152-31.55-31.548-31.55z" fill="#000000" data-original="#000000" class=""/><path d="m471.919 426.466v-18.16c0-4.142-3.358-7.5-7.5-7.5h-61.907l-1.365-4.78c-1.894-6.625-8.029-11.252-14.919-11.252h-9.986c-4.142 0-7.5 3.358-7.5 7.5s3.358 7.5 7.5 7.5h9.986c.229 0 .434.154.497.374l10.53 36.855c2.908 10.176 12.312 17.066 22.652 17.066 1.092 0 2.196-.077 3.303-.235l28.506-4.072c11.517-1.646 20.203-11.66 20.203-23.296zm-15 0c0 4.219-3.149 7.85-7.326 8.446l-28.507 4.072c-4.199.603-8.245-2.023-9.41-6.103l-4.879-17.076h50.122z" fill="#000000" data-original="#000000" class=""/><path d="m400.291 464.936c-4.142 0-7.46 3.358-7.46 7.5s3.398 7.5 7.54 7.5 7.5-3.358 7.5-7.5-3.358-7.5-7.5-7.5z" fill="#000000" data-original="#000000" class=""/><path d="m456.323 464.936c-4.142 0-7.46 3.358-7.46 7.5s3.398 7.5 7.54 7.5 7.5-3.358 7.5-7.5-3.358-7.5-7.5-7.5z" fill="#000000" data-original="#000000" class=""/><path d="m127.742 416.839h-.516v-19.61c0-5.417-2.751-10.351-7.359-13.199-4.608-2.849-10.251-3.102-15.096-.679l-17.109 8.555-17.109-8.555c-4.846-2.423-10.49-2.168-15.096.679-4.608 2.848-7.359 7.782-7.359 13.199v19.61h-.516c-4.142 0-7.5 3.358-7.5 7.5v48.097c0 4.142 3.358 7.5 7.5 7.5h80.161c4.142 0 7.5-3.358 7.5-7.5v-48.097c-.001-4.142-3.359-7.5-7.501-7.5zm-16.263-20.072c.096-.047.256-.129.502.023.245.151.245.332.245.439v19.61h-17.065v-11.913zm-48.382.462c0-.107 0-.288.245-.439.246-.152.406-.071.502-.023l16.317 8.159v11.913h-17.064zm-8.016 34.61h25.081v33.097h-25.081zm65.161 33.097h-25.081v-33.097h25.081z" fill="#000000" data-original="#000000" class=""/><path d="m272.032 392.791h-104.209c-4.142 0-7.5 3.358-7.5 7.5s3.358 7.5 7.5 7.5h104.209c4.142 0 7.5-3.358 7.5-7.5s-3.358-7.5-7.5-7.5z" fill="#000000" data-original="#000000" class=""/><path d="m272.032 424.855h-104.209c-4.142 0-7.5 3.358-7.5 7.5s3.358 7.5 7.5 7.5h104.209c4.142 0 7.5-3.358 7.5-7.5s-3.358-7.5-7.5-7.5z" fill="#000000" data-original="#000000" class=""/><path d="m207.903 456.919h-40.081c-4.142 0-7.5 3.358-7.5 7.5s3.358 7.5 7.5 7.5h40.081c4.142 0 7.5-3.358 7.5-7.5s-3.358-7.5-7.5-7.5z" fill="#000000" data-original="#000000" class=""/></g></g></g></svg>