<?xml version="1.0" ?><svg viewBox="0 0 1000 1000" xmlns="http://www.w3.org/2000/svg"><path d="m682.61 564.22c8.8-5 16.57-11.6 25.22-16.86 8.84-5.38 18.54-9 27.87-13.35a148.66 148.66 0 0 0 43.86-31.68q5.24-5.46 9.91-11.43a98.83 98.83 0 0 0 8.67-12.47 1 1 0 0 0 -1.67-1c-2.59 3.61-5 7.34-7.7 10.87s-5.73 7.07-8.83 10.4a144.46 144.46 0 0 1 -20.08 17.88 151.38 151.38 0 0 1 -22.68 13.89c-9 4.48-18.62 7.94-27.38 13-9.85 5.69-18.34 13.37-28 19.34a.8.8 0 0 0 .81 1.39z"/><path d="m608.58 195.23a1080.08 1080.08 0 0 1 170-118.09c3.29-1.84 6.68-3.7 10.41-4.19 7.14-1 13.85 3.21 19.82 7.25a1147.44 1147.44 0 0 1 156.33 127.26c3.44 3.34 7 6.87 8.6 11.38 1.3 3.59 1.28 7.5 1.25 11.31q-.57 74.43-1.15 148.84c0 5.1-.12 10.41-2.36 15-2.43 5-7.08 8.47-11.57 11.74q-78.58 57.27-160.34 109.92c-4 2.58-8.25 5.23-13 5.41s-9.45-2.27-13.69-4.71a655.43 655.43 0 0 1 -166.08-135.84c-3.76-4.28-7.52-8.72-9.59-14-2.7-6.93-2.26-14.62-1.77-22q4.77-72.37 9.53-144.74" fill="#fff"/><path d="m609.15 195.8a1104.46 1104.46 0 0 1 97.85-73.31q25.15-16.77 51.23-32.09 6.56-3.87 13.17-7.63c4.34-2.47 8.69-5.32 13.33-7.2 10.24-4.15 19.4 3.14 27.46 8.65a1143.94 1143.94 0 0 1 97.55 74.66q23.12 19.74 45.17 40.7c3.62 3.44 7.26 6.87 10.79 10.4 3.31 3.31 6.34 6.9 7.35 11.58 1.15 5.34.52 11.19.48 16.61l-.13 16.05-.51 66-.25 33-.13 16.05c0 5.3.16 10.67-.28 16a20.6 20.6 0 0 1 -5.47 13.07c-3.35 3.53-7.51 6.25-11.43 9.09q-13 9.48-26.19 18.84-26.1 18.59-52.55 36.68-26.59 18.12-53.59 35.84c-8.85 5.82-17.61 11.85-26.67 17.33-4.32 2.61-8.86 4.45-14 3.14-4.87-1.25-9.27-4.27-13.56-6.78a656.1 656.1 0 0 1 -93.48-66.4q-21.93-18.66-42.16-39.19-10.1-10.26-19.74-20.95c-6.38-7.08-14.05-14.33-16.18-24-1.09-4.95-.91-10.09-.62-15.12.32-5.41.71-10.83 1.07-16.24l2.2-32.58q2.19-33.06 4.36-66.12l2.12-32.16c.11-1.76-2.62-1.75-2.73 0l-8.94 135.8c-.66 10-2.49 21 .94 30.6 3.19 8.94 10.72 16 17 22.91q19.71 21.78 41.34 41.71a655.46 655.46 0 0 0 93 71.5q12.48 7.92 25.32 15.26c4 2.27 8.17 4.54 12.83 4.87s8.82-1.64 12.64-3.94c9.32-5.61 18.33-11.8 27.43-17.76s18.2-12 27.25-18.06q54.83-36.74 108.21-75.61c3.61-2.63 7.25-5.32 10-8.91a23.18 23.18 0 0 0 4.37-12.17c.53-5.24.3-10.59.34-15.84l.14-16.94q.25-33.86.52-67.73l.26-33.87.13-16.49c0-5.08.51-10.47-.9-15.43-1.21-4.26-4-7.75-7-10.88-3.54-3.64-7.28-7.1-11-10.61q-11.24-10.69-22.76-21.08a1150.8 1150.8 0 0 0 -97.42-78.65q-12.75-9.2-25.75-18c-7.65-5.2-16.41-11.18-26.08-8-4.73 1.54-9 4.42-13.34 6.87q-6.78 3.89-13.51 7.86-13.27 7.85-26.33 16.07a1063.69 1063.69 0 0 0 -100.9 72.09q-11.83 9.56-23.4 19.44c-.8.68.36 1.82 1.15 1.15z"/><path d="m784.72 521.06c4.75-.18 9-2.83 13-5.41q81.72-52.65 160.34-109.93c4.49-3.27 9.14-6.75 11.57-11.74 2.24-4.59 2.32-9.89 2.36-15l1.15-148.84a36.2 36.2 0 0 0 -.92-10.08l-164.8 109.2c-7.5 5-15.53 10.12-24.53 10.37-13 .36-23.73-9.32-33.11-18.25a1436.67 1436.67 0 0 0 -144.88-120.8l-1.88.59q-4.71 71.64-9.43 143.28c-.49 7.42-.94 15.11 1.76 22 2.07 5.3 5.84 9.74 9.6 14a655.38 655.38 0 0 0 166.05 135.9c4.27 2.44 8.83 4.9 13.72 4.71z"/><g fill="#8346FC"><path d="m785.56 521h1c4.75-.18 9-2.83 13-5.41q81.73-52.59 160.35-109.87c4.49-3.27 9.14-6.75 11.57-11.74 2.24-4.59 2.32-9.89 2.36-15q.58-74.42 1.15-148.84a36.2 36.2 0 0 0 -.92-10.08q-82.4 54.6-164.8 109.19c-7.5 5-15.53 10.12-24.53 10.37-.57 0-1.13 0-1.69 0q1.26 90.7 2.51 181.38z"/><path d="m785.56 523.33c6 .27 11.31-3.2 16.16-6.33q8.35-5.39 16.7-10.84 16.79-11 33.45-22.13 33.09-22.17 65.64-45.12 16.4-11.55 32.66-23.29c5.12-3.71 10.37-7.29 15.31-11.25 4.51-3.61 8.21-8 9.62-13.72 1.51-6.08 1-12.64 1.09-18.86q.09-10.2.16-20.41.17-20.4.32-40.81c.21-27.18.64-54.37.62-81.55a37.49 37.49 0 0 0 -1-9.56 2.32 2.32 0 0 0 -3.38-1.37l-74.63 49.45-74.64 49.46c-6.77 4.49-13.46 9.13-20.36 13.42-6.13 3.81-12.83 7.18-20.23 6.89a2.32 2.32 0 0 0 -2.3 2.3q.5 35.44 1 70.89.49 35.29 1 70.59.28 20 .56 39.95c0 3 4.63 3 4.59 0q-.5-35.44-1-70.89-.5-35.29-1-70.59-.28-20-.56-39.95l-2.29 2.3c6.73.26 13.12-2.15 18.92-5.38 6.13-3.41 11.89-7.54 17.73-11.41l37.82-25.06 75.14-49.78 42.57-28.21-3.37-1.38a35.87 35.87 0 0 1 .84 9.47q0 4.95-.08 9.9-.07 10.06-.16 20.11-.15 19.95-.31 39.91c-.2 26.66-.31 53.32-.61 80-.07 5.71-.45 11.55-4.19 16.17-3.62 4.46-8.74 7.63-13.34 11q-15.75 11.44-31.64 22.7-31.9 22.59-64.31 44.46-16.26 11-32.66 21.75-8.07 5.32-16.17 10.58c-5.22 3.39-10.36 7.17-15.89 10a15.44 15.44 0 0 1 -7.78 2c-2.95-.14-2.94 4.46 0 4.59z"/><path d="m660.14 180.94 13 11c4.25 3.59 8.43 7.4 12.89 10.74.83.62 1.85-.73 1.1-1.43-4.08-3.79-8.57-7.24-12.87-10.79l-13-10.69c-.79-.66-1.95.47-1.15 1.15z"/><path d="m650.3 189.51q6.5 5.51 13 11c4.25 3.6 8.43 7.41 12.89 10.75.83.62 1.85-.73 1.1-1.43-4.08-3.8-8.57-7.24-12.87-10.79l-13-10.69c-.79-.66-2 .47-1.15 1.15z"/><path d="m640.46 198.08q6.49 5.5 13 11c4.25 3.6 8.43 7.41 12.89 10.75.83.62 1.85-.74 1.1-1.43-4.08-3.8-8.57-7.24-12.87-10.79l-13-10.69c-.79-.66-2 .46-1.15 1.15z"/></g><path d="m644.5 511c14.62-4.77 29.8-11.85 37.2-25.33 3.93-7.14 5.3-15.51 9.51-22.49a32.22 32.22 0 0 1 30.38-15c4 .44 8.91 3.16 8 7.09a7.39 7.39 0 0 1 -2 3.19 37.82 37.82 0 0 1 -16.22 10.1c10.79 6 16.59 19.73 13.36 31.63" fill="#fff"/><path d="m644.73 511.8c8.44-2.65 16.84-5.9 24.18-10.92a47.33 47.33 0 0 0 9.64-8.56 43 43 0 0 0 6.87-11.8c1.87-4.68 3.24-9.57 5.5-14.08a30.2 30.2 0 0 1 8.28-10.29 31.75 31.75 0 0 1 11.46-5.75c3.9-1 8.54-1.62 12.49-.53 1.81.5 4.15 1.53 4.9 3.4.9 2.21-1.58 4.22-3 5.55a36 36 0 0 1 -14.14 8.26 1.49 1.49 0 0 0 -.35 2.68 27.44 27.44 0 0 1 12.64 30 1.52 1.52 0 0 0 2.93.8c3.41-12.59-2.63-27-14.09-33.3l-.35 2.68a41.09 41.09 0 0 0 13.4-7.27c3.18-2.61 7.9-6.73 5.21-11.24-2.19-3.67-7-4.74-10.94-4.87a32.63 32.63 0 0 0 -13.46 2.44 34.18 34.18 0 0 0 -11.37 7.65 36.65 36.65 0 0 0 -7.53 12.29c-2 5-3.37 10.29-5.81 15.13a38.44 38.44 0 0 1 -8.64 11.11c-8 7.17-18.21 11.52-28.24 14.94-1 .36-.62 2 .46 1.68z"/><path d="m769.68 218.74a129.35 129.35 0 0 0 -102.81-152.12c-69.57-13.21-137.38 32.66-151 102.15a129.41 129.41 0 0 0 67.34 139.79 42.85 42.85 0 0 1 22.07 46.38l-12 60.8 11 2.18 12-61a42.51 42.51 0 0 1 37.77-34.28 129.41 129.41 0 0 0 115.63-103.9zm-148.2 82.89a110 110 0 1 1 129.2-86.63 110 110 0 0 1 -129.2 86.63z" fill="#fff"/><path d="m770.79 219.05a130.48 130.48 0 1 0 -208.58 77.36 129.6 129.6 0 0 0 15.87 10.69c2.84 1.62 5.81 3 8.53 4.83a40.86 40.86 0 0 1 7.43 6.4 42.32 42.32 0 0 1 10.09 36.31c-.78 4.05-1.59 8.09-2.39 12.13l-9 45.44-.64 3.23a1.17 1.17 0 0 0 .8 1.41l11.1 2.15a1.17 1.17 0 0 0 1.41-.8l6.59-33.2 4.19-21.24c.94-4.76 1.71-9.57 3.52-14.1a41.7 41.7 0 0 1 24.17-23.66c5.47-2 11.12-2.24 16.82-3a130.21 130.21 0 0 0 16.81-3.47 130.53 130.53 0 0 0 91.26-91.8q1.15-4.31 2-8.69c.29-1.44-1.93-2.06-2.21-.61a128.37 128.37 0 0 1 -103.91 101.65c-5.7 1-11.58 1.09-17.2 2.47a43.77 43.77 0 0 0 -26.27 19.07c-3.55 5.61-5.33 11.75-6.6 18.18l-3.68 18.63-7.57 38.43-.15.76 1.41-.81-11-2.17.81 1.41 7.17-36.39 4.04-20.66c1.38-7 2.15-13.94.75-21.08a44 44 0 0 0 -20.56-29.2c-5.54-3.28-11.19-6.17-16.49-9.87a127.12 127.12 0 0 1 -14.84-12.14 128.22 128.22 0 1 1 216.36-86.46 131.14 131.14 0 0 1 -2.25 18.2c-.29 1.43 1.93 2.05 2.21.6z"/><path d="m621.79 300.52a108.47 108.47 0 1 1 16.57 2 109.41 109.41 0 0 1 -16.57-2c-1.44-.28-2.06 1.94-.61 2.22a110.79 110.79 0 1 0 -16.38-4.55 113.63 113.63 0 0 0 16.38 4.55c1.44.26 2.06-1.93.61-2.22z"/><rect fill="#8346FC" height="23.41" rx="7.64" transform="matrix(.19354947 -.98109052 .98109052 .19354947 32.31 946.04)" width="105.57" x="538.78" y="441.67"/><path d="m585.94 503.73-5.75-1.14c-2.09-.41-4.23-.65-5.62-2.49s-1-3.93-.62-6.06l3.9-19.77 6-30.24 5.27-26.74 1.54-7.82c.4-2 .66-4.09 2.46-5.45s4-1 6.2-.59c2 .38 3.91.73 5.86 1.15a5.45 5.45 0 0 1 4.42 6.16c0 .3-.12.61-.18.91l-3.48 17.69-5.84 29.6-5.5 27.89c-.82 4.16-1.57 8.34-2.46 12.48a5.44 5.44 0 0 1 -6.16 4.42 2.36 2.36 0 0 0 -2.82 1.6 2.31 2.31 0 0 0 1.6 2.83 10.13 10.13 0 0 0 11.87-8.16l1.18-6 5.11-25.89 6.2-31.48 4.33-22a18.34 18.34 0 0 0 .64-6.33 10 10 0 0 0 -7.72-8.21c-2-.43-4-.78-6-1.17-2.88-.57-5.56-.93-8.36.35a10 10 0 0 0 -5.44 6.93c-.32 1.48-.59 3-.88 4.45l-4.74 24-6.26 31.72-4.69 24.03c-.28 1.44-.59 2.89-.85 4.34a10.17 10.17 0 0 0 2.55 9c2 2.11 4.56 2.72 7.28 3.25l5.75 1.14c2.88.6 4.12-3.83 1.21-4.4z" fill="#8346FC"/><path d="m319.33 447.07c22.41 5.8 50.74 30.59 66.91 47.15s30.43 35 47.83 50.25 38.9 27.38 62 27.84c21.25.43 41.41-8.93 59.91-19.38 29.48-16.65 57.92-37 91-43.91 10.17-2.13 21.69-2.66 30 3.58 5.5 4.15 8.71 10.71 10.47 17.37a56.18 56.18 0 0 1 -8.7 46.65c-4.19 5.77-9.47 10.69-13.8 16.37-9.21 12.06-13.77 26.94-20.77 40.41s-18 26.48-32.91 29.07c-7.48 1.3-15.33-.16-22.64 1.86-12.45 3.44-19.94 15.65-27.64 26s-19.47 20.63-32 17.5c-5.18-1.3-9.64-4.78-14.86-5.9-8.92-1.91-17.56 3.35-25.87 7.1s-19.47 5.55-25.41-1.37c-2.11-2.47-3.27-5.8-5.94-7.64-5-3.5-11.68.16-17.44 2.27a33.5 33.5 0 0 1 -35.47-8.78c-2.77-3.07-4.94-6.63-7.69-9.71-5.95-6.67-14.24-10.66-21.71-15.56a98.69 98.69 0 0 1 -43.22-70c-1.52-13-.42-26.14-2.4-39s-7.81-26.18-19.21-32.52"/><path d="m319.12 447.86c14.71 4 27.93 13.62 39.65 23.06a314.43 314.43 0 0 1 34.52 32.77c23.82 26 47 56.14 82.27 66.82 17.28 5.24 35.07 3.73 51.93-2.32 17.23-6.19 32.94-15.91 48.61-25.19 15.45-9.2 31-18.48 47.77-25.18a136.65 136.65 0 0 1 25.34-7.61c7.88-1.48 16.81-2 24.11 1.91 7.53 4 11.32 12.11 13.13 20.09a54.15 54.15 0 0 1 -.5 25.56 56.59 56.59 0 0 1 -12.23 22.73c-3 3.46-6.16 6.76-9 10.34a79 79 0 0 0 -7.39 11.16c-8.24 14.94-12.8 32.06-24.17 45.14-5.09 5.85-11.41 10.86-19 13-8.82 2.51-18.24.09-27 2.91-15.27 4.9-21.9 20.79-32 31.75-5.46 5.92-12.79 11.8-21.25 11.89-4.49.05-8.32-1.89-12.27-3.78s-8-3.33-12.53-3.07c-8.84.5-16.11 5.78-24.19 8.72-6.18 2.25-14.87 3.82-20.08-1.37-2.66-2.65-3.79-6.49-7-8.66-3.38-2.29-7.56-1.88-11.27-.74-3.89 1.2-7.51 3.11-11.51 4a30.83 30.83 0 0 1 -11.41.27 31.78 31.78 0 0 1 -19.65-11.36c-3-3.65-5.47-7.59-9-10.79a68.61 68.61 0 0 0 -9.87-7.25c-7.12-4.47-14.2-8.71-20.48-14.36a97.37 97.37 0 0 1 -31.81-63.73c-1.48-18 .79-36.84-7.57-53.48a37.08 37.08 0 0 0 -14.6-15.85c-1.89-1.08-3.59 1.83-1.7 2.91 15.38 8.75 18.79 28.15 19.46 44.28.42 9.93.23 19.89 1.76 29.74a97.13 97.13 0 0 0 6.56 22.83 100.66 100.66 0 0 0 28.7 38.63c6.59 5.4 14 9.36 21 14.11a44.69 44.69 0 0 1 9.74 8.61c2.84 3.46 5.21 7.31 8.52 10.36a35.73 35.73 0 0 0 20.64 9 33.89 33.89 0 0 0 11.44-.82c4.08-1 7.8-3.08 11.87-4.12a10 10 0 0 1 5.78-.13c2.18.77 3.43 2.66 4.61 4.52 2 3.16 4.17 5.86 7.68 7.39 6.49 2.84 14.25 1.3 20.58-1.27 8.08-3.28 16.57-9.42 25.74-7.85 4.46.76 8.31 3.37 12.46 5a22 22 0 0 0 11.92 1.28c8.16-1.39 15.15-7.07 20.55-13s9.33-12.7 14.42-18.71 11.32-11.3 19.38-12.68c4.85-.84 9.82-.44 14.71-.71a36.84 36.84 0 0 0 12.26-2.61c15.11-6.25 24.09-21.22 30.58-35.42 3.79-8.29 7.16-16.79 11.71-24.7a75.81 75.81 0 0 1 8.05-11.42c3-3.56 6.31-6.94 9.22-10.62a58.09 58.09 0 0 0 11.4-47.32c-1.61-7.91-5-16-11.57-21s-14.92-6-22.82-5.3c-17.41 1.53-34.42 8.77-49.84 16.6-16.44 8.36-32 18.34-48 27.49s-33.37 18-52.09 20.06c-18 1.95-35.48-3.45-50.82-12.67-15.81-9.5-29-22.56-41.35-36.08-11.89-13-23.32-26.36-36.29-38.28-11.81-10.84-24.49-21.23-38.51-29.1a78.43 78.43 0 0 0 -18.9-7.94.81.81 0 0 0 -.43 1.57z"/><path d="m515.7 400.11 43.51-52.11c6.36-7.61 13.29-15.61 22.81-18.35s22 2.69 22.67 12.58a7.69 7.69 0 0 1 -9.51 1.26l18.93-1.65c4.45-.39 9-.76 13.29.59s8.15 4.88 8.5 9.33-4.17 9-8.4 7.58a7.67 7.67 0 1 1 .19 15c4.44-2.06 9.23 4 7.71 8.65s-6.57 7.18-11.35 8.21c3.14-.95 6.34 2.29 6.43 5.56s-2 6.23-4.34 8.51c-14.93 14.53-40.69 10.94-57 23.87-10.94 8.66-15.76 23.31-26.61 32.09" fill="#fff"/><path d="m516.34 400.75c12.46-14.72 25-29.36 37.42-44.13 5.4-6.44 10.58-13.35 16.93-18.9 5.24-4.57 11.81-8.14 19-7.26 6.28.77 13.15 4.92 13.73 11.79l.38-.93a6.43 6.43 0 0 1 -7.94 1.09l-.64 2.39 12.38-1.07c4-.35 8.07-.84 12.11-.91 3.65-.06 7.41.38 10.52 2.43 2.46 1.61 4.67 4.45 4.36 7.55s-3.45 6.23-6.7 5.26v2.6a6.69 6.69 0 0 1 7.75 5.89c.19 3.83-3.83 7.18-7.55 6.49l.32 2.44c3.8-1.61 6.71 4.11 5.74 7.15-1.4 4.34-6.36 6.34-10.42 7.24l.72 2.63c1.87-.48 3.54.93 4.29 2.56.89 2 .2 4.21-.86 6-2 3.27-5.31 5.8-8.54 7.75-6.46 3.91-13.9 5.8-21.17 7.58-7.47 1.82-15 3.53-22 6.84-7.24 3.43-12.73 8.81-17.4 15.23-5.46 7.5-10 15.8-17.18 21.81-1.37 1.15.59 3 2 1.95 6.84-5.49 11.27-13.22 16.2-20.32a60.7 60.7 0 0 1 8.41-10 38.38 38.38 0 0 1 10.07-6.51c14.56-6.63 32.05-6.24 45.25-16 3.67-2.7 7.66-6.34 8.34-11.09.65-4.53-3.11-9.67-8-8.41-1.7.44-1 3 .72 2.63 5.35-1.2 12-4.53 12.59-10.73.47-5.24-4.63-10.87-10-8.6a1.35 1.35 0 0 0 .32 2.44c5.36 1 11.15-3.39 10.93-9.06-.21-5.5-5.84-9.6-11.13-8.49a1.36 1.36 0 0 0 0 2.6c3.46 1 6.9-.87 8.76-3.79a9.17 9.17 0 0 0 -.39-10.06c-5.2-7.75-15.24-6.81-23.34-6.09l-17 1.51a1.29 1.29 0 0 0 -.65 2.39c3.24 1.94 8.59 1.78 11.09-1.44 1-1.23 0-3.74-.53-5a14.54 14.54 0 0 0 -2.68-4.26c-4.8-5.32-13-7.33-19.85-5.75-8.85 2-15.76 8.92-21.48 15.56-7.24 8.43-14.26 17.07-21.3 25.66q-12.35 15.07-24.72 30.12c-.74.89.52 2.18 1.28 1.28z"/><path d="m58.55 935.65c-8.83-44.28-17.18-86.72-12.33-131.65 1.57-14.56 4.57-28.92 7.57-43.25l8.82-42.13a14.79 14.79 0 0 1 1.92-5.45c1.5-2.18 4-3.37 6.45-4.42 41.44-17.85 87.78-19.56 132.88-21 32-1 64.42-2 95.41 5.85 6.13 1.56 12.5 3.65 16.75 8.35 3.81 4.23 5.37 10 6.93 15.43 21.59 75.91 70.87 145.19 100.75 218.24" fill="#fff"/><path d="m59.36 935.42c-4.64-24.89-9.59-49.78-11.89-75a282.34 282.34 0 0 1 3.06-75.86c2.24-12.43 5-24.78 7.58-37.14l4-18.88c.66-3.14 1.31-6.29 2-9.44.63-2.95 1.43-5.48 4.1-7.17a46 46 0 0 1 7.63-3.47q4.11-1.63 8.29-3.09c5.55-1.93 11.2-3.62 16.9-5.09a282 282 0 0 1 34.72-6.52c23.68-3 47.57-3.74 71.4-4.49 24.93-.79 50.11-1.44 74.83 2.46a179.14 179.14 0 0 1 18.02 3.71c5 1.33 10.29 3.08 14.09 6.8s5.48 9.06 6.93 14.12c1.57 5.45 3.2 10.87 5 16.25 7.27 21.83 16.54 42.91 26.68 63.54 10.27 20.89 21.33 41.39 32.2 62 10.78 20.43 21.39 41 30.83 62.08q3.5 7.83 6.76 15.77c.61 1.49 3.06.84 2.44-.67-8.88-21.69-19.29-42.71-30.08-63.5-11-21.17-22.37-42.15-33-63.5-10.57-21.19-20.56-42.76-28.75-65q-3-8.2-5.67-16.54c-1.71-5.39-3-10.91-4.92-16.24-1.73-4.9-4.27-9.31-8.51-12.45s-9.3-4.68-14.29-6c-24.64-6.27-50.29-7-75.59-6.47-24.57.47-49.25 1.14-73.73 3.38-23.86 2.19-47.73 6.2-70.29 14.5q-4.25 1.56-8.42 3.32a25.83 25.83 0 0 0 -6.47 3.46 11.64 11.64 0 0 0 -3.78 6.71c-.72 3.07-1.3 6.18-1.94 9.26q-4 19.23-8 38.45c-2.6 12.55-5.08 25.14-6.53 37.89a256.5 256.5 0 0 0 -1.29 38.7c1 25.51 5.21 50.76 10.19 75.75q1.89 9.44 3.89 18.83c.23 1.06 1.81.6 1.62-.45z"/><path d="m253.57 417.6q2.35-7.28 5-14.43c.88-2.35 1.74-4.7 2.65-7 .47-1.2.95-2.41 1.44-3.61.24-.6.48-1.19.73-1.79.12-.3.24-.6.37-.9.31-.39.33-.52.05-.38a1.25 1.25 0 0 0 .62-2.32c-2.62-1.34-3.53 2.79-4.18 4.48-1.06 2.79-2.09 5.6-3.07 8.42-2 5.63-3.68 11.37-5.26 17.13a.83.83 0 0 0 1.61.44z"/><path d="m190.84 398.34 73.39 13.73a33.07 33.07 0 0 1 -4.46 15.32q25.83 7 51 16.32c16.65 6.19 34 13.89 43.91 28.61 9.69 14.32 10.62 32.73 9.8 50-1.7 36.09-9.61 71.71-21.21 105.93-5.84 17.2-12.72 35-9.88 53 1.44 9.07 5.25 18.77 1.17 27-2.55 5.13-7.67 8.4-12.64 11.25-78 44.77-180.07 44.2-257.6-1.44-7.46-4.39-14.86-9.32-19.86-16.37-11.5-16.23 6.11-24.14 7.61-44 3.03-40.69-20.93-95.1-25.83-135.64-1.78-14.8-2.62-30.66 4.5-43.75 6.34-11.67 18-19.32 29.61-25.84 17.94-10.11 37.93-18.91 58.4-16.73"/><path d="m190.62 399.13c24.38 4.93 48.84 9.48 73.27 14.17l-.93-1.23a32.73 32.73 0 0 1 -4.34 14.64 1.36 1.36 0 0 0 .79 2c18 4.9 35.74 10.63 53.16 17.24 14.13 5.37 28.82 12 38.55 24 10.32 12.77 12.31 29.76 12.08 45.64a315.41 315.41 0 0 1 -5.88 54 426.94 426.94 0 0 1 -13.89 53.41c-5.6 17.09-13.17 34.57-12.13 52.93a84.59 84.59 0 0 0 2 12.75c.91 4.26 1.84 8.63 1.47 13-.74 8.61-7.74 13.18-14.61 17.08a242.85 242.85 0 0 1 -42.75 19 262.8 262.8 0 0 1 -92.16 13.25 259.44 259.44 0 0 1 -91.48-19.84q-10.77-4.52-21.17-10.12c-7-3.8-14.24-7.77-20.3-13-4.82-4.17-10.15-10-10.27-16.76-.09-5.13 2.73-9.8 5-14.19 2.9-5.51 5.43-11.15 6.23-17.39a96.7 96.7 0 0 0 -.05-20.83c-1.34-15.27-4.78-30.3-8.57-45.12-3.92-15.35-8.38-30.55-12-46-3.52-14.79-6.49-30.1-6.1-45.37.21-8.23 1.69-16.57 5.76-23.82 3.83-6.81 9.62-12.27 15.92-16.78a166.19 166.19 0 0 1 20.94-12.38 125 125 0 0 1 24.48-9.86 69.12 69.12 0 0 1 25.11-2.32c1.94.19 1.93-2.85 0-3-18-1.82-35.39 4.51-51.12 12.6-13.89 7.13-29.15 15.51-37.4 29.32-8.67 14.52-7.35 32.56-5.14 48.64 2.06 15.07 6 29.83 10 44.48 4.24 15.77 8.69 31.51 11.89 47.52a202.56 202.56 0 0 1 3.41 23.1c.56 7 1 14.42-.29 21.32-1.18 6.18-4.15 11.59-7 17.11-2.36 4.55-4.54 9.44-3.88 14.69.89 7.1 6.19 13.08 11.44 17.52 6.19 5.24 13.37 9.28 20.48 13.12a256.78 256.78 0 0 0 90.86 28.56 268 268 0 0 0 95.39-5.54 253.92 253.92 0 0 0 44.94-15.49 233.35 233.35 0 0 0 21.22-10.92c6.77-4 13-9 14.07-17.25 1.2-8.83-2.63-17.42-3.28-26.14-.69-9.33 1.06-18.6 3.58-27.55s5.87-17.83 8.76-26.76 5.55-18 7.89-27.11a377 377 0 0 0 10.06-55.86c1.69-16.78 3.08-34.59-1.26-51.09a54.41 54.41 0 0 0 -10.52-21 65.36 65.36 0 0 0 -18.05-14.61 148.17 148.17 0 0 0 -21.19-9.65c-8.79-3.3-17.61-6.35-26.61-9.24s-17.88-5.5-26.92-7.93l.8 2a35.11 35.11 0 0 0 4.58-16 1.27 1.27 0 0 0 -.93-1.23c-24.5-4.47-49-9.07-73.51-13.3-1-.18-1.49 1.38-.44 1.59z"/><path d="m195.4 343.16c-4.6 16.83-7.81 34.08-13.47 50.62-1.54 4.49-3.41 8.81-5.17 13.21-.51 1.29 1.58 2.13 2.23.94a73.32 73.32 0 0 0 4.76-11.52c1.45-4.14 2.67-8.37 3.81-12.61 2.31-8.64 4.14-17.39 6.06-26.12 1-4.71 2.15-9.41 3.37-14.08a.83.83 0 0 0 -1.59-.44z"/><path d="m273.1 284.49a25.78 25.78 0 0 0 4.57.17c1.59 0 3.18 0 4.77.08a68.17 68.17 0 0 1 9.56 1.26c1.41.28 2-1.89.59-2.17a64.07 64.07 0 0 0 -9.76-1.18c-1.59-.07-3.19-.1-4.77 0a15.81 15.81 0 0 0 -4.94.73c-.51.2-.67 1.07 0 1.2z"/><path d="m285.36 297.65a1 1 0 0 0 .13-1.24 1.3 1.3 0 0 0 -1.34-.54 1.69 1.69 0 0 0 -.92.32 3.16 3.16 0 0 0 -.65.56 4.45 4.45 0 0 0 -.38.48 2.93 2.93 0 0 0 -.19.4 2 2 0 0 0 -.2 1.37c0 .11 0 .22.05.32a3.22 3.22 0 0 0 .24.61 2.87 2.87 0 0 0 .36.5 2.37 2.37 0 0 0 .49.41l.16.1a2.35 2.35 0 0 0 .57.23 3.29 3.29 0 0 0 .62.08 2.65 2.65 0 0 0 .63-.07h.2a4 4 0 0 0 .57-.24 3.59 3.59 0 0 0 .5-.37 1.06 1.06 0 0 0 .15-.15 2.49 2.49 0 0 0 .59-1.11 2.58 2.58 0 0 0 0-1.35 2.44 2.44 0 0 0 -.69-1.14 2.39 2.39 0 0 0 -.52-.38 2.84 2.84 0 0 0 -1.08-.29 3.16 3.16 0 0 0 -.69.06h-.13a3.14 3.14 0 0 0 -.53.23 2.89 2.89 0 0 0 -.45.33l-.08.08a2.53 2.53 0 0 0 -.56 1 .27.27 0 0 0 0 .12 2.89 2.89 0 0 0 -.08.58 2.3 2.3 0 0 0 .1.69 3.14 3.14 0 0 0 .23.53 2.89 2.89 0 0 0 .33.45l.07.07a2.05 2.05 0 0 0 .83.48h.07l.49.06a1.35 1.35 0 0 0 .71-.16.93.93 0 0 0 .41-.23 1.38 1.38 0 0 0 .47-.52l.19-.44-.03-.48a1.35 1.35 0 0 0 -.16-.71 1.28 1.28 0 0 0 -.38-.59l.29.37a4.46 4.46 0 0 0 -.34-.42l-.06-.07.29.38a1 1 0 0 1 -.08-.14l.18.44a.75.75 0 0 1 0-.16l.07.49a.43.43 0 0 1 0-.16l-.07.49a.5.5 0 0 1 0-.13l-.19.43.08-.12-.29.37.09-.08-.37.28a.53.53 0 0 1 .15-.08l-.43.18.17-.05-.48.07a.54.54 0 0 1 .18 0l-.48-.07.17.05-.43-.18a.51.51 0 0 1 .16.09l-.36-.28a1.14 1.14 0 0 1 .11.11l-.28-.36a.72.72 0 0 1 .11.19l-.18-.42a.83.83 0 0 1 .06.21l-.06-.47a.89.89 0 0 1 0 .23l.06-.47a1.46 1.46 0 0 1 0 .2l.18-.42a1.32 1.32 0 0 1 -.12.2l.27-.35a.87.87 0 0 1 -.17.16l.35-.27a.86.86 0 0 1 -.23.13l.42-.17a1.25 1.25 0 0 1 -.26.07l.45-.06a1.13 1.13 0 0 1 -.26 0l.45.06h-.21l.41.16a.69.69 0 0 1 -.19-.1l.34.26-.16-.16.26.33a1 1 0 0 1 -.13-.22l.16.39a2.36 2.36 0 0 1 -.11-.44l.05.42a2.16 2.16 0 0 1 0-.36l-.05.4a1.91 1.91 0 0 1 .11-.41l-.14.35a2.82 2.82 0 0 1 .31-.53l-.21.28a3.65 3.65 0 0 0 .24-.31 1.61 1.61 0 0 0 .15-.36.5.5 0 0 0 .05-.13l-.12.3a.7.7 0 0 1 .09-.17l-.18.23a3 3 0 0 0 .27-.33l-.15.21-.2.15-.22.09h-.24-.23a1 1 0 0 0 .35 0 .75.75 0 0 0 .49-.23z"/><path d="m277.94 301.3c3.06.5 6.12 1 9.19 1.42a1 1 0 0 0 1.19-.8 1 1 0 0 0 -.94-1.08c-3.07-.41-6.14-.81-9.22-1.18-.93-.12-1.15 1.49-.22 1.64z"/><path d="m299 247.17c4 11.66 3.87 24.3 2 36.36-1.5 9.68-4 20.46.46 29.72 1.42 3 3.69 5 5.84 7.41a7.5 7.5 0 0 1 2.1 4c.17 1.75-.94 2.84-2.18 3.88a14.22 14.22 0 0 0 -2.74 2.74 9.4 9.4 0 0 0 -1.5 4.61c-.25 2.81.31 5.68.42 8.5.45 11.22-1.65 23.18-8.18 32.54a33.58 33.58 0 0 1 -6.22 6.71 17.48 17.48 0 0 1 -8.2 3.68c-6.27 1.14-12.9 0-18.9-1.9-1.78-.57-2.48 2.15-.77 2.77a42.06 42.06 0 0 0 17.58 2.36 21.32 21.32 0 0 0 15-7.23c8.29-8.32 11.86-20.32 12.52-31.81a71.93 71.93 0 0 0 -.06-8.81c-.21-3-1.12-6.53.32-9.32 1.32-2.55 4.46-3.51 5.39-6.39 1.07-3.35-1-6.54-3.23-8.85s-4.3-4.52-5.45-7.61a27.39 27.39 0 0 1 -1.54-9.33 83.57 83.57 0 0 1 1.39-14.37c2.16-13.28 2.8-27.42-2.31-40.13-.41-1-2.08-.63-1.7.47z"/><path d="m241.17 296.09a169.4 169.4 0 0 0 40.19-55.65 62.76 62.76 0 0 0 28.37 21.65 34 34 0 0 0 -4.73-25.88c-11.42-17.35-36.35-32.07-57.2-33.08-31.72-1.53-68 11-85.12 39.31-6.33 10.49-7.59 23.12-17.93 30.93-7.86 5.95-17.2 9.44-25.3 15.05-9.78 6.77-18.45 17.58-16.94 29.38.63 5 3 9.72 2.9 14.74-.28 9.41-9 16-16.83 21.27s-16.35 12.34-15.93 21.74c.42 9.19 9.63 16.78 8.37 25.9-.86 6.27-6.38 10.68-11.32 14.64-5.57 4.45-11 9.3-14.48 15.54s-4.53 14.18-1.17 20.47c4 7.51 13.5 11.51 15.83 19.69 1.32 4.63 0 9.57.25 14.37.64 12 11.14 21.4 22.4 25.52 11 4 24.5 3.8 32.91-4.28 7.74-7.43 10-20.21 19.54-25.1 5.33-2.73 11.66-2.22 17.61-3a40.48 40.48 0 0 0 30.63-22.2 28.57 28.57 0 0 0 3-16c-.56-4.1-2.26-7.95-3.26-12a36.26 36.26 0 0 1 10.74-35c7.74-6.95 19.45-12 20.37-22.39.62-6.92-4.21-13.25-4.58-20.19-.65-12.09 12.16-22.86 8.85-34.5-8.26-3.64-13.52-14-9.79-22.26s17.14-10.28 22-2.67" fill="#8346FC"/><path d="m241.82 296.73a164.31 164.31 0 0 0 33.68-41.86q3.81-6.72 7-13.77h-2.25a65 65 0 0 0 29.14 22.31 1.39 1.39 0 0 0 1.68-1 35.9 35.9 0 0 0 -2.58-23c-3-6.4-8.06-12-13.26-16.66-10.72-9.66-24.2-17-38.39-20a78.11 78.11 0 0 0 -20.2-1.11 114.2 114.2 0 0 0 -20.39 3 96.64 96.64 0 0 0 -36.75 17.16 74.76 74.76 0 0 0 -14.29 14.47c-4.22 5.65-7 11.85-9.66 18.35s-5.73 13.11-11.49 17.55c-6.78 5.24-14.84 8.49-22.1 12.95-12.43 7.61-24 20.66-20.23 36.23 1 4.1 2.69 8.22 2.14 12.52a17.65 17.65 0 0 1 -4.35 9c-4.76 5.55-11.25 9-16.93 13.44-5.3 4.17-10.5 9.6-11.37 16.59s3.39 13.1 6.28 19.17c1.4 3 2.52 6.31 1.88 9.64-.69 3.63-3.12 6.53-5.75 9s-5.83 4.8-8.69 7.26a56.56 56.56 0 0 0 -8.56 8.94c-4.52 6.09-7.17 13.93-5.38 21.48 1.62 7 7.33 11.24 12.17 16.06 2.22 2.21 4.32 4.7 5.19 7.77 1.3 4.53 0 9.33.2 13.94.37 6.86 3.8 13.06 8.64 17.81 9.91 9.71 26.13 14.71 39.58 10.34 6.62-2.15 11.42-6.65 15-12.47 3.35-5.37 5.84-11.64 10.67-15.91 6.16-5.44 14.85-4 22.36-5.38a42 42 0 0 0 19.19-9.12 40.51 40.51 0 0 0 12.28-17.49 28.09 28.09 0 0 0 1.55-12.88c-.56-4.27-2.29-8.23-3.32-12.39a34.37 34.37 0 0 1 1.81-21.37c2.75-6.58 7.41-11.51 13.06-15.71 5-3.75 10.77-7.36 14-12.89a16.1 16.1 0 0 0 2.28-9.18c-.25-3.9-1.76-7.51-3-11.16-1.18-3.44-2-6.93-1.38-10.57a38.89 38.89 0 0 1 3.45-9.71c2.67-5.69 6-11.72 5.5-18.23-.09-1.22-.12-3.27-1.21-4.05-.65-.47-1.51-.74-2.2-1.17a15.47 15.47 0 0 1 -2.37-1.81 17.87 17.87 0 0 1 -5.11-8.09c-1.76-6 .39-12.28 6.28-14.83 4.55-2 10.71-1.52 13.65 2.92 1 1.52 3.47.1 2.46-1.44-4.09-6.18-12.7-6.73-18.77-3.27-7.26 4.13-8.56 13-5.26 20.22a20.34 20.34 0 0 0 9.89 9.92l-.65-.85c1.62 6-1.41 11.81-4 17.1s-5.43 11-5.1 17c.39 6.93 5.27 13.18 4.59 20.19-.54 5.66-5 9.76-9.26 13-4.8 3.74-10.07 7-14 11.7a38.13 38.13 0 0 0 -8.17 17.61 40.38 40.38 0 0 0 1.69 19.86c1.22 3.82 2.31 7.55 2.1 11.6a29.17 29.17 0 0 1 -3.13 11.25 39.05 39.05 0 0 1 -31.16 21.23c-6.94.63-14 .61-19.66 5.23-4.49 3.66-7.14 9-9.95 14-3.06 5.38-6.52 10.3-12.27 13s-12.75 3-19 1.8c-11.93-2.27-25-10.46-27.53-23.15-.76-3.77-.09-7.57 0-11.36a18.19 18.19 0 0 0 -2.36-10c-3.11-5.17-8.37-8.45-12.17-13-4.54-5.47-4.8-12.72-2.26-19.18 2.71-6.85 8.35-12.11 13.92-16.69 4.94-4.06 10.74-8.08 12.83-14.45 2-6.21-1-12.14-3.83-17.52s-5.51-11.3-2.73-17.45c2.68-5.92 8.28-10.17 13.49-13.75s10.52-7.27 14.23-12.47a19.19 19.19 0 0 0 3.49-8.4c.52-3.68-.34-7.24-1.33-10.76s-1.83-6.93-1.49-10.59a24.47 24.47 0 0 1 3-9.37 43.59 43.59 0 0 1 14.19-14.83c6.37-4.25 13.41-7.31 19.89-11.37a39.38 39.38 0 0 0 8.42-6.61 35.87 35.87 0 0 0 5.22-7.62c3-5.66 4.8-11.82 7.72-17.49a62.62 62.62 0 0 1 11-15c17.37-17.84 43.15-26.2 67.64-26.53a67.88 67.88 0 0 1 18.19 1.94 79.29 79.29 0 0 1 18.6 7.61 85.3 85.3 0 0 1 16.46 11.84c4.65 4.33 9.09 9.32 11.84 15.1a32.79 32.79 0 0 1 2.38 20.81l1.68-1a61.71 61.71 0 0 1 -27.62-21c-.51-.69-1.81-1-2.25 0a173.67 173.67 0 0 1 -29.13 44.77q-5.06 5.67-10.57 10.89c-.85.81.42 2.06 1.29 1.29z" fill="#8346FC"/><path d="m241.58 296.5a11.87 11.87 0 0 0 -17.58-7.44 12.26 12.26 0 0 0 -5.94 9.5 17.25 17.25 0 0 0 4 12 30.53 30.53 0 0 0 5.27 5.14c1.86 1.46 3.79 2.94 6.2 3.24 1.49.19 1.68-2.13.34-2.53-3.27-1-6.14-3.59-8.44-6.06a16.51 16.51 0 0 1 -4.6-9.12 10.09 10.09 0 0 1 3.21-8.9 9.74 9.74 0 0 1 8.4-2.27 10.55 10.55 0 0 1 7.66 6.86.79.79 0 0 0 1.53-.42z"/><path d="m231.32 300.18h.36c-.12 0-.06 0 0 0l.17.05s.21.07.1 0 .08.05.08.05a3.28 3.28 0 0 1 .31.2l.13.13c.09.09.18.17.26.26a.79.79 0 0 1 .12.15c-.06-.11-.07-.1 0 0l.19.32c0 .05.12.2 0 0a.59.59 0 0 1 .06.16 2.77 2.77 0 0 1 .12.41c0 .14.06.28.09.42s0-.12 0 0a1.5 1.5 0 0 0 0 .22 11.23 11.23 0 0 1 0 1.74l1.13-1.13c.13 0 .19 0 0 0s-.16-.07-.19-.06.19.1 0 0l-.19-.13.58 1c0-.13 0-.11 0 .08a.94.94 0 0 1 0-.16.88.88 0 0 1 .05-.15c-.07.16-.08.19 0 .11s.17-.35.28-.52a1.13 1.13 0 0 0 -.29-1.46 1.17 1.17 0 0 0 -1.5.08 2.51 2.51 0 0 0 -.87 1.94c0 1.07 1.17 1.51 2.07 1.51a1.14 1.14 0 0 0 1.13-1.13 7.75 7.75 0 0 0 -.88-4.16 3.31 3.31 0 0 0 -3.6-1.52.78.78 0 0 0 -.56.87.77.77 0 0 0 .77.68z"/><path d="m274.14 340.94a10 10 0 0 0 3 3.27 10.2 10.2 0 0 0 3.86 1.84 1.2 1.2 0 0 0 1.45-.83 1.21 1.21 0 0 0 -.82-1.46q-.47-.13-.93-.3l-.45-.16-.18-.07c.26.1 0 0-.08 0a10.73 10.73 0 0 1 -1.65-.93l-.34-.3c-.25-.18.1.09 0 0l-.19-.15q-.37-.31-.72-.66c-.22-.23-.44-.47-.65-.72l-.12-.15-.15-.19c-.11-.14-.23-.27-.34-.4a1 1 0 0 0 -1.62 1.24z"/><g fill="#8346FC"><path d="m265.26 310.78a.87.87 0 0 0 0-1.74.87.87 0 0 0 0 1.74z"/><path d="m268.92 309.23a.81.81 0 0 0 0-1.62.81.81 0 0 0 0 1.62z"/><path d="m268 313.81a.79.79 0 0 0 0-1.58.79.79 0 0 0 0 1.58z"/><path d="m65.54 745.58c-3.59 5.34-.06 13.47 5.93 15.13a7 7 0 0 0 7.33-2.17 6.33 6.33 0 0 0 1-7.15 1.13 1.13 0 0 0 -2.09.56c.12 4.66 5.6 7.51 9.71 5.78 4.79-2 5.66-8.4 3.36-12.56-.64-1.15-2.72-.35-2.19.93a6.91 6.91 0 0 0 13.15-4.25 1.23 1.23 0 0 0 -2.38.65 4.49 4.49 0 0 1 -8.46 3l-2.19.93c1.59 2.84 1.28 7.42-1.94 9.06-2.59 1.32-6.69-.38-6.81-3.5l-2.1.57a4.24 4.24 0 0 1 -1 5 5.08 5.08 0 0 1 -5.69.94 8.34 8.34 0 0 1 -4.54-4.9 10.2 10.2 0 0 1 .36-7.33c.32-.88-1-1.32-1.44-.61z"/><path d="m67.76 811.77a16.14 16.14 0 0 1 -2-14.22c.8-2.28 2.58-3.84 5.06-3.07 2.3.71 4.16 2.61 5.69 4.38a1.22 1.22 0 0 0 2.07-.86c-.14-3.33 2.1-5.94 4.68-7.79a25.81 25.81 0 0 1 4.1-2.39c1.7-.8 3.54-1.48 5.29-.46 2.84 1.66 4 5.53 4 8.61a13.48 13.48 0 0 1 -3.27 9.19c-.83 1 0 2.79 1.34 2.3a4.82 4.82 0 0 1 5.29 1.66c1.57 1.87 1.5 4.53.73 6.72a13.8 13.8 0 0 1 -4.71 6 36 36 0 0 1 -3 2.07c-.87.55-2.56 1.87-3.61 1.08-.68-.5 0-.8.58-.65 1 .28 1.32 1.88 1.41 2.75a9 9 0 0 1 -1.78 6c-2.83 4-7.8 5.38-12.48 4.63a21.66 21.66 0 0 1 -8.15-3.19c-.68-.44-2.33-1.57-2-2.59 0 0 .31-.25.48-.37.48-.33.33.2.18-.23l.38-1.43c-2.52 2.26-6.6.66-8.39-1.76-1-1.36-1.63-3.3-.84-4.9a3.25 3.25 0 0 1 3.63-1.89 1.44 1.44 0 0 0 1.8-1.36c-.14-1.6-.3-3.19-.46-4.79s-2.88-1.78-2.75 0c.1 1.6.2 3.19.34 4.79l1.81-1.39a6.08 6.08 0 0 0 -6.54 2.62 7.34 7.34 0 0 0 .06 7.77c2.59 4.54 9.22 6.77 13.4 3a1.46 1.46 0 0 0 .38-1.44c-1-2.93-5-2.29-6.14.19-1.7 3.65 3.08 6.46 5.71 7.72 6.87 3.27 15.81 3.62 21.15-2.62a12.13 12.13 0 0 0 3.08-9.5 6 6 0 0 0 -2.52-4.4 3.84 3.84 0 0 0 -4.32.27 3.05 3.05 0 0 0 -.66 4 4.28 4.28 0 0 0 4.85 1.59 17.44 17.44 0 0 0 5-2.89 22.26 22.26 0 0 0 4.42-4c2.66-3.3 4.1-7.95 2.19-12-1.58-3.32-5.67-5.42-9.22-4.15l1.34 2.3a16.25 16.25 0 0 0 2.09-18.33c-1.63-2.88-4.51-5.06-8-4.47-3.15.54-6.39 2.67-8.81 4.69-2.69 2.26-4.73 5.37-4.55 9l2.07-.86c-1.9-2.16-4.38-4.41-7.29-5a5.85 5.85 0 0 0 -6.56 3.25c-2.7 5.4-1.46 12.47 2 17.24.62.87 2.06.06 1.45-.84z"/><path d="m57.31 887.6c.4-1.8 2.74-2 4.23-1.59a7.13 7.13 0 0 1 3.93 3.29c1.72 2.92 1.84 7-.39 9.64-.57.68-.27 2 .82 2 3.37-.28 7.36.71 8.62 4.25a4.23 4.23 0 0 1 -.64 4.35 3.56 3.56 0 0 1 -3.88 1.06l.25 1.93a4.12 4.12 0 0 1 5.75-.63 5.29 5.29 0 0 1 1.08 6.41c-1 2-2.93 3.25-4.7 4.48a20.45 20.45 0 0 0 -5.23 4.62c-.84 1.15 1.05 2.61 2 1.52 3.63-4.28 10.76-6.25 11.12-12.73a7.28 7.28 0 0 0 -4.07-7.1 6.56 6.56 0 0 0 -7.62 1.69 1.25 1.25 0 0 0 .55 2.05 5.89 5.89 0 0 0 6-1.17 6.36 6.36 0 0 0 2-5.94c-.87-5.29-6.4-7.57-11.23-7.13l.81 2a10.87 10.87 0 0 0 -.14-13.41 8.34 8.34 0 0 0 -5.95-3.35c-2.33-.11-4.75 1.05-5 3.57a.84.84 0 0 0 1.65.22z"/><path d="m136.51 861.56c-6.65-2.35-13.89-.23-19.32 4-5 3.86-11.8 12.46-7 18.8a6.09 6.09 0 0 0 4.68 2.55c2.32.08 4.44-1.18 6.33-2.39a1.18 1.18 0 0 0 -1.2-2 15.78 15.78 0 0 0 -8 15.54c.43 3.37 2.12 6.44 5.34 7.82a11.35 11.35 0 0 0 8.84-.21c3.66-1.6 6.34-4.7 8.63-7.86l-2.41-1a8.11 8.11 0 0 0 3.63 8.27 9.12 9.12 0 0 0 9.5.37c7.41-3.85 7.86-13 6.24-20.19l-.93 1.64c6.46-1.76 10.11-7.94 11.7-14 .89-3.44 1.51-7.33.78-10.84s-3.33-6.54-6.95-6.75a5.34 5.34 0 0 0 -5.23 7.25 1.33 1.33 0 0 0 1.16.67 7.09 7.09 0 0 0 6.6-5.21 7.56 7.56 0 0 0 -2.8-8 9.6 9.6 0 0 0 -9-1.52 13 13 0 0 0 -6.08 4.42c-.23.3-.45.64-.7.92a2 2 0 0 1 -.54.46c.5.07.43.35-.22.84 1.57-.54.93-3-.7-2.52-3 .86-.88 5.29 2 4.15 1.51-.6 2.26-2.27 3.37-3.37a9.57 9.57 0 0 1 4.37-2.51c3-.73 6.48.58 7.66 3.53 1.07 2.68-.91 6.14-3.9 6.15l1.16.67c-.57-1.35.85-2.9 2.09-3.18a4.22 4.22 0 0 1 3.92 1.81c2.26 2.85 1.55 7.34.88 10.64-1.16 5.75-4.07 12.22-10.22 13.9a1.38 1.38 0 0 0 -.93 1.64c1.27 5.62 1.4 12.68-3.79 16.45a6.91 6.91 0 0 1 -7 1c-2.18-1.05-4-3.39-3.47-5.91a1.33 1.33 0 0 0 -2.42-1c-2.06 2.85-4.6 5.84-8 7-2.85 1-6.54.72-8.5-1.83s-1.93-6.72-.89-9.78a13.32 13.32 0 0 1 6.12-7.34l-1.2-2c-1.69 1.1-3.84 2.61-6 2a4.8 4.8 0 0 1 -3.1-4c-.66-4.06 2.51-8.42 5.16-11.2 5.07-5.34 12.78-8.59 20-6.19 1 .33 1.39-1.2.42-1.54z"/><path d="m149.77 765.87c-7.79 2.06-16.84 5.9-18 15a9.64 9.64 0 0 0 3.84 9.19 8.39 8.39 0 0 0 9.3.73l-1.65-1.65c-1.3 3-1.93 6.45-.74 9.56a8.41 8.41 0 0 0 7.51 5.3c3.62.27 6.94-1.44 9.6-3.76s5.64-5.6 6.89-9 .06-7.78-3.68-9a1.33 1.33 0 0 0 -1.61 1.62 9 9 0 0 0 7.19 6.61c3.82.73 7.57-.92 10.28-3.57 2.89-2.83 5-7.06 4.73-11.17a9.09 9.09 0 0 0 -6.2-8.27 1.36 1.36 0 0 0 -1.71 1.3c.11.87.23 1.74.35 2.6a1.35 1.35 0 0 0 2.64.36c1.13-3.11-.56-6.36-3.09-8.2-3.19-2.33-7.46-2-11.18-1.68-1.65.15-1.7 2.72 0 2.61a3 3 0 0 0 3-2.91 1.31 1.31 0 0 0 -.95-1.25 11.85 11.85 0 0 0 -9.41.31c-1.18.54-.34 2.57.9 2.12a11 11 0 0 1 7.81.08l-1-1.26a.35.35 0 0 1 -.37.3v2.61c2.91-.26 6.28-.66 9 .8 2 1.1 3.57 3.43 2.72 5.75l2.64.36c-.11-.86-.22-1.73-.34-2.6l-1.71 1.31c2.8.84 4.3 3.7 4.26 6.5a12.67 12.67 0 0 1 -3.95 8.45c-2 2-4.83 3.4-7.7 2.9a6.44 6.44 0 0 1 -5.36-4.76l-1.61 1.61a3.6 3.6 0 0 1 2.26 3.31c.15 1.85-.86 3.6-1.89 5-2 2.84-4.61 5.78-7.77 7.34-2.78 1.38-6.66 1.5-8.88-1s-1.72-6.34-.53-9.13c.43-1-.52-2.36-1.65-1.65a6.18 6.18 0 0 1 -7.19-.85 7.8 7.8 0 0 1 -2.29-8.2c1.9-7.24 9.49-10.28 16-12.21a.81.81 0 0 0 -.43-1.57z"/><path d="m179.32 929.44c-.49-3-.33-6.77 2.66-8.46a3.35 3.35 0 0 1 3.87.17 2.72 2.72 0 0 1 .88 3.16l2.13.59c1.16-5 4.21-10.33 8.76-13a4.29 4.29 0 0 1 6.18 1.64c1.59 2.59 1.11 5.89.71 8.74-.22 1.57 2.16 2.28 2.42.67a13.65 13.65 0 0 1 2.79-6.41c1.4-1.73 3.61-3.75 6-3.68 2.18.06 3.94 1.95 4.72 3.85 1.09 2.64.78 5.67.57 8.44a1.33 1.33 0 0 0 2.25.94c1.74-1.7 4.84-.43 5.3 1.81l2.39-1-1.81-2.71c-.86-1.29-2.89-.14-2.09 1.21l1.65 2.81c.8 1.37 2.58.38 2.38-1-.64-4.35-6.7-5.93-9.69-3l2.26.93c.27-3.39.46-7-1.09-10.12a8.23 8.23 0 0 0 -6.48-4.76c-3-.24-5.77 1.77-7.66 3.88a15.86 15.86 0 0 0 -3.9 8.13l2.47.33c.46-3.47.88-7.37-1.16-10.46-1.64-2.49-4.53-4.1-7.53-3.17s-5.56 3.68-7.41 6.17a24.23 24.23 0 0 0 -4.15 9.19 1.11 1.11 0 0 0 2.13.59c1.51-4-3-7.43-6.65-6.19-4.66 1.58-5.57 7-4.44 11.16.27 1 1.71.57 1.55-.43z"/><path d="m214 814.28a8.59 8.59 0 0 0 -9 1.05c-2.82 2.12-4.51 5.37-5.68 8.63-2.09 5.81-1.79 13.82 5.17 15.95a6.93 6.93 0 0 0 7.9-2.36l-2.31-.3c.59 2.91 1.38 6 3.28 8.32a8 8 0 0 0 8.76 2.5c6.74-2.1 11.53-9.26 13-15.86.23-1-1-2.29-2-1.52a3.59 3.59 0 0 0 -1.14 4.4 4.43 4.43 0 0 0 4.43 2.72c4.13-.17 7.88-4.1 10-7.3a20.7 20.7 0 0 0 -.5-23.78 21.06 21.06 0 0 0 -4.32-4.37c-.76-.58-1.62-1.39-2.63-1a2.72 2.72 0 0 0 -1.6 1.62 4 4 0 0 0 1.24 4.11 3.64 3.64 0 0 0 4.64.12c3.27-2.35 2.77-7.24 1-10.33a13.23 13.23 0 0 0 -9.76-6.34 20.08 20.08 0 0 0 -14.59 4.46c-3.56 2.88-6.45 7.67-4.68 12.31a1.41 1.41 0 0 0 1.71 1c4.23-1.66 3.42-7.78-.72-9a7 7 0 0 0 -6.36 1.56 12.25 12.25 0 0 0 -3.52 6.63 1.34 1.34 0 0 0 2.58.72c.71-2.68 2.07-6.08 5.27-6.37a2.44 2.44 0 0 1 2.71 1.45c.24.75.16 2-.7 2.35l1.7 1c-1.52-4 1.47-7.88 4.62-10.08 3.6-2.5 8.41-4.06 12.78-3.07 3.53.81 6.85 3.53 7.58 7.2.28 1.38.16 3.81-1.42 4.46-.88.35-1.81-1-1.14-1.32h-1.39a18.12 18.12 0 0 1 8 19.16 18.59 18.59 0 0 1 -5.45 9.35c-1.31 1.21-3.1 2.69-5 2.82a1.79 1.79 0 0 1 -1.83-.81 1 1 0 0 1 .17-1.49l-2.25-1.31c-1.24 5.53-4.93 11.43-10.34 13.72-2.6 1.1-5.35.71-7.09-1.62-1.5-2-2.09-4.62-2.6-7a1.28 1.28 0 0 0 -2.31-.31c-1.41 2-4.34 1.83-6.3.78-2.91-1.55-3.7-4.88-3.44-8a21.27 21.27 0 0 1 3.56-9.71c1.93-2.87 5.63-5.23 9.13-3.69.94.41 1.78-.92.83-1.41z"/><path d="m287.86 864.62c-4.55-2.67-9.84-4.34-15.15-3.79a18.49 18.49 0 0 0 -11.84 5.79c-5.67 6.32-5 18 3.59 21.45 4.26 1.73 9.58.92 12.68-2.62a1.33 1.33 0 0 0 -1.88-1.88 10.53 10.53 0 0 0 -3.34 9.92 10.06 10.06 0 0 0 6.89 7.42 10.43 10.43 0 0 0 10-2.16c2.95-2.48 4.71-6.11 6.26-9.55l-2.16.27c2.27 2.59 6.26 2.3 8.83.35 3-2.32 4.67-6.38 5.77-9.92a33.87 33.87 0 0 0 1.49-11.9c-.17-3.27-.48-7.66-3-10.07-1.17-1.1-3.32-1.9-4.46-.39a5.61 5.61 0 0 0 -.49 5.72 1.42 1.42 0 0 0 1.57.64c2.64-.36 4.38-2.69 4.92-5.17a10.35 10.35 0 0 0 -1.73-8.12 13.32 13.32 0 0 0 -23.62 2.86l2-.82a.22.22 0 0 0 .09.1c1.2-1.21-.61-3-1.86-1.86a2.64 2.64 0 0 0 .38 4.13c.79.6 1.72-.1 2-.82a10.66 10.66 0 0 1 15.2-5.26c2.39 1.43 4.56 4 4.88 6.82.26 2.24-.52 5.08-3.06 5.43l1.58.64a2.69 2.69 0 0 1 .4-2.76l-1 .41c2.65-.06 3.05 5 3.25 6.78a31.65 31.65 0 0 1 -.53 10.18 26.9 26.9 0 0 1 -3.6 9.12c-1.46 2.19-4.84 4.54-7.11 2a1.38 1.38 0 0 0 -2.16.28c-2.16 4.8-5.68 12.05-12.16 10.73a7.46 7.46 0 0 1 -5.89-5.44 7.83 7.83 0 0 1 2.51-7.65l-1.88-1.88a8.65 8.65 0 0 1 -8.87 2.43 9.37 9.37 0 0 1 -6.54-7.41c-1.64-7.86 5-14.32 12.34-15.55 5.11-.87 10.38.53 14.88 2.92a.78.78 0 0 0 .79-1.34z"/><path d="m252.31 759.72c-1.22 3.79 2.59 7 6.16 6.56 4.72-.56 7.34-5.11 9.1-9l-2.06-.87c-.81 5.41 4.87 9.36 9.89 8.52 5.94-1 8.89-7.54 9.34-12.91l-2.35.63a4.3 4.3 0 0 0 6.21 1 5 5 0 0 0 1.87-3.56 6.88 6.88 0 0 0 -.4-3.05l-.2-.48c-.14-.71-.67-.93-1.62-.68l.37-.88-.13.13a1.25 1.25 0 0 0 1.76 1.76 1.65 1.65 0 0 0 -.82-2.76c-1.51-.47-2.53 1-2.3 2.37.28 1.59 1.42 3 .37 4.63-.61.93-2.26 1.32-2.94.24a1.27 1.27 0 0 0 -2.34.64c-.32 4.09-2.31 9-6.55 10.38-3.3 1.08-8.54-1.4-8-5.39.15-1.12-1.5-2.16-2.06-.87-1.32 3-2.6 6.42-5.82 7.88a4.57 4.57 0 0 1 -4.38-.08 3.43 3.43 0 0 1 -1.59-3.78.79.79 0 0 0 -1.52-.42z"/><path d="m331.49 783.79c-5.44-3.74-13.19-4.07-18.22.52-4.37 4-4.95 11.19-.27 15.23 1.13 1 2.75 2.17 4.17 1.15a3.39 3.39 0 0 0 1-4.21 1.29 1.29 0 0 0 -2-.26 16 16 0 0 0 -2.54 16.35 15.25 15.25 0 0 0 5.19 6.83 9.18 9.18 0 0 0 4.94 1.93 7.37 7.37 0 0 0 4.89-2.11 35.89 35.89 0 0 0 8.3-10.32l-2.53-1.07a8.26 8.26 0 0 0 5.89 10.33c4.88 1 9.68-3.32 9.5-8.21l-2.14 1.22c.76.52 1.52 1.05 2.29 1.56a1.42 1.42 0 0 0 1.94-.51 6.39 6.39 0 0 0 -.22-7.34c-.94-1.24-3-.14-2.15 1.25a4.2 4.2 0 0 1 -.08 4.66l1.94-.51-2.29-1.56a1.42 1.42 0 0 0 -2.13 1.23c.13 3.16-3 6.24-6.23 5.43a5.45 5.45 0 0 1 -3.65-6.81 1.39 1.39 0 0 0 -2.53-1.07 33.34 33.34 0 0 1 -7.84 9.79 4.93 4.93 0 0 1 -2.53 1.32 5.11 5.11 0 0 1 -3-.87 11.19 11.19 0 0 1 -3.36-3c-3.58-4.74-3.83-12.11.17-16.74l-2-.26c.21.47-.2.84-.57 1l1-.13a7.06 7.06 0 0 1 -4.13-5.48 8.07 8.07 0 0 1 2.31-6.87c4.38-4.59 11-3.72 16.15-1.14a.8.8 0 0 0 .81-1.39z"/><path d="m315.13 734.63c3 2.71 5.93 5.42 9 8a1 1 0 1 0 1.4-1.4c-2.93-2.76-5.94-5.41-9-8.08-1-.87-2.41.55-1.43 1.44z"/><path d="m348.53 907.4a18.38 18.38 0 0 1 -4.44-18.69c1-3 3.37-7.15 7-7.39s5.48 4 6.68 6.64c.47 1 1.89.58 2.21-.29.87-2.43 1.92-5.08 3.88-6.85a4.84 4.84 0 0 1 6.66 0c5.28 4.66 1.34 11.78-2 16.25a1.34 1.34 0 0 0 .8 2c3.32 1 3.83 5.58 2.53 8.35-1.88 4-6.77 5.79-10.67 7.1l1.71 1a1.06 1.06 0 0 1 .2-1.32l-1.68.21c2.69 1.6 1 5.66-.65 7.38a13 13 0 0 1 -8.5 3.81 15.55 15.55 0 0 1 -9.57-2.16 4.91 4.91 0 0 1 -2.51-3.77 2.84 2.84 0 0 1 2.06-3l-1.37-2.36c-1.7 1.4-4.45-.15-5.18-1.92-1.17-2.86 1.33-5.88 3.6-7.27a1.28 1.28 0 0 0 -1.29-2.21c-3.79 2-6.79 6.88-4.61 11.08 1.77 3.4 6.43 4.83 9.48 2.32 1.17-1-.13-2.63-1.38-2.36-3.24.68-4.76 4.47-3.88 7.45 1.07 3.63 5 5.6 8.36 6.47 6.41 1.63 15.06 0 18.44-6.33 1.64-3.08 1.75-7.52-1.6-9.5a1.41 1.41 0 0 0 -1.69.22 3.73 3.73 0 0 0 -.92 4 1.42 1.42 0 0 0 1.72 1c5-1.68 10.91-4.12 12.78-9.56 1.46-4.21-.1-9.72-4.67-11.14l.8 2c2.38-3.25 4.54-6.86 4.84-11a10.32 10.32 0 0 0 -4.13-9.06 7.25 7.25 0 0 0 -8.82.19c-2.66 2.07-4 5.39-5.07 8.48l2.21-.29c-1.26-2.71-2.89-5.75-5.73-7.08-3.1-1.45-6.38-.09-8.58 2.29-4.29 4.65-5.31 11.88-3.59 17.82a19.27 19.27 0 0 0 5.42 8.84c.81.73 2-.44 1.2-1.21z"/><path d="m295.19 932.2a13.59 13.59 0 0 0 7 .75.93.93 0 0 0 -.49-1.8 11.69 11.69 0 0 1 -6-.75.93.93 0 0 0 -1.15.65 1 1 0 0 0 .65 1.15z"/><path d="m410.58 925.32 1.61 3.25a1.07 1.07 0 0 0 1.46.38 1.1 1.1 0 0 0 .38-1.46l-1.64-3.24a1.05 1.05 0 0 0 -1.44-.37 1.07 1.07 0 0 0 -.37 1.44z"/><path d="m217.28 434.61a72.4 72.4 0 0 0 35.46-5c1-.42.58-2.11-.46-1.68a72 72 0 0 1 -35 5.14c-1-.1-1 1.47 0 1.58z"/><path d="m228.08 444.49a49.23 49.23 0 0 0 18.66-3.12c1-.38.6-2-.45-1.64a52.86 52.86 0 0 1 -18.21 3.18.79.79 0 0 0 0 1.58z"/></g><path d="m68.21 571.81a533 533 0 0 0 90.63 92.39c40.59 32.35 92.7 59.76 142.63 45.61 22.93-6.5 43.28-21.37 66.88-24.7 19.61-2.77 43.06 1.48 56.29-13.25 8.12-9.05 9.4-22.8 17.78-31.59 16.9-17.74 52.89-6.6 66.08-27.25 7.66-12 3.05-29.26 11.77-40.48 6.35-8.18 18.2-10.8 24-19.37 8-11.75.83-28.12 5-41.68 2.11-6.84 6.93-12.44 10.37-18.71 8-14.49 8.24-31.95 6.35-48.37-2.74-23.76-13.06-50.66-36.12-57-19.21-5.29-38.89 6.17-54.25 18.86-38.37 31.67-66.93 73.6-103.15 107.73s-85.14 61.19-134 51.91c-35.7-6.79-64.91-31.55-92.31-55.42"/><path d="m67.5 572.23a520 520 0 0 0 96.07 97.16c33.43 25.66 74.86 48.61 118.43 45.21a108.19 108.19 0 0 0 31-7.33c10.23-4 20-9 30.15-13.29 9.83-4.11 19.92-7.24 30.57-8.14 9.33-.8 18.74-.58 28-1.91 8.41-1.2 16.8-3.95 22.91-10.12 6.85-6.91 9.14-16.6 13.52-25 4.11-7.89 10.43-12.91 18.83-15.65 7.53-2.46 15.48-3.31 23.26-4.62 7.25-1.21 14.79-2.74 21.11-6.68 6.85-4.26 10.76-11 12.43-18.8 2-9.16 1.24-19.51 6.27-27.76 4.81-7.91 14.33-10.81 21.1-16.62 7.59-6.51 8.79-15.8 8.48-25.27-.17-5.14-.62-10.31-.14-15.45.52-5.65 2.74-10.55 5.72-15.31 2.81-4.5 5.82-8.82 7.93-13.72a62.9 62.9 0 0 0 4.38-15.82c1.54-10.51 1-21.27-.42-31.76-2.29-16.56-7.93-34.57-20.56-46.24a39.27 39.27 0 0 0 -23.16-10.4c-10.54-.93-21 2.59-30.12 7.56-9.73 5.28-18.35 12.36-26.58 19.7-8.41 7.49-16.39 15.45-24.11 23.65-15.39 16.34-29.78 33.6-44.85 50.24-29.44 32.5-63.36 63.3-106.49 75.68-20.69 5.93-42.54 6.64-63.27.48-20.95-6.22-39.55-18.4-56.57-31.81-8.35-6.58-16.47-13.48-24.49-20.46-1-.9-2.57.61-1.52 1.53 31.16 27.13 65.19 55.94 108.54 57.76 42.31 1.78 82-20.68 112.83-47.8 33.24-29.21 59.11-65.62 90.67-96.5a244.56 244.56 0 0 1 25-21.92c8.83-6.53 18.71-12.28 29.6-14.43a36.75 36.75 0 0 1 28.19 5.52c7 4.82 12.08 12 15.75 19.53a93.12 93.12 0 0 1 7.74 25.33 113.68 113.68 0 0 1 1.21 31.84 62.55 62.55 0 0 1 -4.1 16.43c-2.09 5.08-5.2 9.53-8.09 14.17-2.64 4.24-4.87 8.7-5.69 13.67a69.47 69.47 0 0 0 -.4 14.56c.46 10 .77 20.21-7.46 27.28-6.66 5.73-15.53 8.57-20.73 16-5.36 7.66-5.28 17.5-6.7 26.38-1.36 8.5-4.59 16.15-12.23 20.72-6.38 3.82-14 5.16-21.21 6.33-7.67 1.25-15.5 2.16-22.89 4.71s-13.55 6.79-17.75 13.4c-5.12 8.08-7 18-13 25.53-12.07 15.05-34.66 11.91-51.66 13.48-21.37 2-39.62 13-59.13 20.86a109.55 109.55 0 0 1 -62.44 6c-21.54-4.14-41.83-13.45-60.46-24.82-19-11.58-36.42-25.53-53-40.26a543.4 543.4 0 0 1 -48.23-48.47q-10.83-12.37-20.88-25.38c-.56-.74-1.86.25-1.29 1z"/><g fill="#8346FC"><path d="m371.89 513.43a256.75 256.75 0 0 1 -40.66 30.57c-14.26 8.54-29.63 15.38-45.84 19.21a110.87 110.87 0 0 1 -48.6.9c-16.2-3.47-31.24-10.65-45.12-19.59-14.12-9.1-27.19-19.8-40-30.68q-2.38-2-4.81-4c-1-.86-2.56.57-1.52 1.53 6.29 5.79 12.81 11.35 19.37 16.83s13.33 10.72 20.38 15.57c13.83 9.5 28.92 17.64 45.22 22a112.51 112.51 0 0 0 49.56 1.43c16.59-3.12 32.45-9.47 47.15-17.68a215.16 215.16 0 0 0 41.46-30.45c1.53-1.42 3.05-2.87 4.55-4.33.76-.74-.39-1.88-1.17-1.16z"/><path d="m158.26 664.78a249.15 249.15 0 0 0 52.26 34.22c18.19 8.76 37.61 15.1 57.9 16a93.56 93.56 0 0 0 33.33-4.15 1.08 1.08 0 0 0 -.57-2.08 106.2 106.2 0 0 1 -29.29 3.36 123.51 123.51 0 0 1 -29.06-4.13c-19.72-5.15-38.07-14-55.26-24.84-9.72-6.13-19.12-12.78-28.31-19.68-.74-.56-1.71.7-1 1.3z"/><path d="m302.41 487.64c9.9 14.07 14.32 30.93 17.47 47.62.9 4.72 1.69 9.47 2.47 14.22.26 1.59 2.69.92 2.42-.67-2.89-16.84-5.94-33.92-13.46-49.43a82.16 82.16 0 0 0 -7.51-12.55c-.6-.82-2 0-1.39.81z"/><path d="m406.4 684.05c10.37-2.25 17.55-10 23.58-18.23 6.33-8.64 11.82-18.3 20.3-25.08 11.27-9 26.12-8.31 39.43-11.75 6.32-1.63 12.62-4.21 17.45-8.73 5.11-4.78 7.49-11.34 8.62-18.11s1.22-13.66 3.28-20.15c1.74-5.35 4.85-10.92 10.08-13.49a12.1 12.1 0 0 1 3.9-1.15c1.87-.22 1.89-3.19 0-3-6 .71-10.6 4.58-13.65 9.65-3.34 5.55-4.56 11.79-5.33 18.13-.83 6.91-1.3 14.26-4.71 20.49-3.22 5.89-9 9.65-15.12 11.93-13.51 5-29 3.49-41.57 11.15-9.27 5.64-15.3 15.15-21.26 23.92-5.78 8.52-11.94 17.47-21.69 21.73a21.2 21.2 0 0 1 -3.72 1.19c-1 .24-.56 1.72.41 1.5z"/></g><path d="m759.88 466.69c2.57-2.57 5.27-5 8.07-7.33 1.37-1.14 2.77-2.25 4.2-3.31s3.1-2.07 4.47-3.3c.85-.76-.23-2-1.18-1.52a30.36 30.36 0 0 0 -4.44 3.16c-1.46 1.13-2.9 2.29-4.31 3.5a104.52 104.52 0 0 0 -8 7.65c-.72.77.41 1.9 1.15 1.15z"/><path d="m745 453.57a52.88 52.88 0 0 0 20.6-17.41c.93-1.31-1.19-2.49-2.13-1.25a69.74 69.74 0 0 1 -19.3 17.24.82.82 0 0 0 .83 1.42z"/><g fill="#8346FC"><path d="m60.42 180.53a29.11 29.11 0 0 1 8.49 21 28.09 28.09 0 0 1 -2.31 11.1 37.21 37.21 0 0 1 -7.85 10.74c-3.16 3.22-6.54 6.23-9.54 9.61a74.68 74.68 0 0 0 -8.09 11c-4.58 7.63-8.14 16.34-9 25.26-.8 8.05 1.19 16.9 7.95 22 5.23 3.93 13.19 5.52 18.91 1.67 3-2 5.88-6 3.76-9.66-1.63-2.82-5.27-2.84-8-1.87-3.54 1.26-5.94 3.88-8 6.94a32.18 32.18 0 0 0 -4.63 11.25 31.63 31.63 0 0 0 4 23.17 32.74 32.74 0 0 0 18.47 14 31.67 31.67 0 0 0 5.72 1.06c1.65.15 1.61-2.38 0-2.57a30.29 30.29 0 0 1 -18.88-9.88 28.43 28.43 0 0 1 -7.27-20.35 30.05 30.05 0 0 1 2.58-11c1.36-3.05 3.31-6.55 6.06-8.56 1.66-1.22 5.45-3.11 7.29-1.22 2.61 2.67-2 6.41-4.26 7.35-5.69 2.38-12.66-.3-16.58-4.68-5.37-6-5.28-15.22-3.64-22.61a66.82 66.82 0 0 1 10.24-22.89 72.13 72.13 0 0 1 8.16-9.89c2.91-3 6-5.8 8.68-8.95 4.91-5.7 8-12.37 8.17-20a31.45 31.45 0 0 0 -5.92-19.33 29.64 29.64 0 0 0 -3.4-3.85c-.74-.7-1.85.41-1.12 1.12z"/><path d="m179 155.28a46.59 46.59 0 0 0 .41 9.06 76.16 76.16 0 0 0 1.49 8.73 72.88 72.88 0 0 0 6.21 16.79c.56 1.08 2.18.13 1.63-1a75.62 75.62 0 0 1 -6-16.33 69.61 69.61 0 0 1 -1.53-8.47c-.35-2.94-.32-5.88-.54-8.83a.81.81 0 0 0 -1.62 0z"/><path d="m258.45 145.3c-1.38 5.5-2.47 11.09-3.68 16.63s-2.42 11.09-3.61 16.64c-.27 1.23 1.62 1.76 1.89.52 1.19-5.55 2.35-11.11 3.52-16.67s2.46-11.1 3.45-16.69c.18-1-1.31-1.46-1.57-.43z"/><path d="m322.14 150.31a179.76 179.76 0 0 0 -10.88 36.23c-.24 1.27 1.71 1.81 1.94.54a179.28 179.28 0 0 1 10.53-36.33c.4-1-1.19-1.41-1.59-.44z"/><path d="m401.16 174.61a250 250 0 0 1 -32.82 32.08c-1.07.86.45 2.37 1.5 1.5a232 232 0 0 0 32.45-32.45c.65-.78-.46-1.92-1.13-1.13z"/><path d="m376.49 269.86 10.56-3.2c1.16-.35.66-2.19-.5-1.82l-10.55 3.34c-1.06.33-.61 2 .47 1.68z"/><path d="m598.31 709c16.25 2 32.57-3.07 46.2-11.8 14.16-9.06 25.29-22 34.46-36a290 290 0 0 0 14.48-25.13c.54-1-1-2-1.59-.93-7.75 14.76-16.14 29.38-27.18 41.95-10.76 12.25-24.17 22.35-39.8 27.43a62.88 62.88 0 0 1 -26.57 2.87c-1-.11-1 1.44 0 1.56z"/><path d="m649.26 732.67a68 68 0 0 0 36.47-26.48 65.16 65.16 0 0 0 6.3-11.46c.43-1-1-1.86-1.46-.86a67.36 67.36 0 0 1 -29.83 32.39 64.59 64.59 0 0 1 -11.89 4.91.78.78 0 0 0 .41 1.5z"/></g></svg>