<svg xmlns="http://www.w3.org/2000/svg" xmlns:xlink="http://www.w3.org/1999/xlink" xmlns:svgjs="http://svgjs.com/svgjs" version="1.1" width="512" height="512" x="0" y="0" viewBox="0 0 32 32" style="enable-background:new 0 0 512 512" xml:space="preserve" class=""><g><g xmlns="http://www.w3.org/2000/svg" id="Layer_2" data-name="Layer 2"><path d="m16 2a14 14 0 1 0 14 14 14.015 14.015 0 0 0 -14-14zm2.993 16.2a2.983 2.983 0 0 1 -.4 1.3 2.98 2.98 0 0 1 .407 1.5v1a3 3 0 0 1 -6 0v-1a2.98 2.98 0 0 1 .4-1.5 2.987 2.987 0 0 1 -.4-1.5v-.42a5.048 5.048 0 0 1 .733-2.634 2.987 2.987 0 0 1 -1.57-.12 3 3 0 0 1 -1.819-3.834 6.021 6.021 0 0 1 5.656-3.992 5.994 5.994 0 0 1 5.9 4.945 5.96 5.96 0 0 1 -2.907 6.255z" fill="#8346fc" data-original="#4c46c8" class=""/><path d="m17 21v1a1 1 0 0 1 -2 0v-1a1 1 0 0 1 2 0zm2.936-8.712a4 4 0 0 0 -7.708-.624 1 1 0 1 0 1.884.67 2 2 0 1 1 2.653 2.512 2.926 2.926 0 0 0 -1.765 2.733v.421a1 1 0 0 0 2 0v-.42a.946.946 0 0 1 .53-.885 3.978 3.978 0 0 0 2.406-4.407z" fill="#8346fc" data-original="#13104c" class=""/></g></g></svg>