<svg xmlns="http://www.w3.org/2000/svg" xmlns:xlink="http://www.w3.org/1999/xlink" xmlns:svgjs="http://svgjs.com/svgjs" version="1.1" width="512" height="512" x="0" y="0" viewBox="0 0 64 64" style="enable-background:new 0 0 512 512" xml:space="preserve"><g><g xmlns="http://www.w3.org/2000/svg"><g><g><path d="m50 53h-46c-1.105 0-2-.895-2-2v-36h48z" fill="#e6e9ed" data-original="#e6e9ed"/></g><g><path d="m38 12h2c-1.1 0-2 .9-2 2v1h-.01-23.99-12v-6c0-1.1.9-2 2-2h30.09c-.06.32-.09.66-.09 1 0 1.1.45 2.1 1.17 2.83.73.72 1.73 1.17 2.83 1.17z" fill="#5cd6b3" data-original="#5cd6b3"/></g><g><path d="m56 62h-18v-9-9l-2.44 5.5c-.48 1.06-1.24 1.94-2.18 2.55s-2.04.95-3.21.95c-2.96 0-5.46-2.19-5.85-5.12l-1.32-9.88h6l2 10v-1.88c0-6.51 4.78-11.98 11.12-12.93l.88 8.81 4-5 4 5 .87-8.71c5.85 1.36 10.13 6.59 10.13 12.75v15.96z" fill="#fcd770" data-original="#fcd770"/></g><g><path d="m51.87 33.29-.87 8.71-4-5 3-4c.64.05 1.26.15 1.87.29z" fill="#ffc729" data-original="#ffc729"/></g><g><path d="m44 33 3 4-4 5-.88-8.81c.32-.06.64-.09.96-.12z" fill="#ffc729" data-original="#ffc729"/></g><g><path d="m28 30c-.36 0-.7.01-1.05.04-.17-.03-.34-.04-.51-.04h-2.44c-.74 0-1.4.41-1.74 1.02-.43.15-.85.33-1.26.52-1.84.83-3.54 2-5 3.46v-18c3.18 3.18 7.5 4.98 12 5z" fill="#aab2bd" data-original="#aab2bd"/></g><g><path d="m30 22c2.21 0 4 1.79 4 4 0 1.1-.45 2.1-1.17 2.83-.73.72-1.73 1.17-2.83 1.17h-1.93c-.02 0-.05 0-.07 0v-8h.07z" fill="#ef7385" data-original="#ef7385"/></g><g><path d="m16 17v18c0 1.1-.9 2-2 2s-2-.9-2-2v-5-8-5c0-.55.22-1.05.59-1.41.36-.37.86-.59 1.41-.59 1.1 0 2 .9 2 2z" fill="#ef7385" data-original="#ef7385"/></g><g><path d="m12 22v8c-2.21 0-4-1.79-4-4s1.79-4 4-4z" fill="#fcd770" data-original="#fcd770"/></g><g><path d="m60 15.12c0 5.36-3.27 10.19-8.25 12.18l-1.75.7v-5l2.67-2c.84-.63 1.33-1.62 1.33-2.67 0-.92-.37-1.75-.98-2.35-.6-.61-1.43-.98-2.35-.98h-.67c0-.83-.34-1.58-.88-2.12s-1.29-.88-2.12-.88h-6-1-2c-1.1 0-2.1-.45-2.83-1.17-.72-.73-1.17-1.73-1.17-2.83 0-.34.03-.68.09-1 .47-2.84 2.94-5 5.91-5h6.88c3.62 0 6.9 1.47 9.28 3.84 2.37 2.38 3.84 5.66 3.84 9.28z" fill="#656d78" data-original="#656d78"/></g><g><path d="m50 28v5l-3 4-3-4v-4h-2c-2.21 0-4-1.79-4-4v-1l-.8-.4c-.74-.37-1.2-1.12-1.2-1.94 0-.43.13-.85.36-1.21l.97-1.44c.44-.66.67-1.43.67-2.22v-1.79-1c0-1.1.9-2 2-2h1 6c.83 0 1.58.34 2.12.88s.88 1.29.88 2.12h.67c.92 0 1.75.37 2.35.98.61.6.98 1.43.98 2.35 0 1.05-.49 2.04-1.33 2.67l-2.67 2z" fill="#f0d0b4" data-original="#f0d0b4"/></g><g><path d="m29.89 34.43-.89 3.57h-6l-.83-.83c-.75-.75-1.17-1.77-1.17-2.83v-2.8c.41-.19.83-.37 1.26-.52.34-.61 1-1.02 1.74-1.02h2.44c.17 0 .34.01.51.04.78.11 1.48.47 2.01 1 .64.64 1.04 1.54 1.04 2.52 0 .29-.04.58-.11.87z" fill="#f0d0b4" data-original="#f0d0b4"/></g></g><g><path d="m51 32.11v-3.433l1.124-.45c5.392-2.156 8.876-7.301 8.876-13.108 0-7.786-6.333-14.119-14.119-14.119h-6.881c-3.165 0-5.842 2.112-6.705 5h-29.295c-1.654 0-3 1.346-3 3v42c0 1.654 1.346 3 3 3h33v9h26v-16.958c0-6.959-5.201-12.907-12-13.932zm-4 3.223-2-2.667v-2.666h2v-2h-5c-1.654 0-3-1.346-3-3v-1.618l-1.353-.677c-.399-.199-.647-.601-.647-1.047 0-.232.068-.457.197-.65l.963-1.445c.549-.825.84-1.784.84-2.773v-2.79c0-.551.449-1 1-1h1 6c1.103 0 2 .897 2 2v1h1.667c1.286 0 2.333 1.047 2.333 2.333 0 .73-.349 1.428-.934 1.867l-3.066 2.3v10.167zm-32-18.333v18c0 .551-.449 1-1 1s-1-.449-1-1v-18c0-.551.449-1 1-1s1 .449 1 1zm-4 11.816c-1.161-.414-2-1.514-2-2.816s.839-2.402 2-2.816zm6-9.622c2.876 2.241 6.332 3.54 10 3.754v6.088c-.04.002-.08.001-.12.004v.005c-.147-.015-.29-.045-.442-.045h-2.438c-.983 0-1.849.481-2.396 1.214-1.647.633-3.205 1.511-4.604 2.594zm12 9.806v-6h1c1.654 0 3 1.346 3 3s-1.346 3-3 3zm-5.586 8-.536-.536c-.558-.558-.878-1.331-.878-2.121v-.123c.532.48 1.229.78 2 .78h3v-2h-3c-.551 0-1-.449-1-1s.449-1 1-1h2.438c1.413 0 2.562 1.149 2.562 2.562 0 .209-.026.418-.077.621l-.704 2.817zm7.336 4.653-.726-3.628.839-3.356c.091-.361.137-.734.137-1.107 0-.958-.3-1.846-.807-2.581 2.666-.105 4.807-2.29 4.807-4.981 0-2.757-2.243-5-5-5h-1.929c-4.182 0-8.113-1.598-11.12-4.486-.029-.178-.076-.348-.135-.514h20.184v.789c0 .594-.174 1.169-.504 1.664l-.963 1.445c-.349.523-.533 1.132-.533 1.76 0 1.209.672 2.296 1.753 2.837l.247.123v.382c0 2.757 2.243 5 5 5h1v2.074c-5.738.444-10.483 4.366-12.25 9.579zm12.779-7.614 2.206 2.941-1.984 2.48-.54-5.397zm6.921.028c.112.014.224.027.334.044l-.535 5.349-1.984-2.48zm-10.45-31.067h6.881c6.682 0 12.119 5.437 12.119 12.119 0 4.984-2.99 9.401-7.619 11.251l-.381.153v-3.023l2.267-1.7c1.085-.814 1.733-2.11 1.733-3.467 0-2.32-1.832-4.219-4.125-4.329-.444-1.725-2.013-3.004-3.875-3.004h-6-1-2.001c-1.653 0-2.999-1.346-2.999-3 0-2.757 2.243-5 5-5zm-36 5h29c0 2.486 1.829 4.537 4.209 4.92-.13.336-.209.698-.209 1.08h-34v-5c0-.551.449-1 1-1zm0 44c-.551 0-1-.449-1-1v-35h8.184c-.112.314-.184.648-.184 1v4.101c-2.279.465-4 2.485-4 4.899s1.721 4.434 4 4.899v4.101c0 1.654 1.346 3 3 3 1.487 0 2.715-1.09 2.951-2.511.918-.881 1.947-1.645 3.049-2.287v1.141c0 1.335.52 2.591 1.464 3.535l.589.589 1.273 9.545c.208 1.562.94 2.944 1.999 3.988zm30.998 0c.604-.595 1.116-1.294 1.472-2.098l.53-1.191v3.289zm26.002 9h-4v-19h-2v19h-16v-19h-2v1.788l-2.357 5.302c-.785 1.768-2.543 2.91-4.477 2.91-2.446 0-4.534-1.828-4.857-4.252l-1.167-8.748h4.038l1.82 9.099v.901h2v-2.882c0-5.614 3.927-10.43 9.234-11.731l1.015 10.153 4.751-5.94 4.751 5.939.994-9.942c4.799 1.627 8.255 6.195 8.255 11.445z" fill="#000000" data-original="#000000"/><path d="m13 10h2v2h-2z" fill="#000000" data-original="#000000"/><path d="m5 10h2v2h-2z" fill="#000000" data-original="#000000"/><path d="m9 10h2v2h-2z" fill="#000000" data-original="#000000"/><path d="m5 40h15v2h-15z" fill="#000000" data-original="#000000"/><path d="m16 44h4v2h-4z" fill="#000000" data-original="#000000"/><path d="m5 44h9v2h-9z" fill="#000000" data-original="#000000"/><path d="m5 48h15v2h-15z" fill="#000000" data-original="#000000"/><circle cx="42" cy="16" r="1" fill="#000000" data-original="#000000"/></g></g></g></svg>