<?xml version="1.0" encoding="UTF-8"?>
<!DOCTYPE svg PUBLIC "-//W3C//DTD SVG 1.1//EN" "http://www.w3.org/Graphics/SVG/1.1/DTD/svg11.dtd">
<svg xmlns="http://www.w3.org/2000/svg" version="1.1" width="20px" height="20px" style="shape-rendering:geometricPrecision; text-rendering:geometricPrecision; image-rendering:optimizeQuality; fill-rule:evenodd; clip-rule:evenodd" xmlns:xlink="http://www.w3.org/1999/xlink">
<g><path style="opacity:1" fill="#fcfdfe" d="M -0.5,-0.5 C 2.16667,-0.5 4.83333,-0.5 7.5,-0.5C 7.5,0.166667 7.16667,0.5 6.5,0.5C 2.8797,1.12763 0.546364,3.12763 -0.5,6.5C -0.5,4.16667 -0.5,1.83333 -0.5,-0.5 Z"/></g>
<g><path style="opacity:1" fill="#fbfdfe" d="M 11.5,-0.5 C 14.1667,-0.5 16.8333,-0.5 19.5,-0.5C 19.5,2.16667 19.5,4.83333 19.5,7.5C 19.1667,7.5 18.8333,7.5 18.5,7.5C 18.5121,3.49355 16.5121,1.16021 12.5,0.5C 11.8333,0.5 11.5,0.166667 11.5,-0.5 Z"/></g>
<g><path style="opacity:1" fill="#dae8ee" d="M 6.5,0.5 C 5.37505,1.65225 5.37505,2.65225 6.5,3.5C 6.5,5.16667 6.5,6.83333 6.5,8.5C 5.89728,9.63476 5.56395,10.6348 5.5,11.5C 4.44802,11.6495 3.44802,11.4828 2.5,11C 3.18446,9.30663 4.18446,7.80663 5.5,6.5C 1.92629,5.13932 0.259625,6.47265 0.5,10.5C 0.166667,10.5 -0.166667,10.5 -0.5,10.5C -0.5,9.16667 -0.5,7.83333 -0.5,6.5C 0.546364,3.12763 2.8797,1.12763 6.5,0.5 Z"/></g>
<g><path style="opacity:1" fill="#d7eded" d="M 7.5,-0.5 C 8.83333,-0.5 10.1667,-0.5 11.5,-0.5C 11.5,0.166667 11.8333,0.5 12.5,0.5C 12.5,1.16667 12.8333,1.5 13.5,1.5C 13.6309,2.37644 13.2975,3.04311 12.5,3.5C 11.0052,2.29473 9.67186,2.29473 8.5,3.5C 7.83333,3.5 7.16667,3.5 6.5,3.5C 5.37505,2.65225 5.37505,1.65225 6.5,0.5C 7.16667,0.5 7.5,0.166667 7.5,-0.5 Z"/></g>
<g><path style="opacity:1" fill="#d7ebec" d="M 13.5,1.5 C 15.4132,3.12025 16.7466,5.12025 17.5,7.5C 16.5,7.5 15.5,7.5 14.5,7.5C 14.7373,6.20895 14.404,5.20895 13.5,4.5C 11.7839,4.37133 10.1172,4.038 8.5,3.5C 9.67186,2.29473 11.0052,2.29473 12.5,3.5C 13.2975,3.04311 13.6309,2.37644 13.5,1.5 Z"/></g>
<g><path style="opacity:1" fill="#f7fcfc" d="M 6.5,3.5 C 7.16667,3.5 7.83333,3.5 8.5,3.5C 10.1172,4.038 11.7839,4.37133 13.5,4.5C 13.6747,6.6208 13.3414,8.6208 12.5,10.5C 11.5,10.5 10.5,10.5 9.5,10.5C 9.5,10.1667 9.5,9.83333 9.5,9.5C 10.1667,8.83333 10.8333,8.16667 11.5,7.5C 10.5,4.83333 9.5,4.83333 8.5,7.5C 8.5,7.83333 8.5,8.16667 8.5,8.5C 7.83333,8.5 7.16667,8.5 6.5,8.5C 6.5,6.83333 6.5,5.16667 6.5,3.5 Z"/></g>
<g><path style="opacity:1" fill="#daede9" d="M 11.5,7.5 C 10.5,7.5 9.5,7.5 8.5,7.5C 9.5,4.83333 10.5,4.83333 11.5,7.5 Z"/></g>
<g><path style="opacity:1" fill="#dfe6ea" d="M 8.5,7.5 C 9.5,7.5 10.5,7.5 11.5,7.5C 10.8333,8.16667 10.1667,8.83333 9.5,9.5C 8.83333,9.5 8.5,9.16667 8.5,8.5C 8.5,8.16667 8.5,7.83333 8.5,7.5 Z"/></g>
<g><path style="opacity:1" fill="#daeaec" d="M 12.5,0.5 C 16.5121,1.16021 18.5121,3.49355 18.5,7.5C 18.6068,9.37857 18.1068,9.7119 17,8.5C 15.6703,9.58218 14.1703,10.2488 12.5,10.5C 13.3414,8.6208 13.6747,6.6208 13.5,4.5C 14.404,5.20895 14.7373,6.20895 14.5,7.5C 15.5,7.5 16.5,7.5 17.5,7.5C 16.7466,5.12025 15.4132,3.12025 13.5,1.5C 12.8333,1.5 12.5,1.16667 12.5,0.5 Z"/></g>
<g><path style="opacity:1" fill="#d9eceb" d="M 18.5,7.5 C 18.8333,7.5 19.1667,7.5 19.5,7.5C 19.5,8.83333 19.5,10.1667 19.5,11.5C 19.1667,11.5 18.8333,11.5 18.5,11.5C 16.2981,12.7924 14.6315,14.6257 13.5,17C 14.0944,17.4643 14.7611,17.631 15.5,17.5C 14.1667,18.1667 12.8333,18.8333 11.5,19.5C 10.1667,19.5 8.83333,19.5 7.5,19.5C 6.16667,18.8333 4.83333,18.1667 3.5,17.5C 3.83333,17.5 4.16667,17.5 4.5,17.5C 6.17876,17.7148 7.17876,17.0481 7.5,15.5C 8.45196,14.548 9.45196,13.548 10.5,12.5C 9.97473,11.8076 9.30806,11.3076 8.5,11C 8.72845,10.6012 9.06178,10.4346 9.5,10.5C 10.5,10.5 11.5,10.5 12.5,10.5C 14.1703,10.2488 15.6703,9.58218 17,8.5C 18.1068,9.7119 18.6068,9.37857 18.5,7.5 Z"/></g>
<g><path style="opacity:1" fill="#d7ecea" d="M 5.5,11.5 C 5.98869,12.9952 6.65536,14.3285 7.5,15.5C 7.17876,17.0481 6.17876,17.7148 4.5,17.5C 4.81702,14.4655 3.81702,13.4655 1.5,14.5C 0.565525,13.4324 0.232191,12.099 0.5,10.5C 0.259625,6.47265 1.92629,5.13932 5.5,6.5C 4.18446,7.80663 3.18446,9.30663 2.5,11C 3.44802,11.4828 4.44802,11.6495 5.5,11.5 Z"/></g>
<g><path style="opacity:1" fill="#f7fbfd" d="M 6.5,8.5 C 7.16667,8.5 7.83333,8.5 8.5,8.5C 8.5,9.16667 8.83333,9.5 9.5,9.5C 9.5,9.83333 9.5,10.1667 9.5,10.5C 9.06178,10.4346 8.72845,10.6012 8.5,11C 9.30806,11.3076 9.97473,11.8076 10.5,12.5C 9.45196,13.548 8.45196,14.548 7.5,15.5C 6.65536,14.3285 5.98869,12.9952 5.5,11.5C 5.56395,10.6348 5.89728,9.63476 6.5,8.5 Z"/></g>
<g><path style="opacity:1" fill="#fafdfd" d="M 18.5,11.5 C 18.8333,11.5 19.1667,11.5 19.5,11.5C 19.5,14.1667 19.5,16.8333 19.5,19.5C 16.8333,19.5 14.1667,19.5 11.5,19.5C 12.8333,18.8333 14.1667,18.1667 15.5,17.5C 17.5449,16.0772 18.5449,14.0772 18.5,11.5 Z"/></g>
<g><path style="opacity:1" fill="#f9fcfd" d="M -0.5,10.5 C -0.166667,10.5 0.166667,10.5 0.5,10.5C 0.232191,12.099 0.565525,13.4324 1.5,14.5C 1.93205,15.7095 2.59872,16.7095 3.5,17.5C 4.83333,18.1667 6.16667,18.8333 7.5,19.5C 4.83333,19.5 2.16667,19.5 -0.5,19.5C -0.5,16.5 -0.5,13.5 -0.5,10.5 Z"/></g>
<g><path style="opacity:1" fill="#dae8ef" d="M 4.5,17.5 C 4.16667,17.5 3.83333,17.5 3.5,17.5C 2.59872,16.7095 1.93205,15.7095 1.5,14.5C 3.81702,13.4655 4.81702,14.4655 4.5,17.5 Z"/></g>
<g><path style="opacity:1" fill="#d8e8ed" d="M 18.5,11.5 C 18.5449,14.0772 17.5449,16.0772 15.5,17.5C 14.7611,17.631 14.0944,17.4643 13.5,17C 14.6315,14.6257 16.2981,12.7924 18.5,11.5 Z"/></g>
</svg>
