<svg xmlns="http://www.w3.org/2000/svg" xmlns:xlink="http://www.w3.org/1999/xlink" xmlns:svgjs="http://svgjs.com/svgjs" version="1.1" width="512" height="512" x="0" y="0" viewBox="0 0 64 64" style="enable-background:new 0 0 512 512" xml:space="preserve" class=""><g><g xmlns="http://www.w3.org/2000/svg" id="Shopping_Online-2" data-name="Shopping Online"><path d="m58 23v32h-52v-32a4 4 0 0 1 4-4h44a4 4 0 0 1 4 4z" fill="#8346fc" data-original="#3d9ae2" class=""/><path d="m57 47h-18a3.931 3.931 0 0 1 -1.64-.36 3.988 3.988 0 0 0 3.64 2.36h17v-2.13a3.657 3.657 0 0 1 -1 .13z" fill="#9999ff" data-original="#1e81ce" class=""/><path d="m58 55h-55v4a2.006 2.006 0 0 0 2 2h54a2.006 2.006 0 0 0 2-2v-4z" fill="#acabb1" data-original="#acabb1" class=""/><path d="m61 7v36a4.02 4.02 0 0 1 -3 3.87 3.657 3.657 0 0 1 -1 .13h-18a4 4 0 0 1 -4-4v-36a4.012 4.012 0 0 1 4-4h18a4 4 0 0 1 4 4z" fill="#9999ff" data-original="#5aaae7" class=""/><path d="m54 3v3a1 1 0 0 1 -1 1h-10a1 1 0 0 1 -1-1v-3z" fill="#ff9811" data-original="#ff9811" class=""/><path d="m37 55v2a1 1 0 0 1 -1 1h-8a1 1 0 0 1 -1-1v-2z" fill="#c6c5ca" data-original="#c6c5ca"/><path d="m32 32-1.72 10.33a2.006 2.006 0 0 1 -1.97 1.67h-10.62a2.006 2.006 0 0 1 -1.97-1.67l-.06-.33h10.65a2.006 2.006 0 0 0 1.97-1.67l1.39-8.33z" fill="#9999ff" data-original="#1e81ce" class=""/><path d="m52 26-2-1v-1.54a3.98 3.98 0 0 0 2-3.46v-2l1-2v-1a2.006 2.006 0 0 1 2 2v1l-1 2v2a3.98 3.98 0 0 1 -2 3.46z" fill="#8346fc" data-original="#3d9ae2" class=""/><path d="m58 32.47v4.53h-16v-2h14v-4.53a3.945 3.945 0 0 0 -.37-1.66l.16.08a4.02 4.02 0 0 1 2.21 3.58z" fill="#8346fc" data-original="#3d9ae2" class=""/><path d="m30 30-1.72 10.33a2.006 2.006 0 0 1 -1.97 1.67h-10.62a2.006 2.006 0 0 1 -1.97-1.67l-1.72-10.33z" fill="#ff9811" data-original="#ff9811" class=""/><path d="m56 30.47v4.53h-16v-4.53a4.02 4.02 0 0 1 2.21-3.58l3.79-1.89a2 2 0 0 0 4 0l3.79 1.89a4.02 4.02 0 0 1 2.21 3.58z" fill="#ff5023" data-original="#ff5023" class=""/><path d="m50 23v2a2 2 0 0 1 -4 0v-2z" fill="#ffc477" data-original="#ffc477" class=""/><path d="m50 23v1.46a3.974 3.974 0 0 1 -4 0v-1.46z" fill="#ffb655" data-original="#ffb655" class=""/><path d="m53 15v1l-1 2-3-2-2 2h-3l-1-1v-2l-1-2h9a2.006 2.006 0 0 1 2 2z" fill="#57565c" data-original="#57565c" class=""/><path d="m49 16-2 2h-3v2a4 4 0 0 0 8 0v-2z" fill="#ffc477" data-original="#ffc477" class=""/><path d="m61 54h-2v-4h-2v4h-50v-31a3 3 0 0 1 3-3h22v-2h-22a5.006 5.006 0 0 0 -5 5v31h-2a1 1 0 0 0 -1 1v4a3 3 0 0 0 3 3h54a3 3 0 0 0 3-3v-4a1 1 0 0 0 -1-1zm-33 2h8v1h-8zm32 3a1 1 0 0 1 -1 1h-54a1 1 0 0 1 -1-1v-3h22v1a2 2 0 0 0 2 2h8a2 2 0 0 0 2-2v-1h22z" fill="#000000" data-original="#000000" class=""/><path d="m57 2h-18a5.006 5.006 0 0 0 -5 5v36a5.006 5.006 0 0 0 5 5h18a5.006 5.006 0 0 0 5-5v-36a5.006 5.006 0 0 0 -5-5zm-14 2h10v2h-10zm17 39a3 3 0 0 1 -3 3h-18a3 3 0 0 1 -3-3v-36a3 3 0 0 1 3-3h2v2a2 2 0 0 0 2 2h10a2 2 0 0 0 2-2v-2h2a3 3 0 0 1 3 3z" fill="#000000" data-original="#000000" class=""/><path d="m57 30.47a5.051 5.051 0 0 0 -2.764-4.47l-3.236-1.619v-.407a4.977 4.977 0 0 0 2-3.974v-1.764l.9-1.789a1 1 0 0 0 .1-.447v-1a3 3 0 0 0 -3-3h-9a1 1 0 0 0 -.9 1.447l.9 1.789v1.764a1 1 0 0 0 .293.707l.707.707v1.586a4.977 4.977 0 0 0 2 3.974v.407l-3.24 1.619a5.049 5.049 0 0 0 -2.76 4.47v3.53h-1v2h20v-2h-1zm-9-7.47a3 3 0 0 1 -3-3v-1h2a1 1 0 0 0 .707-.293l1.42-1.42 1.873 1.248v1.465a3 3 0 0 1 -3 3zm3-9a1 1 0 0 1 1 1v.764l-.388.776-2.057-1.372a1 1 0 0 0 -1.262.125l-1.707 1.707h-2.172l-.414-.414v-1.586a1 1 0 0 0 -.1-.447l-.282-.553zm-3 11a5 5 0 0 0 1-.1v.1a1 1 0 0 1 -2 0v-.1a5 5 0 0 0 1 .1zm-7 5.47a3.033 3.033 0 0 1 1.656-2.685l2.722-1.357a2.973 2.973 0 0 0 5.244 0l2.718 1.355a3.034 3.034 0 0 1 1.66 2.687v3.53h-14z" fill="#000000" data-original="#000000" class=""/><path d="m29.265 40.493 1.721-10.328a1 1 0 0 0 -.986-1.165h-2.82l.806-4.835-1.972-.33-.861 5.165h-8.306l-.861-5.165-1.972.33.806 4.835h-2.82a1 1 0 0 0 -.986 1.165l1.721 10.328a2.991 2.991 0 0 0 2.959 2.507h10.612a2.991 2.991 0 0 0 2.959-2.507zm-2.959.507h-10.612a1 1 0 0 1 -.986-.836l-1.527-9.164h15.638l-1.527 9.165a1 1 0 0 1 -.986.835z" fill="#000000" data-original="#000000" class=""/><path d="m20 33h2v6h-2z" fill="#000000" data-original="#000000" class=""/><path d="m24 33h2v6h-2z" fill="#000000" data-original="#000000" class=""/><path d="m16 33h2v6h-2z" fill="#000000" data-original="#000000" class=""/><path d="m14 45h4v2h-4z" fill="#000000" data-original="#000000" class=""/><path d="m20 45h8v2h-8z" fill="#000000" data-original="#000000" class=""/><path d="m14 49h14v2h-14z" fill="#000000" data-original="#000000" class=""/></g></g></svg>