<?xml version="1.0" encoding="UTF-8"?>
<!DOCTYPE svg PUBLIC "-//W3C//DTD SVG 1.1//EN" "http://www.w3.org/Graphics/SVG/1.1/DTD/svg11.dtd">
<svg xmlns="http://www.w3.org/2000/svg" version="1.1" width="512px" height="512px" style="shape-rendering:geometricPrecision; text-rendering:geometricPrecision; image-rendering:optimizeQuality; fill-rule:evenodd; clip-rule:evenodd" xmlns:xlink="http://www.w3.org/1999/xlink">
<g><path style="opacity:1" fill="#fefefe" d="M -0.5,-0.5 C 37.5,-0.5 75.5,-0.5 113.5,-0.5C 113.158,0.338246 112.492,0.67158 111.5,0.5C 105.129,0.776819 99.1291,2.11015 93.5,4.5C 86.3354,5.66464 79.6687,7.99797 73.5,11.5C 69.5709,13.1329 65.9043,15.1329 62.5,17.5C 60.1475,18.3403 58.1475,19.6736 56.5,21.5C 53.6298,22.4333 51.2964,24.1 49.5,26.5C 41.5647,31.4337 34.898,37.7671 29.5,45.5C 22.007,53.8057 16.007,63.1391 11.5,73.5C 7.99797,79.6687 5.66464,86.3354 4.5,93.5C 2.96046,95.8383 2.29379,98.5049 2.5,101.5C 1.21543,104.589 0.548766,107.922 0.5,111.5C 0.67158,112.492 0.338246,113.158 -0.5,113.5C -0.5,75.5 -0.5,37.5 -0.5,-0.5 Z"/></g>
<g><path style="opacity:1" fill="#98cacc" d="M 113.5,-0.5 C 207.167,-0.5 300.833,-0.5 394.5,-0.5C 395.919,0.451145 397.585,0.784479 399.5,0.5C 402.544,2.01136 405.878,2.67802 409.5,2.5C 431.627,6.89656 450.96,16.5632 467.5,31.5C 467.351,32.552 467.517,33.552 468,34.5C 470.602,35.296 472.768,36.6293 474.5,38.5C 488.784,52.0418 498.784,68.3751 504.5,87.5C 505.053,89.9393 505.053,92.2727 504.5,94.5C 505.548,95.548 506.548,96.548 507.5,97.5C 509.372,103.732 510.705,110.065 511.5,116.5C 511.5,209.833 511.5,303.167 511.5,396.5C 510.596,397.209 510.263,398.209 510.5,399.5C 509.778,399.918 509.278,400.584 509,401.5C 508.503,404.146 508.336,406.813 508.5,409.5C 508.435,412.428 507.768,415.095 506.5,417.5C 504.59,420.452 503.59,423.786 503.5,427.5C 498.735,441.703 491.401,454.37 481.5,465.5C 480.761,465.369 480.094,465.536 479.5,466C 473.705,472.391 467.705,478.558 461.5,484.5C 458.725,487.605 455.392,489.938 451.5,491.5C 449.973,491.427 448.973,492.094 448.5,493.5C 445.001,495.75 441.335,497.75 437.5,499.5C 434.09,499.457 430.757,499.957 427.5,501C 424.404,503.421 421.071,505.255 417.5,506.5C 415.095,507.768 412.428,508.435 409.5,508.5C 405.84,508.159 402.507,508.825 399.5,510.5C 397.585,510.216 395.919,510.549 394.5,511.5C 301.833,511.5 209.167,511.5 116.5,511.5C 113.167,510.833 109.833,510.167 106.5,509.5C 104.706,508.143 102.706,506.977 100.5,506C 96.1786,504.864 91.8453,504.364 87.5,504.5C 45.7041,490.703 18.3707,462.703 5.5,420.5C 5.67754,419.305 6.01087,418.138 6.5,417C 4.67305,410.904 2.67305,405.071 0.5,399.5C 0.8064,396.615 0.473067,393.948 -0.5,391.5C -0.5,298.833 -0.5,206.167 -0.5,113.5C 0.338246,113.158 0.67158,112.492 0.5,111.5C 1.22158,111.082 1.72158,110.416 2,109.5C 2.49742,106.854 2.66409,104.187 2.5,101.5C 3.7682,99.0948 4.43487,96.4282 4.5,93.5C 7.84975,87.2822 10.1831,80.6155 11.5,73.5C 16.007,63.1391 22.007,53.8057 29.5,45.5C 30.2389,45.631 30.9056,45.4643 31.5,45C 37.3819,38.5923 43.3819,32.4256 49.5,26.5C 52.3702,25.5667 54.7036,23.9 56.5,21.5C 58.1475,19.6736 60.1475,18.3403 62.5,17.5C 65.8434,16.3812 69.1767,15.0479 72.5,13.5C 73.2975,13.0431 73.6309,12.3764 73.5,11.5C 79.6687,7.99797 86.3354,5.66464 93.5,4.5C 99.7024,3.58321 105.702,2.24988 111.5,0.5C 112.492,0.67158 113.158,0.338246 113.5,-0.5 Z"/></g>
<g><path style="opacity:1" fill="#fefefe" d="M 394.5,-0.5 C 433.5,-0.5 472.5,-0.5 511.5,-0.5C 511.5,38.5 511.5,77.5 511.5,116.5C 510.705,110.065 509.372,103.732 507.5,97.5C 507.41,93.7858 506.41,90.4525 504.5,87.5C 498.784,68.3751 488.784,52.0418 474.5,38.5C 474.631,37.7611 474.464,37.0944 474,36.5C 471.713,34.9456 469.546,33.2789 467.5,31.5C 450.96,16.5632 431.627,6.89656 409.5,2.5C 406.411,1.21543 403.078,0.548766 399.5,0.5C 397.585,0.784479 395.919,0.451145 394.5,-0.5 Z"/></g>
<g><path style="opacity:1" fill="#b5c8e4" d="M 399.5,0.5 C 403.078,0.548766 406.411,1.21543 409.5,2.5C 405.878,2.67802 402.544,2.01136 399.5,0.5 Z"/></g>
<g><path style="opacity:1" fill="#a8bede" d="M 111.5,0.5 C 105.702,2.24988 99.7024,3.58321 93.5,4.5C 99.1291,2.11015 105.129,0.776819 111.5,0.5 Z"/></g>
<g><path style="opacity:1" fill="#a0c1d5" d="M 73.5,11.5 C 73.6309,12.3764 73.2975,13.0431 72.5,13.5C 69.1767,15.0479 65.8434,16.3812 62.5,17.5C 65.9043,15.1329 69.5709,13.1329 73.5,11.5 Z"/></g>
<g><path style="opacity:1" fill="#a2bdd7" d="M 56.5,21.5 C 54.7036,23.9 52.3702,25.5667 49.5,26.5C 51.2964,24.1 53.6298,22.4333 56.5,21.5 Z"/></g>
<g><path style="opacity:1" fill="#a3c2d6" d="M 467.5,31.5 C 469.546,33.2789 471.713,34.9456 474,36.5C 474.464,37.0944 474.631,37.7611 474.5,38.5C 472.768,36.6293 470.602,35.296 468,34.5C 467.517,33.552 467.351,32.552 467.5,31.5 Z"/></g>
<g><path style="opacity:1" fill="#a2bed6" d="M 49.5,26.5 C 43.3819,32.4256 37.3819,38.5923 31.5,45C 30.9056,45.4643 30.2389,45.631 29.5,45.5C 34.898,37.7671 41.5647,31.4337 49.5,26.5 Z"/></g>
<g><path style="opacity:1" fill="#a1c2d6" d="M 11.5,73.5 C 10.1831,80.6155 7.84975,87.2822 4.5,93.5C 5.66464,86.3354 7.99797,79.6687 11.5,73.5 Z"/></g>
<g><path style="opacity:1" fill="#a1c3d7" d="M 504.5,87.5 C 506.41,90.4525 507.41,93.7858 507.5,97.5C 506.548,96.548 505.548,95.548 504.5,94.5C 505.053,92.2727 505.053,89.9393 504.5,87.5 Z"/></g>
<g><path style="opacity:1" fill="#9eb9da" d="M 4.5,93.5 C 4.43487,96.4282 3.7682,99.0948 2.5,101.5C 2.29379,98.5049 2.96046,95.8383 4.5,93.5 Z"/></g>
<g><path style="opacity:1" fill="#a0bad7" d="M 2.5,101.5 C 2.66409,104.187 2.49742,106.854 2,109.5C 1.72158,110.416 1.22158,111.082 0.5,111.5C 0.548766,107.922 1.21543,104.589 2.5,101.5 Z"/></g>
<g><path style="opacity:1" fill="#a3c5d5" d="M 385.5,139.5 C 378.524,135.055 370.858,133.388 362.5,134.5C 364.743,133.188 367.41,132.522 370.5,132.5C 376.636,132.481 381.636,134.815 385.5,139.5 Z"/></g>
<g><path style="opacity:1" fill="#fefefe" d="M 362.5,134.5 C 370.858,133.388 378.524,135.055 385.5,139.5C 391.538,145.582 394.205,152.915 393.5,161.5C 392.028,165.919 391.362,170.586 391.5,175.5C 390.566,176.568 390.232,177.901 390.5,179.5C 388.958,185.953 387.958,192.62 387.5,199.5C 385.185,211.985 383.185,224.652 381.5,237.5C 381.5,238.167 381.5,238.833 381.5,239.5C 379.688,247.288 378.354,255.288 377.5,263.5C 376.194,268.616 375.527,273.949 375.5,279.5C 373.525,287.259 372.191,295.259 371.5,303.5C 369.185,315.985 367.185,328.652 365.5,341.5C 365.5,342.167 365.5,342.833 365.5,343.5C 363.688,351.288 362.354,359.288 361.5,367.5C 360.194,372.616 359.527,377.949 359.5,383.5C 358.278,390.355 356.112,397.021 353,403.5C 350.914,406.094 348.414,408.094 345.5,409.5C 340.807,411.88 335.807,412.88 330.5,412.5C 325.204,411.685 320.537,409.519 316.5,406C 282.089,380.378 247.589,354.878 213,329.5C 208.814,324.184 207.481,318.184 209,311.5C 213.364,305.97 218.198,300.97 223.5,296.5C 228.208,292.157 232.875,287.824 237.5,283.5C 262.385,260.455 287.218,237.122 312,213.5C 313.141,210.143 311.975,208.143 308.5,207.5C 268.296,232.429 228.63,258.096 189.5,284.5C 182.142,288.873 174.808,293.207 167.5,297.5C 158.935,299.199 150.268,299.865 141.5,299.5C 135.094,297.232 128.427,295.565 121.5,294.5C 119.095,293.232 116.428,292.565 113.5,292.5C 111.095,291.232 108.428,290.565 105.5,290.5C 100.427,288.565 95.0937,287.232 89.5,286.5C 83.4814,284.822 77.4814,282.822 71.5,280.5C 69.8557,277.996 68.3557,275.329 67,272.5C 66.8333,271 66.6667,269.5 66.5,268C 66.7616,263.385 68.095,259.218 70.5,255.5C 78.2314,252.151 85.8981,248.818 93.5,245.5C 98.4898,244.065 103.156,242.065 107.5,239.5C 127.745,232.042 147.745,224.042 167.5,215.5C 172.022,213.736 176.355,211.736 180.5,209.5C 196.999,203.223 213.332,196.556 229.5,189.5C 237.409,186.537 245.075,183.204 252.5,179.5C 264.549,175.599 276.216,170.932 287.5,165.5C 292.325,163.676 296.992,161.676 301.5,159.5C 321.975,151.427 342.308,143.093 362.5,134.5 Z"/></g>
<g><path style="opacity:1" fill="#9fc0d6" d="M 301.5,159.5 C 296.992,161.676 292.325,163.676 287.5,165.5C 287.953,164.542 288.619,163.708 289.5,163C 293.43,161.523 297.43,160.356 301.5,159.5 Z"/></g>
<g><path style="opacity:1" fill="#9fc0d5" d="M 393.5,161.5 C 393.665,165.182 393.499,168.848 393,172.5C 392.768,173.737 392.268,174.737 391.5,175.5C 391.362,170.586 392.028,165.919 393.5,161.5 Z"/></g>
<g><path style="opacity:1" fill="#a0c2d3" d="M 252.5,179.5 C 245.075,183.204 237.409,186.537 229.5,189.5C 230.122,187.665 231.456,186.498 233.5,186C 239.865,183.812 246.198,181.646 252.5,179.5 Z"/></g>
<g><path style="opacity:1" fill="#a1c4d7" d="M 390.5,179.5 C 389.981,187.827 389.481,196.16 389,204.5C 388.802,202.618 388.302,200.952 387.5,199.5C 387.958,192.62 388.958,185.953 390.5,179.5 Z"/></g>
<g><path style="opacity:1" fill="#acc6dd" d="M 180.5,209.5 C 176.355,211.736 172.022,213.736 167.5,215.5C 170.963,211.725 175.296,209.725 180.5,209.5 Z"/></g>
<g><path style="opacity:1" fill="#a0c3d5" d="M 387.5,199.5 C 387.452,212.691 385.452,225.358 381.5,237.5C 383.185,224.652 385.185,211.985 387.5,199.5 Z"/></g>
<g><path style="opacity:1" fill="#a3c4d6" d="M 107.5,239.5 C 103.156,242.065 98.4898,244.065 93.5,245.5C 97.3758,242.009 102.043,240.009 107.5,239.5 Z"/></g>
<g><path style="opacity:1" fill="#9ec5d2" d="M 381.5,239.5 C 381.666,245.509 381.499,251.509 381,257.5C 380.667,256.833 380.333,256.167 380,255.5C 379.667,257.833 379.333,260.167 379,262.5C 378.617,263.056 378.117,263.389 377.5,263.5C 378.354,255.288 379.688,247.288 381.5,239.5 Z"/></g>
<g><path style="opacity:1" fill="#a1c2d6" d="M 377.5,263.5 C 377.666,267.846 377.499,272.179 377,276.5C 376.768,277.737 376.268,278.737 375.5,279.5C 375.527,273.949 376.194,268.616 377.5,263.5 Z"/></g>
<g><path style="opacity:1" fill="#9ec4d5" d="M 71.5,280.5 C 77.4814,282.822 83.4814,284.822 89.5,286.5C 85.5728,285.771 81.7394,285.437 78,285.5C 77.0546,285.905 76.3879,286.572 76,287.5C 75.2496,286.874 74.4162,286.374 73.5,286C 74.6721,285.581 75.6721,284.915 76.5,284C 74.4156,283.303 72.7489,282.136 71.5,280.5 Z"/></g>
<g><path style="opacity:1" fill="#9bc5d2" d="M 89.5,286.5 C 95.0937,287.232 100.427,288.565 105.5,290.5C 100.821,290.666 96.1548,290.499 91.5,290C 92.0485,288.404 91.3818,287.237 89.5,286.5 Z"/></g>
<g><path style="opacity:1" fill="#a5c8d5" d="M 237.5,283.5 C 232.875,287.824 228.208,292.157 223.5,296.5C 223.5,295.167 223.5,293.833 223.5,292.5C 224.5,292.5 225.5,292.5 226.5,292.5C 226.5,291.5 226.5,290.5 226.5,289.5C 227.552,289.649 228.552,289.483 229.5,289C 228.66,287.334 229.16,287.167 231,288.5C 232.777,286.21 234.944,284.543 237.5,283.5 Z"/></g>
<g><path style="opacity:1" fill="#9ec5d2" d="M 189.5,284.5 C 183.621,291.194 176.288,295.527 167.5,297.5C 174.808,293.207 182.142,288.873 189.5,284.5 Z"/></g>
<g><path style="opacity:1" fill="#a2bcdc" d="M 113.5,292.5 C 116.428,292.565 119.095,293.232 121.5,294.5C 118.505,294.706 115.838,294.04 113.5,292.5 Z"/></g>
<g><path style="opacity:1" fill="#a1c2d6" d="M 167.5,297.5 C 165.761,299.382 163.594,300.715 161,301.5C 154.356,300.887 147.856,300.221 141.5,299.5C 150.268,299.865 158.935,299.199 167.5,297.5 Z"/></g>
<g><path style="opacity:1" fill="#a0c4d5" d="M 371.5,303.5 C 371.452,316.691 369.452,329.358 365.5,341.5C 367.185,328.652 369.185,315.985 371.5,303.5 Z"/></g>
<g><path style="opacity:1" fill="#9ec5d2" d="M 365.5,343.5 C 365.666,349.509 365.499,355.509 365,361.5C 364.667,360.833 364.333,360.167 364,359.5C 363.667,361.833 363.333,364.167 363,366.5C 362.617,367.056 362.117,367.389 361.5,367.5C 362.354,359.288 363.688,351.288 365.5,343.5 Z"/></g>
<g><path style="opacity:1" fill="#a4c3d8" d="M 361.5,367.5 C 361.666,371.846 361.499,376.179 361,380.5C 360.768,381.737 360.268,382.737 359.5,383.5C 359.527,377.949 360.194,372.616 361.5,367.5 Z"/></g>
<g><path style="opacity:1" fill="#fefefe" d="M -0.5,391.5 C 0.473067,393.948 0.8064,396.615 0.5,399.5C 1.18198,406.849 2.84864,413.849 5.5,420.5C 18.3707,462.703 45.7041,490.703 87.5,504.5C 93.4464,507.238 99.7797,508.905 106.5,509.5C 109.833,510.167 113.167,510.833 116.5,511.5C 77.5,511.5 38.5,511.5 -0.5,511.5C -0.5,471.5 -0.5,431.5 -0.5,391.5 Z"/></g>
<g><path style="opacity:1" fill="#a3bbd9" d="M 510.5,399.5 C 510.451,403.078 509.785,406.411 508.5,409.5C 508.336,406.813 508.503,404.146 509,401.5C 509.278,400.584 509.778,399.918 510.5,399.5 Z"/></g>
<g><path style="opacity:1" fill="#a3c7d8" d="M 0.5,399.5 C 2.67305,405.071 4.67305,410.904 6.5,417C 6.01087,418.138 5.67754,419.305 5.5,420.5C 2.84864,413.849 1.18198,406.849 0.5,399.5 Z"/></g>
<g><path style="opacity:1" fill="#a5bfd9" d="M 345.5,409.5 C 344.152,411.48 342.152,412.647 339.5,413C 336.304,413.805 333.304,413.638 330.5,412.5C 333.304,413.638 336.304,413.805 339.5,413C 342.152,412.647 344.152,411.48 345.5,409.5 Z"/></g>
<g><path style="opacity:1" fill="#fefefe" d="M 511.5,396.5 C 511.5,434.833 511.5,473.167 511.5,511.5C 472.5,511.5 433.5,511.5 394.5,511.5C 395.919,510.549 397.585,510.216 399.5,510.5C 403.04,510.247 406.373,509.581 409.5,508.5C 412.428,508.435 415.095,507.768 417.5,506.5C 424.665,505.335 431.331,503.002 437.5,499.5C 441.335,497.75 445.001,495.75 448.5,493.5C 450.027,493.573 451.027,492.906 451.5,491.5C 455.392,489.938 458.725,487.605 461.5,484.5C 469.435,479.566 476.102,473.233 481.5,465.5C 491.401,454.37 498.735,441.703 503.5,427.5C 505.277,424.495 506.277,421.162 506.5,417.5C 507.768,415.095 508.435,412.428 508.5,409.5C 509.785,406.411 510.451,403.078 510.5,399.5C 510.263,398.209 510.596,397.209 511.5,396.5 Z"/></g>
<g><path style="opacity:1" fill="#a2bbd8" d="M 506.5,417.5 C 506.277,421.162 505.277,424.495 503.5,427.5C 503.59,423.786 504.59,420.452 506.5,417.5 Z"/></g>
<g><path style="opacity:1" fill="#a7bfd8" d="M 481.5,465.5 C 476.102,473.233 469.435,479.566 461.5,484.5C 467.705,478.558 473.705,472.391 479.5,466C 480.094,465.536 480.761,465.369 481.5,465.5 Z"/></g>
<g><path style="opacity:1" fill="#b1bee4" d="M 451.5,491.5 C 451.027,492.906 450.027,493.573 448.5,493.5C 448.973,492.094 449.973,491.427 451.5,491.5 Z"/></g>
<g><path style="opacity:1" fill="#a0c2d5" d="M 437.5,499.5 C 431.331,503.002 424.665,505.335 417.5,506.5C 421.071,505.255 424.404,503.421 427.5,501C 430.757,499.957 434.09,499.457 437.5,499.5 Z"/></g>
<g><path style="opacity:1" fill="#a0c7d5" d="M 87.5,504.5 C 91.8453,504.364 96.1786,504.864 100.5,506C 102.706,506.977 104.706,508.143 106.5,509.5C 99.7797,508.905 93.4464,507.238 87.5,504.5 Z"/></g>
<g><path style="opacity:1" fill="#a0b7d9" d="M 409.5,508.5 C 406.373,509.581 403.04,510.247 399.5,510.5C 402.507,508.825 405.84,508.159 409.5,508.5 Z"/></g>
</svg>
