<svg xmlns="http://www.w3.org/2000/svg" xmlns:xlink="http://www.w3.org/1999/xlink" xmlns:svgjs="http://svgjs.com/svgjs" version="1.1" width="512" height="512" x="0" y="0" viewBox="0 0 500 500" style="enable-background:new 0 0 512 512" xml:space="preserve" class=""><g><g xmlns="http://www.w3.org/2000/svg" clip-rule="evenodd" fill-rule="evenodd"><path d="m234.39 120.41c-80.45 0-145.67 65.22-145.67 145.67s65.22 145.67 145.67 145.67c14.07 0 27.67-2 40.54-5.72-11.43-18.18-18.04-39.68-18.04-62.74 0-64.96 52.48-117.66 117.35-118.04-17.65-60.58-73.57-104.84-139.85-104.84z" fill="#fd4755" data-original="#ed2224" class=""/><path d="m234.39 150.45c-63.86 0-115.62 51.77-115.62 115.62 0 63.86 51.77 115.62 115.62 115.62 9.58 0 18.89-1.17 27.79-3.36-3.44-11.07-5.29-22.84-5.29-35.05 0-54.5 36.94-100.37 87.15-113.95-15.35-45.84-58.64-78.88-109.65-78.88z" fill="#b5b682" data-original="#b5b682" class=""/><path d="m417.27 125.98c-11.84-15.33-25.65-29.23-41.18-41.25l-24.27 24.27c-11.71-8.66-24.51-16.09-38.27-22.06l8.89-33.16c-18.03-7.36-37.01-12.44-56.3-15.09l-8.89 33.16c-14.9-1.71-29.7-1.67-44.17-.03l-8.88-33.16c-19.46 2.65-38.36 7.78-56.29 15.14l8.88 33.16c-13.53 5.9-26.36 13.31-38.23 22.07l-24.26-24.27c-15.33 11.84-29.23 25.65-41.25 41.18l24.27 24.27c-8.66 11.71-16.09 24.51-22.06 38.27l-33.16-8.89c-7.36 18.03-12.44 37.01-15.09 56.3l33.16 8.89c-1.71 14.9-1.67 29.7-.03 44.17l-33.16 8.88c2.65 19.46 7.78 38.36 15.14 56.29l33.16-8.88c5.9 13.53 13.31 26.36 22.07 38.23l-24.27 24.27c11.84 15.33 25.65 29.23 41.18 41.25l12.2-12.2 32.17-32.17c-43.9-30.4-72.66-81.11-72.66-138.55 0-93.02 75.41-168.42 168.42-168.42 57.44 0 108.15 28.76 138.55 72.66l19.93-19.93z" fill="#ffd064" data-original="#fcb13c" class=""/><ellipse cx="374.94" cy="343.28" fill="#ffd064" rx="118.05" ry="118.05" transform="matrix(.707 -.707 .707 .707 -132.923 365.666)" data-original="#fcb13c" class=""/><ellipse cx="374.94" cy="343.28" fill="#8346fc" rx="90.3" ry="90.3" transform="matrix(.999 -.045 .045 .999 -15.171 17.343)" data-original="#c1d6df" class=""/><path d="m315.63 346.13 13.13-13.13 28.89 28.89 63.46-63.47 13.13 13.13-76.59 76.6z" fill="#ffd064" data-original="#fcb13c" class=""/><path d="m364.76 218.65c-9.3-25.55-25.89-47.61-47.27-63.63-23.13-17.34-51.89-27.61-83.09-27.61-38.29 0-72.96 15.52-98.05 40.61s-40.61 59.76-40.61 98.05 15.52 72.96 40.61 98.05 59.76 40.61 98.05 40.61c6.71 0 13.24-.46 19.56-1.35 3.49-.49 6.93-1.11 10.31-1.85-2.55-4.84-4.79-9.86-6.7-15.04-2.76.53-5.53.97-8.32 1.3-4.9.59-9.85.9-14.85.9-33.86 0-64.52-13.73-86.71-35.92s-35.92-52.85-35.92-86.71 13.73-64.52 35.92-86.71 52.85-35.92 86.71-35.92c26.66 0 51.36 8.54 71.51 23.04 18.95 13.63 33.84 32.54 42.55 54.57 5.32-1.14 10.76-1.94 16.3-2.39zm-54.06 122.53 13.13-13.13c2.73-2.73 7.17-2.73 9.9 0l23.94 23.94 58.51-58.51c2.73-2.73 7.17-2.73 9.9 0l13.13 13.13c2.73 2.73 2.73 7.17 0 9.9l-76.59 76.59c-2.73 2.73-7.17 2.73-9.9 0l-42.02-42.02c-2.74-2.73-2.74-7.17 0-9.9zm18.08 1.72 23.94 23.94c2.73 2.73 7.17 2.73 9.9 0l58.51-58.51 3.23 3.23-66.69 66.69-32.12-32.12zm46.17-96.92c26.87 0 51.19 10.89 68.8 28.5s28.5 41.93 28.5 68.8-10.89 51.19-28.5 68.8-41.93 28.5-68.8 28.5-51.19-10.89-68.8-28.5-28.5-41.93-28.5-68.8 10.89-51.19 28.5-68.8c17.61-17.6 41.93-28.5 68.8-28.5zm58.9 38.4c15.07 15.07 24.4 35.9 24.4 58.9s-9.32 43.83-24.4 58.9c-15.07 15.07-35.9 24.4-58.9 24.4s-43.83-9.32-58.9-24.4c-15.07-15.07-24.4-35.9-24.4-58.9s9.32-43.83 24.4-58.9c15.07-15.07 35.9-24.4 58.9-24.4s43.83 9.33 58.9 24.4zm-161.99 129.7c-5.25 1.33-10.58 2.38-15.98 3.14-7.09 1-14.26 1.52-21.48 1.52-42.16 0-80.32-17.09-107.95-44.72s-44.72-65.79-44.72-107.95 17.09-80.32 44.72-107.95 65.79-44.72 107.95-44.72c34.28 0 65.94 11.33 91.45 30.46 24.74 18.55 43.67 44.45 53.55 74.46 32.76 1.15 62.31 14.89 83.96 36.55 22.64 22.62 36.64 53.88 36.64 88.41s-14 65.79-36.63 88.42-53.89 36.63-88.42 36.63-65.79-14-88.42-36.63c-5.41-5.4-10.32-11.3-14.67-17.62zm-18.39-41.04c-1.92.34-3.88.63-5.85.87-2.05.25-4.13.44-6.23.57v-10.07c0-3.85-3.12-6.97-6.97-6.97s-6.97 3.12-6.97 6.97v10.07c-14.72-.93-28.65-4.8-41.2-11.02l5.05-8.74c1.92-3.34.77-7.6-2.57-9.52s-7.6-.77-9.52 2.57l-5.02 8.7c-5.97-3.98-11.51-8.54-16.57-13.59-5.05-5.05-9.6-10.6-13.58-16.56l8.72-5.04c3.34-1.93 4.48-6.21 2.54-9.54-1.93-3.34-6.21-4.48-9.54-2.54l-8.72 5.03c-6.22-12.55-10.08-26.47-11.01-41.19h10.07c3.85 0 6.97-3.12 6.97-6.97s-3.12-6.97-6.97-6.97h-10.07c.93-14.72 4.8-28.65 11.02-41.2l8.74 5.05c3.34 1.92 7.6.77 9.52-2.57s.77-7.6-2.57-9.52l-8.7-5.02c3.98-5.96 8.54-11.51 13.59-16.57 5.05-5.05 10.6-9.6 16.56-13.58l5.04 8.72c1.93 3.34 6.21 4.48 9.54 2.54 3.34-1.93 4.48-6.21 2.54-9.54l-5.03-8.72c12.54-6.21 26.45-10.08 41.16-11.01v10.07c0 3.87 3.13 7 7 7s7-3.13 7-7v-10.07c14.73.93 28.65 4.79 41.19 11l-5.06 8.76c-1.92 3.34-.77 7.6 2.57 9.52s7.6.77 9.52-2.57l5.04-8.72c1.05.7 2.09 1.42 3.11 2.15 10.61 7.63 19.78 17.13 27.05 28.01l-8.74 5.04c-3.34 1.93-4.48 6.21-2.54 9.54 1.93 3.34 6.21 4.48 9.54 2.54l8.73-5.04c1.11 2.25 2.15 4.55 3.12 6.88-18.43 6.22-34.94 16.63-48.39 30.08-22.63 22.63-36.63 53.89-36.63 88.42-.05 10.25 1.19 20.21 3.52 29.75zm200-108.28c20.09 20.09 32.52 47.86 32.52 78.52s-12.43 58.43-32.52 78.52-47.86 32.52-78.52 32.52c-30.67 0-58.43-12.43-78.52-32.52s-32.52-47.86-32.52-78.52 12.43-58.43 32.52-78.52 47.86-32.52 78.52-32.52c30.67 0 58.43 12.43 78.52 32.52zm-45.53-139.33-34.16 34.16c-15.49-20.24-35.3-37.02-58.06-48.95-24.34-12.76-52-19.98-81.32-19.98-48.44 0-92.3 19.64-124.04 51.38-31.74 31.75-51.38 75.6-51.38 124.04 0 29.31 7.22 56.98 19.98 81.32 11.93 22.76 28.71 42.56 48.95 58.06l-34.19 34.19c-5.72-4.69-11.19-9.65-16.39-14.86-5.25-5.26-10.22-10.77-14.9-16.49l19.87-19.87-.03-.03c2.4-2.39 2.75-6.24.68-9.05-4.15-5.63-8.05-11.59-11.67-17.87l-.01.01c-3.46-6-6.62-12.24-9.45-18.69-1.24-3.34-4.84-5.25-8.36-4.31l-27.15 7.28c-2.6-6.88-4.88-13.93-6.82-21.15-1.92-7.15-3.49-14.37-4.69-21.64l27.13-7.27c3.28-.87 5.52-4.04 5.14-7.52-.81-7.12-1.22-14.23-1.21-21.29 0-6.93.41-14.01 1.23-21.23.44-3.42-1.71-6.72-5.13-7.64l-27.13-7.27c1.2-7.26 2.77-14.5 4.69-21.68 1.91-7.14 4.18-14.18 6.78-21.11l27.13 7.27.01-.02c3.29.88 6.81-.75 8.2-3.97 2.86-6.58 6.06-12.94 9.6-19.07 3.46-6 7.25-11.8 11.36-17.38 2.38-2.75 2.27-6.91-.35-9.53l-19.87-19.87c4.69-5.72 9.65-11.19 14.86-16.39 5.26-5.25 10.76-10.22 16.49-14.9l19.87 19.87.03-.03c2.39 2.4 6.24 2.75 9.05.68 5.69-4.2 11.65-8.1 17.84-11.67 6-3.47 12.25-6.62 18.7-9.46 3.34-1.24 5.25-4.84 4.32-8.36l-7.25-27.14c6.88-2.6 13.93-4.88 21.15-6.82 7.15-1.92 14.37-3.49 21.64-4.69l7.27 27.13c.87 3.28 4.04 5.52 7.52 5.14 7.12-.81 14.23-1.22 21.3-1.21 6.93.01 14.01.41 21.22 1.23 3.42.44 6.72-1.71 7.64-5.13l7.27-27.13c7.26 1.2 14.5 2.77 21.69 4.7 7.13 1.91 14.18 4.18 21.1 6.78l-7.27 27.13.02.01c-.88 3.29.75 6.81 3.97 8.2 6.58 2.86 12.94 6.06 19.07 9.6 6 3.46 11.8 7.25 17.38 11.36 2.75 2.38 6.91 2.27 9.53-.35l19.87-19.87c5.72 4.69 11.19 9.65 16.38 14.86 5.25 5.26 10.22 10.76 14.9 16.49zm-5-26.34c6.98 6.99 13.5 14.41 19.54 22.19 2.49 2.75 2.41 7-.24 9.65l-44.33 44.33-.01-.01c-.29.29-.62.56-.97.81-3.17 2.19-7.52 1.39-9.71-1.78-14.85-21.44-34.73-39.11-57.94-51.28-22.34-11.72-47.81-18.34-74.86-18.34-44.58 0-84.93 18.07-114.14 47.28s-47.28 69.57-47.28 114.14c0 27.06 6.63 52.52 18.34 74.86 12.09 23.05 29.6 42.83 50.84 57.64.51.3.98.66 1.42 1.1 2.73 2.73 2.73 7.17 0 9.9l-44.37 44.37-.01-.01c-2.44 2.45-6.39 2.76-9.2.59-7.97-6.18-15.5-12.83-22.56-19.9-6.98-6.99-13.5-14.4-19.54-22.19-2.49-2.75-2.41-6.99.24-9.65l20.1-20.1c-3.25-4.67-6.26-9.41-9.03-14.22l.01-.01-.01-.02c-2.82-4.89-5.43-9.87-7.83-14.93l-27.45 7.36v-.01c-3.34.9-6.91-.81-8.25-4.09-3.84-9.35-7.07-18.88-9.67-28.55-2.54-9.45-4.51-19.15-5.88-29.06-.7-3.57 1.49-7.13 5.06-8.08l27.43-7.35c-.46-5.52-.68-11.14-.68-16.84 0-5.66.24-11.3.7-16.89l-27.42-7.35v-.01c-3.35-.89-5.59-4.15-5.12-7.67 1.37-10 3.36-19.87 5.94-29.5 2.6-9.7 5.8-19.23 9.58-28.5 1.3-3.23 4.84-5.05 8.29-4.13l27.45 7.36c2.41-5.13 5.02-10.13 7.81-14.97 2.83-4.92 5.84-9.67 9.02-14.25l-20.09-20.09.01-.01c-2.45-2.44-2.76-6.39-.59-9.2 6.18-7.97 12.83-15.51 19.9-22.56 6.99-6.98 14.4-13.5 22.18-19.54 2.75-2.49 6.99-2.41 9.65.24l20.1 20.1c4.64-3.22 9.39-6.23 14.25-9.03 4.89-2.82 9.87-5.43 14.92-7.82l-7.36-27.45h.01c-.9-3.34.81-6.91 4.09-8.25 9.35-3.84 18.88-7.07 28.55-9.67 9.45-2.54 19.15-4.51 29.06-5.88 3.57-.7 7.13 1.49 8.08 5.06l7.35 27.43c5.53-.46 11.15-.68 16.84-.68 5.66 0 11.3.24 16.89.7l7.35-27.42h.01c.89-3.35 4.15-5.59 7.67-5.12 10 1.37 19.87 3.36 29.51 5.94 9.7 2.6 19.23 5.8 28.49 9.58 3.23 1.3 5.05 4.84 4.13 8.29l-7.36 27.45c5.13 2.41 10.12 5.02 14.97 7.81 4.92 2.83 9.67 5.85 14.25 9.02l20.09-20.09.01.01c2.44-2.45 6.39-2.76 9.2-.59 7.98 6.16 15.51 12.81 22.57 19.88zm-150.78 122.27c1.93-3.34 6.21-4.48 9.54-2.54 3.34 1.93 4.48 6.21 2.54 9.54l-23.8 41.21c-1.93 3.34-6.21 4.48-9.54 2.54-.12-.07-.24-.15-.36-.22l-61.79-35.67c-3.34-1.92-4.49-6.18-2.57-9.52s6.18-4.49 9.52-2.57l56.14 32.41z" fill="#010101" data-original="#010101" class=""/></g></g></svg>