<svg xmlns="http://www.w3.org/2000/svg" xmlns:xlink="http://www.w3.org/1999/xlink" xmlns:svgjs="http://svgjs.com/svgjs" version="1.1" width="512" height="512" x="0" y="0" viewBox="0 0 496 496" style="enable-background:new 0 0 512 512" xml:space="preserve" class=""><g><g xmlns="http://www.w3.org/2000/svg"><g><g><path d="m268.28 440c5.53-9.56 15.88-16 27.72-16 17.67 0 32 14.33 32 32s-14.33 32-32 32-32-14.33-32-32c0-5.83 1.56-11.29 4.28-16z" fill="#969faa" data-original="#969faa"/></g><g><path d="m88 392c26.51 0 48 21.49 48 48s-21.49 48-48 48-48-21.49-48-48 21.49-48 48-48z" fill="#969faa" data-original="#969faa"/></g><g><circle cx="88" cy="440" fill="#ccd1d9" r="16" data-original="#ccd1d9"/></g><g><path d="m88 136v16h-64c-8.84 0-16-7.16-16-16 0-4.42 1.79-8.42 4.68-11.32 2.9-2.89 6.9-4.68 11.32-4.68h48c8.84 0 16 7.16 16 16z" fill="#aab2bd" data-original="#aab2bd"/></g><g><path d="m88 216.44v143.12c-2.63.29-5.3.44-8 .44-39.76 0-72-32.24-72-72s32.24-72 72-72c2.7 0 5.37.15 8 .44z" fill="#4fc1e9" data-original="#4fc1e9" class=""/></g><g><path d="m488 24v320c0 8.84-7.16 16-16 16h-56-280c-8.84 0-16-7.16-16-16v-320c0-8.84 7.16-16 16-16h336c8.84 0 16 7.16 16 16z" fill="#69d6f4" data-original="#69d6f4" class=""/></g><g><path d="m384 136h72v32h-72z" fill="#9999ff" data-original="#ef7385" class=""/></g><g><path d="m336 216.56c19.13 11.06 32 31.75 32 55.44 0 23.68-12.88 44.35-32 55.42v-31.42c0-8.84-3.58-16.84-9.37-22.63s-13.79-9.37-22.63-9.37c-17.67 0-32 14.33-32 32v31.42c-19.51-11.29-32.52-32.57-31.98-56.85.5-22.95 13.3-43.05 32.01-53.93 9.18-5.34 19.78-8.47 31.03-8.63 12.01-.17 23.27 2.96 32.94 8.55z" fill="#ffeaa7" data-original="#ffeaa7"/></g><g><path d="m336 104v112.56c-9.67-5.59-20.93-8.72-32.94-8.55-11.25.16-21.85 3.29-31.03 8.63l-.03-.06v-112.58z" fill="#fcd770" data-original="#fcd770" class=""/></g><g><path d="m440 40c8.84 0 16 7.16 16 16 0 4.42-1.79 8.42-4.68 11.32-2.9 2.89-6.9 4.68-11.32 4.68h-64c-8.84 0-16-7.16-16-16 0-4.42 1.79-8.42 4.68-11.32 2.9-2.89 6.9-4.68 11.32-4.68z" fill="#e6e9ed" data-original="#e6e9ed"/></g><g><path d="m280 40h32v32h-32z" fill="#e6e9ed" data-original="#e6e9ed"/></g><g><path d="m216 40h32v32h-32z" fill="#e6e9ed" data-original="#e6e9ed"/></g><g><path d="m152 40h32v32h-32z" fill="#e6e9ed" data-original="#e6e9ed"/></g></g><g><path d="m88 464c13.234 0 24-10.767 24-24s-10.766-24-24-24-24 10.767-24 24 10.766 24 24 24zm0-32c4.411 0 8 3.589 8 8s-3.589 8-8 8-8-3.589-8-8 3.589-8 8-8z" fill="#000000" data-original="#000000" class=""/><path d="m472 0h-336c-13.234 0-24 10.767-24 24v320c0 13.233 10.766 24 24 24h267.056l-8 16h-299.056v-248c0-13.233-10.766-24-24-24h-48c-13.234 0-24 10.767-24 24s10.766 24 24 24h56v48c-44.112 0-80 35.888-80 80s35.888 80 80 80v16.581c-27.101 3.894-48 27.257-48 55.419 0 30.879 25.122 56 56 56 28.162 0 51.525-20.898 55.419-48h113.385c-.527 2.586-.805 5.261-.805 8 0 22.056 17.944 40 40 40s40-17.944 40-40-17.944-40-40-40c-13.058 0-24.673 6.291-31.978 16h-120.602c-1.79-12.454-7.69-23.593-16.281-32h277.806l16-32h51.056c13.234 0 24-10.767 24-24v-320c0-13.233-10.766-24-24-24zm-176 432c13.233 0 24 10.767 24 24s-10.767 24-24 24-24-10.767-24-24 10.767-24 24-24zm-272-288c-4.411 0-8-3.589-8-8s3.589-8 8-8h48c4.411 0 8 3.589 8 8v8zm-8 144c0-5.523.704-10.884 2.025-16h30.553c-.386 5.312-.578 10.684-.578 16s.192 10.688.578 16h-30.553c-1.321-5.116-2.025-10.477-2.025-16zm48 0c0-5.47.213-10.828.617-16h15.383v32h-15.383c-.404-5.172-.617-10.53-.617-16zm16-32h-13.401c1.046-5.979 2.392-11.5 4.019-16.382 4.302-12.903 8.695-15.618 9.382-15.618zm-22.072-28.075c-3.404 7.901-5.902 17.602-7.542 28.075h-25.776c7.448-12.841 19.217-22.878 33.318-28.075zm-33.318 92.075h25.776c1.639 10.473 4.138 20.174 7.542 28.075-14.101-5.197-25.87-15.234-33.318-28.075zm46.009 16.382c-1.627-4.882-2.973-10.403-4.019-16.382h13.4v32c-.687 0-5.08-2.715-9.381-15.618zm57.381 103.618c0 22.056-17.944 40-40 40s-40-17.944-40-40 17.944-40 40-40 40 17.944 40 40zm352-96c0 4.411-3.589 8-8 8h-336c-4.411 0-8-3.589-8-8v-320c0-4.411 3.589-8 8-8h336c4.411 0 8 3.589 8 8z" fill="#000000" data-original="#000000" class=""/><path d="m192 32h-48v48h48zm-16 32h-16v-16h16z" fill="#000000" data-original="#000000" class=""/><path d="m256 32h-48v48h48zm-16 32h-16v-16h16z" fill="#000000" data-original="#000000" class=""/><path d="m320 32h-48v48h48zm-16 32h-16v-16h16z" fill="#000000" data-original="#000000" class=""/><path d="m440 32h-64c-13.234 0-24 10.767-24 24s10.766 24 24 24h64c13.234 0 24-10.767 24-24s-10.766-24-24-24zm0 32h-64c-4.411 0-8-3.589-8-8s3.589-8 8-8h64c4.411 0 8 3.589 8 8s-3.589 8-8 8z" fill="#000000" data-original="#000000" class=""/><path d="m344 212.125v-100.125h16v-16h-112v16h16v100.222c-3.776 2.546-7.342 5.466-10.646 8.744-13.352 13.249-20.93 30.803-21.337 49.427-.574 26.271 13.21 50.774 35.975 63.948l12.008 6.949v-45.29c0-13.233 10.767-24 24-24 13.234 0 24 10.767 24 24v45.29l12.007-6.949c22.201-12.848 35.993-36.736 35.993-62.341 0-19.428-7.62-37.638-21.457-51.277-3.274-3.228-6.809-6.092-10.543-8.598zm-16-8.04c-5.143-1.814-10.505-3.028-16-3.63v-88.455h16zm-48-92.085h16v88.444c-5.492.613-10.851 1.866-16 3.7zm64 199.15v-15.15c0-22.056-17.944-40-40-40s-40 17.944-40 40v15.169c-10.409-10.635-16.32-25.146-15.986-40.427.651-29.754 25.396-54.309 55.161-54.736 15.109-.243 29.376 5.505 40.136 16.111 10.762 10.609 16.689 24.773 16.689 39.883 0 14.769-5.903 28.805-16 39.15z" fill="#000000" data-original="#000000" class=""/><path d="m376 176h88v-48h-88zm16-32h56v16h-56z" fill="#000000" data-original="#000000" class=""/><path d="m376 192h88v16h-88z" fill="#000000" data-original="#000000" class=""/><path d="m392 224h72v16h-72z" fill="#000000" data-original="#000000" class=""/><path d="m144 136h88v16h-88z" fill="#000000" data-original="#000000" class=""/><path d="m216 168h16v16h-16z" fill="#000000" data-original="#000000" class=""/><path d="m144 168h56v16h-56z" fill="#000000" data-original="#000000" class=""/><path d="m144 200h88v16h-88z" fill="#000000" data-original="#000000" class=""/></g></g></g></svg>