<?xml version="1.0" encoding="UTF-8"?>
<!DOCTYPE svg PUBLIC "-//W3C//DTD SVG 1.1//EN" "http://www.w3.org/Graphics/SVG/1.1/DTD/svg11.dtd">
<svg xmlns="http://www.w3.org/2000/svg" version="1.1" width="125px" height="125px" style="shape-rendering:geometricPrecision; text-rendering:geometricPrecision; image-rendering:optimizeQuality; fill-rule:evenodd; clip-rule:evenodd" xmlns:xlink="http://www.w3.org/1999/xlink">
<g><path style="opacity:1" fill="#fdfdfc" d="M -0.5,-0.5 C 15.8333,-0.5 32.1667,-0.5 48.5,-0.5C 48.5,-0.166667 48.5,0.166667 48.5,0.5C 34.6686,3.16506 23.1686,9.83172 14,20.5C 13.2086,21.745 12.7086,23.0783 12.5,24.5C 8.27946,28.2739 5.61279,32.9406 4.5,38.5C 2.44604,41.0076 1.44604,44.0076 1.5,47.5C 0.833333,49.5 0.166667,51.5 -0.5,53.5C -0.5,35.5 -0.5,17.5 -0.5,-0.5 Z"/></g>
<g><path style="opacity:1" fill="#99cbcd" d="M 48.5,0.5 C 48.5,0.166667 48.5,-0.166667 48.5,-0.5C 56.1667,-0.5 63.8333,-0.5 71.5,-0.5C 71.5,-0.166667 71.5,0.166667 71.5,0.5C 73.8383,2.03954 76.5049,2.70621 79.5,2.5C 79.8333,2.5 80.1667,2.5 80.5,2.5C 85.7646,5.90894 91.4312,8.5756 97.5,10.5C 100.271,15.5448 104.271,19.2114 109.5,21.5C 110.34,24.6757 112.007,27.3424 114.5,29.5C 116.175,32.8772 117.842,36.2105 119.5,39.5C 120.23,43.9971 121.396,48.3304 123,52.5C 123.49,51.2068 123.657,49.8734 123.5,48.5C 123.833,48.5 124.167,48.5 124.5,48.5C 124.5,56.1667 124.5,63.8333 124.5,71.5C 124.167,71.5 123.833,71.5 123.5,71.5C 122.883,71.6107 122.383,71.944 122,72.5C 121.003,77.4857 120.169,82.4857 119.5,87.5C 116.112,90.5971 113.445,94.2637 111.5,98.5C 111.5,98.8333 111.5,99.1667 111.5,99.5C 107.833,103.5 104.167,107.5 100.5,111.5C 98.5659,112.11 96.8993,113.11 95.5,114.5C 91.8548,115.652 88.1882,116.818 84.5,118C 83.0577,118.377 82.0577,119.21 81.5,120.5C 77.7496,122.651 73.7496,123.984 69.5,124.5C 64.1667,124.5 58.8333,124.5 53.5,124.5C 53.1583,123.662 52.4916,123.328 51.5,123.5C 51.3893,122.883 51.056,122.383 50.5,122C 48.1902,121.503 45.8568,121.337 43.5,121.5C 36.8381,118.171 30.1715,114.837 23.5,111.5C 21.851,109.825 20.5177,107.825 19.5,105.5C 16.4587,103.117 13.6254,100.451 11,97.5C 10.6012,97.7284 10.4346,98.0618 10.5,98.5C 9.66175,98.1583 9.32842,97.4916 9.5,96.5C 7.17056,91.1688 4.83723,85.8354 2.5,80.5C 1.62552,77.4651 0.62552,74.4651 -0.5,71.5C -0.5,65.5 -0.5,59.5 -0.5,53.5C 0.166667,51.5 0.833333,49.5 1.5,47.5C 2.94586,44.7458 3.94586,41.7458 4.5,38.5C 5.52534,36.485 7.19201,35.1517 9.5,34.5C 10.1263,31.1733 11.1263,27.84 12.5,24.5C 17.3461,18.4897 23.0128,13.323 29.5,9C 36.5542,5.53776 43.8875,2.87109 51.5,1C 50.552,0.517215 49.552,0.350549 48.5,0.5 Z"/></g>
<g><path style="opacity:1" fill="#fdfdfd" d="M 71.5,0.5 C 71.5,0.166667 71.5,-0.166667 71.5,-0.5C 89.1667,-0.5 106.833,-0.5 124.5,-0.5C 124.5,15.8333 124.5,32.1667 124.5,48.5C 124.167,48.5 123.833,48.5 123.5,48.5C 123.674,44.6402 122.341,41.6402 119.5,39.5C 119.925,35.0168 118.259,31.6834 114.5,29.5C 114.349,25.9129 112.682,23.2462 109.5,21.5C 108.883,19.7708 107.883,18.2708 106.5,17C 103.603,14.59 100.603,12.4233 97.5,10.5C 92.7841,5.97706 87.1174,3.31039 80.5,2.5C 80.1667,2.5 79.8333,2.5 79.5,2.5C 77.0948,1.2318 74.4282,0.565131 71.5,0.5 Z"/></g>
<g><path style="opacity:1" fill="#9eb8db" d="M 71.5,0.5 C 74.4282,0.565131 77.0948,1.2318 79.5,2.5C 76.5049,2.70621 73.8383,2.03954 71.5,0.5 Z"/></g>
<g><path style="opacity:1" fill="#aebada" d="M 48.5,0.5 C 49.552,0.350549 50.552,0.517215 51.5,1C 43.8875,2.87109 36.5542,5.53776 29.5,9C 23.0128,13.323 17.3461,18.4897 12.5,24.5C 12.7086,23.0783 13.2086,21.745 14,20.5C 23.1686,9.83172 34.6686,3.16506 48.5,0.5 Z"/></g>
<g><path style="opacity:1" fill="#b9c6df" d="M 80.5,2.5 C 87.1174,3.31039 92.7841,5.97706 97.5,10.5C 91.4312,8.5756 85.7646,5.90894 80.5,2.5 Z"/></g>
<g><path style="opacity:1" fill="#afc0da" d="M 97.5,10.5 C 100.603,12.4233 103.603,14.59 106.5,17C 107.883,18.2708 108.883,19.7708 109.5,21.5C 104.271,19.2114 100.271,15.5448 97.5,10.5 Z"/></g>
<g><path style="opacity:1" fill="#b0c9db" d="M 109.5,21.5 C 112.682,23.2462 114.349,25.9129 114.5,29.5C 112.007,27.3424 110.34,24.6757 109.5,21.5 Z"/></g>
<g><path style="opacity:1" fill="#a3c3d6" d="M 12.5,24.5 C 11.1263,27.84 10.1263,31.1733 9.5,34.5C 7.19201,35.1517 5.52534,36.485 4.5,38.5C 5.61279,32.9406 8.27946,28.2739 12.5,24.5 Z"/></g>
<g><path style="opacity:1" fill="#bbcbe0" d="M 114.5,29.5 C 118.259,31.6834 119.925,35.0168 119.5,39.5C 117.842,36.2105 116.175,32.8772 114.5,29.5 Z"/></g>
<g><path style="opacity:1" fill="#b3c2df" d="M 4.5,38.5 C 3.94586,41.7458 2.94586,44.7458 1.5,47.5C 1.44604,44.0076 2.44604,41.0076 4.5,38.5 Z"/></g>
<g><path style="opacity:1" fill="#fdfdfc" d="M 83.5,76.5 C 76.5359,69.0351 69.3692,61.7018 62,54.5C 54.8333,61.6667 47.6667,68.8333 40.5,76C 39.2068,76.49 37.8734,76.6567 36.5,76.5C 35.5,75.8333 34.5,75.1667 33.5,74.5C 33.3398,72.8008 33.5065,71.1341 34,69.5C 38.037,65.631 41.8704,61.631 45.5,57.5C 46.1667,57.5 46.5,57.1667 46.5,56.5C 49.1667,54.5 51.5,52.1667 53.5,49.5C 55.6298,47.8729 57.6298,46.0396 59.5,44C 61.1667,43.3333 62.8333,43.3333 64.5,44C 73,52.5 81.5,61 90,69.5C 91.4978,75.154 89.3312,77.4874 83.5,76.5 Z"/></g>
<g><path style="opacity:1" fill="#b7c8e2" d="M 119.5,39.5 C 122.341,41.6402 123.674,44.6402 123.5,48.5C 123.657,49.8734 123.49,51.2068 123,52.5C 121.396,48.3304 120.23,43.9971 119.5,39.5 Z"/></g>
<g><path style="opacity:1" fill="#aac4da" d="M 83.5,76.5 C 89.3312,77.4874 91.4978,75.154 90,69.5C 81.5,61 73,52.5 64.5,44C 62.8333,43.3333 61.1667,43.3333 59.5,44C 57.6298,46.0396 55.6298,47.8729 53.5,49.5C 53.3505,48.448 53.5172,47.448 54,46.5C 56.46,45.0422 58.6266,43.2089 60.5,41C 62.5979,41.0322 64.5979,41.6989 66.5,43C 75.3365,51.5033 83.8365,60.3366 92,69.5C 92.7986,74.5521 90.6319,77.5521 85.5,78.5C 84.4777,78.1445 83.811,77.4778 83.5,76.5 Z"/></g>
<g><path style="opacity:1" fill="#a3bfdd" d="M 53.5,49.5 C 51.5,52.1667 49.1667,54.5 46.5,56.5C 47.5,52.8333 49.8333,50.5 53.5,49.5 Z"/></g>
<g><path style="opacity:1" fill="#a6bbde" d="M 83.5,76.5 C 81.6064,75.9524 79.9397,74.9524 78.5,73.5C 73.1399,67.9725 67.6399,62.6392 62,57.5C 54.876,63.6222 48.0427,70.1222 41.5,77C 39.6131,77.7796 37.9464,77.6129 36.5,76.5C 37.8734,76.6567 39.2068,76.49 40.5,76C 47.6667,68.8333 54.8333,61.6667 62,54.5C 69.3692,61.7018 76.5359,69.0351 83.5,76.5 Z"/></g>
<g><path style="opacity:1" fill="#a4c0d9" d="M 45.5,57.5 C 41.8704,61.631 38.037,65.631 34,69.5C 33.5065,71.1341 33.3398,72.8008 33.5,74.5C 32.5222,74.189 31.8555,73.5223 31.5,72.5C 32.3302,70.8651 32.4969,69.1984 32,67.5C 32.3333,67.8333 32.6667,68.1667 33,68.5C 34.9334,66.4419 36.7667,64.2753 38.5,62C 40.4797,59.8356 42.813,58.3356 45.5,57.5 Z"/></g>
<g><path style="opacity:1" fill="#b2bedd" d="M 2.5,80.5 C 4.83723,85.8354 7.17056,91.1688 9.5,96.5C 5.57567,91.9738 3.24234,86.6405 2.5,80.5 Z"/></g>
<g><path style="opacity:1" fill="#b8c9e3" d="M 123.5,71.5 C 123.037,77.1802 121.703,82.5135 119.5,87.5C 120.169,82.4857 121.003,77.4857 122,72.5C 122.383,71.944 122.883,71.6107 123.5,71.5 Z"/></g>
<g><path style="opacity:1" fill="#fdfcfc" d="M -0.5,71.5 C 0.62552,74.4651 1.62552,77.4651 2.5,80.5C 3.24234,86.6405 5.57567,91.9738 9.5,96.5C 9.32842,97.4916 9.66175,98.1583 10.5,98.5C 13.8333,103.833 18.1667,108.167 23.5,111.5C 29.0571,116.945 35.7238,120.279 43.5,121.5C 45.9052,122.768 48.5718,123.435 51.5,123.5C 52.4916,123.328 53.1583,123.662 53.5,124.5C 35.5,124.5 17.5,124.5 -0.5,124.5C -0.5,106.833 -0.5,89.1667 -0.5,71.5 Z"/></g>
<g><path style="opacity:1" fill="#fdfdfd" d="M 123.5,71.5 C 123.833,71.5 124.167,71.5 124.5,71.5C 124.5,89.1667 124.5,106.833 124.5,124.5C 106.167,124.5 87.8333,124.5 69.5,124.5C 73.7496,123.984 77.7496,122.651 81.5,120.5C 86.9476,119.992 91.6143,117.992 95.5,114.5C 96.8993,113.11 98.5659,112.11 100.5,111.5C 105.556,108.777 109.223,104.777 111.5,99.5C 111.5,99.1667 111.5,98.8333 111.5,98.5C 112.496,98.5858 113.329,98.2524 114,97.5C 116.091,94.2595 117.924,90.9262 119.5,87.5C 121.703,82.5135 123.037,77.1802 123.5,71.5 Z"/></g>
<g><path style="opacity:1" fill="#c4d0e5" d="M 119.5,87.5 C 117.924,90.9262 116.091,94.2595 114,97.5C 113.329,98.2524 112.496,98.5858 111.5,98.5C 113.445,94.2637 116.112,90.5971 119.5,87.5 Z"/></g>
<g><path style="opacity:1" fill="#a2afcc" d="M 23.5,111.5 C 18.1667,108.167 13.8333,103.833 10.5,98.5C 10.4346,98.0618 10.6012,97.7284 11,97.5C 13.6254,100.451 16.4587,103.117 19.5,105.5C 20.5177,107.825 21.851,109.825 23.5,111.5 Z"/></g>
<g><path style="opacity:1" fill="#dadfed" d="M 111.5,99.5 C 109.223,104.777 105.556,108.777 100.5,111.5C 104.167,107.5 107.833,103.5 111.5,99.5 Z"/></g>
<g><path style="opacity:1" fill="#aebdd9" d="M 23.5,111.5 C 30.1715,114.837 36.8381,118.171 43.5,121.5C 35.7238,120.279 29.0571,116.945 23.5,111.5 Z"/></g>
<g><path style="opacity:1" fill="#b2c9de" d="M 95.5,114.5 C 91.6143,117.992 86.9476,119.992 81.5,120.5C 82.0577,119.21 83.0577,118.377 84.5,118C 88.1882,116.818 91.8548,115.652 95.5,114.5 Z"/></g>
<g><path style="opacity:1" fill="#a3bfdc" d="M 43.5,121.5 C 45.8568,121.337 48.1902,121.503 50.5,122C 51.056,122.383 51.3893,122.883 51.5,123.5C 48.5718,123.435 45.9052,122.768 43.5,121.5 Z"/></g>
</svg>
