<svg width="20" height="20" viewBox="0 0 20 20" fill="none" xmlns="http://www.w3.org/2000/svg">
<path d="M2 17.704H18V19.6711H2V17.704ZM19 2.95026C18.7348 2.95026 18.4804 3.05388 18.2929 3.23834C18.1054 3.4228 18 3.67297 18 3.93384C18.0002 4.04559 18.0219 4.1563 18.064 4.26009C18.1051 4.36052 18.1612 4.45434 18.2306 4.53844L16.1119 6.20329L13.9931 7.86816L12.2404 4.8461L10.4877 1.82405C10.638 1.74014 10.7647 1.62089 10.8566 1.47698C10.9506 1.32885 11.0003 1.1577 11 0.983093C11 0.722231 10.8946 0.472053 10.7071 0.287596C10.5196 0.103139 10.2652 -0.000488281 10 -0.000488281C9.73479 -0.000488281 9.48043 0.103139 9.2929 0.287596C9.10536 0.472053 9 0.722231 9 0.983093C8.99973 1.1576 9.04939 1.32866 9.14329 1.47672C9.23512 1.62057 9.36174 1.73981 9.51184 1.8238L7.757 4.84598L6.00214 7.86816L3.88565 6.20348L1.76917 4.53879C1.83857 4.45466 1.89477 4.3608 1.93592 4.26031C1.97808 4.15645 1.99982 4.04567 2 3.93384C2 3.7393 1.94135 3.54914 1.83147 3.38739C1.72159 3.22564 1.56541 3.09957 1.38268 3.02513C1.19996 2.95068 0.998891 2.9312 0.80491 2.96915C0.610929 3.00711 0.432746 3.10078 0.292894 3.23834C0.153041 3.3759 0.0578004 3.55115 0.0192152 3.74195C-0.0193701 3.93275 0.000433281 4.13051 0.0761209 4.31024C0.151809 4.48996 0.279981 4.64358 0.44443 4.75165C0.60888 4.85973 0.802219 4.91742 1 4.91742C1.01402 4.91695 1.02789 4.91452 1.04121 4.91019C1.05447 4.90586 1.06813 4.90284 1.082 4.90115L1.541 10.319L2 15.7368H18L18.459 10.319L18.918 4.90115C18.9319 4.90284 18.9455 4.90587 18.9588 4.91019C18.9721 4.91452 18.986 4.91695 19 4.91742C19.2652 4.91742 19.5196 4.81379 19.7071 4.62933C19.8946 4.44488 20 4.1947 20 3.93384C20 3.67297 19.8946 3.4228 19.7071 3.23834C19.5196 3.05388 19.2652 2.95026 19 2.95026Z" fill="#2A2F4D"/>
</svg>
