<?xml version="1.0" encoding="UTF-8"?>
<!DOCTYPE svg PUBLIC "-//W3C//DTD SVG 1.1//EN" "http://www.w3.org/Graphics/SVG/1.1/DTD/svg11.dtd">
<svg xmlns="http://www.w3.org/2000/svg" version="1.1" width="512px" height="512px" style="shape-rendering:geometricPrecision; text-rendering:geometricPrecision; image-rendering:optimizeQuality; fill-rule:evenodd; clip-rule:evenodd" xmlns:xlink="http://www.w3.org/1999/xlink">
<g><path style="opacity:1" fill="#fefefe" d="M -0.5,-0.5 C 37.5,-0.5 75.5,-0.5 113.5,-0.5C 113.158,0.338246 112.492,0.67158 111.5,0.5C 105.129,0.776819 99.1291,2.11015 93.5,4.5C 88.085,5.19382 83.085,6.86048 78.5,9.5C 76.4471,9.40206 74.7804,10.0687 73.5,11.5C 69.5709,13.1329 65.9043,15.1329 62.5,17.5C 60.1475,18.3403 58.1475,19.6736 56.5,21.5C 53.6298,22.4333 51.2964,24.1 49.5,26.5C 41.5647,31.4337 34.898,37.7671 29.5,45.5C 22.007,53.8057 16.007,63.1391 11.5,73.5C 7.99797,79.6687 5.66464,86.3354 4.5,93.5C 2.96046,95.8383 2.29379,98.5049 2.5,101.5C 1.21543,104.589 0.548766,107.922 0.5,111.5C 0.67158,112.492 0.338246,113.158 -0.5,113.5C -0.5,75.5 -0.5,37.5 -0.5,-0.5 Z"/></g>
<g><path style="opacity:1" fill="#98cacc" d="M 113.5,-0.5 C 207.167,-0.5 300.833,-0.5 394.5,-0.5C 395.919,0.451145 397.585,0.784479 399.5,0.5C 402.544,2.01136 405.878,2.67802 409.5,2.5C 431.627,6.89656 450.96,16.5632 467.5,31.5C 467.351,32.552 467.517,33.552 468,34.5C 470.602,35.296 472.768,36.6293 474.5,38.5C 488.784,52.0418 498.784,68.3751 504.5,87.5C 505.053,89.9393 505.053,92.2727 504.5,94.5C 505.548,95.548 506.548,96.548 507.5,97.5C 509.372,103.732 510.705,110.065 511.5,116.5C 511.5,209.833 511.5,303.167 511.5,396.5C 510.596,397.209 510.263,398.209 510.5,399.5C 509.778,399.918 509.278,400.584 509,401.5C 508.503,404.146 508.336,406.813 508.5,409.5C 508.435,412.428 507.768,415.095 506.5,417.5C 504.59,420.452 503.59,423.786 503.5,427.5C 498.735,441.703 491.401,454.37 481.5,465.5C 480.761,465.369 480.094,465.536 479.5,466C 473.705,472.391 467.705,478.558 461.5,484.5C 458.725,487.605 455.392,489.938 451.5,491.5C 449.973,491.427 448.973,492.094 448.5,493.5C 445.001,495.75 441.335,497.75 437.5,499.5C 434.09,499.457 430.757,499.957 427.5,501C 424.404,503.421 421.071,505.255 417.5,506.5C 415.095,507.768 412.428,508.435 409.5,508.5C 405.84,508.159 402.507,508.825 399.5,510.5C 397.585,510.216 395.919,510.549 394.5,511.5C 301.833,511.5 209.167,511.5 116.5,511.5C 113.167,510.833 109.833,510.167 106.5,509.5C 104.706,508.143 102.706,506.977 100.5,506C 96.1786,504.864 91.8453,504.364 87.5,504.5C 45.7041,490.703 18.3707,462.703 5.5,420.5C 5.67754,419.305 6.01087,418.138 6.5,417C 4.67305,410.904 2.67305,405.071 0.5,399.5C 0.8064,396.615 0.473067,393.948 -0.5,391.5C -0.5,298.833 -0.5,206.167 -0.5,113.5C 0.338246,113.158 0.67158,112.492 0.5,111.5C 1.22158,111.082 1.72158,110.416 2,109.5C 2.49742,106.854 2.66409,104.187 2.5,101.5C 3.7682,99.0948 4.43487,96.4282 4.5,93.5C 7.84975,87.2822 10.1831,80.6155 11.5,73.5C 16.007,63.1391 22.007,53.8057 29.5,45.5C 30.2389,45.631 30.9056,45.4643 31.5,45C 37.3819,38.5923 43.3819,32.4256 49.5,26.5C 52.3702,25.5667 54.7036,23.9 56.5,21.5C 58.1475,19.6736 60.1475,18.3403 62.5,17.5C 65.8434,16.3812 69.1767,15.0479 72.5,13.5C 73.2975,13.0431 73.6309,12.3764 73.5,11.5C 74.7804,10.0687 76.4471,9.40206 78.5,9.5C 80.924,9.80756 83.2573,9.47423 85.5,8.5C 88.2392,7.16337 90.9058,5.83004 93.5,4.5C 99.7024,3.58321 105.702,2.24988 111.5,0.5C 112.492,0.67158 113.158,0.338246 113.5,-0.5 Z"/></g>
<g><path style="opacity:1" fill="#fefefe" d="M 394.5,-0.5 C 433.5,-0.5 472.5,-0.5 511.5,-0.5C 511.5,38.5 511.5,77.5 511.5,116.5C 510.705,110.065 509.372,103.732 507.5,97.5C 507.41,93.7858 506.41,90.4525 504.5,87.5C 498.784,68.3751 488.784,52.0418 474.5,38.5C 474.631,37.7611 474.464,37.0944 474,36.5C 471.713,34.9456 469.546,33.2789 467.5,31.5C 450.96,16.5632 431.627,6.89656 409.5,2.5C 406.411,1.21543 403.078,0.548766 399.5,0.5C 397.585,0.784479 395.919,0.451145 394.5,-0.5 Z"/></g>
<g><path style="opacity:1" fill="#b5c8e4" d="M 399.5,0.5 C 403.078,0.548766 406.411,1.21543 409.5,2.5C 405.878,2.67802 402.544,2.01136 399.5,0.5 Z"/></g>
<g><path style="opacity:1" fill="#a8bede" d="M 111.5,0.5 C 105.702,2.24988 99.7024,3.58321 93.5,4.5C 99.1291,2.11015 105.129,0.776819 111.5,0.5 Z"/></g>
<g><path style="opacity:1" fill="#9fc3d4" d="M 93.5,4.5 C 90.9058,5.83004 88.2392,7.16337 85.5,8.5C 83.2573,9.47423 80.924,9.80756 78.5,9.5C 83.085,6.86048 88.085,5.19382 93.5,4.5 Z"/></g>
<g><path style="opacity:1" fill="#a0c1d5" d="M 73.5,11.5 C 73.6309,12.3764 73.2975,13.0431 72.5,13.5C 69.1767,15.0479 65.8434,16.3812 62.5,17.5C 65.9043,15.1329 69.5709,13.1329 73.5,11.5 Z"/></g>
<g><path style="opacity:1" fill="#a2bdd7" d="M 56.5,21.5 C 54.7036,23.9 52.3702,25.5667 49.5,26.5C 51.2964,24.1 53.6298,22.4333 56.5,21.5 Z"/></g>
<g><path style="opacity:1" fill="#a3c2d6" d="M 467.5,31.5 C 469.546,33.2789 471.713,34.9456 474,36.5C 474.464,37.0944 474.631,37.7611 474.5,38.5C 472.768,36.6293 470.602,35.296 468,34.5C 467.517,33.552 467.351,32.552 467.5,31.5 Z"/></g>
<g><path style="opacity:1" fill="#a2bed6" d="M 49.5,26.5 C 43.3819,32.4256 37.3819,38.5923 31.5,45C 30.9056,45.4643 30.2389,45.631 29.5,45.5C 34.898,37.7671 41.5647,31.4337 49.5,26.5 Z"/></g>
<g><path style="opacity:1" fill="#a1c2d6" d="M 11.5,73.5 C 10.1831,80.6155 7.84975,87.2822 4.5,93.5C 5.66464,86.3354 7.99797,79.6687 11.5,73.5 Z"/></g>
<g><path style="opacity:1" fill="#a1c3d7" d="M 504.5,87.5 C 506.41,90.4525 507.41,93.7858 507.5,97.5C 506.548,96.548 505.548,95.548 504.5,94.5C 505.053,92.2727 505.053,89.9393 504.5,87.5 Z"/></g>
<g><path style="opacity:1" fill="#9eb9da" d="M 4.5,93.5 C 4.43487,96.4282 3.7682,99.0948 2.5,101.5C 2.29379,98.5049 2.96046,95.8383 4.5,93.5 Z"/></g>
<g><path style="opacity:1" fill="#a0bad7" d="M 2.5,101.5 C 2.66409,104.187 2.49742,106.854 2,109.5C 1.72158,110.416 1.22158,111.082 0.5,111.5C 0.548766,107.922 1.21543,104.589 2.5,101.5 Z"/></g>
<g><path style="opacity:1" fill="#fefefe" d="M 217.5,152.5 C 225.156,157.997 233.156,162.997 241.5,167.5C 267.99,184.916 294.99,201.582 322.5,217.5C 329.992,222.415 337.659,227.081 345.5,231.5C 351.768,235.643 358.101,239.81 364.5,244C 365.697,246.015 367.03,247.849 368.5,249.5C 368.5,253.167 368.5,256.833 368.5,260.5C 366.447,264.064 363.781,267.23 360.5,270C 306.666,302.749 252.999,335.749 199.5,369C 188.66,373.057 180.827,369.89 176,359.5C 175.333,290.167 175.333,220.833 176,151.5C 180.74,141.134 188.573,137.967 199.5,142C 205.145,146.154 211.145,149.654 217.5,152.5 Z"/></g>
<g><path style="opacity:1" fill="#a1c6d3" d="M 217.5,152.5 C 219.679,152.84 221.512,153.84 223,155.5C 223.718,154.549 224.551,154.383 225.5,155C 230.77,159.442 236.104,163.609 241.5,167.5C 233.156,162.997 225.156,157.997 217.5,152.5 Z"/></g>
<g><path style="opacity:1" fill="#a1c7d4" d="M 322.5,217.5 C 324.39,217.297 325.89,217.963 327,219.5C 327.718,218.549 328.551,218.383 329.5,219C 334.77,223.442 340.104,227.609 345.5,231.5C 337.659,227.081 329.992,222.415 322.5,217.5 Z"/></g>
<g><path style="opacity:1" fill="#a5c6dc" d="M 368.5,249.5 C 369.972,251.117 370.639,253.117 370.5,255.5C 370.333,256.833 370.167,258.167 370,259.5C 369.617,260.056 369.117,260.389 368.5,260.5C 368.5,256.833 368.5,253.167 368.5,249.5 Z"/></g>
<g><path style="opacity:1" fill="#fefefe" d="M -0.5,391.5 C 0.473067,393.948 0.8064,396.615 0.5,399.5C 1.18198,406.849 2.84864,413.849 5.5,420.5C 18.3707,462.703 45.7041,490.703 87.5,504.5C 93.4464,507.238 99.7797,508.905 106.5,509.5C 109.833,510.167 113.167,510.833 116.5,511.5C 77.5,511.5 38.5,511.5 -0.5,511.5C -0.5,471.5 -0.5,431.5 -0.5,391.5 Z"/></g>
<g><path style="opacity:1" fill="#a3bbd9" d="M 510.5,399.5 C 510.451,403.078 509.785,406.411 508.5,409.5C 508.336,406.813 508.503,404.146 509,401.5C 509.278,400.584 509.778,399.918 510.5,399.5 Z"/></g>
<g><path style="opacity:1" fill="#a3c7d8" d="M 0.5,399.5 C 2.67305,405.071 4.67305,410.904 6.5,417C 6.01087,418.138 5.67754,419.305 5.5,420.5C 2.84864,413.849 1.18198,406.849 0.5,399.5 Z"/></g>
<g><path style="opacity:1" fill="#fefefe" d="M 511.5,396.5 C 511.5,434.833 511.5,473.167 511.5,511.5C 472.5,511.5 433.5,511.5 394.5,511.5C 395.919,510.549 397.585,510.216 399.5,510.5C 403.04,510.247 406.373,509.581 409.5,508.5C 412.428,508.435 415.095,507.768 417.5,506.5C 424.665,505.335 431.331,503.002 437.5,499.5C 441.335,497.75 445.001,495.75 448.5,493.5C 450.027,493.573 451.027,492.906 451.5,491.5C 455.392,489.938 458.725,487.605 461.5,484.5C 469.435,479.566 476.102,473.233 481.5,465.5C 491.401,454.37 498.735,441.703 503.5,427.5C 505.277,424.495 506.277,421.162 506.5,417.5C 507.768,415.095 508.435,412.428 508.5,409.5C 509.785,406.411 510.451,403.078 510.5,399.5C 510.263,398.209 510.596,397.209 511.5,396.5 Z"/></g>
<g><path style="opacity:1" fill="#a2bbd8" d="M 506.5,417.5 C 506.277,421.162 505.277,424.495 503.5,427.5C 503.59,423.786 504.59,420.452 506.5,417.5 Z"/></g>
<g><path style="opacity:1" fill="#a7bfd8" d="M 481.5,465.5 C 476.102,473.233 469.435,479.566 461.5,484.5C 467.705,478.558 473.705,472.391 479.5,466C 480.094,465.536 480.761,465.369 481.5,465.5 Z"/></g>
<g><path style="opacity:1" fill="#b1bee4" d="M 451.5,491.5 C 451.027,492.906 450.027,493.573 448.5,493.5C 448.973,492.094 449.973,491.427 451.5,491.5 Z"/></g>
<g><path style="opacity:1" fill="#a0c2d5" d="M 437.5,499.5 C 431.331,503.002 424.665,505.335 417.5,506.5C 421.071,505.255 424.404,503.421 427.5,501C 430.757,499.957 434.09,499.457 437.5,499.5 Z"/></g>
<g><path style="opacity:1" fill="#a0c7d5" d="M 87.5,504.5 C 91.8453,504.364 96.1786,504.864 100.5,506C 102.706,506.977 104.706,508.143 106.5,509.5C 99.7797,508.905 93.4464,507.238 87.5,504.5 Z"/></g>
<g><path style="opacity:1" fill="#a0b7d9" d="M 409.5,508.5 C 406.373,509.581 403.04,510.247 399.5,510.5C 402.507,508.825 405.84,508.159 409.5,508.5 Z"/></g>
</svg>
