<?xml version="1.0" encoding="UTF-8"?>
<!DOCTYPE svg PUBLIC "-//W3C//DTD SVG 1.1//EN" "http://www.w3.org/Graphics/SVG/1.1/DTD/svg11.dtd">
<svg xmlns="http://www.w3.org/2000/svg" version="1.1" width="535px" height="127px" style="shape-rendering:geometricPrecision; text-rendering:geometricPrecision; image-rendering:optimizeQuality; fill-rule:evenodd; clip-rule:evenodd" xmlns:xlink="http://www.w3.org/1999/xlink">
<g><path style="opacity:1" fill="#fefefe" d="M -0.5,-0.5 C 177.833,-0.5 356.167,-0.5 534.5,-0.5C 534.5,41.8333 534.5,84.1667 534.5,126.5C 356.167,126.5 177.833,126.5 -0.5,126.5C -0.5,84.1667 -0.5,41.8333 -0.5,-0.5 Z"/></g>
<g><path style="opacity:1" fill="#7ebfc0" d="M 108.5,36.5 C 117.009,35.5081 125.009,37.0081 132.5,41C 139.001,47.4021 141.668,55.2355 140.5,64.5C 141.815,86.5166 131.482,96.3499 109.5,94C 100.043,92.697 93.8764,87.5303 91,78.5C 90.0799,68.7583 90.4133,59.0916 92,49.5C 95.4467,42.3821 100.947,38.0487 108.5,36.5 Z"/></g>
<g><path style="opacity:1" fill="#7ebfc0" d="M 325.5,36.5 C 352.853,35.3829 363.353,48.3829 357,75.5C 355.55,86.2833 349.383,92.45 338.5,94C 328.381,95.7641 319.548,93.2641 312,86.5C 310.472,83.5833 309.139,80.5833 308,77.5C 307.333,69.1667 307.333,60.8333 308,52.5C 310.921,43.8183 316.755,38.4849 325.5,36.5 Z"/></g>
<g><path style="opacity:1" fill="#7ebfc0" d="M 47.5,79.5 C 46.705,76.5766 45.3716,73.9099 43.5,71.5C 43.1667,72 42.8333,72.5 42.5,73C 43.4344,78.7849 43.7677,84.6182 43.5,90.5C 43.5858,91.4959 43.2524,92.3292 42.5,93C 37.8333,93.6667 33.1667,93.6667 28.5,93C 28,92.5 27.5,92 27,91.5C 26.3333,73.8333 26.3333,56.1667 27,38.5C 32.082,37.363 37.2487,37.1963 42.5,38C 47.2302,45.9605 51.5635,54.1272 55.5,62.5C 60.4152,55.0068 64.5819,47.0068 68,38.5C 73.6667,37.1667 79.3333,37.1667 85,38.5C 85.6667,56.1667 85.6667,73.8333 85,91.5C 84.5,92 84,92.5 83.5,93C 78.2487,93.8037 73.082,93.637 68,92.5C 67.5329,85.1366 67.5329,77.8032 68,70.5C 65.6454,74.5599 63.4787,78.7266 61.5,83C 57.8333,83.6667 54.1667,83.6667 50.5,83C 49.3636,81.8549 48.3636,80.6883 47.5,79.5 Z"/></g>
<g><path style="opacity:1" fill="#7dbfc0" d="M 191.5,51.5 C 191.216,53.4147 191.549,55.0813 192.5,56.5C 192.211,63.2082 189.878,69.0415 185.5,74C 188.186,79.0453 190.686,84.212 193,89.5C 193.667,90.5 193.667,91.5 193,92.5C 187.584,93.6389 182.084,93.8056 176.5,93C 175.069,92.5348 173.903,91.7014 173,90.5C 171.396,87.1792 169.896,83.8458 168.5,80.5C 168.5,79.8333 168.167,79.5 167.5,79.5C 167.306,77.0882 165.973,76.0882 163.5,76.5C 163.828,81.8746 163.495,87.2079 162.5,92.5C 157.22,93.6178 151.887,93.7845 146.5,93C 145.515,83.9172 145.182,74.7506 145.5,65.5C 145.5,63.8333 145.5,62.1667 145.5,60.5C 145.186,52.9129 145.519,45.4129 146.5,38C 157.892,37.0909 169.225,37.4243 180.5,39C 186.181,41.5074 189.848,45.674 191.5,51.5 Z"/></g>
<g><path style="opacity:1" fill="#7ebfc0" d="M 215.5,56.5 C 220.64,57.4881 225.974,57.8214 231.5,57.5C 232.496,57.4142 233.329,57.7476 234,58.5C 234.799,63.0868 234.632,67.5868 233.5,72C 227.509,72.4995 221.509,72.6662 215.5,72.5C 215.5,74.1667 215.5,75.8333 215.5,77.5C 223.174,77.3336 230.841,77.5003 238.5,78C 239.632,82.4132 239.799,86.9132 239,91.5C 238.5,92 238,92.5 237.5,93C 224.167,93.3333 210.833,93.6667 197.5,94C 197.043,94.414 196.709,94.914 196.5,95.5C 190.082,96.9153 183.749,96.7486 177.5,95C 183.416,94.8104 189.249,94.3104 195,93.5C 195.667,92.1667 195.667,90.8333 195,89.5C 192.364,84.3944 189.864,79.2278 187.5,74C 191.108,70.2219 193.108,65.7219 193.5,60.5C 194.167,59.1667 194.833,57.8333 195.5,56.5C 195.858,63.0898 194.191,69.0898 190.5,74.5C 192.374,79.2509 194.541,83.9176 197,88.5C 197.333,71.8333 197.667,55.1667 198,38.5C 211.091,37.3446 224.258,37.178 237.5,38C 238.812,42.8027 238.812,47.636 237.5,52.5C 230.197,53.4973 222.863,53.8306 215.5,53.5C 215.5,54.5 215.5,55.5 215.5,56.5 Z"/></g>
<g><path style="opacity:1" fill="#7ebfc0" d="M 302.5,54.5 C 302.5,64.1667 302.5,73.8333 302.5,83.5C 302.817,86.5719 302.484,89.5719 301.5,92.5C 296.189,93.786 290.856,93.786 285.5,92.5C 284.553,85.191 284.387,77.8576 285,70.5C 283.182,74.1356 281.349,77.8022 279.5,81.5C 275.205,82.6609 270.871,82.8275 266.5,82C 264.793,78.7515 262.96,75.5849 261,72.5C 261.356,78.8117 261.356,85.145 261,91.5C 260.5,92 260,92.5 259.5,93C 254.833,93.6667 250.167,93.6667 245.5,93C 245,92.5 244.5,92 244,91.5C 243.833,82.6667 243.667,73.8333 243.5,65C 243.515,55.7694 244.181,46.7694 245.5,38C 250.167,37.3333 254.833,37.3333 259.5,38C 264.127,46.0863 268.627,54.253 273,62.5C 277.422,54.6573 281.588,46.6573 285.5,38.5C 290.802,37.3372 296.136,37.1705 301.5,38C 302.473,43.4066 302.807,48.9066 302.5,54.5 Z"/></g>
<g><path style="opacity:1" fill="#7ebfc0" d="M 363.5,37.5 C 369.176,37.3339 374.843,37.5006 380.5,38C 385.365,45.3673 390.031,52.8673 394.5,60.5C 394.54,53.2429 394.707,45.9096 395,38.5C 400.333,37.1667 405.667,37.1667 411,38.5C 411.667,56.1667 411.667,73.8333 411,91.5C 410.5,92 410,92.5 409.5,93C 404.051,93.8962 398.718,93.5628 393.5,92C 389,84.8333 384.5,77.6667 380,70.5C 379.667,77.5 379.333,84.5 379,91.5C 378.5,92 378,92.5 377.5,93C 373.167,93.6667 368.833,93.6667 364.5,93C 364,92.5 363.5,92 363,91.5C 362.181,73.4264 362.348,55.4264 363.5,37.5 Z"/></g>
<g><path style="opacity:1" fill="#7ebfc0" d="M 435.5,56.5 C 440.64,57.4881 445.974,57.8214 451.5,57.5C 452.496,57.4142 453.329,57.7476 454,58.5C 454.799,63.0868 454.632,67.5868 453.5,72C 447.509,72.4995 441.509,72.6662 435.5,72.5C 435.5,74.1667 435.5,75.8333 435.5,77.5C 442.841,77.3337 450.174,77.5003 457.5,78C 458.752,80.0413 459.419,82.3746 459.5,85C 459.333,87.1667 459.167,89.3333 459,91.5C 458.5,92 458,92.5 457.5,93C 444.258,93.822 431.091,93.6554 418,92.5C 417.333,74.5 417.333,56.5 418,38.5C 431.091,37.3446 444.258,37.178 457.5,38C 458.812,42.8027 458.812,47.636 457.5,52.5C 450.197,53.4973 442.863,53.8306 435.5,53.5C 435.5,54.5 435.5,55.5 435.5,56.5 Z"/></g>
<g><path style="opacity:1" fill="#7cbebf" d="M 512.5,44.5 C 507.625,53.2362 502.458,61.9029 497,70.5C 496.501,76.4908 496.334,82.4908 496.5,88.5C 496.714,90.1439 496.38,91.6439 495.5,93C 490.5,93.6667 485.5,93.6667 480.5,93C 480,92.5 479.5,92 479,91.5C 478.667,84.5 478.333,77.5 478,70.5C 473.155,62.1392 468.322,53.8059 463.5,45.5C 463.217,44.7109 462.717,44.0442 462,43.5C 461.502,46.4816 461.335,49.4816 461.5,52.5C 461.5,53.5 461.5,54.5 461.5,55.5C 460.5,55.5 459.5,55.5 458.5,55.5C 458.5,55.1667 458.5,54.8333 458.5,54.5C 459.167,54.5 459.5,54.1667 459.5,53.5C 460.224,49.6347 460.891,45.6347 461.5,41.5C 461.376,40.8933 461.043,40.56 460.5,40.5C 460.5,39.5 460.5,38.5 460.5,37.5C 466.509,37.3338 472.509,37.5005 478.5,38C 481.541,43.2502 484.708,48.4168 488,53.5C 490.777,48.1155 493.944,42.9489 497.5,38C 503.157,37.5006 508.824,37.3339 514.5,37.5C 514.606,40.0786 513.939,42.412 512.5,44.5 Z"/></g>
<g><path style="opacity:1" fill="#ebf5f5" d="M 329.5,41.5 C 328.508,41.6716 327.842,41.3382 327.5,40.5C 328.314,38.7274 329.648,38.2274 331.5,39C 329.822,39.4839 329.156,40.3172 329.5,41.5 Z"/></g>
<g><path style="opacity:1" fill="#d0e7e8" d="M 333.5,39.5 C 336.935,39.5399 340.435,39.8732 344,40.5C 346.155,41.6556 347.989,43.1556 349.5,45C 346.988,44.1742 344.321,43.3409 341.5,42.5C 340.184,45.028 339.017,45.028 338,42.5C 336.701,42.9662 335.201,42.9662 333.5,42.5C 333.5,41.5 333.5,40.5 333.5,39.5 Z"/></g>
<g><path style="opacity:1" fill="#ebf5f5" d="M 113.5,38.5 C 112.402,39.397 112.402,40.2303 113.5,41C 112.906,41.4643 112.239,41.631 111.5,41.5C 110.833,41.5 110.167,41.5 109.5,41.5C 110.262,39.7376 111.596,38.7376 113.5,38.5 Z"/></g>
<g><path style="opacity:1" fill="#bddedf" d="M 109.5,41.5 C 110.167,41.5 110.833,41.5 111.5,41.5C 113.148,43.8722 112.481,45.2056 109.5,45.5C 110.689,42.0109 109.855,41.6776 107,44.5C 105.244,42.9409 105.244,41.2742 107,39.5C 107.417,40.756 108.25,41.4226 109.5,41.5 Z"/></g>
<g><path style="opacity:1" fill="#a7d3d4" d="M 151.5,41.5 C 152.979,40.852 154.479,40.5186 156,40.5C 159.624,43.4376 159.124,44.6043 154.5,44C 153.5,43.6667 152.5,43.3333 151.5,43C 152.738,42.31 152.738,41.81 151.5,41.5 Z"/></g>
<g><path style="opacity:1" fill="#8ec7c7" d="M 88.5,42.5 C 89.6618,59.6618 89.8285,76.9951 89,94.5C 88.5,95 88,95.5 87.5,96C 82.1357,96.8295 76.8023,96.6628 71.5,95.5C 76.1315,94.6717 80.7982,94.1717 85.5,94C 86.056,93.6174 86.3893,93.1174 86.5,92.5C 87.1667,75.8333 87.8333,59.1667 88.5,42.5 Z"/></g>
<g><path style="opacity:1" fill="#90c8c8" d="M 113.5,38.5 C 114.5,38.8333 115.167,39.5 115.5,40.5C 116.183,42.1765 117.517,42.8432 119.5,42.5C 119.5,44.8333 119.5,47.1667 119.5,49.5C 118.504,49.5858 117.671,49.2524 117,48.5C 116.333,49.1667 115.667,49.8333 115,50.5C 115.783,48.6546 116.116,46.6546 116,44.5C 114.47,46.2262 113.47,48.2262 113,50.5C 112.878,48.563 112.045,47.2297 110.5,46.5C 109.167,46.8333 107.833,47.1667 106.5,47.5C 106.378,46.2931 107.378,45.6264 109.5,45.5C 112.481,45.2056 113.148,43.8722 111.5,41.5C 112.239,41.631 112.906,41.4643 113.5,41C 112.402,40.2303 112.402,39.397 113.5,38.5 Z"/></g>
<g><path style="opacity:1" fill="#89c4c5" d="M 303.5,92.5 C 304.497,76.0084 304.83,59.3417 304.5,42.5C 304.81,41.2617 305.31,41.2617 306,42.5C 306.667,59.8333 306.667,77.1667 306,94.5C 305.5,95 305,95.5 304.5,96C 299.136,96.8295 293.802,96.6628 288.5,95.5C 293.9,95.1312 298.9,94.1312 303.5,92.5 Z"/></g>
<g><path style="opacity:1" fill="#b4dada" d="M 327.5,40.5 C 327.842,41.3382 328.508,41.6716 329.5,41.5C 329.883,44.462 328.883,45.462 326.5,44.5C 326.985,41.888 326.151,41.888 324,44.5C 322.256,43.3508 322.089,42.0175 323.5,40.5C 324.267,40.9488 325.601,40.9488 327.5,40.5 Z"/></g>
<g><path style="opacity:1" fill="#88c4c5" d="M 385.5,41.5 C 387.785,42.9568 389.618,44.9568 391,47.5C 392.301,49.3646 392.635,51.3646 392,53.5C 389.173,49.8446 387.007,45.8446 385.5,41.5 Z"/></g>
<g><path style="opacity:1" fill="#d3e9e9" d="M 472.5,46.5 C 472.5,46.8333 472.5,47.1667 472.5,47.5C 470.983,47.5106 469.816,48.1772 469,49.5C 468.801,47.5975 467.967,46.0975 466.5,45C 467.167,44.6667 467.833,44.3333 468.5,44C 467.207,43.51 465.873,43.3433 464.5,43.5C 464.622,39.1617 464.955,38.8284 465.5,42.5C 468.052,42.3545 470.385,41.8545 472.5,41C 470.652,42.4925 469.819,44.3259 470,46.5C 470.77,45.4019 471.603,45.4019 472.5,46.5 Z"/></g>
<g><path style="opacity:1" fill="#afd7d8" d="M 475.5,39.5 C 476.452,40.452 477.452,41.452 478.5,42.5C 478,42.8333 477.5,43.1667 477,43.5C 475.829,42.6604 474.662,41.8271 473.5,41C 474.416,40.7216 475.082,40.2216 475.5,39.5 Z"/></g>
<g><path style="opacity:1" fill="#7bbebf" d="M 414.5,42.5 C 414.667,59.8365 414.5,77.1699 414,94.5C 413.5,95 413,95.5 412.5,96C 407.467,96.8289 402.467,96.6623 397.5,95.5C 402.132,94.6717 406.798,94.1717 411.5,94C 412.056,93.6174 412.389,93.1174 412.5,92.5C 413.167,75.8333 413.833,59.1667 414.5,42.5 Z"/></g>
<g><path style="opacity:1" fill="#c8e3e4" d="M 119.5,49.5 C 119.5,47.1667 119.5,44.8333 119.5,42.5C 117.517,42.8432 116.183,42.1765 115.5,40.5C 121.883,38.3474 127.549,39.8474 132.5,45C 129.988,44.1742 127.321,43.3409 124.5,42.5C 123.184,45.028 122.017,45.028 121,42.5C 120.313,44.5675 120.48,46.5675 121.5,48.5C 121.043,49.2975 120.376,49.6309 119.5,49.5 Z"/></g>
<g><path style="opacity:1" fill="#b4d9da" d="M 460.5,40.5 C 461.043,40.56 461.376,40.8933 461.5,41.5C 460.891,45.6347 460.224,49.6347 459.5,53.5C 459.231,49.0685 459.564,44.7352 460.5,40.5 Z"/></g>
<g><path style="opacity:1" fill="#bbdddd" d="M 463.5,45.5 C 462.833,47.8333 462.167,50.1667 461.5,52.5C 461.335,49.4816 461.502,46.4816 462,43.5C 462.717,44.0442 463.217,44.7109 463.5,45.5 Z"/></g>
<g><path style="opacity:1" fill="#82c1c2" d="M 483.5,43.5 C 483.897,42.475 484.563,42.3083 485.5,43C 487.879,45.0254 488.713,47.5254 488,50.5C 486.476,48.1019 484.976,45.7686 483.5,43.5 Z"/></g>
<g><path style="opacity:1" fill="#b7dbdc" d="M 88.5,42.5 C 87.8333,59.1667 87.1667,75.8333 86.5,92.5C 86.1672,75.4869 86.5005,58.4869 87.5,41.5C 88.1067,41.6236 88.44,41.9569 88.5,42.5 Z"/></g>
<g><path style="opacity:1" fill="#bcdede" d="M 110.5,46.5 C 109.047,47.8249 109.381,48.6582 111.5,49C 109.703,49.2308 108.036,50.0642 106.5,51.5C 105.708,50.3002 105.708,48.9669 106.5,47.5C 107.833,47.1667 109.167,46.8333 110.5,46.5 Z"/></g>
<g><path style="opacity:1" fill="#c1e0e0" d="M 323.5,46.5 C 324.473,47.7914 325.473,47.7914 326.5,46.5C 326.109,47.7185 326.776,48.5518 328.5,49C 326.703,49.2308 325.036,50.0642 323.5,51.5C 322.948,49.9974 322.948,48.3307 323.5,46.5 Z"/></g>
<g><path style="opacity:1" fill="#dceeee" d="M 336.5,45.5 C 338.088,46.6353 338.421,47.9686 337.5,49.5C 336.571,48.3112 336.238,46.9778 336.5,45.5 Z"/></g>
<g><path style="opacity:1" fill="#bedfdf" d="M 371.5,45.5 C 372.364,46.6883 373.364,47.8549 374.5,49C 374.619,50.2812 374.119,51.4479 373,52.5C 370.697,50.4528 370.197,48.1194 371.5,45.5 Z"/></g>
<g><path style="opacity:1" fill="#9ecfcf" d="M 472.5,47.5 C 472.5,47.1667 472.5,46.8333 472.5,46.5C 473.915,46.906 475.081,46.2393 476,44.5C 478.123,45.8834 479.123,47.55 479,49.5C 479.333,48.1667 479.667,46.8333 480,45.5C 481.641,48.5827 480.808,51.0827 477.5,53C 479.002,53.5831 480.335,54.4164 481.5,55.5C 479.157,56.7253 477.323,56.0586 476,53.5C 475.282,54.4506 474.449,54.6172 473.5,54C 474.328,53.0853 475.328,52.4186 476.5,52C 475.421,50.1413 474.088,48.6413 472.5,47.5 Z"/></g>
<g><path style="opacity:1" fill="#b8dcdc" d="M 254.5,48.5 C 255.497,47.2875 256.497,47.4542 257.5,49C 257.619,50.2812 257.119,51.4479 256,52.5C 255.139,51.2524 254.639,49.9191 254.5,48.5 Z"/></g>
<g><path style="opacity:1" fill="#aed7d7" d="M 210.5,53.5 C 209.833,53.5 209.167,53.5 208.5,53.5C 207.773,50.524 208.773,50.024 211.5,52C 210.944,52.3826 210.611,52.8826 210.5,53.5 Z"/></g>
<g><path style="opacity:1" fill="#badddd" d="M 368.5,59.5 C 365.613,60.9682 364.28,59.9682 364.5,56.5C 364.667,55.5 364.833,54.5 365,53.5C 365.654,54.6956 366.154,54.6956 366.5,53.5C 363.869,51.9954 364.203,51.3287 367.5,51.5C 367.687,49.4357 368.187,47.4357 369,45.5C 369.167,46.1667 369.333,46.8333 369.5,47.5C 368.448,49.2234 368.448,50.8901 369.5,52.5C 367.009,53.5407 367.009,54.3741 369.5,55C 368.529,56.2036 367.529,56.7036 366.5,56.5C 367.612,57.2652 368.279,58.2652 368.5,59.5 Z"/></g>
<g><path style="opacity:1" fill="#86c3c4" d="M 264.5,41.5 C 266.888,42.2187 268.388,43.8854 269,46.5C 270.362,50.058 271.862,53.558 273.5,57C 273.167,57.5 272.833,58 272.5,58.5C 269.537,52.9103 266.87,47.2437 264.5,41.5 Z"/></g>
<g><path style="opacity:1" fill="#a9d4d5" d="M 41.5,55.5 C 41.7804,52.6118 40.4471,51.1118 37.5,51C 38.1258,50.2496 38.6258,49.4162 39,48.5C 40.1968,50.7916 41.8635,51.1249 44,49.5C 45.0588,49.6301 45.8921,50.1301 46.5,51C 42.666,53.2659 42.9993,53.9326 47.5,53C 47.1667,53.3333 46.8333,53.6667 46.5,54C 47.3128,55.3139 48.3128,56.4805 49.5,57.5C 48.273,58.5904 47.4396,59.9238 47,61.5C 46.5459,59.2294 45.8793,56.8961 45,54.5C 43.8552,54.6191 42.6885,54.9524 41.5,55.5 Z"/></g>
<g><path style="opacity:1" fill="#f9fcfc" d="M 109.5,75.5 C 109.5,74.8333 109.833,74.5 110.5,74.5C 110.56,75.0431 110.893,75.3764 111.5,75.5C 112.167,69.1667 112.833,62.8333 113.5,56.5C 120.065,54.7464 120.065,53.913 113.5,54C 111.574,54.4224 110.574,55.5891 110.5,57.5C 109.662,57.1583 109.328,56.4916 109.5,55.5C 109.953,54.5416 110.619,53.7083 111.5,53C 120.922,51.4273 124.589,55.4273 122.5,65C 124.797,74.8352 121.13,79.1685 111.5,78C 110.619,77.2917 109.953,76.4584 109.5,75.5 Z"/></g>
<g><path style="opacity:1" fill="#e2f1f1" d="M 208.5,53.5 C 209.167,53.5 209.833,53.5 210.5,53.5C 211.562,54.5754 211.562,55.5754 210.5,56.5C 209.117,53.9244 208.283,54.2577 208,57.5C 207.691,56.2341 207.191,55.0674 206.5,54C 207.094,53.5357 207.761,53.369 208.5,53.5 Z"/></g>
<g><path style="opacity:1" fill="#fafcfc" d="M 326.5,75.5 C 326.263,74.209 326.596,73.209 327.5,72.5C 327.281,73.675 327.614,74.675 328.5,75.5C 329.33,69.5275 329.83,63.5275 330,57.5C 331.826,55.9262 333.993,55.0929 336.5,55C 333.612,53.0363 330.779,53.2029 328,55.5C 327.517,56.448 327.351,57.448 327.5,58.5C 326.596,57.791 326.263,56.791 326.5,55.5C 326.953,54.5416 327.619,53.7083 328.5,53C 338.251,51.1003 341.917,55.1003 339.5,65C 341.797,74.8352 338.13,79.1685 328.5,78C 327.619,77.2917 326.953,76.4584 326.5,75.5 Z"/></g>
<g><path style="opacity:1" fill="#8ac5c6" d="M 47.5,41.5 C 49.4109,41.5743 50.5776,42.5743 51,44.5C 52.6959,48.7253 54.5293,52.892 56.5,57C 56.1667,57.5 55.8333,58 55.5,58.5C 52.5533,52.9411 49.8866,47.2744 47.5,41.5 Z"/></g>
<g><path style="opacity:1" fill="#87c4c4" d="M 110.5,74.5 C 110.5,68.8333 110.5,63.1667 110.5,57.5C 110.574,55.5891 111.574,54.4224 113.5,54C 120.065,53.913 120.065,54.7464 113.5,56.5C 112.833,62.8333 112.167,69.1667 111.5,75.5C 110.893,75.3764 110.56,75.0431 110.5,74.5 Z"/></g>
<g><path style="opacity:1" fill="#cbe5e5" d="M 124.5,49.5 C 127.495,47.9827 128.661,48.9827 128,52.5C 127.444,50.4049 126.944,50.2382 126.5,52C 126.905,52.9454 127.572,53.6121 128.5,54C 127.382,55.0736 126.382,56.2402 125.5,57.5C 125.232,54.7232 124.899,52.0565 124.5,49.5 Z"/></g>
<g><path style="opacity:1" fill="#9bcdce" d="M 231.5,56.5 C 226.637,56.8195 221.97,56.4861 217.5,55.5C 224.648,54.5084 231.981,54.175 239.5,54.5C 239.174,50.1161 239.508,45.7828 240.5,41.5C 241.086,41.7093 241.586,42.0426 242,42.5C 242.629,46.8706 242.463,51.204 241.5,55.5C 238.214,56.2071 234.881,56.5405 231.5,56.5 Z"/></g>
<g><path style="opacity:1" fill="#83c2c2" d="M 327.5,72.5 C 327.5,67.8333 327.5,63.1667 327.5,58.5C 327.351,57.448 327.517,56.448 328,55.5C 330.779,53.2029 333.612,53.0363 336.5,55C 333.993,55.0929 331.826,55.9262 330,57.5C 329.83,63.5275 329.33,69.5275 328.5,75.5C 327.614,74.675 327.281,73.675 327.5,72.5 Z"/></g>
<g><path style="opacity:1" fill="#c6e3e3" d="M 341.5,46.5 C 343.389,47.4009 344.722,48.9009 345.5,51C 345.108,52.0105 344.441,52.5105 343.5,52.5C 344.025,53.1924 344.692,53.6924 345.5,54C 344.382,55.0736 343.382,56.2402 342.5,57.5C 342.629,53.873 342.296,50.2063 341.5,46.5 Z"/></g>
<g><path style="opacity:1" fill="#97cccc" d="M 458.5,54.5 C 458.5,54.8333 458.5,55.1667 458.5,55.5C 456.393,56.4682 454.059,56.8016 451.5,56.5C 446.637,56.8195 441.97,56.4861 437.5,55.5C 444.313,54.5088 451.313,54.1755 458.5,54.5 Z"/></g>
<g><path style="opacity:1" fill="#bfdfe0" d="M 30.5,54.5 C 32.337,54.6395 32.6704,55.3061 31.5,56.5C 30.7025,56.0431 30.3691,55.3764 30.5,54.5 Z"/></g>
<g><path style="opacity:1" fill="#9ecfcf" d="M 183.5,53.5 C 184.5,53.5 185.5,53.5 186.5,53.5C 186.5,54.5 186.5,55.5 186.5,56.5C 184.085,56.6265 181.751,56.7932 179.5,57C 180.731,55.5952 182.064,54.4286 183.5,53.5 Z"/></g>
<g><path style="opacity:1" fill="#a3d1d2" d="M 195.5,56.5 C 194.833,57.8333 194.167,59.1667 193.5,60.5C 193.663,58.1432 193.497,55.8098 193,53.5C 192.517,54.448 192.351,55.448 192.5,56.5C 191.549,55.0813 191.216,53.4147 191.5,51.5C 192.222,51.0825 192.722,50.4158 193,49.5C 194.411,51.6504 195.245,53.9837 195.5,56.5 Z"/></g>
<g><path style="opacity:1" fill="#c0e0e0" d="M 247.5,54.5 C 249.337,54.6395 249.67,55.3061 248.5,56.5C 247.702,56.0431 247.369,55.3764 247.5,54.5 Z"/></g>
<g><path style="opacity:1" fill="#9ccece" d="M 267.5,66.5 C 267.5,66.8333 267.5,67.1667 267.5,67.5C 265.533,67.2606 263.699,67.5939 262,68.5C 260.221,66.9826 260.721,66.1492 263.5,66C 262.061,65.0094 261.061,63.676 260.5,62C 259.062,61.7811 257.729,61.2811 256.5,60.5C 258.022,58.8437 257.689,57.677 255.5,57C 257.541,55.7582 258.707,53.9249 259,51.5C 259.333,51.8333 259.667,52.1667 260,52.5C 260.249,51.376 260.749,50.376 261.5,49.5C 261.833,49.6667 262.167,49.8333 262.5,50C 263.722,51.6961 264.389,53.6961 264.5,56C 263.898,57.563 263.065,57.3963 262,55.5C 261.833,55.8333 261.667,56.1667 261.5,56.5C 263.728,58.8865 265.728,61.3865 267.5,64C 265.014,64.7051 265.014,65.5384 267.5,66.5 Z"/></g>
<g><path style="opacity:1" fill="#ddeeee" d="M 428.5,52.5 C 430.728,53.3218 431.395,54.6552 430.5,56.5C 429.117,53.9244 428.283,54.2577 428,57.5C 427.691,56.2341 427.191,55.0674 426.5,54C 427.416,53.7216 428.082,53.2216 428.5,52.5 Z"/></g>
<g><path style="opacity:1" fill="#eef6f7" d="M 163.5,53.5 C 166.518,53.3354 169.518,53.502 172.5,54C 173.576,55.7261 173.743,57.5594 173,59.5C 165.69,63.6957 162.523,61.6957 163.5,53.5 Z"/></g>
<g><path style="opacity:1" fill="#8bc5c6" d="M 165.5,55.5 C 167.604,55.2011 169.604,55.5344 171.5,56.5C 169.668,57.2485 168.001,58.2485 166.5,59.5C 165.571,58.3112 165.238,56.9778 165.5,55.5 Z"/></g>
<g><path style="opacity:1" fill="#ddeeef" d="M 217.5,55.5 C 221.97,56.4861 226.637,56.8195 231.5,56.5C 231.5,56.8333 231.5,57.1667 231.5,57.5C 225.974,57.8214 220.64,57.4881 215.5,56.5C 216.167,56.1667 216.833,55.8333 217.5,55.5 Z"/></g>
<g><path style="opacity:1" fill="#8fc7c8" d="M 358.5,51.5 C 359.927,53.1484 360.76,55.1484 361,57.5C 364.603,71.8876 361.103,84.0543 350.5,94C 340.976,98.2753 331.309,98.6087 321.5,95C 329.528,95.9989 337.528,95.6655 345.5,94C 351.392,91.1076 355.559,86.6076 358,80.5C 358.5,70.8391 358.666,61.1724 358.5,51.5 Z"/></g>
<g><path style="opacity:1" fill="#deeeef" d="M 437.5,55.5 C 441.97,56.4861 446.637,56.8195 451.5,56.5C 451.5,56.8333 451.5,57.1667 451.5,57.5C 445.974,57.8214 440.64,57.4881 435.5,56.5C 436.167,56.1667 436.833,55.8333 437.5,55.5 Z"/></g>
<g><path style="opacity:1" fill="#e9f4f4" d="M 512.5,44.5 C 512.5,45.1667 512.833,45.5 513.5,45.5C 508.944,54.2736 504.111,62.9403 499,71.5C 498.829,79.0115 498.329,86.3448 497.5,93.5C 497.784,91.5853 497.451,89.9187 496.5,88.5C 496.334,82.4908 496.501,76.4908 497,70.5C 502.458,61.9029 507.625,53.2362 512.5,44.5 Z"/></g>
<g><path style="opacity:1" fill="#cee6e7" d="M 209.5,58.5 C 209.56,57.9569 209.893,57.6236 210.5,57.5C 212.959,60.7697 212.625,61.103 209.5,58.5 Z"/></g>
<g><path style="opacity:1" fill="#dbeded" d="M 326.5,55.5 C 326.263,56.791 326.596,57.791 327.5,58.5C 327.5,63.1667 327.5,67.8333 327.5,72.5C 326.596,73.209 326.263,74.209 326.5,75.5C 325.167,68.8333 325.167,62.1667 326.5,55.5 Z"/></g>
<g><path style="opacity:1" fill="#cee6e7" d="M 429.5,58.5 C 429.56,57.9569 429.893,57.6236 430.5,57.5C 432.959,60.7697 432.625,61.103 429.5,58.5 Z"/></g>
<g><path style="opacity:1" fill="#d3e9e9" d="M 368.5,59.5 C 369.575,58.4376 370.575,58.4376 371.5,59.5C 370.386,60.7759 369.386,60.7759 368.5,59.5 Z"/></g>
<g><path style="opacity:1" fill="#afd7d8" d="M 41.5,55.5 C 41.9175,56.2216 42.5842,56.7216 43.5,57C 42.4829,58.0495 42.3162,59.2161 43,60.5C 43.3333,59.8333 43.6667,59.1667 44,58.5C 44.49,59.7932 44.6567,61.1266 44.5,62.5C 42.8053,61.9886 41.1386,61.3219 39.5,60.5C 41.0224,58.8437 40.689,57.677 38.5,57C 39.2438,55.9614 40.2438,55.4614 41.5,55.5 Z"/></g>
<g><path style="opacity:1" fill="#9acdcd" d="M 414.5,42.5 C 413.833,59.1667 413.167,75.8333 412.5,92.5C 412.167,75.4869 412.501,58.4869 413.5,41.5C 414.107,41.6236 414.44,41.9569 414.5,42.5 Z"/></g>
<g><path style="opacity:1" fill="#dbeded" d="M 109.5,55.5 C 109.328,56.4916 109.662,57.1583 110.5,57.5C 110.5,63.1667 110.5,68.8333 110.5,74.5C 109.833,74.5 109.5,74.8333 109.5,75.5C 108.167,68.8333 108.167,62.1667 109.5,55.5 Z"/></g>
<g><path style="opacity:1" fill="#a8d4d4" d="M 279.5,60.5 C 280.404,61.209 280.737,62.209 280.5,63.5C 281.675,63.281 282.675,63.6143 283.5,64.5C 282.948,66.3334 282.115,68.0001 281,69.5C 278.977,67.9873 279.144,66.6539 281.5,65.5C 280.5,64.8333 279.5,64.1667 278.5,63.5C 279.127,62.5832 279.461,61.5832 279.5,60.5 Z"/></g>
<g><path style="opacity:1" fill="#c9e4e4" d="M 293.5,63.5 C 295.666,62.3711 297.666,62.8711 299.5,65C 297.231,66.7241 294.897,66.7241 292.5,65C 293.167,64.6667 293.833,64.3333 294.5,64C 294.272,63.6012 293.938,63.4346 293.5,63.5 Z"/></g>
<g><path style="opacity:1" fill="#ecf5f6" d="M 365.5,65.5 C 364.913,64.2334 364.913,63.2334 365.5,62.5C 366.776,63.6136 366.776,64.6136 365.5,65.5 Z"/></g>
<g><path style="opacity:1" fill="#f1f8f8" d="M 44.5,62.5 C 45.4734,62.9867 46.4734,63.4867 47.5,64C 45.8425,64.7252 44.8425,64.2252 44.5,62.5 Z"/></g>
<g><path style="opacity:1" fill="#bbdddd" d="M 179.5,62.5 C 181.074,62.9371 182.241,63.9371 183,65.5C 183.906,63.388 185.406,62.5547 187.5,63C 186.027,63.7096 185.36,64.8762 185.5,66.5C 182.122,67.1089 180.122,65.7756 179.5,62.5 Z"/></g>
<g><path style="opacity:1" fill="#c0e0e0" d="M 368.5,64.5 C 368.389,63.8826 368.056,63.3826 367.5,63C 369.101,62.7266 370.601,62.2266 372,61.5C 372.333,63.9342 371.166,64.9342 368.5,64.5 Z"/></g>
<g><path style="opacity:1" fill="#bedfdf" d="M 428.5,62.5 C 428.56,61.9569 428.893,61.6236 429.5,61.5C 431.535,62.0412 433.535,62.7078 435.5,63.5C 434.726,64.7112 433.893,64.7112 433,63.5C 432.667,64.1667 432.333,64.8333 432,65.5C 430.961,64.2899 429.794,63.2899 428.5,62.5 Z"/></g>
<g><path style="opacity:1" fill="#a9d4d5" d="M 65.5,63.5 C 66.229,65.5433 65.729,67.5433 64,69.5C 61.88,67.3478 59.38,65.8478 56.5,65C 58.9203,64.3131 61.087,64.8131 63,66.5C 64.045,65.6266 64.8783,64.6266 65.5,63.5 Z"/></g>
<g><path style="opacity:1" fill="#abd5d5" d="M 204.5,65.5 C 203.5,66.5 202.5,67.5 201.5,68.5C 201.423,67.2502 200.756,66.4169 199.5,66C 200.967,64.9025 201.801,63.4025 202,61.5C 202.2,63.3197 203.034,64.653 204.5,65.5 Z"/></g>
<g><path style="opacity:1" fill="#e7f3f3" d="M 207.5,64.5 C 207.751,66.1703 208.418,67.6703 209.5,69C 208.258,69.3114 207.258,68.8114 206.5,67.5C 205.893,67.6236 205.56,67.9569 205.5,68.5C 204.883,68.3893 204.383,68.056 204,67.5C 203.392,69.1545 202.892,70.8211 202.5,72.5C 201.566,71.4324 201.232,70.099 201.5,68.5C 202.5,67.5 203.5,66.5 204.5,65.5C 205.609,65.4431 206.609,65.1098 207.5,64.5 Z"/></g>
<g><path style="opacity:1" fill="#dbeded" d="M 50.5,66.5 C 52.332,67.1405 52.6653,68.1405 51.5,69.5C 50.6143,68.675 50.281,67.675 50.5,66.5 Z"/></g>
<g><path style="opacity:1" fill="#e1f0f0" d="M 267.5,66.5 C 269.332,67.1405 269.665,68.1405 268.5,69.5C 267.702,69.0431 267.369,68.3764 267.5,67.5C 267.5,67.1667 267.5,66.8333 267.5,66.5 Z"/></g>
<g><path style="opacity:1" fill="#b6dadb" d="M 290.5,66.5 C 292.658,67.4944 294.658,68.8277 296.5,70.5C 297.696,70.1543 297.696,69.6543 296.5,69C 297.448,68.5172 298.448,68.3505 299.5,68.5C 299.66,70.1992 299.494,71.8659 299,73.5C 298.667,72.8333 298.333,72.1667 298,71.5C 295.269,71.1012 292.435,71.1012 289.5,71.5C 288.585,70.6721 287.919,69.6721 287.5,68.5C 287.938,67.4937 288.604,67.4937 289.5,68.5C 290.298,68.0431 290.631,67.3764 290.5,66.5 Z"/></g>
<g><path style="opacity:1" fill="#bfdfdf" d="M 76.5,63.5 C 78.2637,62.2878 79.9303,62.6212 81.5,64.5C 82.6548,67.4459 82.8214,70.4459 82,73.5C 81.3946,71.5188 80.3946,71.1854 79,72.5C 76.6069,70.6331 74.1069,69.9665 71.5,70.5C 69.9893,68.1625 70.3227,67.4958 72.5,68.5C 73.1924,67.9747 73.6924,67.3081 74,66.5C 74.5079,68.9042 75.6745,69.5709 77.5,68.5C 78.2575,69.8114 79.2575,70.3114 80.5,70C 79.3659,68.984 79.6992,68.3173 81.5,68C 79.779,66.4728 77.779,65.4728 75.5,65C 76.1667,64.6667 76.8333,64.3333 77.5,64C 77.2716,63.6012 76.9382,63.4346 76.5,63.5 Z"/></g>
<g><path style="opacity:1" fill="#c4e2e2" d="M 208.5,72.5 C 207.211,71.3634 206.211,70.0301 205.5,68.5C 205.56,67.9569 205.893,67.6236 206.5,67.5C 207.258,68.8114 208.258,69.3114 209.5,69C 208.418,67.6703 207.751,66.1703 207.5,64.5C 207.415,63.0047 208.081,62.0047 209.5,61.5C 211.535,62.0412 213.535,62.7078 215.5,63.5C 214.047,63.0598 212.881,63.7265 212,65.5C 211.163,63.9926 209.996,63.4926 208.5,64C 211.265,65.9756 213.265,68.4756 214.5,71.5C 212.585,71.3163 210.585,71.6497 208.5,72.5 Z"/></g>
<g><path style="opacity:1" fill="#cee7e7" d="M 428.5,62.5 C 429.891,64.921 430.725,67.5877 431,70.5C 432.483,68.0542 433.649,68.3876 434.5,71.5C 432.585,71.3163 430.585,71.6497 428.5,72.5C 426.992,71.2536 425.492,69.9203 424,68.5C 423.209,69.745 422.709,71.0783 422.5,72.5C 421.773,70.6766 421.439,68.8432 421.5,67C 424.585,66.4697 426.918,64.9697 428.5,62.5 Z"/></g>
<g><path style="opacity:1" fill="#add6d7" d="M 143.5,56.5 C 142.833,62.8333 142.167,69.1667 141.5,75.5C 141.334,67.4931 141.5,59.4931 142,51.5C 143.009,53.0249 143.509,54.6916 143.5,56.5 Z"/></g>
<g><path style="opacity:1" fill="#d5eaea" d="M 304.5,42.5 C 304.83,59.3417 304.497,76.0084 303.5,92.5C 303.81,89.2869 303.477,86.2869 302.5,83.5C 302.5,73.8333 302.5,64.1667 302.5,54.5C 303.167,50.5 303.833,46.5 304.5,42.5 Z"/></g>
<g><path style="opacity:1" fill="#afd7d8" d="M 174.5,66.5 C 176.359,67.8478 178.359,69.0145 180.5,70C 178.519,70.6054 178.185,71.6054 179.5,73C 176.793,73.3283 174.126,72.995 171.5,72C 173.5,71.6667 175.5,71.3333 177.5,71C 175.624,70.0816 174.624,68.5816 174.5,66.5 Z"/></g>
<g><path style="opacity:1" fill="#a5d2d3" d="M 205.5,68.5 C 206.211,70.0301 207.211,71.3634 208.5,72.5C 208.5,73.1667 208.5,73.8333 208.5,74.5C 207.739,75.3909 206.739,76.0576 205.5,76.5C 204.545,75.128 203.545,73.7947 202.5,72.5C 202.892,70.8211 203.392,69.1545 204,67.5C 204.383,68.056 204.883,68.3893 205.5,68.5 Z"/></g>
<g><path style="opacity:1" fill="#d1e8e8" d="M 368.5,64.5 C 368.369,65.2389 368.536,65.9056 369,66.5C 370.333,65.8333 371.667,65.1667 373,64.5C 373.448,66.4089 372.615,67.5756 370.5,68C 372.066,68.6082 373.4,69.4415 374.5,70.5C 372.878,71.1224 371.545,72.1224 370.5,73.5C 369.655,75.9117 369.655,78.0784 370.5,80C 368.941,81.7557 367.274,81.7557 365.5,80C 366.5,79.6667 367.5,79.3333 368.5,79C 366.725,74.8514 365.059,70.8514 363.5,67C 364.044,66.2828 364.711,65.7828 365.5,65.5C 365.56,66.0431 365.893,66.3764 366.5,66.5C 367.182,65.7573 367.849,65.0906 368.5,64.5 Z"/></g>
<g><path style="opacity:1" fill="#a3d1d2" d="M 428.5,72.5 C 429.379,74.228 430.046,76.0614 430.5,78C 430.472,79.0698 430.139,79.9032 429.5,80.5C 429.25,79.0779 428.417,78.0779 427,77.5C 426,77.8333 425,78.1667 424,78.5C 423.28,76.8876 423.446,75.3876 424.5,74C 423.584,73.7216 422.918,73.2216 422.5,72.5C 422.709,71.0783 423.209,69.745 424,68.5C 425.492,69.9203 426.992,71.2536 428.5,72.5 Z"/></g>
<g><path style="opacity:1" fill="#84c2c3" d="M 497.5,93.5 C 498.329,86.3448 498.829,79.0115 499,71.5C 504.111,62.9403 508.944,54.2736 513.5,45.5C 516.505,40.2298 517.338,40.2298 516,45.5C 511,54.1667 506,62.8333 501,71.5C 500.667,79.1667 500.333,86.8333 500,94.5C 499.5,95 499,95.5 498.5,96C 493.136,96.8295 487.802,96.6628 482.5,95.5C 487.651,94.8332 492.651,94.1665 497.5,93.5 Z"/></g>
<g><path style="opacity:1" fill="#e6f3f3" d="M 47.5,79.5 C 46.8333,79.5 46.5,79.8333 46.5,80.5C 45.6618,80.8417 45.3284,81.5084 45.5,82.5C 44.8333,85.1667 44.1667,87.8333 43.5,90.5C 43.7677,84.6182 43.4344,78.7849 42.5,73C 42.8333,72.5 43.1667,72 43.5,71.5C 45.3716,73.9099 46.705,76.5766 47.5,79.5 Z"/></g>
<g><path style="opacity:1" fill="#a9d4d5" d="M 370.5,73.5 C 371.545,72.1224 372.878,71.1224 374.5,70.5C 376.108,69.4619 377.108,70.1286 377.5,72.5C 376.975,73.1924 376.308,73.6924 375.5,74C 376.167,75.6667 376.833,77.3333 377.5,79C 374.086,79.2324 373.419,78.3991 375.5,76.5C 374.06,75.0476 372.394,74.0476 370.5,73.5 Z"/></g>
<g><path style="opacity:1" fill="#c9e4e4" d="M 143.5,58.5 C 144.167,59.1667 144.833,59.8333 145.5,60.5C 145.5,62.1667 145.5,63.8333 145.5,65.5C 144.833,68.8333 144.167,72.1667 143.5,75.5C 143.5,69.8333 143.5,64.1667 143.5,58.5 Z"/></g>
<g><path style="opacity:1" fill="#7ebfc0" d="M 235.5,75.5 C 230.305,75.8205 225.305,75.4872 220.5,74.5C 225.179,74.6658 229.845,74.4992 234.5,74C 235.139,69.8794 235.805,65.7127 236.5,61.5C 237.661,65.7953 237.828,70.1287 237,74.5C 236.617,75.056 236.117,75.3893 235.5,75.5 Z"/></g>
<g><path style="opacity:1" fill="#7ebfc0" d="M 455.5,75.5 C 450.305,75.8205 445.305,75.4872 440.5,74.5C 445.179,74.6658 449.845,74.4992 454.5,74C 455.139,69.8794 455.805,65.7127 456.5,61.5C 457.661,65.7953 457.828,70.1287 457,74.5C 456.617,75.056 456.117,75.3893 455.5,75.5 Z"/></g>
<g><path style="opacity:1" fill="#abd5d6" d="M 208.5,74.5 C 209.947,75.1342 210.613,76.3009 210.5,78C 210.472,79.0698 210.139,79.9032 209.5,80.5C 208.85,78.5648 208.517,76.5648 208.5,74.5 Z"/></g>
<g><path style="opacity:1" fill="#b7dbdc" d="M 220.5,74.5 C 225.305,75.4872 230.305,75.8205 235.5,75.5C 229.654,76.8166 223.654,76.8166 217.5,75.5C 218.325,74.6143 219.325,74.281 220.5,74.5 Z"/></g>
<g><path style="opacity:1" fill="#b7dbdc" d="M 440.5,74.5 C 445.305,75.4872 450.305,75.8205 455.5,75.5C 449.654,76.8166 443.654,76.8166 437.5,75.5C 438.325,74.6143 439.325,74.281 440.5,74.5 Z"/></g>
<g><path style="opacity:1" fill="#96cbcb" d="M 176.5,75.5 C 178.713,75.848 180.713,76.6813 182.5,78C 181.874,78.7504 181.374,79.5838 181,80.5C 178.562,79.1337 178.062,79.6337 179.5,82C 179.37,83.0588 178.87,83.8921 178,84.5C 176.18,83.0981 174.346,81.7648 172.5,80.5C 172.667,80.1667 172.833,79.8333 173,79.5C 173.689,80.3567 174.522,81.0233 175.5,81.5C 176.466,79.604 176.799,77.604 176.5,75.5 Z"/></g>
<g><path style="opacity:1" fill="#80c0c1" d="M 166.5,79.5 C 166.5,84.5 166.5,89.5 166.5,94.5C 166.389,95.1174 166.056,95.6174 165.5,96C 160.136,96.8295 154.802,96.6628 149.5,95.5C 154.467,94.671 159.467,94.171 164.5,94C 165.098,88.4891 165.764,83.6558 166.5,79.5 Z"/></g>
<g><path style="opacity:1" fill="#d4e9ea" d="M 209.5,80.5 C 209.304,82.6456 208.304,82.8122 206.5,81C 207.448,80.5172 208.448,80.3505 209.5,80.5 Z"/></g>
<g><path style="opacity:1" fill="#92c9ca" d="M 380.5,79.5 C 381.496,79.4142 382.329,79.7476 383,80.5C 386.967,95.6963 381.467,100.696 366.5,95.5C 371.12,94.5067 375.786,94.1734 380.5,94.5C 380.5,89.5 380.5,84.5 380.5,79.5 Z"/></g>
<g><path style="opacity:1" fill="#cfe7e7" d="M 429.5,80.5 C 429.304,82.6456 428.304,82.8122 426.5,81C 427.448,80.5172 428.448,80.3505 429.5,80.5 Z"/></g>
<g><path style="opacity:1" fill="#81c1c2" d="M 46.5,80.5 C 47.7612,85.6982 47.7612,90.8649 46.5,96C 41.1357,96.8295 35.8023,96.6628 30.5,95.5C 35.1315,94.6717 39.7982,94.1717 44.5,94C 45.4601,90.27 45.7935,86.4367 45.5,82.5C 45.3284,81.5084 45.6618,80.8417 46.5,80.5 Z"/></g>
<g><path style="opacity:1" fill="#80c0c1" d="M 282.5,80.5 C 283.887,82.4888 283.553,84.3221 281.5,86C 277.789,86.8253 274.122,86.6586 270.5,85.5C 273.785,84.6764 277.118,84.1764 280.5,84C 281.305,82.8873 281.972,81.7206 282.5,80.5 Z"/></g>
<g><path style="opacity:1" fill="#a5d3d3" d="M 166.5,79.5 C 166.833,79.5 167.167,79.5 167.5,79.5C 168.167,79.5 168.5,79.8333 168.5,80.5C 167.833,85.1667 167.167,89.8333 166.5,94.5C 166.5,89.5 166.5,84.5 166.5,79.5 Z"/></g>
<g><path style="opacity:1" fill="#84c2c3" d="M 240.5,81.5 C 241.805,83.3972 242.471,85.7305 242.5,88.5C 242.473,91.0895 242.139,93.5895 241.5,96C 228.154,96.8327 214.821,96.666 201.5,95.5C 214.154,94.6674 226.82,94.1674 239.5,94C 240.464,89.9341 240.797,85.7675 240.5,81.5 Z"/></g>
<g><path style="opacity:1" fill="#82c1c2" d="M 262.5,80.5 C 263.222,80.9175 263.722,81.5842 264,82.5C 264.667,86.8333 264.667,91.1667 264,95.5C 258.554,96.8059 253.054,96.8059 247.5,95.5C 252.132,94.6717 256.798,94.1717 261.5,94C 262.467,89.5986 262.8,85.0986 262.5,80.5 Z"/></g>
<g><path style="opacity:1" fill="#84c2c3" d="M 460.5,81.5 C 461.805,83.3972 462.471,85.7305 462.5,88.5C 462.473,91.0895 462.139,93.5895 461.5,96C 448.154,96.8327 434.821,96.666 421.5,95.5C 434.154,94.6674 446.82,94.1674 459.5,94C 460.464,89.9341 460.797,85.7675 460.5,81.5 Z"/></g>
<g><path style="opacity:1" fill="#83c2c3" d="M 64.5,80.5 C 67.0168,82.0771 67.0168,83.9104 64.5,86C 60.3092,86.9216 56.3092,86.5882 52.5,85C 56.1667,84.6667 59.8333,84.3333 63.5,84C 64.3366,82.9887 64.67,81.8221 64.5,80.5 Z"/></g>
<g><path style="opacity:1" fill="#c1e0e1" d="M 74.5,86.5 C 76.9752,86.7467 76.9752,87.4134 74.5,88.5C 73.537,88.0302 73.537,87.3635 74.5,86.5 Z"/></g>
<g><path style="opacity:1" fill="#c6e3e3" d="M 291.5,86.5 C 293.975,86.7467 293.975,87.4134 291.5,88.5C 290.537,88.0302 290.537,87.3635 291.5,86.5 Z"/></g>
<g><path style="opacity:1" fill="#acd6d6" d="M 369.5,86.5 C 372.166,86.0658 373.333,87.0658 373,89.5C 371.684,86.972 370.517,86.972 369.5,89.5C 368.205,88.9017 366.872,88.4017 365.5,88C 367.058,87.79 368.391,87.29 369.5,86.5 Z"/></g>
<g><path style="opacity:1" fill="#83c1c2" d="M 143.5,56.5 C 143.5,57.1667 143.5,57.8333 143.5,58.5C 143.5,64.1667 143.5,69.8333 143.5,75.5C 141.486,89.8402 133.152,97.1735 118.5,97.5C 113.643,97.6283 108.977,96.795 104.5,95C 111.114,95.5429 117.781,95.5429 124.5,95C 134.651,92.3524 140.318,85.8524 141.5,75.5C 142.167,69.1667 142.833,62.8333 143.5,56.5 Z"/></g>
</svg>
