<svg xmlns="http://www.w3.org/2000/svg" width="545" height="138" viewBox="0 0 545 138" version="1.1"><path d="M 116.821 43.395 C 110.604 45.069, 105.206 49.334, 102.913 54.384 C 101.410 57.695, 101.042 60.945, 101.032 71 C 101.021 82.111, 101.286 84.073, 103.420 88.655 C 106.505 95.280, 112.221 98.849, 121.614 100.014 C 133.975 101.547, 144.116 97.050, 148.750 87.980 C 150.717 84.130, 150.999 82.062, 150.990 71.538 C 150.982 60.978, 150.689 58.874, 148.606 54.401 C 145.942 48.678, 142.727 45.990, 135.715 43.618 C 130.094 41.717, 123.347 41.638, 116.821 43.395 M 337 42.871 C 328.958 44.614, 322.614 50.192, 320.473 57.404 C 318.555 63.861, 318.583 78.231, 320.525 84.771 C 323.517 94.846, 331.202 99.936, 343.775 100.168 C 355.324 100.381, 362.056 97.163, 366.746 89.185 C 369.374 84.715, 369.499 83.904, 369.479 71.500 C 369.457 57.733, 368.659 54.684, 363.633 49.153 C 358.548 43.557, 346.715 40.766, 337 42.871 M 38 43.979 C 36.735 44.778, 36.485 48.895, 36.405 70.199 C 36.353 84.099, 36.523 96.283, 36.782 97.274 C 37.196 98.856, 38.250 99.041, 45.377 98.788 L 53.500 98.500 53.387 88.220 C 53.325 82.567, 53.534 78.201, 53.851 78.518 C 54.169 78.835, 55.570 81.211, 56.964 83.798 L 59.500 88.500 65.775 88.798 L 72.049 89.097 75.037 82.798 L 78.026 76.500 77.637 84.500 C 77.423 88.900, 77.471 93.979, 77.743 95.787 L 78.238 99.074 86.869 98.787 L 95.500 98.500 95.767 72.123 C 95.955 53.500, 95.699 45.342, 94.894 44.373 C 93.658 42.883, 81.453 42.425, 79.309 43.788 C 78.654 44.205, 75.651 49.774, 72.637 56.165 C 69.622 62.557, 66.734 68.046, 66.218 68.365 C 65.703 68.684, 62.867 63.714, 59.917 57.320 C 56.967 50.927, 53.947 45.089, 53.205 44.348 C 51.639 42.782, 40.328 42.507, 38 43.979 M 157.233 43.777 C 156.252 44.444, 156.027 50.714, 156.233 71.569 L 156.500 98.500 164.405 98.795 C 168.753 98.957, 172.715 98.685, 173.211 98.189 C 173.706 97.694, 174.111 93.849, 174.111 89.644 C 174.111 79.726, 175.860 79.469, 180.197 88.750 C 185.019 99.069, 184.917 99, 195.155 99 C 203.558 99, 204 98.892, 204 96.835 C 204 95.645, 202.177 91.349, 199.949 87.290 L 195.899 79.909 198.363 76.980 C 201.864 72.820, 203.290 67.685, 202.805 60.988 C 202.299 53.985, 199.324 49.127, 193.517 45.817 C 189.889 43.748, 187.999 43.497, 174 43.221 C 165.475 43.053, 157.930 43.303, 157.233 43.777 M 209.035 44.934 C 208.410 46.103, 207.976 56.299, 207.941 70.684 L 207.881 94.500 204.284 87.375 L 200.686 80.249 202.704 77.375 C 206.024 72.646, 207.063 68.058, 206.133 62.229 C 205.671 59.331, 204.944 56.631, 204.518 56.229 C 204.092 55.828, 204.050 57.613, 204.425 60.196 C 205.256 65.921, 203.681 72.357, 200.382 76.718 L 197.947 79.935 202.526 89.052 C 208.252 100.453, 207.985 100.994, 196.628 101.015 C 191.011 101.026, 188.963 101.330, 190 102 C 190.825 102.533, 194.767 102.976, 198.760 102.985 C 204.794 102.997, 206.309 102.662, 207.732 101 C 209.340 99.122, 210.682 99, 229.722 99 L 250 99 250.156 94.250 C 250.382 87.328, 249.999 84.620, 248.675 83.778 C 248.029 83.367, 242.887 83.024, 237.250 83.015 C 227.672 83.001, 227 82.869, 227 81 C 227 79.156, 227.667 79, 235.525 79 C 243.458 79, 244.106 78.844, 244.863 76.750 C 245.310 75.513, 245.412 72.025, 245.088 69 L 244.500 63.500 235.750 63.211 C 227.823 62.949, 227 62.738, 227 60.961 C 227 59.133, 227.739 59, 237.893 59 C 246.904 59, 248.891 58.727, 249.393 57.418 C 250.457 54.645, 250.045 45.445, 248.800 44.200 C 247.952 43.352, 242.097 43, 228.835 43 C 211.306 43, 210.002 43.127, 209.035 44.934 M 256.106 44.373 C 255.301 45.342, 255.045 53.500, 255.233 72.123 L 255.500 98.500 263.750 98.790 C 269.919 99.008, 272.034 98.755, 272.136 97.790 C 272.661 92.789, 272.609 86.798, 272.006 82.750 C 271.617 80.138, 271.588 78, 271.941 78 C 272.294 78, 273.808 80.496, 275.304 83.547 L 278.025 89.095 284.262 88.797 L 290.500 88.500 293.040 83.293 C 294.437 80.429, 295.807 77.860, 296.084 77.582 C 296.361 77.305, 296.568 81.899, 296.544 87.789 L 296.500 98.500 305 98.500 L 313.500 98.500 313.767 71.569 C 313.973 50.691, 313.749 44.458, 312.767 43.835 C 310.761 42.561, 299.553 42.871, 297.727 44.250 C 296.816 44.938, 293.597 50.787, 290.573 57.250 C 287.550 63.713, 284.817 69, 284.500 69 C 284.183 69, 281.450 63.713, 278.427 57.250 C 275.403 50.787, 272.184 44.938, 271.273 44.250 C 268.981 42.519, 257.568 42.611, 256.106 44.373 M 375.473 44.043 C 374.962 44.871, 374.470 90.144, 374.895 97.250 C 374.986 98.762, 376.087 99, 382.981 99 C 390.741 99, 390.980 98.928, 391.614 96.402 C 391.973 94.973, 392.038 89.806, 391.760 84.921 C 391.481 80.036, 391.547 76.220, 391.906 76.442 C 392.266 76.664, 395.641 81.831, 399.407 87.923 L 406.255 99 414.521 99 C 421.135 99, 422.907 98.684, 423.393 97.418 C 424.403 94.787, 424.073 48.321, 423.025 45.565 C 422.117 43.177, 421.603 43, 415.596 43 C 406.618 43, 406.245 43.537, 406.638 55.912 C 406.814 61.461, 406.814 66, 406.638 66 C 406.462 66, 403.884 61.905, 400.909 56.899 C 392.761 43.190, 392.525 43, 383.607 43 C 379.487 43, 375.828 43.469, 375.473 44.043 M 431.250 43.662 C 430.293 44.049, 430 50.586, 430 71.583 L 430 99 450.393 99 C 473.461 99, 472 99.578, 472 90.453 C 472 83.524, 471.020 83, 458.066 83 C 448.667 83, 448 82.868, 448 81 C 448 79.161, 448.667 79, 456.300 79 C 461.422 79, 465.059 78.541, 465.800 77.800 C 466.460 77.140, 467 74.080, 467 71 C 467 67.920, 466.460 64.860, 465.800 64.200 C 465.059 63.459, 461.422 63, 456.300 63 C 448.713 63, 448 62.831, 448 61.033 C 448 59.210, 448.825 59.045, 459.250 58.783 L 470.500 58.500 470.799 51.590 C 471.010 46.737, 470.712 44.434, 469.799 43.855 C 468.421 42.980, 433.374 42.805, 431.250 43.662 M 473.496 44.006 C 473.154 44.560, 472.813 48.188, 472.739 52.070 C 472.664 55.952, 472.130 59.435, 471.551 59.812 C 470.973 60.188, 465.775 60.758, 460 61.078 L 449.500 61.659 461.128 61.830 C 474.354 62.023, 474.710 61.846, 475.186 54.799 L 475.500 50.150 483.250 63.714 L 491 77.277 491 86.557 C 491 91.661, 491.273 96.548, 491.607 97.418 C 492.497 99.738, 508.503 99.738, 509.393 97.418 C 509.727 96.548, 510 91.575, 510 86.367 L 510 76.898 519.051 61.303 C 524.029 52.726, 527.868 45.099, 527.582 44.354 C 527.215 43.397, 525.072 43.004, 520.281 43.014 C 510.264 43.034, 509.282 43.507, 506.030 49.880 C 500.641 60.439, 500.738 60.415, 496.622 52.242 C 494.638 48.302, 492.141 44.610, 491.073 44.039 C 488.583 42.706, 474.316 42.680, 473.496 44.006 M 120.306 46.487 L 117.500 48.975 120.583 47.948 C 122.279 47.383, 123.667 46.263, 123.667 45.460 C 123.667 43.552, 123.592 43.574, 120.306 46.487 M 339.139 46.033 C 336.808 47.975, 336.805 48, 338.921 48 C 340.099 48, 341.321 47.328, 341.636 46.506 C 341.952 45.684, 342.682 45.303, 343.259 45.660 C 343.872 46.039, 344.012 45.829, 343.595 45.155 C 342.628 43.589, 341.901 43.732, 339.139 46.033 M 131 45.480 C 131 46.365, 138.745 49.922, 139.352 49.315 C 139.682 48.985, 140.724 49.342, 141.668 50.107 C 143.052 51.231, 143.226 51.238, 142.569 50.146 C 141.208 47.887, 131 43.769, 131 45.480 M 350.471 46.520 C 351.556 47.358, 352.981 47.838, 353.639 47.585 C 354.296 47.333, 355.080 47.765, 355.379 48.546 C 355.692 49.360, 356.600 49.707, 357.507 49.359 C 358.886 48.830, 358.844 48.579, 357.180 47.414 C 356.130 46.678, 353.747 45.833, 351.885 45.536 C 348.693 45.026, 348.612 45.082, 350.471 46.520 M 477 47.094 C 477 47.695, 477.938 48.433, 479.085 48.732 C 480.669 49.147, 480.849 49.480, 479.835 50.123 C 478.791 50.785, 478.779 50.973, 479.782 50.985 C 480.487 50.993, 481.424 51.972, 481.864 53.160 C 482.548 55.010, 482.755 55.082, 483.300 53.660 C 483.650 52.747, 483.501 52, 482.969 52 C 482.436 52, 482 51.325, 482 50.500 C 482 49.675, 482.402 49, 482.893 49 C 483.384 49, 484.086 48.212, 484.452 47.250 C 484.986 45.847, 484.869 45.748, 483.859 46.750 C 482.366 48.232, 477.601 48.455, 478.500 47 C 478.840 46.450, 478.641 46, 478.059 46 C 477.477 46, 477 46.492, 477 47.094 M 129.500 48.403 C 131.150 49.125, 132.712 49.531, 132.971 49.304 C 133.766 48.608, 130.619 47.029, 128.500 47.060 C 126.984 47.083, 127.226 47.408, 129.500 48.403 M 348 47.883 C 348 48.369, 348.900 49.002, 350 49.290 C 352.362 49.907, 352.714 48.488, 350.418 47.607 C 348.319 46.801, 348 46.838, 348 47.883 M 520.494 62.042 L 511.500 77.500 511 89 L 510.500 100.500 502.717 100.793 C 498.085 100.967, 495.174 101.473, 495.526 102.043 C 496.394 103.447, 510.361 103.239, 511.800 101.800 C 512.579 101.021, 513 96.967, 513 90.250 C 513 78.589, 512.638 79.602, 523.192 61.737 C 527.014 55.267, 529.995 49.211, 529.815 48.279 C 529.628 47.306, 525.662 53.162, 520.494 62.042 M 58.059 48.750 C 58.240 51.039, 65.704 65.287, 66.256 64.395 C 66.999 63.192, 60.121 48, 58.833 48 C 58.375 48, 58.027 48.337, 58.059 48.750 M 97 73.893 C 97 103.281, 97.764 101, 87.918 101 C 84.639 101, 82 101.446, 82 102 C 82 103.583, 96.537 103.263, 97.875 101.650 C 98.622 100.750, 99.010 93.168, 99.038 78.900 C 99.100 48.093, 99.097 48, 98 48 C 97.359 48, 97 57.298, 97 73.893 M 250.798 54.250 L 250.500 60.500 240.500 60.786 C 235 60.944, 229.825 61.236, 229 61.437 C 228.175 61.637, 233.125 61.734, 240 61.651 L 252.500 61.500 252.796 54.750 C 252.972 50.728, 252.688 48, 252.093 48 C 251.545 48, 250.961 50.813, 250.798 54.250 M 276.313 48.750 C 276.549 49.163, 278.473 53.100, 280.587 57.500 C 282.756 62.015, 284.579 64.776, 284.772 63.837 C 285.194 61.781, 278.369 48, 276.928 48 C 276.353 48, 276.076 48.337, 276.313 48.750 M 316 73.300 C 316 91.644, 315.670 98.930, 314.800 99.800 C 314.100 100.500, 310.742 101, 306.741 101 C 302.423 101, 300.111 101.370, 300.500 102 C 301.387 103.435, 315.336 103.264, 316.800 101.800 C 318.344 100.256, 318.538 48, 317 48 C 316.360 48, 316 57.100, 316 73.300 M 398 48.499 C 398 49.642, 403.561 58.972, 404.250 58.986 C 405.621 59.012, 405.028 56.904, 402.405 52.428 C 400.204 48.672, 398 46.706, 398 48.499 M 424.767 74.250 L 424.500 100.500 416.717 100.793 C 412.085 100.967, 409.174 101.473, 409.526 102.043 C 410.394 103.447, 424.361 103.239, 425.800 101.800 C 427.329 100.271, 427.539 48, 426.017 48 C 425.404 48, 424.933 57.893, 424.767 74.250 M 498.176 52.250 C 499.805 55.373, 500.495 56.023, 500.779 54.701 C 501.207 52.708, 498.522 48, 496.957 48 C 496.408 48, 496.957 49.913, 498.176 52.250 M 335.079 52.715 C 335.036 53.383, 335.900 54.411, 337 55 C 338.356 55.726, 339 55.737, 339 55.035 C 339 54.466, 338.363 54, 337.583 54 C 336.804 54, 335.940 53.438, 335.662 52.750 C 335.282 51.808, 335.138 51.799, 335.079 52.715 M 354.276 54 C 354.399 55.375, 354.900 56.349, 355.388 56.165 C 355.877 55.980, 356.657 56.430, 357.123 57.165 C 357.709 58.089, 357.974 58.130, 357.985 57.300 C 357.993 56.640, 357.391 55.740, 356.647 55.300 C 355.902 54.860, 355.014 53.825, 354.673 53 C 354.321 52.149, 354.149 52.582, 354.276 54 M 383.116 53.321 C 383.052 54.323, 383.627 55.770, 384.393 56.536 C 385.583 57.726, 385.857 57.654, 386.280 56.039 C 386.611 54.772, 386.345 54.314, 385.474 54.648 C 384.760 54.922, 383.963 54.326, 383.703 53.323 C 383.248 51.562, 383.228 51.562, 383.116 53.321 M 135.619 53.714 C 134.534 54.800, 134.953 56, 136.417 56 C 137.196 56, 138.060 56.563, 138.338 57.250 C 138.723 58.204, 138.861 58.187, 138.921 57.179 C 139.019 55.545, 136.466 52.867, 135.619 53.714 M 151.454 56.926 C 152.792 59.090, 152.363 83.704, 150.925 87.253 C 147.273 96.273, 140.447 101.035, 130.175 101.728 C 126.504 101.976, 121.588 101.736, 119.250 101.196 C 113.585 99.885, 113.764 101.451, 119.443 102.881 C 134.885 106.770, 149.608 99.913, 153.398 87.068 C 156.086 77.956, 155.018 58.365, 151.722 56.328 C 151.103 55.946, 150.996 56.185, 151.454 56.926 M 370.845 68.859 C 371.038 75.968, 370.718 83.327, 370.120 85.540 C 368.718 90.727, 363.837 96.532, 358.653 99.179 C 353.727 101.694, 343.472 102.629, 337 101.152 C 333.089 100.259, 332.744 100.305, 334.362 101.505 C 335.386 102.263, 338.646 103.187, 341.606 103.556 C 351.689 104.816, 360.456 102.271, 366.356 96.371 C 371.941 90.786, 372.500 88.706, 372.500 73.500 C 372.500 65.800, 372.050 58.744, 371.500 57.819 C 370.809 56.657, 370.607 60.067, 370.845 68.859 M 121.223 59.557 C 119.191 60.980, 119 61.930, 119 70.622 C 119 82.575, 119.690 84, 125.478 84 C 131.796 84, 133 81.884, 133 70.777 C 133 63.333, 132.696 61.696, 131 60 C 128.607 57.607, 124.285 57.412, 121.223 59.557 M 339.655 59.829 C 338.348 61.273, 338 63.754, 338 71.629 C 338 78.051, 338.427 82.027, 339.200 82.800 C 339.860 83.460, 342.319 84, 344.665 84 C 350.285 84, 351 82.501, 351 70.721 C 351 62.874, 350.696 61.035, 349.171 59.655 C 346.744 57.458, 341.717 57.550, 339.655 59.829 M 174.485 60.024 C 174.137 60.588, 174.146 62.388, 174.505 64.024 C 175.043 66.473, 175.662 67, 177.998 67 C 182.529 67, 184 66.020, 184 63 C 184 61.382, 183.337 59.960, 182.418 59.607 C 179.923 58.649, 175.181 58.899, 174.485 60.024 M 218.428 60.117 C 217.911 60.954, 218.177 61.146, 219.271 60.726 C 220.151 60.389, 221.091 60.548, 221.360 61.081 C 221.630 61.614, 221.743 61.504, 221.613 60.837 C 221.275 59.112, 219.322 58.671, 218.428 60.117 M 439.625 59.798 C 439.354 60.237, 439.545 61.249, 440.051 62.048 C 440.791 63.219, 440.988 63.113, 441.064 61.500 C 441.115 60.400, 441.386 60.065, 441.664 60.756 C 441.943 61.447, 442.590 61.754, 443.102 61.437 C 443.614 61.121, 443.774 60.443, 443.457 59.931 C 442.753 58.791, 440.300 58.706, 439.625 59.798 M 121.906 61.613 C 120.303 63.544, 119.991 76.972, 121.472 80.277 C 122.245 82.002, 122.584 80.259, 122.984 72.500 L 123.500 62.500 126.250 62.184 C 127.763 62.010, 129 61.447, 129 60.934 C 129 59.357, 123.328 59.900, 121.906 61.613 M 340.035 61.934 C 338.730 64.373, 338.703 78.993, 340 81 C 340.667 82.032, 340.974 79.798, 340.985 73.832 C 341.004 63.173, 341.412 62, 345.107 62 C 346.698 62, 348 61.550, 348 61 C 348 60.450, 346.441 60, 344.535 60 C 342.133 60, 340.753 60.593, 340.035 61.934 M 176 63 C 176 64.100, 176.450 65, 177 65 C 177.550 65, 178 64.550, 178 64 C 178 63.450, 178.900 63, 180 63 C 181.100 63, 182 62.550, 182 62 C 182 61.450, 180.650 61, 179 61 C 176.667 61, 176 61.444, 176 63 M 57.105 64.373 C 56.478 65.129, 56.253 66.497, 56.605 67.414 C 57.012 68.473, 56.790 68.976, 55.998 68.791 C 55.311 68.631, 54.529 69.105, 54.260 69.846 C 53.937 70.733, 54.405 71.067, 55.635 70.827 C 56.843 70.591, 57.518 69.581, 57.552 67.957 C 57.581 66.578, 57.945 64.899, 58.361 64.225 C 59.386 62.567, 58.519 62.669, 57.105 64.373 M 377 65 C 377 66.100, 377.498 67, 378.107 67 C 378.736 67, 378.934 66.269, 378.564 65.306 C 377.960 63.732, 378.042 63.728, 379.730 65.255 C 380.976 66.383, 382.009 66.606, 383.023 65.965 C 384.194 65.224, 384.034 65.027, 382.250 65.015 C 381.012 65.007, 380 64.550, 380 64 C 380 63.450, 379.325 63, 378.500 63 C 377.667 63, 377 63.889, 377 65 M 220 67.603 C 220 67.900, 220.675 68.818, 221.500 69.643 C 222.801 70.944, 223 70.949, 223 69.678 C 223 68.873, 222.325 67.955, 221.500 67.638 C 220.675 67.322, 220 67.306, 220 67.603 M 247 72.882 C 247 76.182, 246.541 79.166, 245.980 79.512 C 245.419 79.859, 241.356 80.274, 236.951 80.434 C 225.639 80.845, 225.774 82, 237.133 82 C 243.163 82, 247.036 81.564, 247.800 80.800 C 249.247 79.353, 249.413 68.373, 248 67.500 C 247.376 67.114, 247 69.137, 247 72.882 M 383.992 67.750 C 383.988 68.162, 382.890 69.007, 381.552 69.628 C 379.628 70.519, 379.010 70.467, 378.591 69.378 C 378.301 68.620, 377.529 68, 376.876 68 C 376.147 68, 376.350 68.729, 377.404 69.894 C 378.971 71.626, 379.370 71.662, 382.059 70.321 C 384.569 69.068, 386.090 67, 384.500 67 C 384.225 67, 383.996 67.338, 383.992 67.750 M 440 68.974 C 440 69.510, 438.650 70.647, 437 71.500 C 434.760 72.658, 434.009 73.741, 434.035 75.776 C 434.071 78.491, 434.075 78.493, 435.321 76.250 C 436.517 74.096, 436.653 74.074, 438.481 75.750 C 440.302 77.419, 440.329 77.418, 439.053 75.726 C 437.451 73.602, 438.210 72.343, 439.879 74.354 C 440.732 75.382, 440.756 76.511, 439.969 78.581 C 438.934 81.303, 438.963 81.343, 440.777 79.702 C 441.811 78.766, 443.635 78, 444.829 78 C 447.190 78, 447.475 77.300, 446.038 75.028 C 445.241 73.767, 445.013 73.803, 444.447 75.278 C 443.381 78.056, 441.907 77.252, 442.562 74.250 C 443.024 72.132, 442.917 71.845, 442.096 73 C 441.149 74.333, 441.016 74.333, 440.900 73 C 440.828 72.175, 440.850 70.713, 440.948 69.750 C 441.046 68.787, 440.872 68, 440.563 68 C 440.253 68, 440 68.438, 440 68.974 M 468 73.891 L 468 79.781 464.250 80.257 C 462.188 80.518, 458.137 80.680, 455.249 80.616 C 452.361 80.552, 449.998 80.838, 449.999 81.250 C 449.999 81.662, 454.227 82, 459.393 82 C 467.036 82, 468.899 81.705, 469.393 80.418 C 470.390 77.819, 470.080 68, 469 68 C 468.447 68, 468 70.630, 468 73.891 M 87.245 70.250 C 87.471 70.938, 88.684 71.650, 89.939 71.834 C 91.405 72.049, 91.979 71.774, 91.542 71.068 C 91.168 70.463, 90.443 70.226, 89.931 70.543 C 89.419 70.859, 89 70.641, 89 70.059 C 89 69.477, 88.513 69, 87.917 69 C 87.321 69, 87.019 69.563, 87.245 70.250 M 305.565 69.895 C 305.260 70.388, 305.721 71.063, 306.588 71.395 C 309.037 72.335, 311.185 72.108, 310.490 70.984 C 310.144 70.425, 309.443 70.226, 308.931 70.543 C 308.419 70.859, 308 70.641, 308 70.059 C 308 68.770, 306.330 68.657, 305.565 69.895 M 215.750 71.162 C 213.535 71.971, 213.003 72.782, 213.015 75.333 C 213.027 77.648, 213.278 78.109, 213.949 77.048 C 214.455 76.249, 214.646 75.237, 214.375 74.798 C 214.104 74.359, 214.359 74, 214.941 74 C 215.523 74, 216 74.450, 216 75 C 216 75.550, 216.477 76, 217.059 76 C 217.641 76, 217.797 75.480, 217.405 74.845 C 216.952 74.114, 217.131 73.963, 217.894 74.435 C 218.821 75.008, 218.799 75.545, 217.799 76.781 C 216.723 78.108, 216.733 78.243, 217.857 77.567 C 218.906 76.935, 219.065 77.288, 218.555 79.125 C 217.952 81.300, 218.015 81.353, 219.308 79.750 C 220.085 78.787, 221.716 78, 222.932 78 C 224.148 78, 225.818 77.325, 226.643 76.500 C 227.468 75.675, 227.751 75, 227.271 75 C 226.792 75, 225.860 75.540, 225.200 76.200 C 224.267 77.133, 224 77.089, 224 76 C 224 74.911, 223.733 74.867, 222.800 75.800 C 222.140 76.460, 221.150 77, 220.600 77 C 220.044 77, 220.133 76.467, 220.800 75.800 C 222.284 74.316, 222.370 72, 220.941 72 C 220.359 72, 220.203 72.520, 220.595 73.155 C 221.052 73.893, 220.868 74.037, 220.086 73.553 C 219.414 73.138, 219.105 72.168, 219.400 71.399 C 220.015 69.798, 219.564 69.769, 215.750 71.162 M 382.250 71.662 C 380.240 72.473, 380.806 75.469, 383.436 77.940 L 385.873 80.229 385.274 77.864 C 384.945 76.564, 384.186 75.128, 383.588 74.674 C 382.822 74.092, 382.870 73.698, 383.750 73.341 C 384.438 73.062, 385 72.421, 385 71.917 C 385 70.932, 384.236 70.861, 382.250 71.662 M 378 73.859 C 378 74.397, 377.727 75.548, 377.393 76.418 C 376.976 77.506, 377.366 78.009, 378.643 78.030 C 380.429 78.060, 380.431 78.101, 378.680 79.119 C 376.996 80.099, 376.984 80.268, 378.524 81.394 C 379.439 82.063, 380.258 83.780, 380.344 85.209 C 380.430 86.639, 380.823 87.609, 381.217 87.365 C 381.612 87.122, 381.659 85.544, 381.322 83.860 C 380.920 81.849, 381.158 80.520, 382.017 79.990 C 383.069 79.339, 383.024 78.881, 381.781 77.638 C 380.933 76.790, 379.936 76.398, 379.566 76.767 C 379.197 77.137, 379.174 76.711, 379.515 75.821 C 379.857 74.931, 379.656 73.905, 379.068 73.542 C 378.481 73.179, 378 73.322, 378 73.859 M 80 74.893 C 80 76.236, 82.252 76.812, 84.446 76.030 C 86.234 75.392, 86.194 75.283, 83.946 74.682 C 80.663 73.803, 80 73.839, 80 74.893 M 299 74.834 C 299 76.565, 300.674 77.061, 303.158 76.065 C 304.754 75.426, 304.969 75.107, 303.832 75.063 C 302.914 75.029, 301.452 74.727, 300.582 74.393 C 299.712 74.059, 299 74.258, 299 74.834 M 87 76.023 C 87 76.595, 87.694 77.329, 88.543 77.655 C 90.889 78.555, 91.164 77.583, 88.955 76.204 C 87.717 75.431, 87 75.365, 87 76.023 M 386.730 77.075 C 387.320 79.331, 388.667 79.656, 388.667 77.543 C 388.667 76.742, 388.118 75.875, 387.447 75.618 C 386.656 75.315, 386.404 75.828, 386.730 77.075 M 176 90.859 C 176 101.055, 176.047 101, 167.334 101 C 162.621 101, 160.109 101.368, 160.500 102 C 161.387 103.435, 175.336 103.264, 176.800 101.800 C 178.269 100.331, 178.441 85.391, 177 84.500 C 176.370 84.111, 176 86.462, 176 90.859 M 392.793 92.717 L 392.500 100.500 385.720 100.796 C 381.744 100.970, 379.183 101.487, 379.529 102.046 C 380.385 103.433, 392.374 103.226, 393.800 101.800 C 395.239 100.361, 395.447 86.394, 394.043 85.526 C 393.473 85.174, 392.967 88.085, 392.793 92.717 M 54.813 93 L 54.500 100.500 47.750 100.796 C 38.541 101.199, 39.174 103, 48.525 103 C 55.682 103, 56.097 102.875, 57.025 100.435 C 58.407 96.800, 58.172 90.933, 56.527 88 C 55.214 85.657, 55.106 85.972, 54.813 93 M 292.703 88.593 C 291.223 90.576, 290.025 91, 285.894 91 C 282.807 91, 281.119 91.384, 281.500 92 C 281.840 92.550, 284.511 93, 287.437 93 C 293.165 93, 295.391 91.538, 294.827 88.148 C 294.521 86.312, 294.385 86.340, 292.703 88.593 M 73.750 89.083 C 72.515 90.436, 70.659 91, 67.441 91 C 64.656 91, 63.122 91.389, 63.500 92 C 63.840 92.550, 66.316 93, 69.002 93 C 72.916 93, 74.196 92.558, 75.443 90.777 C 78.197 86.847, 76.940 85.589, 73.750 89.083 M 273.801 93.523 L 273.500 100.500 266.218 100.794 C 257.257 101.157, 257.474 103, 266.477 103 C 275.776 103, 276.003 102.824, 275.985 95.643 C 275.962 86.570, 274.175 84.836, 273.801 93.523 M 252 92.918 C 252 101.471, 253.171 101, 231.893 101 C 219.964 101, 213 101.369, 213 102 C 213 103.526, 251.266 103.334, 252.800 101.800 C 254.255 100.345, 254.434 88, 253 88 C 252.450 88, 252 90.213, 252 92.918 M 472.798 94.250 L 472.500 100.500 453.204 100.772 C 440.949 100.944, 434.129 101.400, 434.513 102.022 C 435.436 103.515, 472.293 103.307, 473.800 101.800 C 475.222 100.378, 475.444 88, 474.048 88 C 473.524 88, 472.961 90.813, 472.798 94.250" stroke="none" fill="#7abebf" fill-rule="evenodd"/><path d="M 0 69.002 L 0 138.004 272.750 137.752 L 545.500 137.500 545.757 68.750 L 546.014 0 273.007 0 L 0 0 0 69.002 M 0.473 69.500 C 0.473 107.450, 0.598 122.830, 0.750 103.677 C 0.902 84.524, 0.902 53.474, 0.749 34.677 C 0.597 15.880, 0.473 31.550, 0.473 69.500 M 116.821 43.395 C 110.604 45.069, 105.206 49.334, 102.913 54.384 C 101.410 57.695, 101.042 60.945, 101.032 71 C 101.021 82.111, 101.286 84.073, 103.420 88.655 C 106.505 95.280, 112.221 98.849, 121.614 100.014 C 133.975 101.547, 144.116 97.050, 148.750 87.980 C 150.717 84.130, 150.999 82.062, 150.990 71.538 C 150.982 60.978, 150.689 58.874, 148.606 54.401 C 145.942 48.678, 142.727 45.990, 135.715 43.618 C 130.094 41.717, 123.347 41.638, 116.821 43.395 M 337 42.871 C 328.958 44.614, 322.614 50.192, 320.473 57.404 C 318.555 63.861, 318.583 78.231, 320.525 84.771 C 323.517 94.846, 331.202 99.936, 343.775 100.168 C 355.324 100.381, 362.056 97.163, 366.746 89.185 C 369.374 84.715, 369.499 83.904, 369.479 71.500 C 369.457 57.733, 368.659 54.684, 363.633 49.153 C 358.548 43.557, 346.715 40.766, 337 42.871 M 38 43.979 C 36.735 44.778, 36.485 48.895, 36.405 70.199 C 36.353 84.099, 36.523 96.283, 36.782 97.274 C 37.196 98.856, 38.250 99.041, 45.377 98.788 L 53.500 98.500 53.387 88.220 C 53.325 82.567, 53.534 78.201, 53.851 78.518 C 54.169 78.835, 55.570 81.211, 56.964 83.798 L 59.500 88.500 65.775 88.798 L 72.049 89.097 75.037 82.798 L 78.026 76.500 77.637 84.500 C 77.423 88.900, 77.471 93.979, 77.743 95.787 L 78.238 99.074 86.869 98.787 L 95.500 98.500 95.767 72.123 C 95.955 53.500, 95.699 45.342, 94.894 44.373 C 93.658 42.883, 81.453 42.425, 79.309 43.788 C 78.654 44.205, 75.651 49.774, 72.637 56.165 C 69.622 62.557, 66.734 68.046, 66.218 68.365 C 65.703 68.684, 62.867 63.714, 59.917 57.320 C 56.967 50.927, 53.947 45.089, 53.205 44.348 C 51.639 42.782, 40.328 42.507, 38 43.979 M 157.233 43.777 C 156.252 44.444, 156.027 50.714, 156.233 71.569 L 156.500 98.500 164.405 98.795 C 168.753 98.957, 172.715 98.685, 173.211 98.189 C 173.706 97.694, 174.111 93.849, 174.111 89.644 C 174.111 79.726, 175.860 79.469, 180.197 88.750 C 185.019 99.069, 184.917 99, 195.155 99 C 203.558 99, 204 98.892, 204 96.835 C 204 95.645, 202.177 91.349, 199.949 87.290 L 195.899 79.909 198.363 76.980 C 201.864 72.820, 203.290 67.685, 202.805 60.988 C 202.299 53.985, 199.324 49.127, 193.517 45.817 C 189.889 43.748, 187.999 43.497, 174 43.221 C 165.475 43.053, 157.930 43.303, 157.233 43.777 M 209.035 44.934 C 208.410 46.103, 207.976 56.299, 207.941 70.684 L 207.881 94.500 204.284 87.375 L 200.686 80.249 202.704 77.375 C 206.024 72.646, 207.063 68.058, 206.133 62.229 C 205.671 59.331, 204.944 56.631, 204.518 56.229 C 204.092 55.828, 204.050 57.613, 204.425 60.196 C 205.256 65.921, 203.681 72.357, 200.382 76.718 L 197.947 79.935 202.526 89.052 C 208.252 100.453, 207.985 100.994, 196.628 101.015 C 191.011 101.026, 188.963 101.330, 190 102 C 190.825 102.533, 194.767 102.976, 198.760 102.985 C 204.794 102.997, 206.309 102.662, 207.732 101 C 209.340 99.122, 210.682 99, 229.722 99 L 250 99 250.156 94.250 C 250.382 87.328, 249.999 84.620, 248.675 83.778 C 248.029 83.367, 242.887 83.024, 237.250 83.015 C 227.672 83.001, 227 82.869, 227 81 C 227 79.156, 227.667 79, 235.525 79 C 243.458 79, 244.106 78.844, 244.863 76.750 C 245.310 75.513, 245.412 72.025, 245.088 69 L 244.500 63.500 235.750 63.211 C 227.823 62.949, 227 62.738, 227 60.961 C 227 59.133, 227.739 59, 237.893 59 C 246.904 59, 248.891 58.727, 249.393 57.418 C 250.457 54.645, 250.045 45.445, 248.800 44.200 C 247.952 43.352, 242.097 43, 228.835 43 C 211.306 43, 210.002 43.127, 209.035 44.934 M 256.106 44.373 C 255.301 45.342, 255.045 53.500, 255.233 72.123 L 255.500 98.500 263.750 98.790 C 269.919 99.008, 272.034 98.755, 272.136 97.790 C 272.661 92.789, 272.609 86.798, 272.006 82.750 C 271.617 80.138, 271.588 78, 271.941 78 C 272.294 78, 273.808 80.496, 275.304 83.547 L 278.025 89.095 284.262 88.797 L 290.500 88.500 293.040 83.293 C 294.437 80.429, 295.807 77.860, 296.084 77.582 C 296.361 77.305, 296.568 81.899, 296.544 87.789 L 296.500 98.500 305 98.500 L 313.500 98.500 313.767 71.569 C 313.973 50.691, 313.749 44.458, 312.767 43.835 C 310.761 42.561, 299.553 42.871, 297.727 44.250 C 296.816 44.938, 293.597 50.787, 290.573 57.250 C 287.550 63.713, 284.817 69, 284.500 69 C 284.183 69, 281.450 63.713, 278.427 57.250 C 275.403 50.787, 272.184 44.938, 271.273 44.250 C 268.981 42.519, 257.568 42.611, 256.106 44.373 M 375.473 44.043 C 374.962 44.871, 374.470 90.144, 374.895 97.250 C 374.986 98.762, 376.087 99, 382.981 99 C 390.741 99, 390.980 98.928, 391.614 96.402 C 391.973 94.973, 392.038 89.806, 391.760 84.921 C 391.481 80.036, 391.547 76.220, 391.906 76.442 C 392.266 76.664, 395.641 81.831, 399.407 87.923 L 406.255 99 414.521 99 C 421.135 99, 422.907 98.684, 423.393 97.418 C 424.403 94.787, 424.073 48.321, 423.025 45.565 C 422.117 43.177, 421.603 43, 415.596 43 C 406.618 43, 406.245 43.537, 406.638 55.912 C 406.814 61.461, 406.814 66, 406.638 66 C 406.462 66, 403.884 61.905, 400.909 56.899 C 392.761 43.190, 392.525 43, 383.607 43 C 379.487 43, 375.828 43.469, 375.473 44.043 M 431.250 43.662 C 430.293 44.049, 430 50.586, 430 71.583 L 430 99 450.393 99 C 473.461 99, 472 99.578, 472 90.453 C 472 83.524, 471.020 83, 458.066 83 C 448.667 83, 448 82.868, 448 81 C 448 79.161, 448.667 79, 456.300 79 C 461.422 79, 465.059 78.541, 465.800 77.800 C 466.460 77.140, 467 74.080, 467 71 C 467 67.920, 466.460 64.860, 465.800 64.200 C 465.059 63.459, 461.422 63, 456.300 63 C 448.713 63, 448 62.831, 448 61.033 C 448 59.210, 448.825 59.045, 459.250 58.783 L 470.500 58.500 470.799 51.590 C 471.010 46.737, 470.712 44.434, 469.799 43.855 C 468.421 42.980, 433.374 42.805, 431.250 43.662 M 473.496 44.006 C 473.154 44.560, 472.813 48.188, 472.739 52.070 C 472.664 55.952, 472.130 59.435, 471.551 59.812 C 470.973 60.188, 465.775 60.758, 460 61.078 L 449.500 61.659 461.128 61.830 C 474.354 62.023, 474.710 61.846, 475.186 54.799 L 475.500 50.150 483.250 63.714 L 491 77.277 491 86.557 C 491 91.661, 491.273 96.548, 491.607 97.418 C 492.497 99.738, 508.503 99.738, 509.393 97.418 C 509.727 96.548, 510 91.575, 510 86.367 L 510 76.898 519.051 61.303 C 524.029 52.726, 527.868 45.099, 527.582 44.354 C 527.215 43.397, 525.072 43.004, 520.281 43.014 C 510.264 43.034, 509.282 43.507, 506.030 49.880 C 500.641 60.439, 500.738 60.415, 496.622 52.242 C 494.638 48.302, 492.141 44.610, 491.073 44.039 C 488.583 42.706, 474.316 42.680, 473.496 44.006 M 120.306 46.487 L 117.500 48.975 120.583 47.948 C 122.279 47.383, 123.667 46.263, 123.667 45.460 C 123.667 43.552, 123.592 43.574, 120.306 46.487 M 339.139 46.033 C 336.808 47.975, 336.805 48, 338.921 48 C 340.099 48, 341.321 47.328, 341.636 46.506 C 341.952 45.684, 342.682 45.303, 343.259 45.660 C 343.872 46.039, 344.012 45.829, 343.595 45.155 C 342.628 43.589, 341.901 43.732, 339.139 46.033 M 131 45.480 C 131 46.365, 138.745 49.922, 139.352 49.315 C 139.682 48.985, 140.724 49.342, 141.668 50.107 C 143.052 51.231, 143.226 51.238, 142.569 50.146 C 141.208 47.887, 131 43.769, 131 45.480 M 350.471 46.520 C 351.556 47.358, 352.981 47.838, 353.639 47.585 C 354.296 47.333, 355.080 47.765, 355.379 48.546 C 355.692 49.360, 356.600 49.707, 357.507 49.359 C 358.886 48.830, 358.844 48.579, 357.180 47.414 C 356.130 46.678, 353.747 45.833, 351.885 45.536 C 348.693 45.026, 348.612 45.082, 350.471 46.520 M 477 47.094 C 477 47.695, 477.938 48.433, 479.085 48.732 C 480.669 49.147, 480.849 49.480, 479.835 50.123 C 478.791 50.785, 478.779 50.973, 479.782 50.985 C 480.487 50.993, 481.424 51.972, 481.864 53.160 C 482.548 55.010, 482.755 55.082, 483.300 53.660 C 483.650 52.747, 483.501 52, 482.969 52 C 482.436 52, 482 51.325, 482 50.500 C 482 49.675, 482.402 49, 482.893 49 C 483.384 49, 484.086 48.212, 484.452 47.250 C 484.986 45.847, 484.869 45.748, 483.859 46.750 C 482.366 48.232, 477.601 48.455, 478.500 47 C 478.840 46.450, 478.641 46, 478.059 46 C 477.477 46, 477 46.492, 477 47.094 M 129.500 48.403 C 131.150 49.125, 132.712 49.531, 132.971 49.304 C 133.766 48.608, 130.619 47.029, 128.500 47.060 C 126.984 47.083, 127.226 47.408, 129.500 48.403 M 348 47.883 C 348 48.369, 348.900 49.002, 350 49.290 C 352.362 49.907, 352.714 48.488, 350.418 47.607 C 348.319 46.801, 348 46.838, 348 47.883 M 520.494 62.042 L 511.500 77.500 511 89 L 510.500 100.500 502.717 100.793 C 498.085 100.967, 495.174 101.473, 495.526 102.043 C 496.394 103.447, 510.361 103.239, 511.800 101.800 C 512.579 101.021, 513 96.967, 513 90.250 C 513 78.589, 512.638 79.602, 523.192 61.737 C 527.014 55.267, 529.995 49.211, 529.815 48.279 C 529.628 47.306, 525.662 53.162, 520.494 62.042 M 58.059 48.750 C 58.240 51.039, 65.704 65.287, 66.256 64.395 C 66.999 63.192, 60.121 48, 58.833 48 C 58.375 48, 58.027 48.337, 58.059 48.750 M 97 73.893 C 97 103.281, 97.764 101, 87.918 101 C 84.639 101, 82 101.446, 82 102 C 82 103.583, 96.537 103.263, 97.875 101.650 C 98.622 100.750, 99.010 93.168, 99.038 78.900 C 99.100 48.093, 99.097 48, 98 48 C 97.359 48, 97 57.298, 97 73.893 M 250.798 54.250 L 250.500 60.500 240.500 60.786 C 235 60.944, 229.825 61.236, 229 61.437 C 228.175 61.637, 233.125 61.734, 240 61.651 L 252.500 61.500 252.796 54.750 C 252.972 50.728, 252.688 48, 252.093 48 C 251.545 48, 250.961 50.813, 250.798 54.250 M 276.313 48.750 C 276.549 49.163, 278.473 53.100, 280.587 57.500 C 282.756 62.015, 284.579 64.776, 284.772 63.837 C 285.194 61.781, 278.369 48, 276.928 48 C 276.353 48, 276.076 48.337, 276.313 48.750 M 316 73.300 C 316 91.644, 315.670 98.930, 314.800 99.800 C 314.100 100.500, 310.742 101, 306.741 101 C 302.423 101, 300.111 101.370, 300.500 102 C 301.387 103.435, 315.336 103.264, 316.800 101.800 C 318.344 100.256, 318.538 48, 317 48 C 316.360 48, 316 57.100, 316 73.300 M 398 48.499 C 398 49.642, 403.561 58.972, 404.250 58.986 C 405.621 59.012, 405.028 56.904, 402.405 52.428 C 400.204 48.672, 398 46.706, 398 48.499 M 424.767 74.250 L 424.500 100.500 416.717 100.793 C 412.085 100.967, 409.174 101.473, 409.526 102.043 C 410.394 103.447, 424.361 103.239, 425.800 101.800 C 427.329 100.271, 427.539 48, 426.017 48 C 425.404 48, 424.933 57.893, 424.767 74.250 M 498.176 52.250 C 499.805 55.373, 500.495 56.023, 500.779 54.701 C 501.207 52.708, 498.522 48, 496.957 48 C 496.408 48, 496.957 49.913, 498.176 52.250 M 335.079 52.715 C 335.036 53.383, 335.900 54.411, 337 55 C 338.356 55.726, 339 55.737, 339 55.035 C 339 54.466, 338.363 54, 337.583 54 C 336.804 54, 335.940 53.438, 335.662 52.750 C 335.282 51.808, 335.138 51.799, 335.079 52.715 M 354.276 54 C 354.399 55.375, 354.900 56.349, 355.388 56.165 C 355.877 55.980, 356.657 56.430, 357.123 57.165 C 357.709 58.089, 357.974 58.130, 357.985 57.300 C 357.993 56.640, 357.391 55.740, 356.647 55.300 C 355.902 54.860, 355.014 53.825, 354.673 53 C 354.321 52.149, 354.149 52.582, 354.276 54 M 383.116 53.321 C 383.052 54.323, 383.627 55.770, 384.393 56.536 C 385.583 57.726, 385.857 57.654, 386.280 56.039 C 386.611 54.772, 386.345 54.314, 385.474 54.648 C 384.760 54.922, 383.963 54.326, 383.703 53.323 C 383.248 51.562, 383.228 51.562, 383.116 53.321 M 135.619 53.714 C 134.534 54.800, 134.953 56, 136.417 56 C 137.196 56, 138.060 56.563, 138.338 57.250 C 138.723 58.204, 138.861 58.187, 138.921 57.179 C 139.019 55.545, 136.466 52.867, 135.619 53.714 M 151.454 56.926 C 152.792 59.090, 152.363 83.704, 150.925 87.253 C 147.273 96.273, 140.447 101.035, 130.175 101.728 C 126.504 101.976, 121.588 101.736, 119.250 101.196 C 113.585 99.885, 113.764 101.451, 119.443 102.881 C 134.885 106.770, 149.608 99.913, 153.398 87.068 C 156.086 77.956, 155.018 58.365, 151.722 56.328 C 151.103 55.946, 150.996 56.185, 151.454 56.926 M 370.845 68.859 C 371.038 75.968, 370.718 83.327, 370.120 85.540 C 368.718 90.727, 363.837 96.532, 358.653 99.179 C 353.727 101.694, 343.472 102.629, 337 101.152 C 333.089 100.259, 332.744 100.305, 334.362 101.505 C 335.386 102.263, 338.646 103.187, 341.606 103.556 C 351.689 104.816, 360.456 102.271, 366.356 96.371 C 371.941 90.786, 372.500 88.706, 372.500 73.500 C 372.500 65.800, 372.050 58.744, 371.500 57.819 C 370.809 56.657, 370.607 60.067, 370.845 68.859 M 121.223 59.557 C 119.191 60.980, 119 61.930, 119 70.622 C 119 82.575, 119.690 84, 125.478 84 C 131.796 84, 133 81.884, 133 70.777 C 133 63.333, 132.696 61.696, 131 60 C 128.607 57.607, 124.285 57.412, 121.223 59.557 M 339.655 59.829 C 338.348 61.273, 338 63.754, 338 71.629 C 338 78.051, 338.427 82.027, 339.200 82.800 C 339.860 83.460, 342.319 84, 344.665 84 C 350.285 84, 351 82.501, 351 70.721 C 351 62.874, 350.696 61.035, 349.171 59.655 C 346.744 57.458, 341.717 57.550, 339.655 59.829 M 174.485 60.024 C 174.137 60.588, 174.146 62.388, 174.505 64.024 C 175.043 66.473, 175.662 67, 177.998 67 C 182.529 67, 184 66.020, 184 63 C 184 61.382, 183.337 59.960, 182.418 59.607 C 179.923 58.649, 175.181 58.899, 174.485 60.024 M 218.428 60.117 C 217.911 60.954, 218.177 61.146, 219.271 60.726 C 220.151 60.389, 221.091 60.548, 221.360 61.081 C 221.630 61.614, 221.743 61.504, 221.613 60.837 C 221.275 59.112, 219.322 58.671, 218.428 60.117 M 439.625 59.798 C 439.354 60.237, 439.545 61.249, 440.051 62.048 C 440.791 63.219, 440.988 63.113, 441.064 61.500 C 441.115 60.400, 441.386 60.065, 441.664 60.756 C 441.943 61.447, 442.590 61.754, 443.102 61.437 C 443.614 61.121, 443.774 60.443, 443.457 59.931 C 442.753 58.791, 440.300 58.706, 439.625 59.798 M 121.906 61.613 C 120.303 63.544, 119.991 76.972, 121.472 80.277 C 122.245 82.002, 122.584 80.259, 122.984 72.500 L 123.500 62.500 126.250 62.184 C 127.763 62.010, 129 61.447, 129 60.934 C 129 59.357, 123.328 59.900, 121.906 61.613 M 340.035 61.934 C 338.730 64.373, 338.703 78.993, 340 81 C 340.667 82.032, 340.974 79.798, 340.985 73.832 C 341.004 63.173, 341.412 62, 345.107 62 C 346.698 62, 348 61.550, 348 61 C 348 60.450, 346.441 60, 344.535 60 C 342.133 60, 340.753 60.593, 340.035 61.934 M 176 63 C 176 64.100, 176.450 65, 177 65 C 177.550 65, 178 64.550, 178 64 C 178 63.450, 178.900 63, 180 63 C 181.100 63, 182 62.550, 182 62 C 182 61.450, 180.650 61, 179 61 C 176.667 61, 176 61.444, 176 63 M 57.105 64.373 C 56.478 65.129, 56.253 66.497, 56.605 67.414 C 57.012 68.473, 56.790 68.976, 55.998 68.791 C 55.311 68.631, 54.529 69.105, 54.260 69.846 C 53.937 70.733, 54.405 71.067, 55.635 70.827 C 56.843 70.591, 57.518 69.581, 57.552 67.957 C 57.581 66.578, 57.945 64.899, 58.361 64.225 C 59.386 62.567, 58.519 62.669, 57.105 64.373 M 377 65 C 377 66.100, 377.498 67, 378.107 67 C 378.736 67, 378.934 66.269, 378.564 65.306 C 377.960 63.732, 378.042 63.728, 379.730 65.255 C 380.976 66.383, 382.009 66.606, 383.023 65.965 C 384.194 65.224, 384.034 65.027, 382.250 65.015 C 381.012 65.007, 380 64.550, 380 64 C 380 63.450, 379.325 63, 378.500 63 C 377.667 63, 377 63.889, 377 65 M 220 67.603 C 220 67.900, 220.675 68.818, 221.500 69.643 C 222.801 70.944, 223 70.949, 223 69.678 C 223 68.873, 222.325 67.955, 221.500 67.638 C 220.675 67.322, 220 67.306, 220 67.603 M 247 72.882 C 247 76.182, 246.541 79.166, 245.980 79.512 C 245.419 79.859, 241.356 80.274, 236.951 80.434 C 225.639 80.845, 225.774 82, 237.133 82 C 243.163 82, 247.036 81.564, 247.800 80.800 C 249.247 79.353, 249.413 68.373, 248 67.500 C 247.376 67.114, 247 69.137, 247 72.882 M 383.992 67.750 C 383.988 68.162, 382.890 69.007, 381.552 69.628 C 379.628 70.519, 379.010 70.467, 378.591 69.378 C 378.301 68.620, 377.529 68, 376.876 68 C 376.147 68, 376.350 68.729, 377.404 69.894 C 378.971 71.626, 379.370 71.662, 382.059 70.321 C 384.569 69.068, 386.090 67, 384.500 67 C 384.225 67, 383.996 67.338, 383.992 67.750 M 440 68.974 C 440 69.510, 438.650 70.647, 437 71.500 C 434.760 72.658, 434.009 73.741, 434.035 75.776 C 434.071 78.491, 434.075 78.493, 435.321 76.250 C 436.517 74.096, 436.653 74.074, 438.481 75.750 C 440.302 77.419, 440.329 77.418, 439.053 75.726 C 437.451 73.602, 438.210 72.343, 439.879 74.354 C 440.732 75.382, 440.756 76.511, 439.969 78.581 C 438.934 81.303, 438.963 81.343, 440.777 79.702 C 441.811 78.766, 443.635 78, 444.829 78 C 447.190 78, 447.475 77.300, 446.038 75.028 C 445.241 73.767, 445.013 73.803, 444.447 75.278 C 443.381 78.056, 441.907 77.252, 442.562 74.250 C 443.024 72.132, 442.917 71.845, 442.096 73 C 441.149 74.333, 441.016 74.333, 440.900 73 C 440.828 72.175, 440.850 70.713, 440.948 69.750 C 441.046 68.787, 440.872 68, 440.563 68 C 440.253 68, 440 68.438, 440 68.974 M 468 73.891 L 468 79.781 464.250 80.257 C 462.188 80.518, 458.137 80.680, 455.249 80.616 C 452.361 80.552, 449.998 80.838, 449.999 81.250 C 449.999 81.662, 454.227 82, 459.393 82 C 467.036 82, 468.899 81.705, 469.393 80.418 C 470.390 77.819, 470.080 68, 469 68 C 468.447 68, 468 70.630, 468 73.891 M 87.245 70.250 C 87.471 70.938, 88.684 71.650, 89.939 71.834 C 91.405 72.049, 91.979 71.774, 91.542 71.068 C 91.168 70.463, 90.443 70.226, 89.931 70.543 C 89.419 70.859, 89 70.641, 89 70.059 C 89 69.477, 88.513 69, 87.917 69 C 87.321 69, 87.019 69.563, 87.245 70.250 M 305.565 69.895 C 305.260 70.388, 305.721 71.063, 306.588 71.395 C 309.037 72.335, 311.185 72.108, 310.490 70.984 C 310.144 70.425, 309.443 70.226, 308.931 70.543 C 308.419 70.859, 308 70.641, 308 70.059 C 308 68.770, 306.330 68.657, 305.565 69.895 M 215.750 71.162 C 213.535 71.971, 213.003 72.782, 213.015 75.333 C 213.027 77.648, 213.278 78.109, 213.949 77.048 C 214.455 76.249, 214.646 75.237, 214.375 74.798 C 214.104 74.359, 214.359 74, 214.941 74 C 215.523 74, 216 74.450, 216 75 C 216 75.550, 216.477 76, 217.059 76 C 217.641 76, 217.797 75.480, 217.405 74.845 C 216.952 74.114, 217.131 73.963, 217.894 74.435 C 218.821 75.008, 218.799 75.545, 217.799 76.781 C 216.723 78.108, 216.733 78.243, 217.857 77.567 C 218.906 76.935, 219.065 77.288, 218.555 79.125 C 217.952 81.300, 218.015 81.353, 219.308 79.750 C 220.085 78.787, 221.716 78, 222.932 78 C 224.148 78, 225.818 77.325, 226.643 76.500 C 227.468 75.675, 227.751 75, 227.271 75 C 226.792 75, 225.860 75.540, 225.200 76.200 C 224.267 77.133, 224 77.089, 224 76 C 224 74.911, 223.733 74.867, 222.800 75.800 C 222.140 76.460, 221.150 77, 220.600 77 C 220.044 77, 220.133 76.467, 220.800 75.800 C 222.284 74.316, 222.370 72, 220.941 72 C 220.359 72, 220.203 72.520, 220.595 73.155 C 221.052 73.893, 220.868 74.037, 220.086 73.553 C 219.414 73.138, 219.105 72.168, 219.400 71.399 C 220.015 69.798, 219.564 69.769, 215.750 71.162 M 382.250 71.662 C 380.240 72.473, 380.806 75.469, 383.436 77.940 L 385.873 80.229 385.274 77.864 C 384.945 76.564, 384.186 75.128, 383.588 74.674 C 382.822 74.092, 382.870 73.698, 383.750 73.341 C 384.438 73.062, 385 72.421, 385 71.917 C 385 70.932, 384.236 70.861, 382.250 71.662 M 378 73.859 C 378 74.397, 377.727 75.548, 377.393 76.418 C 376.976 77.506, 377.366 78.009, 378.643 78.030 C 380.429 78.060, 380.431 78.101, 378.680 79.119 C 376.996 80.099, 376.984 80.268, 378.524 81.394 C 379.439 82.063, 380.258 83.780, 380.344 85.209 C 380.430 86.639, 380.823 87.609, 381.217 87.365 C 381.612 87.122, 381.659 85.544, 381.322 83.860 C 380.920 81.849, 381.158 80.520, 382.017 79.990 C 383.069 79.339, 383.024 78.881, 381.781 77.638 C 380.933 76.790, 379.936 76.398, 379.566 76.767 C 379.197 77.137, 379.174 76.711, 379.515 75.821 C 379.857 74.931, 379.656 73.905, 379.068 73.542 C 378.481 73.179, 378 73.322, 378 73.859 M 80 74.893 C 80 76.236, 82.252 76.812, 84.446 76.030 C 86.234 75.392, 86.194 75.283, 83.946 74.682 C 80.663 73.803, 80 73.839, 80 74.893 M 299 74.834 C 299 76.565, 300.674 77.061, 303.158 76.065 C 304.754 75.426, 304.969 75.107, 303.832 75.063 C 302.914 75.029, 301.452 74.727, 300.582 74.393 C 299.712 74.059, 299 74.258, 299 74.834 M 87 76.023 C 87 76.595, 87.694 77.329, 88.543 77.655 C 90.889 78.555, 91.164 77.583, 88.955 76.204 C 87.717 75.431, 87 75.365, 87 76.023 M 386.730 77.075 C 387.320 79.331, 388.667 79.656, 388.667 77.543 C 388.667 76.742, 388.118 75.875, 387.447 75.618 C 386.656 75.315, 386.404 75.828, 386.730 77.075 M 176 90.859 C 176 101.055, 176.047 101, 167.334 101 C 162.621 101, 160.109 101.368, 160.500 102 C 161.387 103.435, 175.336 103.264, 176.800 101.800 C 178.269 100.331, 178.441 85.391, 177 84.500 C 176.370 84.111, 176 86.462, 176 90.859 M 392.793 92.717 L 392.500 100.500 385.720 100.796 C 381.744 100.970, 379.183 101.487, 379.529 102.046 C 380.385 103.433, 392.374 103.226, 393.800 101.800 C 395.239 100.361, 395.447 86.394, 394.043 85.526 C 393.473 85.174, 392.967 88.085, 392.793 92.717 M 54.813 93 L 54.500 100.500 47.750 100.796 C 38.541 101.199, 39.174 103, 48.525 103 C 55.682 103, 56.097 102.875, 57.025 100.435 C 58.407 96.800, 58.172 90.933, 56.527 88 C 55.214 85.657, 55.106 85.972, 54.813 93 M 292.703 88.593 C 291.223 90.576, 290.025 91, 285.894 91 C 282.807 91, 281.119 91.384, 281.500 92 C 281.840 92.550, 284.511 93, 287.437 93 C 293.165 93, 295.391 91.538, 294.827 88.148 C 294.521 86.312, 294.385 86.340, 292.703 88.593 M 73.750 89.083 C 72.515 90.436, 70.659 91, 67.441 91 C 64.656 91, 63.122 91.389, 63.500 92 C 63.840 92.550, 66.316 93, 69.002 93 C 72.916 93, 74.196 92.558, 75.443 90.777 C 78.197 86.847, 76.940 85.589, 73.750 89.083 M 273.801 93.523 L 273.500 100.500 266.218 100.794 C 257.257 101.157, 257.474 103, 266.477 103 C 275.776 103, 276.003 102.824, 275.985 95.643 C 275.962 86.570, 274.175 84.836, 273.801 93.523 M 252 92.918 C 252 101.471, 253.171 101, 231.893 101 C 219.964 101, 213 101.369, 213 102 C 213 103.526, 251.266 103.334, 252.800 101.800 C 254.255 100.345, 254.434 88, 253 88 C 252.450 88, 252 90.213, 252 92.918 M 472.798 94.250 L 472.500 100.500 453.204 100.772 C 440.949 100.944, 434.129 101.400, 434.513 102.022 C 435.436 103.515, 472.293 103.307, 473.800 101.800 C 475.222 100.378, 475.444 88, 474.048 88 C 473.524 88, 472.961 90.813, 472.798 94.250" stroke="none" fill="#fafbfb" fill-rule="evenodd"/></svg>